<svg xmlns="http://www.w3.org/2000/svg" viewBox="0 0 96.65 96.65"><defs><style>.cls-1{fill:#f39322;}.cls-2{fill:#fff;}.cls-3{fill:#f59d38;}.cls-4{fill:#f8ae5b;}.cls-5{fill:#f8b365;}.cls-6{fill:#fbca93;}.cls-7{fill:#fccf9d;}.cls-8{fill:#fdddba;}.cls-9{fill:#f9b56a;}.cls-10{fill:#f6a241;}.cls-11{fill:#f8b162;}.cls-12{fill:#fee1c1;}.cls-13{fill:#fac180;}.cls-14{fill:#fbc991;}</style></defs><g id="Layer_2" data-name="Layer 2"><g id="Layer_1-2" data-name="Layer 1"><path class="cls-1" d="M47.56,0H48a7.94,7.94,0,0,0,1.19,0h.56a2.52,2.52,0,0,0,.67,0h.16a6.3,6.3,0,0,0,1.23.07,32.07,32.07,0,0,1,6.62.83,47.85,47.85,0,0,1,9.84,3.23,47.1,47.1,0,0,1,8.56,5,54.08,54.08,0,0,1,4.45,3.69,49.08,49.08,0,0,1,10.88,15,48.58,48.58,0,0,1,3.62,11,40.57,40.57,0,0,1,.65,4.24c.06.69.06,1.38.09,2.07.06,1.57,0,3.14,0,4.7A42.22,42.22,0,0,1,94.73,62.1a49.53,49.53,0,0,1-2.9,7.45,47.61,47.61,0,0,1-6.19,9.61,46.93,46.93,0,0,1-4,4.32,48.52,48.52,0,0,1-10,7.26,48,48,0,0,1-17.25,5.63c-1.07.13-2.14.14-3.21.19-1.35.06-2.71,0-4.06,0a42.13,42.13,0,0,1-12.56-1.85,49.94,49.94,0,0,1-7.67-3,48.41,48.41,0,0,1-8.79-5.55,46.64,46.64,0,0,1-5-4.56A49.27,49.27,0,0,1,2.21,63.36a44.33,44.33,0,0,1-2-9.17C.07,53.08.06,52,.05,50.83v-1.4a1.89,1.89,0,0,0,0-.58V47.4a2.9,2.9,0,0,0,0-.72A2.37,2.37,0,0,0,0,46v-.24a17.94,17.94,0,0,0,.11-2.07,31.42,31.42,0,0,1,.79-5.63,47.66,47.66,0,0,1,3-9.24A47.13,47.13,0,0,1,9,20a54.17,54.17,0,0,1,3.88-4.71A48.36,48.36,0,0,1,32.33,2.53,50.75,50.75,0,0,1,40.65.41,26.51,26.51,0,0,1,44.42.09c.47,0,.94-.07,1.41,0h.93A3.07,3.07,0,0,0,47.56,0Z"/><path class="cls-2" d="M.08,50.86A47.82,47.82,0,0,0,16.32,84.44,47.1,47.1,0,0,0,39,95.65a46.45,46.45,0,0,0,13.36.73A47.68,47.68,0,0,0,80.11,84.55a47.35,47.35,0,0,0,15-24.74,45.78,45.78,0,0,0,1.31-14.56A47.74,47.74,0,0,0,79.62,11.6,48.3,48.3,0,0,0,50.87.08c-.09,0-.2,0-.25-.07H96.27c.29,0,.38.05.38.36q0,48,0,95.9c0,.33-.06.39-.39.39q-47.92,0-95.86,0c-.35,0-.4-.09-.4-.42Q0,73.55,0,50.86C0,50.8.06,50.8.08,50.86Z"/><path class="cls-2" d="M45.78.07a47.74,47.74,0,0,0-29.43,12A47.39,47.39,0,0,0,1.16,37.87,46.72,46.72,0,0,0,.09,45.5c0,.1.05.22-.08.29Q0,23.08,0,.37C0,.07.07,0,.37,0H45.79C45.85,0,45.84.06,45.78.07Z"/><path class="cls-3" d="M49.26.08A3.86,3.86,0,0,1,48,0h1.21s0,0,0,0S49.27.08,49.26.08Z"/><path class="cls-4" d="M47.56,0a1.71,1.71,0,0,1-.81.07c-.06,0,0-.06,0-.07Z"/><path class="cls-5" d="M.07,46.67A1.31,1.31,0,0,1,0,47.4v-.73Q0,46.6.07,46.67Z"/><path class="cls-6" d="M50.46,0c-.2.17-.43,0-.64.06s-.06,0,0-.06Z"/><path class="cls-7" d="M.07,46.67H0V46C.18,46.23.05,46.45.07,46.67Z"/><path class="cls-8" d="M45.78.07V0h.56q.09,0,0,.06Z"/><path class="cls-9" d="M49.81,0V.07h-.56s0,0,0-.07Z"/><path class="cls-10" d="M0,48.85a.93.93,0,0,1,.07.57s0,0-.07,0Z"/><path class="cls-11" d="M0,49.41H.08V50C.05,50,0,50,0,50Z"/><path class="cls-12" d="M.08,50.86H0v-.48c0-.06,0-.06.07,0Z"/><path class="cls-13" d="M46.35.07V0h.41a.15.15,0,0,0,0,.07Z"/><path class="cls-14" d="M.08,50.38H0V50H.08Z"/><path class="cls-2" d="M62.84,49.2a15.59,15.59,0,0,1,2.83,1.91,8.1,8.1,0,0,1,2.83,7.22,14.76,14.76,0,0,1-2.89,7.6A10.08,10.08,0,0,1,59,69.69a23.67,23.67,0,0,1-7.13,0c-.88-.12-1.75-.27-2.62-.43-.27,0-.33.06-.39.3-.65,2.65-1.32,5.3-2,7.94-.12.5-.12.5-.64.37-1.46-.36-2.91-.73-4.37-1.07-.35-.08-.4-.2-.31-.54.67-2.61,1.31-5.24,2-7.86.08-.32,0-.41-.3-.49-1.17-.29-2.33-.59-3.49-.91-.32-.09-.38,0-.44.29-.66,2.65-1.33,5.3-2,8-.07.3-.14.39-.47.3-1.52-.4-3-.77-4.56-1.13-.3-.08-.34-.18-.27-.47.67-2.67,1.33-5.35,2-8,.08-.32,0-.44-.3-.52l-9.93-2.5c-.27-.06-.34-.12-.21-.41.8-1.81,1.58-3.63,2.36-5.45.1-.23.2-.28.45-.22,1.25.33,2.49.72,3.78.93a1.85,1.85,0,0,0,2.21-1.44c.7-2.77,1.39-5.53,2.08-8.3q1.88-7.5,3.74-15a2.64,2.64,0,0,0-1.56-3.19,18.45,18.45,0,0,0-3.09-.88c-.43-.11-.85-.22-1.29-.3-.24,0-.27-.13-.21-.34.43-1.69.86-3.38,1.26-5.07.07-.3.21-.28.42-.23l3.28.81c2.22.56,4.44,1.1,6.66,1.67.35.09.44,0,.52-.33.64-2.63,1.3-5.25,1.94-7.88.08-.35.22-.39.53-.3,1.49.38,3,.75,4.48,1.11.33.08.38.2.3.51-.66,2.59-1.29,5.19-2,7.79-.08.28,0,.36.25.42,1.18.26,2.35.54,3.52.84.32.08.43,0,.5-.32.63-2.57,1.29-5.14,1.92-7.71.07-.3.15-.36.45-.28,1.52.4,3,.77,4.56,1.13.32.08.36.19.28.49-.67,2.65-1.32,5.3-2,8-.08.31,0,.41.28.51a23.14,23.14,0,0,1,6.44,3.22,9.32,9.32,0,0,1,3.63,5c.84,2.92-.13,7.83-3,10a9.39,9.39,0,0,1-3.17,1.52Z"/><path class="cls-1" d="M50.87,62.28a30.39,30.39,0,0,1-6.7-1l-2.68-.68c-.26-.06-.33-.15-.26-.41q1.4-5.52,2.77-11c0-.16,0-.31.29-.25a48.21,48.21,0,0,1,8,2.29,11.68,11.68,0,0,1,3.76,2.35A4.93,4.93,0,0,1,53.7,62,11.7,11.7,0,0,1,50.87,62.28Z"/><path class="cls-1" d="M53.42,45a27.72,27.72,0,0,1-6.85-1.13l-.11,0c-.34-.12-.85-.06-1-.34s.11-.66.19-1c.77-3.07,1.53-6.13,2.3-9.19,0-.16,0-.36.3-.29a34.48,34.48,0,0,1,6.91,2,9.25,9.25,0,0,1,2.47,1.57,4.51,4.51,0,0,1,1.43,4.87,4.45,4.45,0,0,1-3.63,3.29A9.83,9.83,0,0,1,53.42,45Z"/></g></g></svg>