<svg xmlns="http://www.w3.org/2000/svg" width="1146" height="1046" viewBox="0 0 1146 1046" fill="none">
    <g clip-path="url(#clip0_64_1293)">
        <path d="M372.106 789.915L173.76 904.875" stroke="#6DFFEC" stroke-width="2.54" stroke-miterlimit="10" />
        <path d="M803.574 530.854L782.663 542.973" stroke="#6DFFEC" stroke-width="2.54" stroke-miterlimit="10" />
        <path d="M781.916 795.553L990.055 931.088" stroke="#6DFFEC" stroke-width="2.54" stroke-miterlimit="10" />
        <path d="M371.986 527.518L389.344 538.805" stroke="#6DFFEC" stroke-width="2.54" stroke-miterlimit="10" />
        <path
            d="M253.311 612.807L398.185 532.734L528.196 460.876C563.104 441.577 605.53 441.794 640.246 461.442L911.095 614.722C952.99 638.43 952.918 698.819 910.963 722.418L639.523 875.156C602.41 896.045 557.045 895.864 520.089 874.686L252.468 721.346C210.343 697.205 210.813 636.286 253.299 612.795L253.311 612.807Z"
            stroke="#6DFFEC" stroke-width="2.28" stroke-miterlimit="10" />
        <path
            d="M829.292 715.72V712.938C829.292 712.938 829.292 712.877 829.292 712.853L828.051 603.362L335.535 605.531L334.343 707.517H334.596C332.958 723.37 339.992 740.018 355.833 749.089L539.471 854.316C564.827 868.844 595.953 868.964 621.43 854.629L807.682 749.824C821.137 742.247 828.316 729.164 829.208 715.72H829.304H829.292Z"
            fill="url(#paint0_linear_64_1293)" stroke="black" stroke-width="4.74" stroke-miterlimit="10" />
        <path
            d="M356.399 567.223L545.024 462.972C568.983 449.733 598.085 449.878 621.912 463.358L807.766 568.536C836.52 584.811 836.459 626.239 807.67 642.442L621.418 747.246C595.953 761.582 564.815 761.461 539.459 746.933L355.821 641.707C326.911 625.143 327.236 583.341 356.399 567.223Z"
            fill="url(#paint1_linear_64_1293)" stroke="black" stroke-width="2.97" stroke-miterlimit="10" />
        <path
            d="M356.399 567.223L545.024 462.972C568.983 449.733 598.085 449.878 621.912 463.358L807.766 568.536C836.52 584.811 836.459 626.239 807.67 642.442L621.418 747.246C595.953 761.582 564.815 761.461 539.459 746.933L355.821 641.707C326.911 625.143 327.236 583.341 356.399 567.223Z"
            fill="url(#paint2_linear_64_1293)" stroke="black" stroke-width="2.97" stroke-linecap="round"
            stroke-linejoin="round" />
        <path
            d="M485.782 589.208L566.14 544.793C576.343 539.155 588.75 539.215 598.892 544.961L678.069 589.774C690.32 596.701 690.296 614.361 678.033 621.264L598.676 665.92C587.822 672.028 574.56 671.98 563.755 665.788L485.517 620.963C473.207 613.903 473.339 596.099 485.758 589.232L485.782 589.208Z"
            fill="#E5FFFD" stroke="black" stroke-width="2.97" stroke-miterlimit="10" />
        <path
            d="M485.782 606.109L566.14 561.693C576.343 556.056 588.75 556.116 598.892 561.862L678.069 606.675C681.286 608.494 683.647 611.048 685.164 613.963C689.441 605.808 687.092 594.894 678.069 589.786L598.892 544.973C588.738 539.227 576.343 539.166 566.14 544.804L485.782 589.22C476.604 594.291 474.146 605.338 478.435 613.602C480 610.602 482.434 607.952 485.782 606.109Z"
            fill="#E5FFFD" stroke="black" stroke-width="2.97" stroke-miterlimit="10" />
        <path
            d="M760.222 739.994L711.268 768.617C701.763 774.17 691.729 771.182 688.85 761.943L688.561 761.015C685.682 751.775 691.091 739.922 700.643 734.549L749.898 706.854C759.451 701.481 769.425 704.276 772.183 713.082L772.46 713.961C775.207 722.779 769.738 734.429 760.246 739.982L760.222 739.994Z"
            fill="#E5FFFD" stroke="black" stroke-width="2.97" stroke-miterlimit="10" />
        <path
            d="M760.222 739.994L711.268 768.617C701.763 774.17 691.729 771.182 688.85 761.943L688.561 761.015C685.682 751.775 691.091 739.922 700.643 734.549L749.898 706.854C759.451 701.481 769.425 704.276 772.183 713.082L772.46 713.961C775.207 722.779 769.738 734.429 760.246 739.982L760.222 739.994Z"
            stroke="black" stroke-width="2.97" stroke-miterlimit="10" />
        <path
            d="M393.753 735.224L442.707 763.846C452.211 769.4 462.245 766.412 465.124 757.172L465.413 756.245C468.292 747.005 462.883 735.151 453.331 729.778L404.076 702.084C394.524 696.711 384.55 699.506 381.791 708.312L381.514 709.191C378.768 718.009 384.236 729.658 393.729 735.211L393.753 735.224Z"
            fill="#E5FFFD" stroke="black" stroke-width="2.97" stroke-miterlimit="10" />
        <path
            d="M393.753 735.224L442.707 763.846C452.211 769.4 462.245 766.412 465.124 757.172L465.413 756.245C468.292 747.005 462.883 735.151 453.331 729.778L404.076 702.084C394.524 696.711 384.55 699.506 381.791 708.312L381.514 709.191C378.768 718.009 384.236 729.658 393.729 735.211L393.753 735.224Z"
            stroke="black" stroke-width="2.97" stroke-miterlimit="10" />
        <path opacity="0.8"
            d="M794.227 852.376L882.221 797.444L769.473 708.384C764.293 704.276 755.813 704.337 750.549 708.324L699.788 737.127C685.839 747.475 686.586 763.136 695.704 770.713L794.239 852.376H794.227Z"
            fill="url(#paint3_linear_64_1293)" />
        <path opacity="0.8"
            d="M359.808 847.606L271.813 792.674L384.562 703.614C389.741 699.506 398.222 699.566 403.486 703.553L454.247 732.357C468.196 742.705 467.449 758.365 458.33 765.942L359.796 847.606H359.808Z"
            fill="url(#paint4_linear_64_1293)" />
        <path opacity="0.8"
            d="M903.314 1.19261H739.684L737.937 230.992L432.504 233.98L424.421 0L252.697 1.19261L475.736 601.64C475.821 608.868 479.567 615.553 485.686 619.396L564.514 664.101C575.222 670.245 588.401 670.233 599.097 664.065L676.552 621.167C683.201 616.975 687.224 609.651 687.212 601.784L903.314 1.19261Z"
            fill="url(#paint5_linear_64_1293)" />
        <path
            d="M203.526 1044.24C314.958 1044.24 405.293 987.513 405.293 917.535C405.293 847.558 314.958 790.83 203.526 790.83C92.0928 790.83 1.75867 847.558 1.75867 917.535C1.75867 987.513 92.0928 1044.24 203.526 1044.24Z"
            stroke="#6DFFEC" stroke-width="2.92" stroke-miterlimit="10" />
        <path
            d="M942.474 1044.24C1053.91 1044.24 1144.24 987.513 1144.24 917.535C1144.24 847.558 1053.91 790.83 942.474 790.83C831.042 790.83 740.707 847.558 740.707 917.535C740.707 987.513 831.042 1044.24 942.474 1044.24Z"
            stroke="#6DFFEC" stroke-width="2.92" stroke-miterlimit="10" />
        <path
            d="M917.01 558.2C1010.59 558.2 1086.45 510.565 1086.45 451.805C1086.45 393.045 1010.59 345.41 917.01 345.41C823.433 345.41 747.574 393.045 747.574 451.805C747.574 510.565 823.433 558.2 917.01 558.2Z"
            stroke="#6DFFEC" stroke-width="2.45" stroke-miterlimit="10" />
        <path
            d="M252.925 558.2C346.502 558.2 422.361 510.565 422.361 451.805C422.361 393.045 346.502 345.41 252.925 345.41C159.348 345.41 83.4894 393.045 83.4894 451.805C83.4894 510.565 159.348 558.2 252.925 558.2Z"
            stroke="#6DFFEC" stroke-width="2.45" stroke-miterlimit="10" />
        <path
            d="M377.286 878.77L354.122 832.729H325.802C293.387 815.442 250.528 804.913 203.526 804.913C156.523 804.913 113.652 815.442 81.2488 832.729H52.9292L29.7652 878.77C26.7055 884.842 24.3807 891.251 22.8509 897.876C21.6343 903.177 20.502 909.272 20.502 913.573C20.502 973.589 102.449 1022.23 203.526 1022.23C304.602 1022.23 386.549 973.577 386.549 913.573C386.549 909.272 385.417 903.177 384.2 897.876C382.683 891.251 380.346 884.842 377.286 878.77Z"
            fill="url(#paint6_linear_64_1293)" stroke="black" stroke-width="2.97" stroke-miterlimit="10" />
        <path
            d="M46.1835 846.209C43.413 851.702 41.305 857.509 39.9197 863.508C38.8115 868.302 37.7876 873.82 37.7876 877.723C37.7876 932.065 111.99 976.119 203.514 976.119C295.037 976.119 369.239 932.065 369.239 877.723C369.239 873.832 368.216 868.302 367.107 863.508C366.927 862.713 366.722 861.918 366.517 861.123"
            stroke="white" stroke-width="0.5" stroke-linecap="round" stroke-linejoin="round" />
        <path
            d="M37.3058 864.014C34.3786 869.82 32.1502 875.952 30.6926 882.288C29.5242 887.36 28.4401 893.19 28.4401 897.31C28.4401 954.724 106.834 1001.26 203.526 1001.26C300.217 1001.26 378.611 954.724 378.611 897.31C378.611 893.19 377.527 887.36 376.359 882.288C376.081 881.096 375.78 879.915 375.455 878.735"
            stroke="white" stroke-width="0.5" stroke-linecap="round" stroke-linejoin="round" />
        <path
            d="M203.827 950.736C290.551 950.736 360.856 909.455 360.856 858.532C360.856 807.609 290.551 766.328 203.827 766.328C117.102 766.328 46.7979 807.609 46.7979 858.532C46.7979 909.455 117.102 950.736 203.827 950.736Z"
            fill="url(#paint7_linear_64_1293)" stroke="black" stroke-width="4.18" stroke-linecap="round"
            stroke-linejoin="round" />
        <path
            d="M203.742 927.848C274.102 927.848 331.861 898.346 337.908 860.737C331.861 823.128 274.102 793.626 203.742 793.626C133.383 793.626 75.6234 823.128 69.5764 860.737C75.6234 898.346 133.383 927.848 203.742 927.848Z"
            fill="#DEFCFF" stroke="black" stroke-width="2.97" stroke-linecap="round" stroke-linejoin="round" />
        <path
            d="M203.742 793.625C274.102 793.625 331.861 823.127 337.908 860.736C338.258 858.58 338.438 856.4 338.438 854.195C338.438 813.526 278.125 780.555 203.73 780.555C129.336 780.555 69.0223 813.526 69.0223 854.195C69.0223 856.4 69.2151 858.58 69.5524 860.736C75.5993 823.127 133.359 793.625 203.718 793.625H203.742Z"
            fill="#00AEEF" stroke="black" stroke-width="3.46" stroke-linecap="round" stroke-linejoin="round" />
        <path
            d="M1116.23 883.577L1093.07 837.535H1064.75C1032.34 820.248 989.477 809.72 942.474 809.72C895.472 809.72 852.601 820.248 820.198 837.535H791.878L768.714 883.577C765.654 889.648 763.329 896.057 761.8 902.683C760.583 907.983 759.451 914.079 759.451 918.379C759.451 978.395 841.398 1027.04 942.474 1027.04C1043.55 1027.04 1125.5 978.383 1125.5 918.379C1125.5 914.079 1124.37 907.983 1123.15 902.683C1121.63 896.057 1119.29 889.648 1116.23 883.577Z"
            fill="url(#paint8_linear_64_1293)" stroke="black" stroke-width="2.97" stroke-miterlimit="10" />
        <path
            d="M785.144 851.016C782.374 856.509 780.266 862.315 778.881 868.314C777.772 873.109 776.748 878.626 776.748 882.529C776.748 936.871 850.95 980.925 942.474 980.925C1034 980.925 1108.2 936.871 1108.2 882.529C1108.2 878.638 1107.18 873.109 1106.07 868.314C1104.69 862.315 1102.57 856.521 1099.8 851.016"
            stroke="white" stroke-width="0.5" stroke-miterlimit="10" />
        <path
            d="M770.437 883.939C770.147 884.987 769.882 886.035 769.641 887.095C768.473 892.167 767.389 897.997 767.389 902.117C767.389 959.531 845.783 1006.07 942.474 1006.07C1039.17 1006.07 1117.56 959.531 1117.56 902.117C1117.56 897.997 1116.48 892.167 1115.31 887.095C1113.85 880.758 1111.62 874.627 1108.69 868.82"
            stroke="white" stroke-width="0.5" stroke-linecap="round" stroke-linejoin="round" />
        <path
            d="M942.776 955.543C1029.5 955.543 1099.8 914.262 1099.8 863.339C1099.8 812.416 1029.5 771.135 942.776 771.135C856.051 771.135 785.747 812.416 785.747 863.339C785.747 914.262 856.051 955.543 942.776 955.543Z"
            fill="url(#paint9_linear_64_1293)" stroke="black" stroke-width="4.18" stroke-linecap="round"
            stroke-linejoin="round" />
        <path
            d="M942.776 955.543C1029.5 955.543 1099.8 914.262 1099.8 863.339C1099.8 812.416 1029.5 771.135 942.776 771.135C856.051 771.135 785.747 812.416 785.747 863.339C785.747 914.262 856.051 955.543 942.776 955.543Z"
            stroke="black" stroke-width="2.97" stroke-linecap="round" stroke-linejoin="round" />
        <path
            d="M942.691 932.655C1013.05 932.655 1070.81 903.153 1076.86 865.544C1070.81 827.935 1013.05 798.433 942.691 798.433C872.332 798.433 814.572 827.935 808.525 865.544C814.572 903.153 872.332 932.655 942.691 932.655Z"
            fill="#DEFCFF" stroke="black" stroke-width="2.97" stroke-linecap="round" stroke-linejoin="round" />
        <path
            d="M942.691 798.432C1013.05 798.432 1070.81 827.934 1076.86 865.543C1077.21 863.387 1077.39 861.206 1077.39 859.002C1077.39 818.333 1017.07 785.361 942.679 785.361C868.284 785.361 807.971 818.333 807.971 859.002C807.971 861.206 808.164 863.387 808.501 865.543C814.548 827.934 872.308 798.432 942.667 798.432H942.691Z"
            fill="#00AEEF" stroke="black" stroke-width="3.46" stroke-linecap="round" stroke-linejoin="round" />
        <path
            d="M1068.05 419.219L1047.92 379.188H1023.31C995.139 364.154 957.881 355.011 917.022 355.011C876.162 355.011 838.905 364.166 810.73 379.188H786.12L765.992 419.219C763.342 424.495 761.306 430.061 759.981 435.819C758.921 440.421 757.933 445.721 757.933 449.468C757.933 501.629 829.16 543.924 917.022 543.924C1004.88 543.924 1076.11 501.641 1076.11 449.468C1076.11 445.721 1075.12 440.433 1074.06 435.819C1072.74 430.061 1070.71 424.495 1068.05 419.219Z"
            fill="url(#paint10_linear_64_1293)" stroke="black" stroke-width="2.58" stroke-miterlimit="10" />
        <path
            d="M780.242 390.922C777.833 395.704 776.002 400.74 774.797 405.956C773.833 410.124 772.942 414.919 772.942 418.316C772.942 465.55 837.435 503.846 916.998 503.846C996.56 503.846 1061.05 465.55 1061.05 418.316C1061.05 414.931 1060.16 410.136 1059.2 405.956C1057.99 400.74 1056.16 395.704 1053.75 390.922"
            stroke="white" stroke-width="0.5" stroke-miterlimit="10" />
        <path
            d="M767.425 419.677C767.196 420.544 766.967 421.411 766.775 422.291C765.763 426.7 764.811 431.759 764.811 435.349C764.811 485.258 832.954 525.71 917.01 525.71C1001.07 525.71 1069.21 485.258 1069.21 435.349C1069.21 431.771 1068.27 426.7 1067.24 422.291C1067.08 421.544 1066.9 420.809 1066.69 420.062"
            stroke="white" stroke-width="0.5" stroke-linecap="round" stroke-linejoin="round" />
        <path
            d="M917.263 481.776C992.651 481.776 1053.77 445.894 1053.77 401.631C1053.77 357.368 992.651 321.485 917.263 321.485C841.874 321.485 780.76 357.368 780.76 401.631C780.76 445.894 841.874 481.776 917.263 481.776Z"
            fill="url(#paint11_linear_64_1293)" stroke="black" stroke-width="3.63" stroke-linecap="round"
            stroke-linejoin="round" />
        <path
            d="M917.19 461.888C978.359 461.888 1028.55 436.241 1033.82 403.559C1028.55 370.865 978.359 345.229 917.19 345.229C856.022 345.229 805.827 370.877 800.563 403.559C805.827 436.253 856.022 461.888 917.19 461.888Z"
            fill="#DEFCFF" stroke="black" stroke-width="2.58" stroke-linecap="round" stroke-linejoin="round" />
        <path
            d="M917.19 345.217C978.359 345.217 1028.55 370.864 1033.82 403.546C1034.12 401.679 1034.29 399.775 1034.29 397.86C1034.29 362.503 981.864 333.845 917.202 333.845C852.541 333.845 800.117 362.503 800.117 397.86C800.117 399.775 800.286 401.667 800.587 403.546C805.851 370.852 856.046 345.217 917.214 345.217H917.19Z"
            fill="#00AEEF" stroke="black" stroke-width="3" stroke-linecap="round" stroke-linejoin="round" />
        <path opacity="0.8"
            d="M1031.64 20.3831H1009.52L1004.78 259.699L828.413 258.194L826.269 20.3831H792.107C792.107 20.3831 801.756 404.896 801.695 405.258C809.284 434.904 856.154 460.503 917.323 460.503C978.491 460.503 1023.58 435.868 1032.28 405.39C1032.22 405.017 1031.64 20.3711 1031.64 20.3711V20.3831Z"
            fill="url(#paint12_linear_64_1293)" />
        <path
            d="M826.546 237.834C828.919 288.634 859.72 329.4 897.785 335.267C901.832 335.893 934.319 336.736 938.042 334.809C977.251 314.535 986.887 286.683 984.261 230.474C982.189 186.179 933.006 131.945 933.006 131.945C933.006 131.945 909.879 131.945 900.651 132.379C857.094 134.415 823.92 181.625 826.546 237.834Z"
            fill="#000958" stroke="black" stroke-width="1.74" stroke-miterlimit="10" />
        <path
            d="M826.546 237.834C828.919 288.634 859.72 329.4 897.785 335.267C901.832 335.893 934.319 336.736 938.042 334.809C977.251 314.535 986.887 286.683 984.261 230.474C982.189 186.179 933.006 131.945 933.006 131.945C933.006 131.945 909.879 131.945 900.651 132.379C857.094 134.415 823.92 181.625 826.546 237.834Z"
            fill="url(#paint13_linear_64_1293)" stroke="black" stroke-width="1.74" stroke-miterlimit="10" />
        <mask id="mask0_64_1293" style="mask-type:luminance" maskUnits="userSpaceOnUse" x="826" y="131" width="159"
            height="206">
            <path
                d="M826.546 237.834C828.919 288.634 859.72 329.4 897.785 335.267C901.832 335.893 934.319 336.736 938.042 334.809C977.251 314.535 986.887 286.683 984.261 230.474C982.189 186.179 931.284 131.945 931.284 131.945C931.284 131.945 909.891 131.945 900.663 132.379C857.106 134.415 823.932 181.625 826.558 237.834H826.546Z"
                fill="white" />
        </mask>
        <g mask="url(#mask0_64_1293)">
            <path d="M922.105 139.764L804.924 153.4" stroke="black" stroke-width="1.74" stroke-miterlimit="10" />
            <path d="M922.719 152.942L805.478 165.374" stroke="black" stroke-width="1.74" stroke-miterlimit="10" />
            <path d="M923.334 166.109L806.044 177.349" stroke="black" stroke-width="1.74" stroke-miterlimit="10" />
            <path d="M923.948 179.288L806.598 189.323" stroke="black" stroke-width="1.74" stroke-miterlimit="10" />
            <path d="M924.562 192.467L807.164 201.297" stroke="black" stroke-width="1.74" stroke-miterlimit="10" />
            <path d="M925.177 205.646L807.718 213.26" stroke="black" stroke-width="1.74" stroke-miterlimit="10" />
            <path d="M925.791 218.812L808.272 225.233" stroke="black" stroke-width="1.74" stroke-miterlimit="10" />
            <path d="M926.417 231.992L808.838 237.208" stroke="black" stroke-width="1.74" stroke-miterlimit="10" />
            <path d="M927.032 245.171L809.393 249.182" stroke="black" stroke-width="1.74" stroke-miterlimit="10" />
            <path d="M927.646 258.35L809.947 261.156" stroke="black" stroke-width="1.74" stroke-miterlimit="10" />
            <path d="M928.26 271.517L810.513 273.131" stroke="black" stroke-width="1.74" stroke-miterlimit="10" />
            <path d="M928.875 284.695L811.067 285.105" stroke="black" stroke-width="1.74" stroke-miterlimit="10" />
            <path d="M929.489 297.874L811.633 297.079" stroke="black" stroke-width="1.74" stroke-miterlimit="10" />
            <path d="M930.103 311.041L812.187 309.054" stroke="black" stroke-width="1.74" stroke-miterlimit="10" />
            <path d="M930.718 324.22L812.741 321.027" stroke="black" stroke-width="1.74" stroke-miterlimit="10" />
        </g>
        <path
            d="M826.546 237.834C828.919 288.634 859.72 329.4 897.785 335.267C901.832 335.893 934.319 336.736 938.042 334.809C977.251 314.535 986.887 286.683 984.261 230.474C982.189 186.179 931.284 131.945 931.284 131.945C931.284 131.945 909.891 131.945 900.663 132.379C857.106 134.415 823.932 181.625 826.558 237.834H826.546Z"
            stroke="black" stroke-width="1.74" stroke-miterlimit="10" />
        <path
            d="M933.867 335.371C977.422 333.339 1010.61 286.13 1007.98 229.926C1005.36 173.721 967.931 129.806 924.376 131.837C880.822 133.868 847.639 181.077 850.259 237.282C852.88 293.486 890.313 337.402 933.867 335.371Z"
            fill="url(#paint14_linear_64_1293)" stroke="black" stroke-width="1.74" stroke-miterlimit="10" />
        <path
            d="M933.867 335.371C977.422 333.339 1010.61 286.13 1007.98 229.926C1005.36 173.721 967.931 129.806 924.376 131.837C880.822 133.868 847.639 181.077 850.259 237.282C852.88 293.486 890.313 337.402 933.867 335.371Z"
            stroke="black" stroke-width="1.74" stroke-miterlimit="10" />
        <path
            d="M933.9 315.169C968.822 313.541 995.428 275.682 993.326 230.609C991.224 185.537 961.211 150.319 926.289 151.948C891.367 153.576 864.761 191.435 866.862 236.507C868.964 281.58 898.978 316.798 933.9 315.169Z"
            fill="#1F2968" stroke="black" stroke-width="1.74" stroke-miterlimit="10" />
        <path
            d="M933.9 315.169C968.822 313.541 995.428 275.682 993.326 230.609C991.224 185.537 961.211 150.319 926.289 151.948C891.367 153.576 864.761 191.435 866.862 236.507C868.964 281.58 898.978 316.798 933.9 315.169Z"
            fill="#00A9B7" stroke="black" stroke-width="1.74" stroke-miterlimit="10" />
        <path
            d="M928.778 227.667C933.946 227.426 940.728 226.366 944.317 221.27C945.209 220.162 945.883 218.813 946.317 217.331C946.751 215.849 946.919 214.247 946.823 212.657C946.172 201.478 938.692 197.864 931.862 198.213L921.575 198.695L922.984 227.402L924.153 227.522C925.695 227.679 927.237 227.727 928.766 227.667H928.778ZM934.343 236.714L923.49 237.364L925.141 271.035L936.138 270.516C944.197 270.143 952.593 265.252 952.039 252.844C952.015 250.796 951.653 248.773 950.979 246.881C950.304 245.002 949.353 243.303 948.148 241.882C943.583 236.654 936.427 236.581 934.343 236.702V236.714Z"
            fill="#C87700" stroke="black" stroke-width="1.74" stroke-linecap="round" stroke-linejoin="round" />
        <path
            d="M971.854 171.639C958.796 157.508 941.968 150.329 925.02 151.654L924.345 151.69C907.252 153.22 892.436 163.086 881.426 179.433C870.429 195.768 866.044 216.922 867.526 238.557C869.019 260.193 876.259 280.564 889.377 294.911C902.494 309.27 918.503 316.775 935.62 315.498L936.271 315.462C949.075 314.33 961.23 308.415 971.228 298.477C981.214 288.538 988.574 275.022 992.392 259.627C996.199 244.231 996.283 227.655 992.633 211.995C988.983 196.334 981.756 182.288 971.866 171.639H971.854ZM960.676 275.167C956.761 277.347 952.557 278.624 948.256 278.925L946.943 278.985L946.919 280.648L947.678 296.875L938.066 297.32L937.222 279.311L927.754 279.841L928.586 297.73L918.901 298.188L918.046 280.371L901.772 281.286L901.398 273.251L907.445 272.974C908.674 272.914 909.806 272.239 910.625 271.095C911.444 269.951 911.854 268.445 911.77 266.903L908.782 206.2C908.638 203.177 906.638 201.153 903.916 201.285L897.833 201.032L897.315 189.829L913.769 189.058L912.914 170.603L922.454 170.157L923.322 188.636L932.862 188.191L931.995 169.675L941.535 169.23L942.402 187.757L944.161 187.673C947.461 187.516 964.193 191.094 965.024 207.995C965.891 226.631 953.629 229.221 953.436 229.799L952.786 229.896C953.484 229.956 969.806 233.124 970.698 254.724C971.035 264.084 967.771 270.938 960.712 275.155L960.676 275.167Z"
            fill="#C87700" stroke="black" stroke-width="1.74" stroke-linecap="round" stroke-linejoin="round" />
        <path
            d="M971.854 171.639C958.796 157.508 941.968 150.329 925.02 151.654L924.345 151.69C907.252 153.22 892.436 163.086 881.426 179.433C870.429 195.768 866.044 216.922 867.526 238.557C869.019 260.193 876.259 280.564 889.377 294.911C902.494 309.27 918.503 316.775 935.62 315.498L936.271 315.462C949.075 314.33 961.23 308.415 971.228 298.477C981.214 288.538 988.574 275.022 992.392 259.627C996.199 244.231 996.283 227.655 992.633 211.995C988.983 196.334 981.756 182.288 971.866 171.639H971.854ZM960.676 275.167C956.761 277.347 952.557 278.624 948.256 278.925L946.943 278.985L946.919 280.648L947.678 296.875L938.066 297.32L937.222 279.311L927.754 279.841L928.586 297.73L918.901 298.188L918.046 280.371L901.772 281.286L901.398 273.251L907.445 272.974C908.674 272.914 909.806 272.239 910.625 271.095C911.444 269.951 911.854 268.445 911.77 266.903L908.782 206.2C908.638 203.177 906.638 201.153 903.916 201.285L897.833 201.032L897.315 189.829L913.769 189.058L912.914 170.603L922.454 170.157L923.322 188.636L932.862 188.191L931.995 169.675L941.535 169.23L942.402 187.757L944.161 187.673C947.461 187.516 964.193 191.094 965.024 207.995C965.891 226.631 953.629 229.221 953.436 229.799L952.786 229.896C953.484 229.956 969.806 233.124 970.698 254.724C971.035 264.084 967.771 270.938 960.712 275.155L960.676 275.167Z"
            fill="#C87700" stroke="black" stroke-width="1.74" stroke-linecap="round" stroke-linejoin="round" />
        <path
            d="M403.968 418.978L383.839 378.947H359.229C331.054 363.913 293.797 354.77 252.937 354.77C212.078 354.77 174.821 363.925 146.645 378.947H122.036L101.907 418.978C99.2573 424.254 97.2216 429.819 95.8965 435.578C94.8365 440.179 93.8488 445.48 93.8488 449.226C93.8488 501.388 165.075 543.683 252.937 543.683C340.799 543.683 412.026 501.4 412.026 449.226C412.026 445.48 411.038 440.191 409.978 435.578C408.653 429.819 406.63 424.254 403.968 418.978Z"
            fill="url(#paint15_linear_64_1293)" stroke="black" stroke-width="2.58" stroke-miterlimit="10" />
        <path
            d="M116.158 390.669C113.748 395.451 111.917 400.487 110.713 405.703C109.749 409.871 108.858 414.666 108.858 418.063C108.858 465.297 173.351 503.593 252.913 503.593C332.476 503.593 396.969 465.297 396.969 418.063C396.969 414.678 396.078 409.883 395.114 405.703C393.909 400.487 392.078 395.451 389.669 390.669"
            stroke="white" stroke-width="0.5" stroke-miterlimit="10" />
        <path
            d="M103.329 419.496C103.1 420.339 102.895 421.182 102.69 422.037C101.679 426.446 100.727 431.506 100.727 435.096C100.727 485.005 168.87 525.457 252.925 525.457C336.981 525.457 405.124 485.005 405.124 435.096C405.124 431.518 404.184 426.446 403.16 422.037C402.908 420.965 402.643 419.893 402.341 418.833"
            stroke="white" stroke-width="0.5" stroke-linecap="round" stroke-linejoin="round" />
        <path
            d="M253.19 481.524C328.579 481.524 389.693 445.641 389.693 401.378C389.693 357.115 328.579 321.232 253.19 321.232C177.802 321.232 116.688 357.115 116.688 401.378C116.688 445.641 177.802 481.524 253.19 481.524Z"
            fill="url(#paint16_linear_64_1293)" stroke="black" stroke-width="3.63" stroke-linecap="round"
            stroke-linejoin="round" />
        <path
            d="M253.106 461.635C314.275 461.635 364.469 435.988 369.733 403.306C364.469 370.612 314.275 344.977 253.106 344.977C191.938 344.977 141.743 370.624 136.479 403.306C141.743 436 191.938 461.635 253.106 461.635Z"
            fill="#DEFCFF" stroke="black" stroke-width="2.58" stroke-linecap="round" stroke-linejoin="round" />
        <path
            d="M253.106 344.964C314.275 344.964 364.469 370.611 369.733 403.293C370.035 401.426 370.203 399.522 370.203 397.607C370.203 362.25 317.78 333.592 253.118 333.592C188.456 333.592 136.033 362.25 136.033 397.607C136.033 399.522 136.202 401.414 136.503 403.293C141.767 370.599 191.962 344.964 253.13 344.964H253.106Z"
            fill="#00AEEF" stroke="black" stroke-width="3" stroke-linecap="round" stroke-linejoin="round" />
        <path opacity="0.8"
            d="M367.505 20.1175H345.389L340.643 259.434L164.28 257.928L162.136 20.1175H127.974C127.974 20.1175 137.623 404.631 137.563 404.992C145.152 434.639 192.022 460.237 253.19 460.237C314.359 460.237 359.446 435.602 368.143 405.125C368.083 404.751 367.505 20.1055 367.505 20.1055V20.1175Z"
            fill="url(#paint17_linear_64_1293)" />
        <path
            d="M160.703 235.425C163.076 286.225 193.877 326.991 231.942 332.857C235.989 333.484 268.477 334.327 272.199 332.4C311.408 312.125 321.044 284.274 318.418 228.065C316.346 183.77 267.164 129.536 267.164 129.536C267.164 129.536 244.036 129.536 234.809 129.97C191.251 132.006 158.077 179.216 160.703 235.425Z"
            fill="#000958" stroke="black" stroke-width="1.74" stroke-miterlimit="10" />
        <path
            d="M160.703 235.425C163.076 286.225 193.877 326.991 231.942 332.857C235.989 333.484 268.477 334.327 272.199 332.4C311.408 312.125 321.044 284.274 318.418 228.065C316.346 183.77 267.164 129.536 267.164 129.536C267.164 129.536 244.036 129.536 234.809 129.97C191.251 132.006 158.077 179.216 160.703 235.425Z"
            fill="url(#paint18_linear_64_1293)" stroke="black" stroke-width="1.74" stroke-miterlimit="10" />
        <mask id="mask1_64_1293" style="mask-type:luminance" maskUnits="userSpaceOnUse" x="160" y="129" width="159"
            height="205">
            <path
                d="M160.703 235.425C163.076 286.225 193.877 326.991 231.942 332.857C235.989 333.484 268.477 334.327 272.199 332.4C311.408 312.125 321.044 284.274 318.418 228.065C316.347 183.77 265.441 129.536 265.441 129.536C265.441 129.536 244.048 129.536 234.821 129.97C191.263 132.006 158.089 179.216 160.715 235.425H160.703Z"
                fill="white" />
        </mask>
        <g mask="url(#mask1_64_1293)">
            <path d="M256.262 137.354L139.081 150.991" stroke="black" stroke-width="1.74" stroke-miterlimit="10" />
            <path d="M256.876 150.533L139.635 162.965" stroke="black" stroke-width="1.74" stroke-miterlimit="10" />
            <path d="M257.491 163.7L140.189 174.94" stroke="black" stroke-width="1.74" stroke-miterlimit="10" />
            <path d="M258.105 176.879L140.755 186.914" stroke="black" stroke-width="1.74" stroke-miterlimit="10" />
            <path d="M258.719 190.058L141.309 198.888" stroke="black" stroke-width="1.74" stroke-miterlimit="10" />
            <path d="M259.334 203.237L141.875 210.851" stroke="black" stroke-width="1.74" stroke-miterlimit="10" />
            <path d="M259.948 216.404L142.429 222.825" stroke="black" stroke-width="1.74" stroke-miterlimit="10" />
            <path d="M260.562 229.583L142.984 234.799" stroke="black" stroke-width="1.74" stroke-miterlimit="10" />
            <path d="M261.177 242.762L143.55 246.773" stroke="black" stroke-width="1.74" stroke-miterlimit="10" />
            <path d="M261.791 255.94L144.104 258.747" stroke="black" stroke-width="1.74" stroke-miterlimit="10" />
            <path d="M262.405 269.107L144.658 270.722" stroke="black" stroke-width="1.74" stroke-miterlimit="10" />
            <path d="M263.02 282.286L145.224 282.696" stroke="black" stroke-width="1.74" stroke-miterlimit="10" />
            <path d="M263.634 295.465L145.778 294.67" stroke="black" stroke-width="1.74" stroke-miterlimit="10" />
            <path d="M264.248 308.632L146.344 306.645" stroke="black" stroke-width="1.74" stroke-miterlimit="10" />
            <path d="M264.863 321.811L146.898 318.618" stroke="black" stroke-width="1.74" stroke-miterlimit="10" />
        </g>
        <path
            d="M160.703 235.425C163.076 286.225 193.877 326.991 231.942 332.857C235.989 333.484 268.477 334.327 272.199 332.4C311.408 312.125 321.044 284.274 318.418 228.065C316.347 183.77 265.441 129.536 265.441 129.536C265.441 129.536 244.048 129.536 234.821 129.97C191.263 132.006 158.089 179.216 160.715 235.425H160.703Z"
            stroke="black" stroke-width="1.74" stroke-miterlimit="10" />
        <path
            d="M268.021 332.952C311.575 330.92 344.758 283.711 342.138 227.507C339.517 171.302 302.084 127.387 258.53 129.418C214.975 131.449 181.792 178.658 184.413 234.863C187.034 291.067 224.466 334.983 268.021 332.952Z"
            fill="url(#paint19_linear_64_1293)" stroke="black" stroke-width="1.74" stroke-miterlimit="10" />
        <path
            d="M268.021 332.952C311.575 330.92 344.758 283.711 342.138 227.507C339.517 171.302 302.084 127.387 258.53 129.418C214.975 131.449 181.792 178.658 184.413 234.863C187.034 291.067 224.466 334.983 268.021 332.952Z"
            stroke="black" stroke-width="1.74" stroke-miterlimit="10" />
        <path
            d="M268.053 312.739C302.975 311.11 329.581 273.251 327.48 228.179C325.378 183.106 295.364 147.888 260.442 149.517C225.52 151.146 198.914 189.004 201.016 234.077C203.118 279.149 233.131 314.367 268.053 312.739Z"
            fill="#1F2968" stroke="black" stroke-width="1.74" stroke-miterlimit="10" />
        <path
            d="M268.053 312.739C302.975 311.11 329.581 273.251 327.48 228.179C325.378 183.106 295.364 147.888 260.442 149.517C225.52 151.146 198.914 189.004 201.016 234.077C203.118 279.149 233.131 314.367 268.053 312.739Z"
            fill="#00A9B7" stroke="black" stroke-width="1.74" stroke-miterlimit="10" />
        <path
            d="M262.923 225.258C268.091 225.017 274.873 223.957 278.462 218.861C279.354 217.753 280.028 216.404 280.462 214.922C280.896 213.44 281.064 211.838 280.968 210.248C280.317 199.069 272.837 195.455 266.007 195.804L255.72 196.286L257.129 224.993L258.298 225.113C259.84 225.27 261.381 225.318 262.911 225.258H262.923ZM268.489 234.305L257.635 234.955L259.286 268.625L270.283 268.107C278.342 267.734 286.738 262.843 286.184 250.435C286.16 248.387 285.798 246.363 285.124 244.472C284.449 242.593 283.498 240.894 282.293 239.473C277.728 234.245 270.572 234.172 268.489 234.293V234.305Z"
            fill="#C87700" stroke="black" stroke-width="1.74" stroke-linecap="round" stroke-linejoin="round" />
        <path
            d="M306.011 169.23C292.954 155.099 276.126 147.919 259.177 149.244L258.503 149.281C241.41 150.811 226.593 160.677 215.583 177.024C204.586 193.359 200.201 214.513 201.683 236.148C203.176 257.784 210.416 278.154 223.534 292.502C236.652 306.861 252.66 314.366 269.777 313.089L270.428 313.053C283.233 311.921 295.387 306.006 305.385 296.068C315.371 286.129 322.731 272.613 326.549 257.217C330.356 241.822 330.44 225.246 326.79 209.586C323.14 193.925 315.913 179.879 306.023 169.23H306.011ZM294.833 272.758C290.918 274.938 286.714 276.215 282.413 276.516L281.1 276.576L281.076 278.239L281.835 294.465L272.223 294.911L271.38 276.902L261.912 277.432L262.743 295.321L253.058 295.778L252.203 277.962L235.929 278.877L235.555 270.842L241.602 270.565C242.831 270.505 243.963 269.83 244.782 268.686C245.602 267.541 246.011 266.036 245.927 264.494L242.939 203.791C242.795 200.767 240.795 198.744 238.073 198.876L231.99 198.623L231.472 187.42L247.926 186.649L247.071 168.194L256.611 167.748L257.479 186.227L267.019 185.782L266.152 167.266L275.692 166.82L276.559 185.348L278.318 185.264C281.618 185.107 298.35 188.685 299.181 205.586C300.049 224.222 287.786 226.812 287.593 227.39L286.943 227.487C287.641 227.547 303.963 230.715 304.855 252.315C305.192 261.675 301.928 268.529 294.869 272.745L294.833 272.758Z"
            fill="#C87700" stroke="black" stroke-width="1.74" stroke-linecap="round" stroke-linejoin="round" />
        <path
            d="M306.011 169.23C292.954 155.099 276.126 147.919 259.177 149.244L258.503 149.281C241.41 150.811 226.593 160.677 215.583 177.024C204.586 193.359 200.201 214.513 201.683 236.148C203.176 257.784 210.416 278.154 223.534 292.502C236.652 306.861 252.66 314.366 269.777 313.089L270.428 313.053C283.233 311.921 295.387 306.006 305.385 296.068C315.371 286.129 322.731 272.613 326.549 257.217C330.356 241.822 330.44 225.246 326.79 209.586C323.14 193.925 315.913 179.879 306.023 169.23H306.011ZM294.833 272.758C290.918 274.938 286.714 276.215 282.413 276.516L281.1 276.576L281.076 278.239L281.835 294.465L272.223 294.911L271.38 276.902L261.912 277.432L262.743 295.321L253.058 295.778L252.203 277.962L235.929 278.877L235.555 270.842L241.602 270.565C242.831 270.505 243.963 269.83 244.782 268.686C245.602 267.541 246.011 266.036 245.927 264.494L242.939 203.791C242.795 200.767 240.795 198.744 238.073 198.876L231.99 198.623L231.472 187.42L247.926 186.649L247.071 168.194L256.611 167.748L257.479 186.227L267.019 185.782L266.152 167.266L275.692 166.82L276.559 185.348L278.318 185.264C281.618 185.107 298.35 188.685 299.181 205.586C300.049 224.222 287.786 226.812 287.593 227.39L286.943 227.487C287.641 227.547 303.963 230.715 304.855 252.315C305.192 261.675 301.928 268.529 294.869 272.745L294.833 272.758Z"
            fill="#C87700" stroke="black" stroke-width="1.74" stroke-linecap="round" stroke-linejoin="round" />
        <path opacity="0.8"
            d="M335.331 419.918H309.89L304.421 695.241L101.522 693.507L99.0526 419.918H59.7712C59.7712 419.918 70.8775 862.266 70.8052 862.688C79.5263 896.804 133.455 926.246 203.827 926.246C274.198 926.246 326.067 897.912 336.065 862.845C335.993 862.423 335.343 419.918 335.343 419.918H335.331Z"
            fill="url(#paint20_linear_64_1293)" />
        <path
            d="M93.367 662.209C96.2218 723.394 133.323 772.495 179.169 779.567C184.048 780.314 223.172 781.338 227.665 779.013C274.897 754.594 286.497 721.045 283.329 653.343C280.836 599.989 221.606 534.673 221.606 534.673C221.606 534.673 193.757 534.673 182.638 535.191C130.179 537.636 90.223 594.508 93.379 662.209H93.367Z"
            fill="#000C7A" stroke="black" stroke-width="2.1" stroke-miterlimit="10" />
        <path
            d="M93.367 662.209C96.2218 723.394 133.323 772.495 179.169 779.567C184.048 780.314 223.172 781.338 227.665 779.013C274.897 754.594 286.497 721.045 283.329 653.343C280.836 599.989 221.606 534.673 221.606 534.673C221.606 534.673 193.757 534.673 182.638 535.191C130.179 537.636 90.223 594.508 93.379 662.209H93.367Z"
            fill="url(#paint21_linear_64_1293)" stroke="black" stroke-width="2.1" stroke-miterlimit="10" />
        <mask id="mask2_64_1293" style="mask-type:luminance" maskUnits="userSpaceOnUse" x="93" y="534" width="191"
            height="247">
            <path
                d="M93.3669 662.209C96.2218 723.394 133.323 772.495 179.169 779.567C184.048 780.314 223.172 781.338 227.665 779.013C274.897 754.594 286.497 721.045 283.329 653.343C280.836 599.989 219.51 534.673 219.51 534.673C219.51 534.673 193.744 534.673 182.626 535.191C130.167 537.636 90.2109 594.508 93.3669 662.209Z"
                fill="white" />
        </mask>
        <g mask="url(#mask2_64_1293)">
            <path d="M208.464 544.081L67.324 560.5" stroke="black" stroke-width="2.1" stroke-miterlimit="10" />
            <path d="M209.211 559.946L67.9985 574.92" stroke="black" stroke-width="2.1" stroke-miterlimit="10" />
            <path d="M209.946 575.812L68.661 589.34" stroke="black" stroke-width="2.1" stroke-miterlimit="10" />
            <path d="M210.681 591.688L69.3356 603.759" stroke="black" stroke-width="2.1" stroke-miterlimit="10" />
            <path d="M211.428 607.555L70.0101 618.192" stroke="black" stroke-width="2.1" stroke-miterlimit="10" />
            <path d="M212.162 623.42L70.6847 632.611" stroke="black" stroke-width="2.1" stroke-miterlimit="10" />
            <path d="M212.909 639.297L71.3594 647.031" stroke="black" stroke-width="2.1" stroke-miterlimit="10" />
            <path d="M213.644 655.162L72.0339 661.45" stroke="black" stroke-width="2.1" stroke-miterlimit="10" />
            <path d="M214.391 671.039L72.7085 675.87" stroke="black" stroke-width="2.1" stroke-miterlimit="10" />
            <path d="M215.126 686.904L73.371 690.289" stroke="black" stroke-width="2.1" stroke-miterlimit="10" />
            <path d="M215.873 702.77L74.0455 704.721" stroke="black" stroke-width="2.1" stroke-miterlimit="10" />
            <path d="M216.607 718.647L74.7201 719.141" stroke="black" stroke-width="2.1" stroke-miterlimit="10" />
            <path d="M217.354 734.512L75.3947 733.561" stroke="black" stroke-width="2.1" stroke-miterlimit="10" />
            <path d="M218.089 750.378L76.0692 747.98" stroke="black" stroke-width="2.1" stroke-miterlimit="10" />
            <path d="M218.836 766.255L76.7438 762.4" stroke="black" stroke-width="2.1" stroke-miterlimit="10" />
        </g>
        <path
            d="M93.3669 662.209C96.2218 723.394 133.323 772.495 179.169 779.567C184.048 780.314 223.172 781.338 227.665 779.013C274.897 754.594 286.497 721.045 283.329 653.343C280.836 599.989 219.51 534.673 219.51 534.673C219.51 534.673 193.744 534.673 182.626 535.191C130.167 537.636 90.2109 594.508 93.3669 662.209Z"
            stroke="black" stroke-width="2.1" stroke-miterlimit="10" />
        <path
            d="M222.617 779.673C275.076 777.227 315.044 720.36 311.887 652.659C308.73 584.957 263.644 532.057 211.184 534.504C158.725 536.95 118.757 593.817 121.914 661.518C125.071 729.22 170.157 782.12 222.617 779.673Z"
            fill="url(#paint22_linear_64_1293)" stroke="black" stroke-width="2.1" stroke-miterlimit="10" />
        <path
            d="M222.617 779.673C275.076 777.227 315.044 720.36 311.887 652.659C308.73 584.957 263.644 532.057 211.184 534.504C158.725 536.95 118.757 593.817 121.914 661.518C125.071 729.22 170.157 782.12 222.617 779.673Z"
            stroke="black" stroke-width="2.1" stroke-miterlimit="10" />
        <path
            d="M222.662 755.335C264.727 753.374 296.776 707.772 294.245 653.482C291.713 599.192 255.56 556.771 213.494 558.733C171.428 560.695 139.379 606.296 141.911 660.586C144.442 714.877 180.596 757.297 222.662 755.335Z"
            fill="url(#paint23_linear_64_1293)" stroke="black" stroke-width="2.1" stroke-miterlimit="10" />
        <path
            d="M216.499 649.958C222.715 649.669 230.882 648.392 235.218 642.261C236.29 640.923 237.109 639.297 237.627 637.514C238.145 635.719 238.362 633.804 238.23 631.888C237.447 618.42 228.436 614.072 220.209 614.481L207.826 615.059L209.512 649.645L210.922 649.79C212.777 649.982 214.632 650.043 216.487 649.97L216.499 649.958ZM223.196 660.86L210.127 661.643L212.126 702.192L225.365 701.578C235.074 701.12 245.18 695.229 244.518 680.291C244.481 677.822 244.048 675.388 243.241 673.112C242.434 670.847 241.277 668.799 239.832 667.1C234.327 660.812 225.714 660.728 223.196 660.86Z"
            fill="#FF9800" stroke="black" stroke-width="2.1" stroke-linecap="round" stroke-linejoin="round" />
        <path
            d="M268.38 582.473C252.66 565.452 232.387 556.802 211.97 558.405L211.151 558.441C190.552 560.284 172.713 572.174 159.462 591.846C146.212 611.518 140.936 636.996 142.731 663.053C144.525 689.109 153.247 713.648 169.039 730.935C184.843 748.222 204.116 757.269 224.738 755.727L225.521 755.691C240.94 754.329 255.588 747.21 267.621 735.236C279.655 723.261 288.521 706.974 293.11 688.435C297.7 669.895 297.796 649.934 293.399 631.069C289.003 612.204 280.293 595.291 268.392 582.461L268.38 582.473ZM254.913 707.167C250.203 709.793 245.132 711.335 239.952 711.697L238.374 711.769L238.338 713.781L239.253 733.32L227.677 733.862L226.666 712.166L215.27 712.817L216.27 734.368L204.598 734.91L203.574 713.443L183.975 714.552L183.518 704.866L190.793 704.529C192.263 704.457 193.648 703.637 194.624 702.264C195.6 700.891 196.093 699.072 196.009 697.217L192.407 624.094C192.239 620.444 189.818 618.023 186.553 618.167L179.217 617.866L178.591 604.374L198.406 603.446L197.37 581.221L208.862 580.679L209.898 602.941L221.39 602.398L220.354 580.088L231.845 579.546L232.881 601.868L235.001 601.772C238.976 601.591 259.117 605.892 260.129 626.251C261.177 648.705 246.397 651.813 246.18 652.512L245.397 652.632C246.228 652.705 265.899 656.524 266.971 682.532C267.38 693.808 263.441 702.059 254.937 707.143L254.913 707.167Z"
            fill="#FF9800" stroke="black" stroke-width="2.1" stroke-linecap="round" stroke-linejoin="round" />
        <path
            d="M268.38 582.473C252.66 565.452 232.387 556.802 211.97 558.405L211.151 558.441C190.552 560.284 172.713 572.174 159.462 591.846C146.212 611.518 140.936 636.996 142.731 663.053C144.525 689.109 153.247 713.648 169.039 730.935C184.843 748.222 204.116 757.269 224.738 755.727L225.521 755.691C240.94 754.329 255.588 747.21 267.621 735.236C279.655 723.261 288.521 706.974 293.11 688.435C297.7 669.895 297.796 649.934 293.399 631.069C289.003 612.204 280.293 595.291 268.392 582.461L268.38 582.473ZM254.913 707.167C250.203 709.793 245.132 711.335 239.952 711.697L238.374 711.769L238.338 713.781L239.253 733.32L227.677 733.862L226.666 712.166L215.27 712.817L216.27 734.368L204.598 734.91L203.574 713.443L183.975 714.552L183.518 704.866L190.793 704.529C192.263 704.457 193.648 703.637 194.624 702.264C195.6 700.891 196.093 699.072 196.009 697.217L192.407 624.094C192.239 620.444 189.818 618.023 186.553 618.167L179.217 617.866L178.591 604.374L198.406 603.446L197.37 581.221L208.862 580.679L209.898 602.941L221.39 602.398L220.354 580.088L231.845 579.546L232.881 601.868L235.001 601.772C238.976 601.591 259.117 605.892 260.129 626.251C261.177 648.705 246.397 651.813 246.18 652.512L245.397 652.632C246.228 652.705 265.899 656.524 266.971 682.532C267.38 693.808 263.441 702.059 254.937 707.143L254.913 707.167Z"
            fill="#FF9800" stroke="black" stroke-width="2.1" stroke-linecap="round" stroke-linejoin="round" />
        <path opacity="0.8"
            d="M1075.38 423.52H1049.93L1044.47 698.843L841.567 697.108L839.097 423.52H799.804C799.804 423.52 810.91 865.868 810.838 866.29C819.559 900.405 873.488 929.847 943.86 929.847C1014.23 929.847 1066.1 901.514 1076.1 866.446C1076.03 866.025 1075.38 423.52 1075.38 423.52Z"
            fill="url(#paint24_linear_64_1293)" />
        <path
            d="M834.665 665.51C837.519 726.695 874.62 775.796 920.467 782.868C925.345 783.614 964.47 784.638 968.963 782.313C1016.19 757.895 1027.79 724.346 1024.63 656.644C1022.13 603.29 962.904 537.974 962.904 537.974C962.904 537.974 935.054 537.974 923.936 538.492C871.477 540.937 831.521 597.809 834.677 665.51H834.665Z"
            fill="#000C7A" stroke="black" stroke-width="2.1" stroke-miterlimit="10" />
        <path
            d="M834.665 665.51C837.519 726.695 874.62 775.796 920.467 782.868C925.345 783.614 964.47 784.638 968.963 782.313C1016.19 757.895 1027.79 724.346 1024.63 656.644C1022.13 603.29 962.904 537.974 962.904 537.974C962.904 537.974 935.054 537.974 923.936 538.492C871.477 540.937 831.521 597.809 834.677 665.51H834.665Z"
            fill="url(#paint25_linear_64_1293)" stroke="black" stroke-width="2.1" stroke-miterlimit="10" />
        <mask id="mask3_64_1293" style="mask-type:luminance" maskUnits="userSpaceOnUse" x="834" y="537" width="192"
            height="247">
            <path
                d="M834.665 665.51C837.519 726.695 874.62 775.796 920.467 782.868C925.345 783.614 964.47 784.638 968.963 782.313C1016.19 757.895 1027.79 724.346 1024.63 656.644C1022.13 603.29 960.808 537.974 960.808 537.974C960.808 537.974 935.042 537.974 923.924 538.492C871.464 540.937 831.509 597.809 834.665 665.51Z"
                fill="white" />
        </mask>
        <g mask="url(#mask3_64_1293)">
            <path d="M949.762 547.382L808.622 563.801" stroke="black" stroke-width="2.1" stroke-miterlimit="10" />
            <path d="M950.509 563.247L809.296 578.233" stroke="black" stroke-width="2.1" stroke-miterlimit="10" />
            <path d="M951.244 579.124L809.971 592.652" stroke="black" stroke-width="2.1" stroke-miterlimit="10" />
            <path d="M951.991 594.989L810.645 607.072" stroke="black" stroke-width="2.1" stroke-miterlimit="10" />
            <path d="M952.725 610.854L811.32 621.492" stroke="black" stroke-width="2.1" stroke-miterlimit="10" />
            <path d="M953.472 626.732L811.982 635.912" stroke="black" stroke-width="2.1" stroke-miterlimit="10" />
            <path d="M954.207 642.598L812.657 650.332" stroke="black" stroke-width="2.1" stroke-miterlimit="10" />
            <path d="M954.954 658.475L813.332 664.763" stroke="black" stroke-width="2.1" stroke-miterlimit="10" />
            <path d="M955.689 674.34L814.006 679.182" stroke="black" stroke-width="2.1" stroke-miterlimit="10" />
            <path d="M956.435 690.205L814.681 693.602" stroke="black" stroke-width="2.1" stroke-miterlimit="10" />
            <path d="M957.17 706.083L815.355 708.022" stroke="black" stroke-width="2.1" stroke-miterlimit="10" />
            <path d="M957.917 721.948L816.03 722.442" stroke="black" stroke-width="2.1" stroke-miterlimit="10" />
            <path d="M958.652 737.813L816.692 736.861" stroke="black" stroke-width="2.1" stroke-miterlimit="10" />
            <path d="M959.399 753.69L817.367 751.293" stroke="black" stroke-width="2.1" stroke-miterlimit="10" />
            <path d="M960.134 769.556L818.041 765.713" stroke="black" stroke-width="2.1" stroke-miterlimit="10" />
        </g>
        <path
            d="M834.665 665.51C837.519 726.695 874.62 775.796 920.467 782.868C925.345 783.614 964.47 784.638 968.963 782.313C1016.19 757.895 1027.79 724.346 1024.63 656.644C1022.13 603.29 960.808 537.974 960.808 537.974C960.808 537.974 935.042 537.974 923.924 538.492C871.464 540.937 831.509 597.809 834.665 665.51Z"
            stroke="black" stroke-width="2.1" stroke-miterlimit="10" />
        <path
            d="M963.915 782.997C1016.37 780.551 1056.34 723.685 1053.18 655.983C1050.03 588.281 1004.94 535.381 952.482 537.828C900.023 540.274 860.055 597.141 863.212 664.843C866.369 732.544 911.455 785.444 963.915 782.997Z"
            fill="url(#paint26_linear_64_1293)" stroke="black" stroke-width="2.1" stroke-miterlimit="10" />
        <path
            d="M963.915 782.997C1016.37 780.551 1056.34 723.685 1053.18 655.983C1050.03 588.281 1004.94 535.381 952.482 537.828C900.023 540.274 860.055 597.141 863.212 664.843C866.369 732.544 911.455 785.444 963.915 782.997Z"
            stroke="black" stroke-width="2.1" stroke-miterlimit="10" />
        <path
            d="M963.959 758.66C1006.02 756.698 1038.07 711.097 1035.54 656.806C1033.01 602.516 996.857 560.095 954.791 562.057C912.725 564.019 880.676 609.62 883.208 663.911C885.739 718.201 921.893 760.622 963.959 758.66Z"
            fill="url(#paint27_linear_64_1293)" stroke="black" stroke-width="2.1" stroke-miterlimit="10" />
        <path
            d="M957.797 653.259C964.012 652.97 972.179 651.693 976.516 645.561C977.588 644.224 978.407 642.598 978.925 640.815C979.443 639.02 979.66 637.105 979.527 635.189C978.744 621.721 969.734 617.372 961.507 617.782L949.124 618.36L950.81 652.946L952.219 653.09C954.074 653.283 955.93 653.343 957.785 653.271L957.797 653.259ZM964.494 664.161L951.424 664.944L953.424 705.493L966.662 704.878C976.371 704.421 986.478 698.53 985.815 683.592C985.779 681.123 985.345 678.689 984.538 676.412C983.731 674.148 982.575 672.1 981.129 670.401C975.624 664.113 967.012 664.029 964.494 664.161Z"
            fill="#FF9800" stroke="black" stroke-width="2.1" stroke-linecap="round" stroke-linejoin="round" />
        <path
            d="M1009.69 585.774C993.97 568.753 973.697 560.103 953.279 561.705L952.46 561.741C931.862 563.585 914.022 575.475 900.772 595.146C887.521 614.818 882.245 640.297 884.04 666.354C885.835 692.41 894.556 716.949 910.348 734.236C926.152 751.522 945.426 760.569 966.048 759.027L966.831 758.991C982.25 757.63 996.897 750.511 1008.93 738.536C1020.96 726.562 1029.83 710.275 1034.42 691.735C1039.01 673.196 1039.11 653.235 1034.71 634.37C1030.31 615.505 1021.6 598.592 1009.7 585.762L1009.69 585.774ZM996.223 710.468C991.513 713.094 986.441 714.636 981.262 714.997L979.684 715.07L979.648 717.081L980.563 736.621L968.987 737.163L967.975 715.467L956.58 716.118L957.58 737.669L945.907 738.211L944.884 716.744L925.285 717.852L924.827 708.167L932.103 707.83C933.573 707.757 934.958 706.938 935.934 705.565C936.909 704.192 937.403 702.373 937.319 700.517L933.717 627.395C933.548 623.745 931.127 621.324 927.863 621.468L920.527 621.167L919.901 607.675L939.716 606.747L938.68 584.521L950.172 583.979L951.208 606.241L962.699 605.699L961.663 583.389L973.155 582.847L974.191 605.169L976.311 605.073C980.286 604.892 1000.43 609.193 1001.44 629.551C1002.49 652.006 987.706 655.114 987.49 655.813L986.707 655.933C987.538 656.006 1007.21 659.824 1008.28 685.833C1008.69 697.108 1004.75 705.36 996.247 710.444L996.223 710.468Z"
            fill="#FF9800" stroke="black" stroke-width="2.1" stroke-linecap="round" stroke-linejoin="round" />
        <path
            d="M1009.69 585.774C993.97 568.753 973.697 560.103 953.279 561.705L952.46 561.741C931.862 563.585 914.022 575.475 900.772 595.146C887.521 614.818 882.245 640.297 884.04 666.354C885.835 692.41 894.556 716.949 910.348 734.236C926.152 751.522 945.426 760.569 966.048 759.027L966.831 758.991C982.25 757.63 996.897 750.511 1008.93 738.536C1020.96 726.562 1029.83 710.275 1034.42 691.735C1039.01 673.196 1039.11 653.235 1034.71 634.37C1030.31 615.505 1021.6 598.592 1009.7 585.762L1009.69 585.774ZM996.223 710.468C991.513 713.094 986.441 714.636 981.262 714.997L979.684 715.07L979.648 717.081L980.563 736.621L968.987 737.163L967.975 715.467L956.58 716.118L957.58 737.669L945.907 738.211L944.884 716.744L925.285 717.852L924.827 708.167L932.103 707.83C933.573 707.757 934.958 706.938 935.934 705.565C936.909 704.192 937.403 702.373 937.319 700.517L933.717 627.395C933.548 623.745 931.127 621.324 927.863 621.468L920.527 621.167L919.901 607.675L939.716 606.747L938.68 584.521L950.172 583.979L951.208 606.241L962.699 605.699L961.663 583.389L973.155 582.847L974.191 605.169L976.311 605.073C980.286 604.892 1000.43 609.193 1001.44 629.551C1002.49 652.006 987.706 655.114 987.49 655.813L986.707 655.933C987.538 656.006 1007.21 659.824 1008.28 685.833C1008.69 697.108 1004.75 705.36 996.247 710.444L996.223 710.468Z"
            fill="#FF9800" stroke="black" stroke-width="2.1" stroke-linecap="round" stroke-linejoin="round" />
        <path
            d="M432.537 265.787C448.134 350.476 508.899 411.776 573.776 412.863C580.673 412.979 635.098 406.901 640.881 402.817C701.695 359.765 711.378 310.8 694.11 217.103C680.512 143.252 585.981 63.6035 585.981 63.6035C585.981 63.6035 547.383 68.9397 532.065 71.789C459.831 85.2449 415.269 172.107 432.537 265.804V265.787Z"
            fill="#59009D" stroke="black" stroke-width="3" stroke-miterlimit="10" />
        <path
            d="M432.537 265.787C448.134 350.476 508.899 411.776 573.776 412.863C580.673 412.979 635.098 406.901 640.881 402.817C701.695 359.765 711.378 310.8 694.11 217.103C680.512 143.252 585.981 63.6035 585.981 63.6035C585.981 63.6035 547.383 68.9397 532.065 71.789C459.831 85.2449 415.269 172.107 432.537 265.804V265.787Z"
            fill="url(#paint28_linear_64_1293)" stroke="black" stroke-width="2.45" stroke-miterlimit="10" />
        <mask id="mask4_64_1293" style="mask-type:luminance" maskUnits="userSpaceOnUse" x="428" y="63" width="274"
            height="350">
            <path
                d="M432.537 265.788C448.134 350.476 508.899 411.777 573.776 412.864C580.673 412.979 635.098 406.902 640.881 402.817C701.695 359.765 711.378 310.8 694.11 217.103C680.512 143.252 583.082 63.999 583.082 63.999C583.082 63.999 547.383 68.9235 532.065 71.7728C459.831 85.2287 415.269 172.091 432.537 265.788Z"
                fill="white" />
        </mask>
        <g mask="url(#mask4_64_1293)">
            <path d="M569.565 79.2002L377.097 129.087" stroke="black" stroke-width="3" stroke-miterlimit="10" />
            <path d="M573.612 101.17L380.767 149.048" stroke="black" stroke-width="3" stroke-miterlimit="10" />
            <path d="M577.659 123.143L384.437 169.028" stroke="black" stroke-width="3" stroke-miterlimit="10" />
            <path d="M581.705 145.112L388.123 188.988" stroke="black" stroke-width="3" stroke-miterlimit="10" />
            <path d="M585.752 167.066L391.793 208.949" stroke="black" stroke-width="3" stroke-miterlimit="10" />
            <path d="M589.799 189.037L395.479 228.911" stroke="black" stroke-width="3" stroke-miterlimit="10" />
            <path d="M593.845 211.008L399.149 248.872" stroke="black" stroke-width="3" stroke-miterlimit="10" />
            <path d="M597.892 232.963L402.835 268.834" stroke="black" stroke-width="3" stroke-miterlimit="10" />
            <path d="M601.938 254.934L406.504 288.796" stroke="black" stroke-width="3" stroke-miterlimit="10" />
            <path d="M605.985 276.904L410.191 308.757" stroke="black" stroke-width="3" stroke-miterlimit="10" />
            <path d="M610.032 298.874L413.861 328.717" stroke="black" stroke-width="3" stroke-miterlimit="10" />
            <path d="M614.078 320.83L417.547 348.681" stroke="black" stroke-width="3" stroke-miterlimit="10" />
            <path d="M618.125 342.8L421.217 368.641" stroke="black" stroke-width="3" stroke-miterlimit="10" />
            <path d="M622.172 364.771L424.903 388.602" stroke="black" stroke-width="3" stroke-miterlimit="10" />
            <path d="M626.218 386.726L428.573 408.565" stroke="black" stroke-width="3" stroke-miterlimit="10" />
        </g>
        <path
            d="M432.537 265.788C448.134 350.476 508.899 411.777 573.776 412.864C580.673 412.979 635.098 406.902 640.881 402.817C701.695 359.765 711.378 310.8 694.11 217.103C680.512 143.252 583.082 63.999 583.082 63.999C583.082 63.999 547.383 68.9235 532.065 71.7728C459.831 85.2287 415.269 172.091 432.537 265.788Z"
            stroke="black" stroke-width="3" stroke-miterlimit="10" />
        <path
            d="M472.066 259.32C454.807 165.613 499.373 78.7493 571.607 65.3037C643.841 51.8581 716.389 116.922 733.648 210.629C750.908 304.336 706.342 391.2 634.108 404.645C561.874 418.091 489.325 353.026 472.066 259.32Z"
            fill="url(#paint29_linear_64_1293)" stroke="black" stroke-width="1.73" stroke-miterlimit="10" />
        <path
            d="M472.066 259.32C454.807 165.613 499.373 78.7493 571.607 65.3037C643.841 51.8581 716.389 116.922 733.648 210.629C750.908 304.336 706.342 391.2 634.108 404.645C561.874 418.091 489.325 353.026 472.066 259.32Z"
            stroke="black" stroke-width="3" stroke-miterlimit="10" />
        <path
            d="M499.6 254.199C485.761 179.06 521.494 109.408 579.413 98.6271C637.332 87.8461 695.504 140.018 709.343 215.157C723.182 290.296 687.449 359.948 629.53 370.729C571.611 381.51 513.439 329.337 499.6 254.199Z"
            fill="#3546B1" stroke="black" stroke-width="3" stroke-miterlimit="10" />
        <path
            d="M499.6 254.199C485.761 179.06 521.494 109.408 579.413 98.6271C637.332 87.8461 695.504 140.018 709.343 215.157C723.182 290.296 687.449 359.948 629.53 370.729C571.611 381.51 513.439 329.337 499.6 254.199Z"
            fill="url(#paint30_linear_64_1293)" stroke="black" stroke-width="3" stroke-miterlimit="10" />
        <path
            d="M598.818 225.199C607.369 223.509 618.412 220.047 623.135 210.617C624.343 208.541 625.147 206.112 625.496 203.511C625.845 200.909 625.747 198.202 625.18 195.558C621.327 176.985 607.972 172.794 596.663 175.086L579.643 178.45L589.098 226.203L591.091 226.117C593.69 226.003 596.283 225.695 598.824 225.214L598.818 225.199ZM610.328 238.966L592.403 242.762L603.503 298.752L621.698 295.15C635.038 292.508 647.814 282.226 643.809 261.569C643.251 258.142 642.145 254.845 640.563 251.861C638.981 248.877 636.947 246.268 634.617 244.203C625.711 236.591 613.765 238.252 610.328 238.966Z"
            fill="#FF9900" stroke="black" stroke-width="2.99" stroke-linecap="round" stroke-linejoin="round" />
        <path
            d="M658.671 119.599C633.421 99.1895 603.591 91.342 575.68 97.7891L574.55 98.0089C546.437 104.838 524.187 125.062 509.906 155.168C495.624 185.273 493.55 221.799 501.408 257.68C509.244 293.551 526.359 325.866 551.79 346.646C577.205 367.433 605.752 376.004 633.968 369.613L635.03 369.402C656.075 364.31 674.888 351.373 689.072 332.237C703.256 313.101 712.172 288.607 714.706 261.872C717.24 235.137 713.261 207.349 703.29 182.02C693.303 156.696 677.793 134.974 658.686 119.593L658.671 119.599ZM659.862 295.884C653.882 300.518 647.188 303.699 640.095 305.286L637.918 305.711L638.281 308.507L643.571 335.508L627.665 338.658L621.806 308.695L606.171 311.951L612.003 341.711L595.963 344.879L590.128 315.244L563.238 320.841L560.623 307.462L570.626 305.477C572.647 305.061 574.38 303.644 575.451 301.534C576.522 299.424 576.844 296.798 576.322 294.225L556.285 193.27C555.299 188.224 551.456 185.362 546.96 186.25L536.747 187.344L533.098 168.708L560.331 163.311L554.323 132.611L570.116 129.487L576.136 160.218L591.929 157.095L585.894 126.282L601.687 123.159L607.729 153.987L610.639 153.412C616.1 152.334 644.853 154.144 650.444 182.264C656.522 213.274 636.715 220.654 636.548 221.66L635.476 221.98C636.645 221.904 664.651 223.162 671.481 259.115C674.369 274.707 670.619 287.008 659.896 295.836L659.862 295.884Z"
            fill="#FF9900" stroke="black" stroke-width="2.99" stroke-linecap="round" stroke-linejoin="round" />
        <path
            d="M658.671 119.599C633.422 99.1897 603.592 91.3423 575.68 97.7896L574.551 98.0094C546.437 104.838 524.188 125.063 509.906 155.168C495.624 185.274 493.55 221.8 501.407 257.68C509.244 293.551 526.358 325.867 551.789 346.647C577.205 367.433 605.752 376.004 633.967 369.613L635.03 369.402C656.074 364.31 674.888 351.372 689.072 332.237C703.256 313.101 712.172 288.606 714.706 261.872C717.241 235.137 713.261 207.349 703.29 182.019C693.304 156.696 677.794 134.974 658.687 119.593L658.671 119.599ZM659.862 295.884C653.882 300.518 647.188 303.699 640.094 305.286L637.918 305.711L638.28 308.507L643.57 335.507L627.665 338.658L621.806 308.695L606.17 311.951L612.002 341.711L595.963 344.879L590.127 315.244L563.237 320.841L560.622 307.462L570.626 305.477C572.647 305.061 574.379 303.645 575.451 301.535C576.522 299.425 576.843 296.798 576.322 294.225L556.285 193.271C555.299 188.224 551.456 185.362 546.96 186.251L536.747 187.345L533.098 168.708L560.331 163.311L554.323 132.611L570.116 129.488L576.137 160.218L591.93 157.095L585.894 126.282L601.687 123.159L607.729 153.987L610.639 153.412C616.1 152.334 644.854 154.144 650.445 182.264C656.522 213.273 636.715 220.654 636.548 221.66L635.476 221.98C636.645 221.904 664.651 223.162 671.481 259.115C674.369 274.706 670.619 287.008 659.895 295.835L659.862 295.884Z"
            fill="url(#paint31_linear_64_1293)" stroke="black" stroke-width="2.99" stroke-linecap="round"
            stroke-linejoin="round" />
    </g>
    <defs>
        <linearGradient id="paint0_linear_64_1293" x1="321.646" y1="734.459" x2="859.743" y2="720"
            gradientUnits="userSpaceOnUse">
            <stop offset="0.030998" stop-color="#1D50A0" />
            <stop offset="0.222648" />
            <stop offset="0.50215" stop-color="#1D50A0" />
            <stop offset="0.70826" stop-color="#C363E4" />
            <stop offset="0.926841" stop-color="#5C57BA" />
        </linearGradient>
        <linearGradient id="paint1_linear_64_1293" x1="932.019" y1="605.531" x2="310.456" y2="605.531"
            gradientUnits="userSpaceOnUse">
            <stop offset="0.06" stop-color="#9D67FF" />
            <stop offset="0.15" stop-color="#A557FF" />
            <stop offset="0.26" stop-color="#AB4BFF" />
            <stop offset="0.37" stop-color="#AE47FF" />
            <stop offset="0.69" stop-color="#591F8F" />
            <stop offset="1" />
        </linearGradient>
        <linearGradient id="paint2_linear_64_1293" x1="581.814" y1="453.145" x2="581.814" y2="757.914"
            gradientUnits="userSpaceOnUse">
            <stop stop-color="#00ADEE" />
            <stop offset="0.632791" stop-color="#00ADEE" stop-opacity="0" />
        </linearGradient>
        <linearGradient id="paint3_linear_64_1293" x1="785.636" y1="705.318" x2="785.636" y2="852.376"
            gradientUnits="userSpaceOnUse">
            <stop stop-color="#97FFED" stop-opacity="0" />
            <stop offset="1" stop-color="#97FFED" />
        </linearGradient>
        <linearGradient id="paint4_linear_64_1293" x1="368.399" y1="700.548" x2="368.399" y2="847.606"
            gradientUnits="userSpaceOnUse">
            <stop stop-color="#97FFED" stop-opacity="0" />
            <stop offset="1" stop-color="#97FFED" />
        </linearGradient>
        <linearGradient id="paint5_linear_64_1293" x1="578.005" y1="0" x2="578.005" y2="668.7"
            gradientUnits="userSpaceOnUse">
            <stop stop-color="#97FFED" stop-opacity="0" />
            <stop offset="1" stop-color="#97FFED" />
        </linearGradient>
        <linearGradient id="paint6_linear_64_1293" x1="11.1118" y1="913.68" x2="409.119" y2="904.148"
            gradientUnits="userSpaceOnUse">
            <stop offset="0.030998" stop-color="#1D50A0" />
            <stop offset="0.222648" />
            <stop offset="0.50215" stop-color="#1D50A0" />
            <stop offset="0.70826" stop-color="#C363E4" />
            <stop offset="0.926841" stop-color="#5C57BA" />
        </linearGradient>
        <linearGradient id="paint7_linear_64_1293" x1="204.228" y1="858.93" x2="203.827" y2="950.736"
            gradientUnits="userSpaceOnUse">
            <stop stop-color="#00AEEF" />
            <stop offset="1" stop-color="#E6FFFE" />
        </linearGradient>
        <linearGradient id="paint8_linear_64_1293" x1="750.061" y1="918.487" x2="1148.07" y2="908.954"
            gradientUnits="userSpaceOnUse">
            <stop offset="0.030998" stop-color="#1D50A0" />
            <stop offset="0.222648" />
            <stop offset="0.50215" stop-color="#1D50A0" />
            <stop offset="0.70826" stop-color="#C363E4" />
            <stop offset="0.926841" stop-color="#5C57BA" />
        </linearGradient>
        <linearGradient id="paint9_linear_64_1293" x1="943.177" y1="863.737" x2="942.775" y2="955.543"
            gradientUnits="userSpaceOnUse">
            <stop stop-color="#00AEEF" />
            <stop offset="1" stop-color="#E6FFFE" />
        </linearGradient>
        <linearGradient id="paint10_linear_64_1293" x1="749.771" y1="449.561" x2="1095.73" y2="441.276"
            gradientUnits="userSpaceOnUse">
            <stop offset="0.030998" stop-color="#1D50A0" />
            <stop offset="0.222648" />
            <stop offset="0.50215" stop-color="#1D50A0" />
            <stop offset="0.70826" stop-color="#C363E4" />
            <stop offset="0.926841" stop-color="#5C57BA" />
        </linearGradient>
        <linearGradient id="paint11_linear_64_1293" x1="917.611" y1="401.977" x2="917.263" y2="481.776"
            gradientUnits="userSpaceOnUse">
            <stop stop-color="#00AEEF" />
            <stop offset="1" stop-color="#E6FFFE" />
        </linearGradient>
        <linearGradient id="paint12_linear_64_1293" x1="912.191" y1="20.3711" x2="912.191" y2="460.503"
            gradientUnits="userSpaceOnUse">
            <stop stop-color="#97FFED" stop-opacity="0" />
            <stop offset="1" stop-color="#97FFED" />
        </linearGradient>
        <linearGradient id="paint13_linear_64_1293" x1="912.799" y1="392.609" x2="899.949" y2="117.091"
            gradientUnits="userSpaceOnUse">
            <stop offset="0.39" stop-color="#5A96C8" />
            <stop offset="0.4" stop-color="#538AB9" />
            <stop offset="0.43" stop-color="#3E648D" />
            <stop offset="0.46" stop-color="#2C4567" />
            <stop offset="0.49" stop-color="#1F2D4B" />
            <stop offset="0.52" stop-color="#151B36" />
            <stop offset="0.55" stop-color="#0F112A" />
            <stop offset="0.58" stop-color="#0E0E26" />
            <stop offset="0.79" stop-color="#5C67C8" />
            <stop offset="0.96" stop-color="#1C1947" />
        </linearGradient>
        <linearGradient id="paint14_linear_64_1293" x1="911.117" y1="89.547" x2="942.684" y2="342.05"
            gradientUnits="userSpaceOnUse">
            <stop offset="0.08" stop-color="#2F51C8" />
            <stop offset="0.13" stop-color="#3459BC" />
            <stop offset="0.33" stop-color="#4A808B" />
            <stop offset="0.43" stop-color="#539078" />
            <stop offset="0.73" stop-color="#65A29C" />
            <stop offset="0.77" stop-color="#669B9E" />
            <stop offset="0.82" stop-color="#6A89A5" />
            <stop offset="0.88" stop-color="#716BB1" />
            <stop offset="0.94" stop-color="#794BBE" />
        </linearGradient>
        <linearGradient id="paint15_linear_64_1293" x1="85.6866" y1="449.32" x2="431.644" y2="441.034"
            gradientUnits="userSpaceOnUse">
            <stop offset="0.030998" stop-color="#1D50A0" />
            <stop offset="0.222648" />
            <stop offset="0.50215" stop-color="#1D50A0" />
            <stop offset="0.70826" stop-color="#C363E4" />
            <stop offset="0.926841" stop-color="#5C57BA" />
        </linearGradient>
        <linearGradient id="paint16_linear_64_1293" x1="253.539" y1="401.724" x2="253.19" y2="481.524"
            gradientUnits="userSpaceOnUse">
            <stop stop-color="#00AEEF" />
            <stop offset="1" stop-color="#E6FFFE" />
        </linearGradient>
        <linearGradient id="paint17_linear_64_1293" x1="248.059" y1="20.1055" x2="248.059" y2="460.237"
            gradientUnits="userSpaceOnUse">
            <stop stop-color="#97FFED" stop-opacity="0" />
            <stop offset="1" stop-color="#97FFED" />
        </linearGradient>
        <linearGradient id="paint18_linear_64_1293" x1="246.951" y1="390.185" x2="234.102" y2="114.667"
            gradientUnits="userSpaceOnUse">
            <stop offset="0.39" stop-color="#5A96C8" />
            <stop offset="0.4" stop-color="#538AB9" />
            <stop offset="0.43" stop-color="#3E648D" />
            <stop offset="0.46" stop-color="#2C4567" />
            <stop offset="0.49" stop-color="#1F2D4B" />
            <stop offset="0.52" stop-color="#151B36" />
            <stop offset="0.55" stop-color="#0F112A" />
            <stop offset="0.58" stop-color="#0E0E26" />
            <stop offset="0.79" stop-color="#5C67C8" />
            <stop offset="0.96" stop-color="#1C1947" />
        </linearGradient>
        <linearGradient id="paint19_linear_64_1293" x1="245.271" y1="87.128" x2="276.838" y2="339.631"
            gradientUnits="userSpaceOnUse">
            <stop offset="0.08" stop-color="#2F51C8" />
            <stop offset="0.13" stop-color="#3459BC" />
            <stop offset="0.33" stop-color="#4A808B" />
            <stop offset="0.43" stop-color="#539078" />
            <stop offset="0.73" stop-color="#65A29C" />
            <stop offset="0.77" stop-color="#669B9E" />
            <stop offset="0.82" stop-color="#6A89A5" />
            <stop offset="0.88" stop-color="#716BB1" />
            <stop offset="0.94" stop-color="#794BBE" />
        </linearGradient>
        <linearGradient id="paint20_linear_64_1293" x1="197.918" y1="419.918" x2="197.918" y2="926.246"
            gradientUnits="userSpaceOnUse">
            <stop stop-color="#97FFED" stop-opacity="0" />
            <stop offset="1" stop-color="#97FFED" />
        </linearGradient>
        <linearGradient id="paint21_linear_64_1293" x1="197.242" y1="848.634" x2="181.765" y2="516.775"
            gradientUnits="userSpaceOnUse">
            <stop offset="0.39" stop-color="#72BFFE" />
            <stop offset="0.42" stop-color="#5992C9" />
            <stop offset="0.45" stop-color="#446B9C" />
            <stop offset="0.48" stop-color="#334C76" />
            <stop offset="0.5" stop-color="#25335A" />
            <stop offset="0.53" stop-color="#1B2245" />
            <stop offset="0.56" stop-color="#151739" />
            <stop offset="0.58" stop-color="#141435" />
            <stop offset="0.79" stop-color="#7683FF" />
            <stop offset="0.96" stop-color="#262262" />
        </linearGradient>
        <linearGradient id="paint22_linear_64_1293" x1="195.208" y1="483.585" x2="233.235" y2="787.716"
            gradientUnits="userSpaceOnUse">
            <stop offset="0.08" stop-color="#3C67FF" />
            <stop offset="0.17" stop-color="#4B82E5" />
            <stop offset="0.34" stop-color="#67B3B7" />
            <stop offset="0.43" stop-color="#73C7A5" />
            <stop offset="0.47" stop-color="#75C9AB" />
            <stop offset="0.73" stop-color="#87D9D2" />
            <stop offset="0.76" stop-color="#88D2D3" />
            <stop offset="0.8" stop-color="#8BC0D9" />
            <stop offset="0.85" stop-color="#90A1E2" />
            <stop offset="0.91" stop-color="#9778EE" />
            <stop offset="0.94" stop-color="#9C61F5" />
        </linearGradient>
        <linearGradient id="paint23_linear_64_1293" x1="208.384" y1="534.866" x2="222.663" y2="755.335"
            gradientUnits="userSpaceOnUse">
            <stop stop-color="#2B398F" />
            <stop offset="0.736063" stop-color="#00DCEE" />
        </linearGradient>
        <linearGradient id="paint24_linear_64_1293" x1="937.951" y1="423.52" x2="937.951" y2="929.847"
            gradientUnits="userSpaceOnUse">
            <stop stop-color="#97FFED" stop-opacity="0" />
            <stop offset="1" stop-color="#97FFED" />
        </linearGradient>
        <linearGradient id="paint25_linear_64_1293" x1="938.536" y1="851.954" x2="923.059" y2="520.107"
            gradientUnits="userSpaceOnUse">
            <stop offset="0.39" stop-color="#72BFFE" />
            <stop offset="0.42" stop-color="#5992C9" />
            <stop offset="0.45" stop-color="#446B9C" />
            <stop offset="0.48" stop-color="#334C76" />
            <stop offset="0.5" stop-color="#25335A" />
            <stop offset="0.53" stop-color="#1B2245" />
            <stop offset="0.56" stop-color="#151739" />
            <stop offset="0.58" stop-color="#141435" />
            <stop offset="0.79" stop-color="#7683FF" />
            <stop offset="0.96" stop-color="#262262" />
        </linearGradient>
        <linearGradient id="paint26_linear_64_1293" x1="936.517" y1="486.897" x2="974.532" y2="791.04"
            gradientUnits="userSpaceOnUse">
            <stop offset="0.08" stop-color="#3C67FF" />
            <stop offset="0.17" stop-color="#4B82E5" />
            <stop offset="0.34" stop-color="#67B3B7" />
            <stop offset="0.43" stop-color="#73C7A5" />
            <stop offset="0.47" stop-color="#75C9AB" />
            <stop offset="0.73" stop-color="#87D9D2" />
            <stop offset="0.76" stop-color="#88D2D3" />
            <stop offset="0.8" stop-color="#8BC0D9" />
            <stop offset="0.85" stop-color="#90A1E2" />
            <stop offset="0.91" stop-color="#9778EE" />
            <stop offset="0.94" stop-color="#9C61F5" />
        </linearGradient>
        <linearGradient id="paint27_linear_64_1293" x1="949.681" y1="538.19" x2="963.96" y2="758.66"
            gradientUnits="userSpaceOnUse">
            <stop stop-color="#2B398F" />
            <stop offset="0.736063" stop-color="#00DCEE" />
        </linearGradient>
        <linearGradient id="paint28_linear_64_1293" x1="611.984" y1="505.74" x2="526.512" y2="46.5576"
            gradientUnits="userSpaceOnUse">
            <stop offset="0.4" stop-color="#B999FF" />
            <stop offset="0.41" stop-color="#A68AE9" />
            <stop offset="0.44" stop-color="#7D6ABD" />
            <stop offset="0.47" stop-color="#5C4F97" />
            <stop offset="0.5" stop-color="#423B7B" />
            <stop offset="0.53" stop-color="#2F2C66" />
            <stop offset="0.55" stop-color="#24235A" />
            <stop offset="0.58" stop-color="#212156" />
            <stop offset="0.79" stop-color="#CB9FFF" />
            <stop offset="0.96" stop-color="#332E83" />
        </linearGradient>
        <linearGradient id="paint29_linear_64_1293" x1="539.775" y1="-2.58754" x2="651.438" y2="413.523"
            gradientUnits="userSpaceOnUse">
            <stop offset="0.08" stop-color="#9D67FF" />
            <stop offset="0.31" stop-color="#C972D2" />
            <stop offset="0.43" stop-color="#DD78C0" />
            <stop offset="0.62" stop-color="#ABC4D7" />
            <stop offset="0.73" stop-color="#93EBE4" />
            <stop offset="0.76" stop-color="#93E4E5" />
            <stop offset="0.8" stop-color="#95D2E8" />
            <stop offset="0.84" stop-color="#98B3EC" />
            <stop offset="0.9" stop-color="#9C8AF3" />
            <stop offset="0.94" stop-color="#A063FA" />
        </linearGradient>
        <linearGradient id="paint30_linear_64_1293" x1="622.188" y1="331.535" x2="582.465" y2="120.796"
            gradientUnits="userSpaceOnUse">
            <stop stop-color="#00E4F7" />
            <stop offset="1" stop-color="#00E4F7" stop-opacity="0" />
        </linearGradient>
        <linearGradient id="paint31_linear_64_1293" x1="555.553" y1="104.661" x2="657.821" y2="361.255"
            gradientUnits="userSpaceOnUse">
            <stop stop-color="#FF7A00" />
            <stop offset="1" stop-color="#FF9900" stop-opacity="0" />
        </linearGradient>
        <clipPath id="clip0_64_1293">
            <rect width="1146" height="1046" fill="white" />
        </clipPath>
    </defs>
</svg>