<svg viewBox="0 0 646 493" fill="none" xmlns="http://www.w3.org/2000/svg">
    <g clip-path="url(#clip0_77_3)">
        <path d="M558.65 9.94043H75.56L72.19 492.77H567.47L558.65 9.94043Z" fill="url(#paint0_radial_77_3)" />
        <path d="M99.39 280.11C99.39 285.14 107.21 285.15 107.21 280.11C107.21 275.07 99.39 275.07 99.39 280.11Z"
            fill="#6DFFEC" />
        <path d="M324.23 350.08V226.55H326.57V347.74H422.82V414.59H420.47V350.08H324.23Z" fill="#6DFFEC" />
        <path d="M417 415.63C417 420.66 424.82 420.67 424.82 415.63C424.82 410.59 417 410.59 417 415.63Z"
            fill="#6DFFEC" />
        <path d="M308.3 312.25H305.96V443H308.3V312.25Z" fill="#6DFFEC" />
        <path d="M295.16 278.94H99.39V281.29H295.16V278.94Z" fill="#6DFFEC" />
        <path d="M140.41 384.95V382.61H196.64V231.45H314.73V233.79H198.98V384.95H140.41Z" fill="#6DFFEC" />
        <path d="M207.07 165.41V46.4399H209.42V163.06H278.25V165.41H207.07Z" fill="#6DFFEC" />
        <path d="M364.02 286.76V251.14H511.9V253.49H366.36V284.41H501.2V286.76H364.02Z" fill="#6DFFEC" />
        <path d="M185.02 225.33H104.18V227.68H185.02V225.33Z" fill="#6DFFEC" />
        <path d="M231.14 386.36V304.91H269.68V307.26H233.48V386.36H231.14Z" fill="#6DFFEC" />
        <path d="M317.44 285.96V174.28H341.05V37.3296H343.4V176.63H319.78V285.96H317.44Z" fill="#6DFFEC" />
        <path d="M497.14 285.37C497.14 290.4 504.96 290.41 504.96 285.37C504.96 280.33 497.14 280.33 497.14 285.37Z"
            fill="#6DFFEC" />
        <path d="M504.08 252.53C504.08 257.56 511.9 257.57 511.9 252.53C511.9 247.49 504.08 247.49 504.08 252.53Z"
            fill="#6DFFEC" />
        <path d="M341.05 246.38V171.48H496.03V78.8296H498.38V173.82H343.4V246.38H341.05Z" fill="#6DFFEC" />
        <path
            d="M493.62 78.9597C493.62 83.9897 501.44 83.9997 501.44 78.9597C501.44 73.9197 493.62 73.9197 493.62 78.9597Z"
            fill="#6DFFEC" />
        <path d="M287.63 246.38V171.48H132.65V78.8296H130.3V173.82H285.28V246.38H287.63Z" fill="#6DFFEC" />
        <path
            d="M135.06 78.9597C135.06 83.9897 127.24 83.9997 127.24 78.9597C127.24 73.9197 135.06 73.9197 135.06 78.9597Z"
            fill="#6DFFEC" />
        <path
            d="M338.42 37.7199C338.42 42.7499 346.24 42.7599 346.24 37.7199C346.24 32.6799 338.42 32.6799 338.42 37.7199Z"
            fill="#6DFFEC" />
        <path
            d="M203.94 46.6999C203.94 51.7299 211.76 51.7399 211.76 46.6999C211.76 41.6599 203.94 41.6599 203.94 46.6999Z"
            fill="#6DFFEC" />
        <path d="M100.53 226.25C100.53 231.28 108.35 231.29 108.35 226.25C108.35 221.21 100.53 221.21 100.53 226.25Z"
            fill="#6DFFEC" />
        <path d="M181.06 226.64C181.06 231.67 188.88 231.68 188.88 226.64C188.88 221.61 181.06 221.6 181.06 226.64Z"
            fill="#6DFFEC" />
        <path d="M135.65 383.39C135.65 388.42 143.47 388.43 143.47 383.39C143.47 378.35 135.65 378.35 135.65 383.39Z"
            fill="#6DFFEC" />
        <path d="M228.5 386.23C228.5 391.26 236.32 391.27 236.32 386.23C236.32 381.19 228.5 381.19 228.5 386.23Z"
            fill="#6DFFEC" />
        <path d="M302.41 443.13C302.41 448.16 310.23 448.17 310.23 443.13C310.23 438.1 302.41 438.09 302.41 443.13Z"
            fill="#6DFFEC" />
        <path d="M285.52 78.8296H283.17V229.08H285.52V78.8296Z" fill="#6DFFEC" />
        <path d="M274.76 387.06H272.41V432.15H274.76V387.06Z" fill="#6DFFEC" />
        <path d="M332.19 327.89V325.54H469.89V351.3H549.22V353.65H467.55V327.89H332.19Z" fill="#6DFFEC" />
        <path d="M576.07 207.1H419.72V209.45H576.07V207.1Z" fill="#6DFFEC" />
        <path d="M408.94 57.8696H406.59V172.95H408.94V57.8696Z" fill="#6DFFEC" />
        <path d="M505.82 393.83H458.46V396.18H505.82V393.83Z" fill="#6DFFEC" />
        <path d="M545.23 352.22C545.23 357.25 553.05 357.26 553.05 352.22C553.05 347.19 545.23 347.18 545.23 352.22Z"
            fill="#6DFFEC" />
        <path d="M453.75 395.22C453.75 400.25 461.57 400.26 461.57 395.22C461.57 390.19 453.75 390.18 453.75 395.22Z"
            fill="#6DFFEC" />
        <path d="M501.44 395.61C501.44 400.64 509.26 400.65 509.26 395.61C509.26 390.57 501.44 390.57 501.44 395.61Z"
            fill="#6DFFEC" />
        <path d="M269.68 432.02C269.68 437.05 277.5 437.06 277.5 432.02C277.5 426.98 269.68 426.98 269.68 432.02Z"
            fill="#6DFFEC" />
        <path d="M269.68 387.84C269.68 392.87 277.5 392.88 277.5 387.84C277.5 382.8 269.68 382.8 269.68 387.84Z"
            fill="#6DFFEC" />
        <path d="M256.81 21.1299H254.46V56.3099H256.81V21.1299Z" fill="#6DFFEC" />
        <path
            d="M251.72 57.0998C251.72 62.1298 259.54 62.1398 259.54 57.0998C259.54 52.0598 251.72 52.0598 251.72 57.0998Z"
            fill="#6DFFEC" />
        <path
            d="M251.72 21.1298C251.72 26.1598 259.54 26.1698 259.54 21.1298C259.54 16.0998 251.72 16.0898 251.72 21.1298Z"
            fill="#6DFFEC" />
        <path
            d="M279.78 79.3498C279.78 84.3798 287.6 84.3898 287.6 79.3498C287.6 74.3098 279.78 74.3098 279.78 79.3498Z"
            fill="#6DFFEC" />
        <path d="M403.71 173.81C403.71 178.84 411.53 178.85 411.53 173.81C411.53 168.78 403.71 168.77 403.71 173.81Z"
            fill="#6DFFEC" />
        <path
            d="M403.71 58.0897C403.71 63.1197 411.53 63.1297 411.53 58.0897C411.53 53.0597 403.71 53.0497 403.71 58.0897Z"
            fill="#6DFFEC" />
        <path d="M576.07 208.62C576.07 213.65 583.89 213.66 583.89 208.62C583.89 203.58 576.07 203.58 576.07 208.62Z"
            fill="#6DFFEC" />
        <path d="M416.02 208.16C416.02 213.19 423.84 213.2 423.84 208.16C423.84 203.13 416.02 203.12 416.02 208.16Z"
            fill="#6DFFEC" />
        <path
            d="M316.412 374.49C384.668 374.49 440 314.545 440 240.6C440 166.655 384.668 106.71 316.412 106.71C248.156 106.71 192.824 166.655 192.824 240.6C192.824 314.545 248.156 374.49 316.412 374.49Z"
            fill="#8500EA" stroke="black" stroke-width="1.71" stroke-miterlimit="10" />
        <path
            d="M316.412 374.49C384.668 374.49 440 314.545 440 240.6C440 166.655 384.668 106.71 316.412 106.71C248.156 106.71 192.824 166.655 192.824 240.6C192.824 314.545 248.156 374.49 316.412 374.49Z"
            fill="url(#paint1_linear_77_3)" stroke="black" stroke-width="1.71" stroke-miterlimit="10" />
        <mask id="mask0_77_3" style="mask-type:luminance" maskUnits="userSpaceOnUse" x="192" y="106" width="248"
            height="269">
            <path
                d="M316.412 374.49C384.668 374.49 440 314.545 440 240.6C440 166.655 384.668 106.71 316.412 106.71C248.156 106.71 192.824 166.655 192.824 240.6C192.824 314.545 248.156 374.49 316.412 374.49Z"
                fill="white" />
        </mask>
        <g mask="url(#mask0_77_3)">
            <path d="M274.201 108.16L454.381 127.36" stroke="black" stroke-width="1.71" stroke-miterlimit="10" />
            <path d="M273.564 128.25L453.8 145.61" stroke="black" stroke-width="1.71" stroke-miterlimit="10" />
            <path d="M272.918 148.34L453.209 163.87" stroke="black" stroke-width="1.71" stroke-miterlimit="10" />
            <path d="M272.281 168.43L452.627 182.13" stroke="black" stroke-width="1.71" stroke-miterlimit="10" />
            <path d="M271.635 188.521L452.046 200.381" stroke="black" stroke-width="1.71" stroke-miterlimit="10" />
            <path d="M270.998 208.61L451.464 218.64" stroke="black" stroke-width="1.71" stroke-miterlimit="10" />
            <path d="M270.352 228.7L450.883 236.9" stroke="black" stroke-width="1.71" stroke-miterlimit="10" />
            <path d="M269.715 248.79L450.301 255.15" stroke="black" stroke-width="1.71" stroke-miterlimit="10" />
            <path d="M269.069 268.88L449.711 273.41" stroke="black" stroke-width="1.71" stroke-miterlimit="10" />
            <path d="M268.432 288.97L449.129 291.67" stroke="black" stroke-width="1.71" stroke-miterlimit="10" />
            <path d="M267.786 309.061L448.548 309.921" stroke="black" stroke-width="1.71" stroke-miterlimit="10" />
            <path d="M267.149 329.14L447.966 328.18" stroke="black" stroke-width="1.71" stroke-miterlimit="10" />
            <path d="M266.503 349.23L447.384 346.43" stroke="black" stroke-width="1.71" stroke-miterlimit="10" />
            <path d="M265.866 369.32L446.794 364.69" stroke="black" stroke-width="1.71" stroke-miterlimit="10" />
        </g>
        <path
            d="M298.56 373.51C366.801 373.51 422.12 313.579 422.12 239.65C422.12 165.721 366.801 105.79 298.56 105.79C230.32 105.79 175 165.721 175 239.65C175 313.579 230.32 373.51 298.56 373.51Z"
            fill="url(#paint2_linear_77_3)" stroke="black" stroke-width="1.71" stroke-miterlimit="10" />
        <path
            d="M298.56 348.16C353.877 348.16 398.721 299.578 398.721 239.65C398.721 179.721 353.877 131.14 298.56 131.14C243.243 131.14 198.399 179.721 198.399 239.65C198.399 299.578 243.243 348.16 298.56 348.16Z"
            fill="white" stroke="#FF9900" stroke-width="1.71" />
        <path
            d="M298.56 348.16C353.877 348.16 398.721 299.578 398.721 239.65C398.721 179.721 353.877 131.14 298.56 131.14C243.243 131.14 198.399 179.721 198.399 239.65C198.399 299.578 243.243 348.16 298.56 348.16Z"
            fill="#FFD7B6" stroke="#FF9900" stroke-width="1.71" />
        <path
            d="M295.837 232.6C304.108 232.6 315.027 231.62 321.157 225.06C322.661 223.64 323.852 221.89 324.655 219.94C325.458 217.99 325.855 215.88 325.809 213.75C325.606 198.83 313.92 193.56 302.972 193.59H286.496L286.597 231.89L288.462 232.12C290.908 232.42 293.373 232.58 295.837 232.6ZM304.052 244.99L286.662 245.19L286.8 290.11H304.412C317.317 290.11 331.107 284.12 331.144 267.57C331.246 264.85 330.821 262.12 329.898 259.58C328.966 257.03 327.553 254.71 325.744 252.76C318.83 245.52 307.403 244.98 304.052 245V244.99Z"
            fill="url(#paint3_linear_77_3)" />
        <path
            d="M370.872 160.23C351.064 140.62 324.701 130.01 297.508 130.72H296.419C268.976 131.7 243.02 144.07 224.208 165.13C205.396 186.19 195.279 214.22 196.046 243.11C196.812 272 208.415 299.4 228.306 319.32C248.198 339.24 274.782 350.06 302.225 349.43H303.268C323.815 348.71 343.698 341.6 360.405 328.99C377.112 316.38 389.887 298.85 397.124 278.59C404.361 258.34 405.727 236.28 401.056 215.21C396.386 194.14 385.881 175.01 370.872 160.22V160.23ZM339.83 296.48C333.405 299.14 326.584 300.57 319.689 300.72H317.584L317.409 302.94V324.58H302.012V300.56L286.847 300.69V324.55H271.321L271.284 300.78L245.198 300.99V290.27H254.881C256.838 290.27 258.721 289.43 260.096 287.97C261.472 286.5 262.247 284.52 262.247 282.46L261.998 201.48C261.998 197.44 258.943 194.64 254.595 194.64L244.884 193.92V178.98H271.238V154.37H286.523V179.02H301.809V154.32H317.095V179.04H319.91C325.19 179.04 351.663 184.83 351.737 207.39C351.737 232.25 331.938 234.93 331.596 235.68L330.544 235.77C331.642 235.89 357.506 241.13 357.322 269.92C357.165 282.4 351.424 291.31 339.83 296.5V296.48Z"
            fill="url(#paint4_linear_77_3)" />
        <path
            d="M295.837 232.6C304.108 232.6 315.027 231.62 321.157 225.06C322.661 223.64 323.852 221.89 324.655 219.94C325.458 217.99 325.855 215.88 325.809 213.75C325.606 198.83 313.92 193.56 302.972 193.59H286.496L286.597 231.89L288.462 232.12C290.908 232.42 293.373 232.58 295.837 232.6ZM304.052 244.99L286.662 245.19L286.8 290.11H304.412C317.317 290.11 331.107 284.12 331.144 267.57C331.246 264.85 330.821 262.12 329.898 259.58C328.966 257.03 327.553 254.71 325.744 252.76C318.83 245.52 307.403 244.98 304.052 245V244.99Z"
            stroke="black" stroke-width="2.27" stroke-miterlimit="10" />
        <path
            d="M370.872 160.23C351.064 140.62 324.701 130.01 297.508 130.72H296.419C268.976 131.7 243.02 144.07 224.208 165.13C205.396 186.19 195.279 214.22 196.046 243.11C196.812 272 208.415 299.4 228.306 319.32C248.198 339.24 274.782 350.06 302.225 349.43H303.268C323.815 348.71 343.698 341.6 360.405 328.99C377.112 316.38 389.887 298.85 397.124 278.59C404.361 258.34 405.727 236.28 401.056 215.21C396.386 194.14 385.881 175.01 370.872 160.22V160.23ZM339.83 296.48C333.405 299.14 326.584 300.57 319.689 300.72H317.584L317.409 302.94V324.58H302.012V300.56L286.847 300.69V324.55H271.321L271.284 300.78L245.198 300.99V290.27H254.881C256.838 290.27 258.721 289.43 260.096 287.97C261.472 286.5 262.247 284.52 262.247 282.46L261.998 201.48C261.998 197.44 258.943 194.64 254.595 194.64L244.884 193.92V178.98H271.238V154.37H286.523V179.02H301.809V154.32H317.095V179.04H319.91C325.19 179.04 351.663 184.83 351.737 207.39C351.737 232.25 331.938 234.93 331.596 235.68L330.544 235.77C331.642 235.89 357.506 241.13 357.322 269.92C357.165 282.4 351.424 291.31 339.83 296.5V296.48Z"
            stroke="black" stroke-width="2.27" stroke-miterlimit="10" />
        <path
            d="M132.71 126.4C163.091 126.4 187.72 101.772 187.72 71.3904C187.72 41.0092 163.091 16.3804 132.71 16.3804C102.329 16.3804 77.7 41.0092 77.7 71.3904C77.7 101.772 102.329 126.4 132.71 126.4Z"
            fill="#8500EA" stroke="black" stroke-width="0.7" stroke-miterlimit="10" />
        <path
            d="M132.71 126.4C163.091 126.4 187.72 101.772 187.72 71.3904C187.72 41.0092 163.091 16.3804 132.71 16.3804C102.329 16.3804 77.7 41.0092 77.7 71.3904C77.7 101.772 102.329 126.4 132.71 126.4Z"
            fill="url(#paint5_linear_77_3)" stroke="black" stroke-width="0.7" stroke-miterlimit="10" />
        <mask id="mask1_77_3" style="mask-type:luminance" maskUnits="userSpaceOnUse" x="77" y="16" width="111"
            height="111">
            <path
                d="M132.71 126.4C163.091 126.4 187.72 101.772 187.72 71.3904C187.72 41.0092 163.091 16.3804 132.71 16.3804C102.329 16.3804 77.7 41.0092 77.7 71.3904C77.7 101.772 102.329 126.4 132.71 126.4Z"
                fill="white" />
        </mask>
        <g mask="url(#mask1_77_3)">
            <path d="M113.92 16.9702L194.13 24.8602" stroke="black" stroke-width="0.7" stroke-miterlimit="10" />
            <path d="M113.64 25.23L193.87 32.36" stroke="black" stroke-width="0.7" stroke-miterlimit="10" />
            <path d="M113.35 33.48L193.61 39.86" stroke="black" stroke-width="0.7" stroke-miterlimit="10" />
            <path d="M113.06 41.7402L193.35 47.3702" stroke="black" stroke-width="0.7" stroke-miterlimit="10" />
            <path d="M112.78 49.9902L193.09 54.8702" stroke="black" stroke-width="0.7" stroke-miterlimit="10" />
            <path d="M112.49 58.25L192.83 62.37" stroke="black" stroke-width="0.7" stroke-miterlimit="10" />
            <path d="M112.21 66.5L192.57 69.87" stroke="black" stroke-width="0.7" stroke-miterlimit="10" />
            <path d="M111.92 74.7603L192.31 77.3703" stroke="black" stroke-width="0.7" stroke-miterlimit="10" />
            <path d="M111.64 83.0103L192.05 84.8703" stroke="black" stroke-width="0.7" stroke-miterlimit="10" />
            <path d="M111.35 91.27L191.79 92.37" stroke="black" stroke-width="0.7" stroke-miterlimit="10" />
            <path d="M111.06 99.52L191.53 99.88" stroke="black" stroke-width="0.7" stroke-miterlimit="10" />
            <path d="M110.78 107.78L191.27 107.38" stroke="black" stroke-width="0.7" stroke-miterlimit="10" />
            <path d="M110.49 116.03L191.01 114.88" stroke="black" stroke-width="0.7" stroke-miterlimit="10" />
            <path d="M110.21 124.28L190.75 122.38" stroke="black" stroke-width="0.7" stroke-miterlimit="10" />
        </g>
        <path
            d="M124.76 126.01C155.141 126.01 179.77 101.381 179.77 71.0002C179.77 40.6191 155.141 15.9902 124.76 15.9902C94.3788 15.9902 69.75 40.6191 69.75 71.0002C69.75 101.381 94.3788 126.01 124.76 126.01Z"
            fill="url(#paint6_linear_77_3)" stroke="black" stroke-width="0.7" stroke-miterlimit="10" />
        <path
            d="M124.76 115.59C149.386 115.59 169.35 95.6265 169.35 71.0002C169.35 46.3738 149.386 26.4102 124.76 26.4102C100.134 26.4102 80.17 46.3738 80.17 71.0002C80.17 95.6265 100.134 115.59 124.76 115.59Z"
            fill="white" stroke="#FF9900" stroke-width="0.7" />
        <path
            d="M124.76 115.59C149.386 115.59 169.35 95.6265 169.35 71.0002C169.35 46.3738 149.386 26.4102 124.76 26.4102C100.134 26.4102 80.17 46.3738 80.17 71.0002C80.17 95.6265 100.134 115.59 124.76 115.59Z"
            fill="#FFD7B6" stroke="#FF9900" stroke-width="0.7" />
        <mask id="mask2_77_3" style="mask-type:luminance" maskUnits="userSpaceOnUse" x="77" y="25" width="93"
            height="93">
            <path d="M169.61 25.3901H77.99V117.01H169.61V25.3901Z" fill="white" />
        </mask>
        <g mask="url(#mask2_77_3)">
            <path
                d="M123.81 115.1C148.055 115.1 167.71 95.4456 167.71 71.2003C167.71 46.955 148.055 27.3003 123.81 27.3003C99.5647 27.3003 79.91 46.955 79.91 71.2003C79.91 95.4456 99.5647 115.1 123.81 115.1Z"
                fill="white" stroke="#E6007A" stroke-width="3.82" />
            <mask id="mask3_77_3" style="mask-type:luminance" maskUnits="userSpaceOnUse" x="100" y="48" width="47"
                height="47">
                <path d="M146.71 48.2905H100.9V94.1005H146.71V48.2905Z" fill="white" />
            </mask>
            <g mask="url(#mask3_77_3)">
                <path
                    d="M123.8 57.9003C128.65 57.9003 132.59 55.7503 132.59 53.1003C132.59 50.4503 128.66 48.3003 123.8 48.3003C118.94 48.3003 115.01 50.4503 115.01 53.1003C115.01 55.7503 118.94 57.9003 123.8 57.9003Z"
                    fill="#E6007A" />
                <path
                    d="M123.8 94.1005C128.65 94.1005 132.59 91.9505 132.59 89.3005C132.59 86.6505 128.66 84.5005 123.8 84.5005C118.94 84.5005 115.01 86.6505 115.01 89.3005C115.01 91.9505 118.94 94.1005 123.8 94.1005Z"
                    fill="#E6007A" />
                <path
                    d="M111.56 64.5502C113.99 60.6002 113.97 56.3202 111.52 54.9902C109.07 53.6602 105.13 55.7902 102.7 59.7402C100.27 63.6902 100.29 67.9702 102.74 69.3002C105.19 70.6302 109.13 68.5002 111.56 64.5502Z"
                    fill="#E6007A" />
                <path
                    d="M144.9 82.6503C147.33 78.7003 147.31 74.4203 144.87 73.0903C142.43 71.7603 138.48 73.8903 136.05 77.8403C133.62 81.7903 133.64 86.0703 136.08 87.4003C138.52 88.7303 142.47 86.6003 144.9 82.6503Z"
                    fill="#E6007A" />
                <path
                    d="M111.53 87.4003C113.98 86.0703 113.99 81.7903 111.57 77.8403C109.14 73.8903 105.2 71.7603 102.75 73.0903C100.3 74.4203 100.29 78.7003 102.71 82.6503C105.14 86.6003 109.08 88.7303 111.53 87.4003Z"
                    fill="#E6007A" />
                <path
                    d="M144.87 69.3002C147.31 67.9702 147.33 63.6902 144.9 59.7402C142.47 55.7902 138.53 53.6602 136.08 54.9902C133.64 56.3202 133.62 60.6002 136.05 64.5502C138.48 68.5002 142.42 70.6302 144.87 69.3002Z"
                    fill="#E6007A" />
            </g>
        </g>
        <path
            d="M506.23 110.76C536.611 110.76 561.24 86.1314 561.24 55.7502C561.24 25.369 536.611 0.740234 506.23 0.740234C475.849 0.740234 451.22 25.369 451.22 55.7502C451.22 86.1314 475.849 110.76 506.23 110.76Z"
            fill="#8500EA" stroke="black" stroke-width="0.7" stroke-miterlimit="10" />
        <path
            d="M506.23 110.76C536.611 110.76 561.24 86.1314 561.24 55.7502C561.24 25.369 536.611 0.740234 506.23 0.740234C475.849 0.740234 451.22 25.369 451.22 55.7502C451.22 86.1314 475.849 110.76 506.23 110.76Z"
            fill="url(#paint7_linear_77_3)" stroke="black" stroke-width="0.7" stroke-miterlimit="10" />
        <mask id="mask4_77_3" style="mask-type:luminance" maskUnits="userSpaceOnUse" x="451" y="0" width="111"
            height="111">
            <path
                d="M506.23 110.76C536.611 110.76 561.24 86.1314 561.24 55.7502C561.24 25.369 536.611 0.740234 506.23 0.740234C475.849 0.740234 451.22 25.369 451.22 55.7502C451.22 86.1314 475.849 110.76 506.23 110.76Z"
                fill="white" />
        </mask>
        <g mask="url(#mask4_77_3)">
            <path d="M487.44 1.34033L567.64 9.22033" stroke="black" stroke-width="0.7" stroke-miterlimit="10" />
            <path d="M487.15 9.59033L567.39 16.7303" stroke="black" stroke-width="0.7" stroke-miterlimit="10" />
            <path d="M486.87 17.8501L567.13 24.2301" stroke="black" stroke-width="0.7" stroke-miterlimit="10" />
            <path d="M486.58 26.1001L566.87 31.7301" stroke="black" stroke-width="0.7" stroke-miterlimit="10" />
            <path d="M486.3 34.3604L566.61 39.2304" stroke="black" stroke-width="0.7" stroke-miterlimit="10" />
            <path d="M486.01 42.6104L566.35 46.7304" stroke="black" stroke-width="0.7" stroke-miterlimit="10" />
            <path d="M485.73 50.8604L566.09 54.2304" stroke="black" stroke-width="0.7" stroke-miterlimit="10" />
            <path d="M485.44 59.1201L565.83 61.7301" stroke="black" stroke-width="0.7" stroke-miterlimit="10" />
            <path d="M485.15 67.3701L565.57 69.2401" stroke="black" stroke-width="0.7" stroke-miterlimit="10" />
            <path d="M484.87 75.6304L565.31 76.7404" stroke="black" stroke-width="0.7" stroke-miterlimit="10" />
            <path d="M484.58 83.8804L565.05 84.2404" stroke="black" stroke-width="0.7" stroke-miterlimit="10" />
            <path d="M484.3 92.1402L564.79 91.7402" stroke="black" stroke-width="0.7" stroke-miterlimit="10" />
            <path d="M484.01 100.39L564.53 99.2402" stroke="black" stroke-width="0.7" stroke-miterlimit="10" />
            <path d="M483.73 108.65L564.27 106.74" stroke="black" stroke-width="0.7" stroke-miterlimit="10" />
        </g>
        <path
            d="M498.28 110.38C528.661 110.38 553.29 85.7515 553.29 55.3703C553.29 24.9892 528.661 0.360352 498.28 0.360352C467.899 0.360352 443.27 24.9892 443.27 55.3703C443.27 85.7515 467.899 110.38 498.28 110.38Z"
            fill="url(#paint8_linear_77_3)" stroke="black" stroke-width="0.7" stroke-miterlimit="10" />
        <path
            d="M498.28 99.9603C522.906 99.9603 542.87 79.9967 542.87 55.3703C542.87 30.7439 522.906 10.7803 498.28 10.7803C473.654 10.7803 453.69 30.7439 453.69 55.3703C453.69 79.9967 473.654 99.9603 498.28 99.9603Z"
            fill="white" stroke="#FF9900" stroke-width="0.7" />
        <path
            d="M498.28 99.9603C522.906 99.9603 542.87 79.9967 542.87 55.3703C542.87 30.7439 522.906 10.7803 498.28 10.7803C473.654 10.7803 453.69 30.7439 453.69 55.3703C453.69 79.9967 473.654 99.9603 498.28 99.9603Z"
            fill="#FFD7B6" stroke="#FF9900" stroke-width="0.7" />
        <mask id="mask5_77_3" style="mask-type:luminance" maskUnits="userSpaceOnUse" x="451" y="9" width="93"
            height="93">
            <path d="M543.13 9.75049H451.51V101.37H543.13V9.75049Z" fill="white" />
        </mask>
        <g mask="url(#mask5_77_3)">
            <path
                d="M497.32 99.4606C521.565 99.4606 541.22 79.8059 541.22 55.5606C541.22 31.3153 521.565 11.6606 497.32 11.6606C473.075 11.6606 453.42 31.3153 453.42 55.5606C453.42 79.8059 473.075 99.4606 497.32 99.4606Z"
                fill="white" stroke="#FF9900" stroke-width="3.82" />
            <mask id="mask6_77_3" style="mask-type:luminance" maskUnits="userSpaceOnUse" x="470" y="32" width="55"
                height="47">
                <path d="M524.05 32.6509H470.6V78.4609H524.05V32.6509Z" fill="white" />
            </mask>
            <g mask="url(#mask6_77_3)">
                <path
                    d="M523.1 78.4709H486.88C486.71 78.4709 486.54 78.4209 486.39 78.3209L473.31 69.5909C473.13 69.4809 473 69.3109 472.92 69.1009C472.84 68.8909 472.83 68.6709 472.89 68.4509C472.95 68.2409 473.07 68.0509 473.23 67.9209C473.39 67.7909 473.59 67.7209 473.8 67.7209H510.02C510.19 67.7209 510.36 67.7709 510.51 67.8709L523.59 76.6009C523.77 76.7109 523.9 76.8809 523.98 77.0909C524.06 77.3009 524.07 77.5209 524.01 77.7409C523.95 77.9509 523.83 78.1409 523.67 78.2709C523.5 78.4009 523.3 78.4709 523.1 78.4609V78.4709ZM487.15 76.4609H519.83L509.75 69.7409H477.07L487.15 76.4609ZM520.85 43.4109H484.63C484.46 43.4109 484.29 43.3609 484.14 43.2609L471.05 34.5309C470.87 34.4209 470.74 34.2509 470.66 34.0409C470.58 33.8409 470.57 33.6109 470.63 33.4009C470.69 33.1909 470.8 33.0009 470.97 32.8709C471.13 32.7409 471.33 32.6709 471.54 32.6709H507.77C507.94 32.6709 508.11 32.7209 508.26 32.8209L521.34 41.5509C521.52 41.6609 521.65 41.8309 521.73 42.0409C521.81 42.2509 521.82 42.4709 521.76 42.6809C521.7 42.8909 521.58 43.0809 521.42 43.2109C521.26 43.3409 521.06 43.4109 520.85 43.4109ZM484.9 41.4009H517.58L507.5 34.6809H474.82L484.9 41.4009Z"
                    fill="black" />
                <path
                    d="M497.97 55.0311C498.72 55.0311 499.71 54.9411 500.27 54.3311C500.41 54.2011 500.51 54.0311 500.59 53.8511C500.66 53.6711 500.7 53.4711 500.69 53.2711C500.67 51.8811 499.61 51.3911 498.62 51.3911H497.12V54.9611L497.3 54.9811C497.52 55.0111 497.75 55.0211 497.97 55.0211V55.0311ZM498.72 56.1811L497.14 56.2011V60.3911H498.75C499.92 60.3911 501.17 59.8311 501.18 58.2911C501.18 58.0411 501.15 57.7811 501.07 57.5411C500.99 57.3011 500.86 57.0911 500.69 56.9011C500.06 56.2311 499.03 56.1811 498.72 56.1811Z"
                    fill="#FF9900" />
                <path
                    d="M504.78 48.2808C502.98 46.4508 500.59 45.4608 498.12 45.5308H498.02C495.53 45.6208 493.17 46.7708 491.47 48.7408C489.76 50.7008 488.84 53.3208 488.91 56.0108C488.98 58.7008 490.03 61.2608 491.84 63.1208C493.65 64.9808 496.06 65.9908 498.55 65.9308H498.64C500.5 65.8608 502.31 65.2008 503.83 64.0208C505.35 62.8408 506.51 61.2108 507.16 59.3208C507.82 57.4308 507.94 55.3808 507.52 53.4108C507.1 51.4508 506.14 49.6608 504.78 48.2808ZM501.96 60.9808C501.38 61.2308 500.76 61.3608 500.13 61.3808H499.94L499.92 61.5908V63.6108H498.52V61.3708H497.14V63.6108H495.73V61.3908L493.36 61.4108V60.4108H494.24C494.42 60.4108 494.59 60.3308 494.71 60.2008C494.84 60.0608 494.91 59.8808 494.91 59.6908L494.89 52.1408C494.89 51.7608 494.61 51.5008 494.22 51.5008L493.34 51.4308V50.0408H495.73V47.7508H497.12V50.0508H498.51V47.7508H499.9V50.0508H500.16C500.64 50.0508 503.04 50.5908 503.05 52.6908C503.05 55.0108 501.25 55.2608 501.22 55.3308H501.12C501.22 55.3508 503.57 55.8408 503.55 58.5208C503.54 59.6808 503.01 60.5108 501.96 61.0008V60.9808Z"
                    fill="#FF9900" />
            </g>
        </g>
        <path
            d="M590.56 261.06C620.941 261.06 645.57 236.431 645.57 206.05C645.57 175.669 620.941 151.04 590.56 151.04C560.179 151.04 535.55 175.669 535.55 206.05C535.55 236.431 560.179 261.06 590.56 261.06Z"
            fill="#8500EA" stroke="black" stroke-width="0.7" stroke-miterlimit="10" />
        <path
            d="M590.56 261.06C620.941 261.06 645.57 236.431 645.57 206.05C645.57 175.669 620.941 151.04 590.56 151.04C560.179 151.04 535.55 175.669 535.55 206.05C535.55 236.431 560.179 261.06 590.56 261.06Z"
            fill="url(#paint9_linear_77_3)" stroke="black" stroke-width="0.7" stroke-miterlimit="10" />
        <mask id="mask7_77_3" style="mask-type:luminance" maskUnits="userSpaceOnUse" x="535" y="151" width="111"
            height="111">
            <path
                d="M590.56 261.06C620.941 261.06 645.57 236.431 645.57 206.05C645.57 175.669 620.941 151.04 590.56 151.04C560.179 151.04 535.55 175.669 535.55 206.05C535.55 236.431 560.179 261.06 590.56 261.06Z"
                fill="white" />
        </mask>
        <g mask="url(#mask7_77_3)">
            <path d="M571.77 151.64L651.98 159.52" stroke="black" stroke-width="0.7" stroke-miterlimit="10" />
            <path d="M571.49 159.89L651.72 167.03" stroke="black" stroke-width="0.7" stroke-miterlimit="10" />
            <path d="M571.2 168.15L651.46 174.53" stroke="black" stroke-width="0.7" stroke-miterlimit="10" />
            <path d="M570.92 176.4L651.2 182.03" stroke="black" stroke-width="0.7" stroke-miterlimit="10" />
            <path d="M570.63 184.65L650.94 189.53" stroke="black" stroke-width="0.7" stroke-miterlimit="10" />
            <path d="M570.35 192.91L650.68 197.03" stroke="black" stroke-width="0.7" stroke-miterlimit="10" />
            <path d="M570.06 201.16L650.42 204.53" stroke="black" stroke-width="0.7" stroke-miterlimit="10" />
            <path d="M569.77 209.42L650.16 212.03" stroke="black" stroke-width="0.7" stroke-miterlimit="10" />
            <path d="M569.49 217.67L649.9 219.54" stroke="black" stroke-width="0.7" stroke-miterlimit="10" />
            <path d="M569.2 225.93L649.64 227.04" stroke="black" stroke-width="0.7" stroke-miterlimit="10" />
            <path d="M568.92 234.18L649.38 234.54" stroke="black" stroke-width="0.7" stroke-miterlimit="10" />
            <path d="M568.63 242.44L649.12 242.04" stroke="black" stroke-width="0.7" stroke-miterlimit="10" />
            <path d="M568.35 250.69L648.86 249.54" stroke="black" stroke-width="0.7" stroke-miterlimit="10" />
            <path d="M568.06 258.95L648.6 257.04" stroke="black" stroke-width="0.7" stroke-miterlimit="10" />
        </g>
        <path
            d="M582.61 250.26C607.236 250.26 627.2 230.296 627.2 205.67C627.2 181.044 607.236 161.08 582.61 161.08C557.984 161.08 538.02 181.044 538.02 205.67C538.02 230.296 557.984 250.26 582.61 250.26Z"
            fill="white" stroke="#FF9900" stroke-width="0.7" />
        <path
            d="M582.61 250.26C607.236 250.26 627.2 230.296 627.2 205.67C627.2 181.044 607.236 161.08 582.61 161.08C557.984 161.08 538.02 181.044 538.02 205.67C538.02 230.296 557.984 250.26 582.61 250.26Z"
            fill="#FFD7B6" stroke="#FF9900" stroke-width="0.7" />
        <path
            d="M582.61 260.68C612.991 260.68 637.62 236.051 637.62 205.67C637.62 175.289 612.991 150.66 582.61 150.66C552.229 150.66 527.6 175.289 527.6 205.67C527.6 236.051 552.229 260.68 582.61 260.68Z"
            fill="url(#paint10_linear_77_3)" stroke="black" stroke-width="0.7" stroke-miterlimit="10" />
        <mask id="mask8_77_3" style="mask-type:luminance" maskUnits="userSpaceOnUse" x="535" y="160" width="93"
            height="92">
            <path d="M627.47 160.05H535.85V251.67H627.47V160.05Z" fill="white" />
        </mask>
        <g mask="url(#mask8_77_3)">
            <path
                d="M581.66 249.76C605.905 249.76 625.56 230.106 625.56 205.86C625.56 181.615 605.905 161.96 581.66 161.96C557.415 161.96 537.76 181.615 537.76 205.86C537.76 230.106 557.415 249.76 581.66 249.76Z"
                fill="url(#paint11_linear_77_3)" stroke="#393939" stroke-width="3.82" />
            <mask id="mask9_77_3" style="mask-type:luminance" maskUnits="userSpaceOnUse" x="566" y="179" width="31"
                height="50">
                <path d="M596.93 179.141H566.39V228.771H596.93V179.141Z" fill="white" />
            </mask>
            <g mask="url(#mask9_77_3)">
                <path d="M581.65 179.141L581.32 180.271V213.091L581.65 213.421L596.92 204.421L581.65 179.151V179.141Z"
                    fill="#343434" />
                <path d="M581.65 179.141L566.38 204.411L581.65 213.411V179.131V179.141Z" fill="#8C8C8C" />
                <path d="M581.65 216.301L581.46 216.531V228.221L581.65 228.771L596.93 207.301L581.65 216.301Z"
                    fill="#3C3C3B" />
                <path d="M581.65 228.771V216.301L566.38 207.301L581.65 228.771Z" fill="#8C8C8C" />
                <path d="M581.65 213.421L596.92 204.421L581.65 197.501V213.431V213.421Z" fill="#141414" />
                <path d="M566.39 204.411L581.66 213.411V197.481L566.39 204.401V204.411Z" fill="#393939" />
            </g>
        </g>
        <path
            d="M584.01 407.02C614.391 407.02 639.02 382.392 639.02 352.01C639.02 321.629 614.391 297 584.01 297C553.629 297 529 321.629 529 352.01C529 382.392 553.629 407.02 584.01 407.02Z"
            fill="#8500EA" stroke="black" stroke-width="0.7" stroke-miterlimit="10" />
        <path
            d="M584.01 407.02C614.391 407.02 639.02 382.392 639.02 352.01C639.02 321.629 614.391 297 584.01 297C553.629 297 529 321.629 529 352.01C529 382.392 553.629 407.02 584.01 407.02Z"
            fill="url(#paint12_linear_77_3)" stroke="black" stroke-width="0.7" stroke-miterlimit="10" />
        <mask id="mask10_77_3" style="mask-type:luminance" maskUnits="userSpaceOnUse" x="529" y="297" width="111"
            height="111">
            <path
                d="M584.01 407.02C614.391 407.02 639.02 382.392 639.02 352.01C639.02 321.629 614.391 297 584.01 297C553.629 297 529 321.629 529 352.01C529 382.392 553.629 407.02 584.01 407.02Z"
                fill="white" />
        </mask>
        <g mask="url(#mask10_77_3)">
            <path d="M565.22 297.59L645.42 305.48" stroke="black" stroke-width="0.7" stroke-miterlimit="10" />
            <path d="M564.93 305.851L645.16 312.981" stroke="black" stroke-width="0.7" stroke-miterlimit="10" />
            <path d="M564.65 314.101L644.91 320.481" stroke="black" stroke-width="0.7" stroke-miterlimit="10" />
            <path d="M564.36 322.36L644.65 327.99" stroke="black" stroke-width="0.7" stroke-miterlimit="10" />
            <path d="M564.08 330.61L644.39 335.49" stroke="black" stroke-width="0.7" stroke-miterlimit="10" />
            <path d="M563.79 338.87L644.13 342.99" stroke="black" stroke-width="0.7" stroke-miterlimit="10" />
            <path d="M563.51 347.12L643.87 350.49" stroke="black" stroke-width="0.7" stroke-miterlimit="10" />
            <path d="M563.22 355.38L643.61 357.99" stroke="black" stroke-width="0.7" stroke-miterlimit="10" />
            <path d="M562.93 363.63L643.35 365.49" stroke="black" stroke-width="0.7" stroke-miterlimit="10" />
            <path d="M562.65 371.89L643.09 373" stroke="black" stroke-width="0.7" stroke-miterlimit="10" />
            <path d="M562.36 380.14L642.83 380.5" stroke="black" stroke-width="0.7" stroke-miterlimit="10" />
            <path d="M562.08 388.4L642.57 388" stroke="black" stroke-width="0.7" stroke-miterlimit="10" />
            <path d="M561.79 396.65L642.31 395.5" stroke="black" stroke-width="0.7" stroke-miterlimit="10" />
            <path d="M561.51 404.9L642.05 403" stroke="black" stroke-width="0.7" stroke-miterlimit="10" />
        </g>
        <path
            d="M576.06 406.63C606.441 406.63 631.07 382.002 631.07 351.62C631.07 321.239 606.441 296.61 576.06 296.61C545.679 296.61 521.05 321.239 521.05 351.62C521.05 382.002 545.679 406.63 576.06 406.63Z"
            fill="url(#paint13_linear_77_3)" stroke="black" stroke-width="0.7" stroke-miterlimit="10" />
        <path
            d="M576.06 396.21C600.686 396.21 620.65 376.247 620.65 351.62C620.65 326.994 600.686 307.03 576.06 307.03C551.434 307.03 531.47 326.994 531.47 351.62C531.47 376.247 551.434 396.21 576.06 396.21Z"
            fill="white" stroke="#FF9900" stroke-width="0.7" />
        <path
            d="M576.06 396.21C600.686 396.21 620.65 376.247 620.65 351.62C620.65 326.994 600.686 307.03 576.06 307.03C551.434 307.03 531.47 326.994 531.47 351.62C531.47 376.247 551.434 396.21 576.06 396.21Z"
            fill="#FFD7B6" stroke="#FF9900" stroke-width="0.7" />
        <path
            d="M618.41 351.82C618.41 375.74 599.019 395.13 575.1 395.13C551.181 395.13 531.79 375.74 531.79 351.82C531.79 327.901 551.181 308.51 575.1 308.51C599.019 308.51 618.41 327.901 618.41 351.82Z"
            fill="#2E3148" stroke="black" stroke-width="5" />
        <path
            d="M575.1 378.4C589.78 378.4 601.68 366.5 601.68 351.82C601.68 337.141 589.78 325.24 575.1 325.24C560.42 325.24 548.52 337.141 548.52 351.82C548.52 366.5 560.42 378.4 575.1 378.4Z"
            fill="#1B1E36" />
        <path
            d="M575.2 311.85C570.25 311.85 566.25 329.79 566.25 351.91C566.25 374.03 570.26 391.97 575.2 391.97C580.14 391.97 584.15 374.03 584.15 351.91C584.15 329.79 580.14 311.85 575.2 311.85ZM575.82 389.71C575.25 390.46 574.69 389.9 574.69 389.9C572.41 387.26 571.27 382.36 571.27 382.36C567.29 369.54 568.23 342.02 568.23 342.02C570.1 320.17 573.51 315.01 574.67 313.86C574.91 313.62 575.3 313.59 575.58 313.79C577.26 314.98 578.67 319.96 578.67 319.96C582.83 335.42 582.46 349.94 582.46 349.94C582.84 362.57 580.37 376.71 580.37 376.71C578.47 387.46 575.82 389.72 575.82 389.72V389.71Z"
            fill="#6F7390" />
        <path
            d="M609.95 331.98C607.49 327.69 589.94 333.14 570.73 344.15C551.53 355.16 537.98 367.57 540.44 371.85C542.9 376.13 560.45 370.69 579.66 359.68C598.87 348.67 612.41 336.26 609.95 331.98ZM542.72 371.26C541.78 371.14 541.99 370.37 541.99 370.37C543.15 367.08 546.83 363.65 546.83 363.65C555.97 353.81 580.32 340.94 580.32 340.94C600.2 331.69 606.38 332.08 607.95 332.51C608.28 332.6 608.5 332.92 608.46 333.26C608.27 335.31 604.64 339.01 604.64 339.01C593.31 350.32 580.53 357.22 580.53 357.22C569.76 363.84 556.27 368.73 556.27 368.73C546 372.43 542.72 371.25 542.72 371.25V371.26Z"
            fill="#6F7390" />
        <path
            d="M609.86 371.99C612.34 367.71 598.83 355.25 579.7 344.16C560.57 333.07 543.02 327.55 540.54 331.84C538.06 336.13 551.57 348.58 570.71 359.67C589.85 370.76 607.38 376.28 609.86 371.99ZM542.18 333.49C541.81 332.62 542.59 332.41 542.59 332.41C546.02 331.76 550.83 333.24 550.83 333.24C563.92 336.22 587.26 350.84 587.26 350.84C605.23 363.41 607.99 368.95 608.4 370.53C608.49 370.86 608.32 371.21 608.01 371.35C606.14 372.21 601.12 370.93 601.12 370.93C585.65 366.78 573.28 359.18 573.28 359.18C562.16 353.18 551.17 343.96 551.17 343.96C542.82 336.93 542.19 333.5 542.19 333.5L542.18 333.49Z"
            fill="#6F7390" />
        <path
            d="M575.1 356.53C577.701 356.53 579.81 354.422 579.81 351.82C579.81 349.219 577.701 347.11 575.1 347.11C572.499 347.11 570.39 349.219 570.39 351.82C570.39 354.422 572.499 356.53 575.1 356.53Z"
            fill="#B7B9C8" />
        <path
            d="M594.43 336.55C595.938 336.55 597.16 335.283 597.16 333.72C597.16 332.157 595.938 330.89 594.43 330.89C592.922 330.89 591.7 332.157 591.7 333.72C591.7 335.283 592.922 336.55 594.43 336.55Z"
            fill="#B7B9C8" />
        <path
            d="M549.56 346.16C551.068 346.16 552.29 344.893 552.29 343.33C552.29 341.767 551.068 340.5 549.56 340.5C548.052 340.5 546.83 341.767 546.83 343.33C546.83 344.893 548.052 346.16 549.56 346.16Z"
            fill="#B7B9C8" />
        <path
            d="M569.54 380.85C571.048 380.85 572.27 379.583 572.27 378.02C572.27 376.457 571.048 375.19 569.54 375.19C568.032 375.19 566.81 376.457 566.81 378.02C566.81 379.583 568.032 380.85 569.54 380.85Z"
            fill="#B7B9C8" />
        <path
            d="M63.31 279.02C93.6912 279.02 118.32 254.392 118.32 224.01C118.32 193.629 93.6912 169 63.31 169C32.9288 169 8.29999 193.629 8.29999 224.01C8.29999 254.392 32.9288 279.02 63.31 279.02Z"
            fill="#8500EA" stroke="black" stroke-width="0.7" stroke-miterlimit="10" />
        <path
            d="M63.31 279.02C93.6912 279.02 118.32 254.392 118.32 224.01C118.32 193.629 93.6912 169 63.31 169C32.9288 169 8.29999 193.629 8.29999 224.01C8.29999 254.392 32.9288 279.02 63.31 279.02Z"
            fill="url(#paint14_linear_77_3)" stroke="black" stroke-width="0.7" stroke-miterlimit="10" />
        <mask id="mask11_77_3" style="mask-type:luminance" maskUnits="userSpaceOnUse" x="8" y="169" width="111"
            height="111">
            <path
                d="M63.31 279.02C93.6912 279.02 118.32 254.392 118.32 224.01C118.32 193.629 93.6912 169 63.31 169C32.9288 169 8.29999 193.629 8.29999 224.01C8.29999 254.392 32.9288 279.02 63.31 279.02Z"
                fill="white" />
        </mask>
        <g mask="url(#mask11_77_3)">
            <path d="M44.52 169.59L124.73 177.48" stroke="black" stroke-width="0.7" stroke-miterlimit="10" />
            <path d="M44.24 177.851L124.47 184.981" stroke="black" stroke-width="0.7" stroke-miterlimit="10" />
            <path d="M43.95 186.101L124.21 192.481" stroke="black" stroke-width="0.7" stroke-miterlimit="10" />
            <path d="M43.67 194.36L123.95 199.98" stroke="black" stroke-width="0.7" stroke-miterlimit="10" />
            <path d="M43.38 202.61L123.69 207.48" stroke="black" stroke-width="0.7" stroke-miterlimit="10" />
            <path d="M43.1 210.86L123.43 214.99" stroke="black" stroke-width="0.7" stroke-miterlimit="10" />
            <path d="M42.81 219.12L123.17 222.49" stroke="black" stroke-width="0.7" stroke-miterlimit="10" />
            <path d="M42.52 227.37L122.91 229.99" stroke="black" stroke-width="0.7" stroke-miterlimit="10" />
            <path d="M42.24 235.63L122.65 237.49" stroke="black" stroke-width="0.7" stroke-miterlimit="10" />
            <path d="M41.95 243.88L122.39 244.99" stroke="black" stroke-width="0.7" stroke-miterlimit="10" />
            <path d="M41.67 252.14L122.13 252.49" stroke="black" stroke-width="0.7" stroke-miterlimit="10" />
            <path d="M41.38 260.391L121.87 260" stroke="black" stroke-width="0.7" stroke-miterlimit="10" />
            <path d="M41.1 268.65L121.61 267.5" stroke="black" stroke-width="0.7" stroke-miterlimit="10" />
            <path d="M40.81 276.9L121.35 275" stroke="black" stroke-width="0.7" stroke-miterlimit="10" />
        </g>
        <path
            d="M55.36 278.63C85.7412 278.63 110.37 254.002 110.37 223.62C110.37 193.239 85.7412 168.61 55.36 168.61C24.9788 168.61 0.349976 193.239 0.349976 223.62C0.349976 254.002 24.9788 278.63 55.36 278.63Z"
            fill="url(#paint15_linear_77_3)" stroke="black" stroke-width="0.7" stroke-miterlimit="10" />
        <path
            d="M55.36 268.21C79.9864 268.21 99.95 248.247 99.95 223.62C99.95 198.994 79.9864 179.03 55.36 179.03C30.7336 179.03 10.77 198.994 10.77 223.62C10.77 248.247 30.7336 268.21 55.36 268.21Z"
            fill="white" stroke="#FF9900" stroke-width="0.7" />
        <path
            d="M55.36 268.21C79.9864 268.21 99.95 248.247 99.95 223.62C99.95 198.994 79.9864 179.03 55.36 179.03C30.7336 179.03 10.77 198.994 10.77 223.62C10.77 248.247 30.7336 268.21 55.36 268.21Z"
            fill="#FFD7B6" stroke="#FF9900" stroke-width="0.7" />
        <path
            d="M97.72 223.81C97.72 247.73 78.3294 267.12 54.41 267.12C30.4905 267.12 11.1 247.73 11.1 223.81C11.1 199.891 30.4905 180.5 54.41 180.5C78.3294 180.5 97.72 199.891 97.72 223.81Z"
            fill="#50AF95" stroke="white" stroke-width="5" />
        <path fill-rule="evenodd" clip-rule="evenodd"
            d="M60.23 225.51C59.92 225.53 58.3 225.63 54.7 225.63C51.83 225.63 49.8 225.54 49.08 225.51C38 225.02 29.72 223.09 29.72 220.78C29.72 218.47 37.99 216.54 49.08 216.04V223.58C49.8 223.63 51.88 223.75 54.75 223.75C58.19 223.75 59.91 223.61 60.23 223.58V216.04C71.29 216.53 79.54 218.46 79.54 220.77C79.54 223.08 71.29 225.01 60.23 225.5H60.24L60.23 225.51ZM60.23 215.27V208.52H75.66V198.23H33.64V208.52H49.07V215.27C36.53 215.85 27.09 218.33 27.09 221.31C27.09 224.29 36.52 226.77 49.07 227.35V248.98H60.22V227.34C72.73 226.76 82.15 224.28 82.15 221.3C82.15 218.32 72.74 215.84 60.22 215.26L60.23 215.27Z"
            fill="white" />
        <path
            d="M117.18 440.61C147.561 440.61 172.19 415.981 172.19 385.6C172.19 355.219 147.561 330.59 117.18 330.59C86.7988 330.59 62.17 355.219 62.17 385.6C62.17 415.981 86.7988 440.61 117.18 440.61Z"
            fill="#8500EA" stroke="black" stroke-width="0.7" stroke-miterlimit="10" />
        <path
            d="M117.18 440.61C147.561 440.61 172.19 415.981 172.19 385.6C172.19 355.219 147.561 330.59 117.18 330.59C86.7988 330.59 62.17 355.219 62.17 385.6C62.17 415.981 86.7988 440.61 117.18 440.61Z"
            fill="url(#paint16_linear_77_3)" stroke="black" stroke-width="0.7" stroke-miterlimit="10" />
        <mask id="mask12_77_3" style="mask-type:luminance" maskUnits="userSpaceOnUse" x="62" y="330" width="111"
            height="111">
            <path
                d="M117.18 440.61C147.561 440.61 172.19 415.981 172.19 385.6C172.19 355.219 147.561 330.59 117.18 330.59C86.7988 330.59 62.17 355.219 62.17 385.6C62.17 415.981 86.7988 440.61 117.18 440.61Z"
                fill="white" />
        </mask>
        <g mask="url(#mask12_77_3)">
            <path d="M98.39 331.19L178.59 339.07" stroke="black" stroke-width="0.7" stroke-miterlimit="10" />
            <path d="M98.1 339.44L178.33 346.58" stroke="black" stroke-width="0.7" stroke-miterlimit="10" />
            <path d="M97.82 347.7L178.08 354.08" stroke="black" stroke-width="0.7" stroke-miterlimit="10" />
            <path d="M97.53 355.95L177.82 361.58" stroke="black" stroke-width="0.7" stroke-miterlimit="10" />
            <path d="M97.25 364.2L177.56 369.08" stroke="black" stroke-width="0.7" stroke-miterlimit="10" />
            <path d="M96.96 372.46L177.3 376.58" stroke="black" stroke-width="0.7" stroke-miterlimit="10" />
            <path d="M96.68 380.71L177.04 384.08" stroke="black" stroke-width="0.7" stroke-miterlimit="10" />
            <path d="M96.39 388.97L176.78 391.58" stroke="black" stroke-width="0.7" stroke-miterlimit="10" />
            <path d="M96.1 397.22L176.52 399.09" stroke="black" stroke-width="0.7" stroke-miterlimit="10" />
            <path d="M95.82 405.48L176.26 406.59" stroke="black" stroke-width="0.7" stroke-miterlimit="10" />
            <path d="M95.53 413.73L176 414.09" stroke="black" stroke-width="0.7" stroke-miterlimit="10" />
            <path d="M95.25 421.99L175.74 421.59" stroke="black" stroke-width="0.7" stroke-miterlimit="10" />
            <path d="M94.96 430.24L175.48 429.09" stroke="black" stroke-width="0.7" stroke-miterlimit="10" />
            <path d="M94.68 438.5L175.22 436.59" stroke="black" stroke-width="0.7" stroke-miterlimit="10" />
        </g>
        <path
            d="M109.23 440.23C139.611 440.23 164.24 415.601 164.24 385.22C164.24 354.839 139.611 330.21 109.23 330.21C78.8488 330.21 54.22 354.839 54.22 385.22C54.22 415.601 78.8488 440.23 109.23 440.23Z"
            fill="url(#paint17_linear_77_3)" stroke="black" stroke-width="0.7" stroke-miterlimit="10" />
        <path
            d="M109.23 429.81C133.856 429.81 153.82 409.846 153.82 385.22C153.82 360.594 133.856 340.63 109.23 340.63C84.6036 340.63 64.64 360.594 64.64 385.22C64.64 409.846 84.6036 429.81 109.23 429.81Z"
            fill="white" stroke="#FF9900" stroke-width="0.7" />
        <path
            d="M109.23 429.81C133.856 429.81 153.82 409.846 153.82 385.22C153.82 360.594 133.856 340.63 109.23 340.63C84.6036 340.63 64.64 360.594 64.64 385.22C64.64 409.846 84.6036 429.81 109.23 429.81Z"
            fill="#FFD7B6" stroke="#FF9900" stroke-width="0.7" />
        <mask id="mask13_77_3" style="mask-type:luminance" maskUnits="userSpaceOnUse" x="63" y="339" width="93"
            height="93">
            <path d="M155.04 339.4H63.42V431.02H155.04V339.4Z" fill="white" />
        </mask>
        <g mask="url(#mask13_77_3)">
            <path
                d="M109.23 429.12C133.475 429.12 153.13 409.465 153.13 385.22C153.13 360.975 133.475 341.32 109.23 341.32C84.9847 341.32 65.33 360.975 65.33 385.22C65.33 409.465 84.9847 429.12 109.23 429.12Z"
                fill="white" stroke="#E40C5B" stroke-width="3.82" />
            <mask id="mask14_77_3" style="mask-type:luminance" maskUnits="userSpaceOnUse" x="71" y="347" width="77"
                height="77">
                <path d="M147.4 347.04H71.05V423.39H147.4V347.04Z" fill="white" />
            </mask>
            <g mask="url(#mask14_77_3)">
                <path
                    d="M109.23 423.39C130.31 423.39 147.41 406.3 147.41 385.21C147.41 364.12 130.32 347.03 109.23 347.03C88.14 347.03 71.05 364.12 71.05 385.21C71.05 406.3 88.14 423.39 109.23 423.39Z"
                    fill="#E40C5B" />
                <path
                    d="M109.23 419.01C127.89 419.01 143.03 403.88 143.03 385.21C143.03 366.54 127.9 351.41 109.23 351.41C90.56 351.41 75.43 366.54 75.43 385.21C75.43 403.88 90.56 419.01 109.23 419.01Z"
                    stroke="white" stroke-width="3.82" />
                <path
                    d="M102.24 396.8V405.61C102.24 406.61 102.03 407.47 101.6 408.21C101.18 408.94 100.57 409.49 99.78 409.87C98.99 410.25 98.05 410.44 96.97 410.44C95.34 410.44 94.05 410.01 93.11 409.16C92.17 408.31 91.69 407.15 91.67 405.67V396.8H94.92V405.74C94.96 407.21 95.64 407.95 96.96 407.95C97.63 407.95 98.14 407.77 98.48 407.4C98.82 407.03 99 406.43 99 405.6V396.81H102.23L102.24 396.8Z"
                    fill="white" />
                <path
                    d="M111.18 406.68C111.18 406.21 111.01 405.84 110.67 405.57C110.34 405.31 109.75 405.03 108.91 404.75C108.07 404.47 107.38 404.19 106.85 403.93C105.11 403.07 104.24 401.9 104.24 400.4C104.24 399.65 104.45 399 104.88 398.43C105.32 397.86 105.93 397.41 106.72 397.1C107.51 396.78 108.4 396.62 109.39 396.62C110.38 396.62 111.22 396.79 111.98 397.14C112.75 397.49 113.34 397.98 113.77 398.62C114.19 399.25 114.41 399.98 114.41 400.8H111.19C111.19 400.25 111.02 399.83 110.68 399.52C110.35 399.22 109.9 399.07 109.33 399.07C108.76 399.07 108.3 399.2 107.96 399.46C107.63 399.71 107.46 400.04 107.46 400.43C107.46 400.78 107.64 401.09 108.01 401.37C108.38 401.65 109.03 401.94 109.95 402.24C110.88 402.54 111.64 402.86 112.23 403.2C113.68 404.04 114.4 405.19 114.4 406.67C114.4 407.85 113.96 408.77 113.07 409.44C112.19 410.11 110.97 410.45 109.43 410.45C108.34 410.45 107.36 410.26 106.47 409.87C105.59 409.48 104.93 408.94 104.48 408.26C104.04 407.58 103.82 406.79 103.82 405.9H107.06C107.06 406.62 107.24 407.15 107.61 407.5C107.98 407.84 108.59 408.01 109.42 408.01C109.95 408.01 110.37 407.9 110.68 407.67C110.99 407.44 111.15 407.11 111.15 406.69L111.18 406.68Z"
                    fill="white" />
                <path
                    d="M116.07 410.26V396.8H120.39C121.58 396.8 122.64 397.07 123.59 397.61C124.54 398.15 125.27 398.91 125.8 399.89C126.33 400.87 126.6 401.97 126.61 403.19V403.81C126.61 405.04 126.35 406.15 125.83 407.13C125.31 408.1 124.58 408.87 123.64 409.42C122.7 409.97 121.65 410.25 120.49 410.25H116.08L116.07 410.26ZM119.3 399.31V407.77H120.42C121.35 407.77 122.06 407.44 122.56 406.78C123.06 406.11 123.31 405.13 123.31 403.82V403.24C123.31 401.94 123.06 400.96 122.56 400.3C122.06 399.64 121.34 399.31 120.39 399.31H119.3Z"
                    fill="white" />
                <path fill-rule="evenodd" clip-rule="evenodd"
                    d="M109.2 381.34C107.87 381.34 106.55 381.45 105.24 381.67L107.21 378.25C107.87 378.2 108.54 378.18 109.2 378.18C110.75 378.18 112.3 378.31 113.83 378.55L106.2 365.27L93.49 387.39L91.67 384.23L106.17 358.99L106.2 359.04L106.23 358.99L123.73 389.45H120.1L116.01 382.33C113.8 381.67 111.51 381.33 109.21 381.34H109.2ZM124.85 387.44L107.91 357.95H111.54L126.66 384.28L124.84 387.44H124.85ZM108.04 372.5L101.08 384.61C103.57 383.86 106.5 383.52 109.26 383.52C109.48 383.52 109.71 383.52 109.93 383.52C111.5 383.56 113.06 383.72 114.61 384.01L116.93 388.05C114.47 387.14 111.88 386.67 109.26 386.67C105.45 386.66 101.69 387.6 98.33 389.41L98.38 389.32L98.31 389.44H94.68L106.23 369.33L108.03 372.49L108.04 372.5Z"
                    fill="white" />
            </g>
        </g>
    </g>
    <defs>
        <radialGradient id="paint0_radial_77_3" cx="0" cy="0" r="1" gradientUnits="userSpaceOnUse"
            gradientTransform="translate(319.83 251.355) rotate(90) scale(241.415 247.64)">
            <stop stop-color="#6DFFEA" />
            <stop offset="1" stop-color="#6DFFEA" stop-opacity="0" />
        </radialGradient>
        <linearGradient id="paint1_linear_77_3" x1="314.594" y1="72.1612" x2="318.274" y2="366.889"
            gradientUnits="userSpaceOnUse">
            <stop offset="0.4" stop-color="#B999FF" />
            <stop offset="0.41" stop-color="#A88DF3" />
            <stop offset="0.44" stop-color="#8372D9" />
            <stop offset="0.48" stop-color="#675DC5" />
            <stop offset="0.51" stop-color="#524EB6" />
            <stop offset="0.55" stop-color="#4645AD" />
            <stop offset="0.58" stop-color="#4242AB" />
            <stop offset="0.79" stop-color="#CB9FFF" />
            <stop offset="0.96" stop-color="#544CD8" />
        </linearGradient>
        <linearGradient id="paint2_linear_77_3" x1="347.819" y1="56.1255" x2="261.288" y2="377.767"
            gradientUnits="userSpaceOnUse">
            <stop offset="0.08" stop-color="#9D67FF" />
            <stop offset="0.16" stop-color="#B36EF5" />
            <stop offset="0.34" stop-color="#E480DF" />
            <stop offset="0.43" stop-color="#F887D7" />
            <stop offset="0.62" stop-color="#BBD4E9" />
            <stop offset="0.73" stop-color="#9DFBF3" />
            <stop offset="0.76" stop-color="#9DF4F3" />
            <stop offset="0.79" stop-color="#9DE2F4" />
            <stop offset="0.84" stop-color="#9FC3F7" />
            <stop offset="0.89" stop-color="#A099FA" />
            <stop offset="0.94" stop-color="#A365FE" />
        </linearGradient>
        <linearGradient id="paint3_linear_77_3" x1="299.891" y1="130.687" x2="299.891" y2="349.456"
            gradientUnits="userSpaceOnUse">
            <stop offset="0.133175" stop-color="#E84200" />
            <stop offset="0.770833" stop-color="#FF9900" />
        </linearGradient>
        <linearGradient id="paint4_linear_77_3" x1="299.891" y1="130.687" x2="299.891" y2="349.456"
            gradientUnits="userSpaceOnUse">
            <stop offset="0.133175" stop-color="#E84200" />
            <stop offset="0.770833" stop-color="#FF9900" />
        </linearGradient>
        <linearGradient id="paint5_linear_77_3" x1="131.889" y1="2.19749" x2="133.285" y2="123.302"
            gradientUnits="userSpaceOnUse">
            <stop offset="0.4" stop-color="#B999FF" />
            <stop offset="0.41" stop-color="#A88DF3" />
            <stop offset="0.44" stop-color="#8372D9" />
            <stop offset="0.48" stop-color="#675DC5" />
            <stop offset="0.51" stop-color="#524EB6" />
            <stop offset="0.55" stop-color="#4645AD" />
            <stop offset="0.58" stop-color="#4242AB" />
            <stop offset="0.79" stop-color="#CB9FFF" />
            <stop offset="0.96" stop-color="#544CD8" />
        </linearGradient>
        <linearGradient id="paint6_linear_77_3" x1="146.741" y1="-4.39262" x2="113.583" y2="129.103"
            gradientUnits="userSpaceOnUse">
            <stop offset="0.08" stop-color="#9D67FF" />
            <stop offset="0.16" stop-color="#B36EF5" />
            <stop offset="0.34" stop-color="#E480DF" />
            <stop offset="0.43" stop-color="#F887D7" />
            <stop offset="0.62" stop-color="#BBD4E9" />
            <stop offset="0.73" stop-color="#9DFBF3" />
            <stop offset="0.76" stop-color="#9DF4F3" />
            <stop offset="0.79" stop-color="#9DE2F4" />
            <stop offset="0.84" stop-color="#9FC3F7" />
            <stop offset="0.89" stop-color="#A099FA" />
            <stop offset="0.94" stop-color="#A365FE" />
        </linearGradient>
        <linearGradient id="paint7_linear_77_3" x1="505.415" y1="-13.4207" x2="506.811" y2="107.684"
            gradientUnits="userSpaceOnUse">
            <stop offset="0.4" stop-color="#B999FF" />
            <stop offset="0.41" stop-color="#A88DF3" />
            <stop offset="0.44" stop-color="#8372D9" />
            <stop offset="0.48" stop-color="#675DC5" />
            <stop offset="0.51" stop-color="#524EB6" />
            <stop offset="0.55" stop-color="#4645AD" />
            <stop offset="0.58" stop-color="#4242AB" />
            <stop offset="0.79" stop-color="#CB9FFF" />
            <stop offset="0.96" stop-color="#544CD8" />
        </linearGradient>
        <linearGradient id="paint8_linear_77_3" x1="520.12" y1="-20.0758" x2="486.96" y2="113.429"
            gradientUnits="userSpaceOnUse">
            <stop offset="0.08" stop-color="#9D67FF" />
            <stop offset="0.16" stop-color="#B36EF5" />
            <stop offset="0.34" stop-color="#E480DF" />
            <stop offset="0.43" stop-color="#F887D7" />
            <stop offset="0.62" stop-color="#BBD4E9" />
            <stop offset="0.73" stop-color="#9DFBF3" />
            <stop offset="0.76" stop-color="#9DF4F3" />
            <stop offset="0.79" stop-color="#9DE2F4" />
            <stop offset="0.84" stop-color="#9FC3F7" />
            <stop offset="0.89" stop-color="#A099FA" />
            <stop offset="0.94" stop-color="#A365FE" />
        </linearGradient>
        <linearGradient id="paint9_linear_77_3" x1="589.743" y1="136.884" x2="591.131" y2="257.982"
            gradientUnits="userSpaceOnUse">
            <stop offset="0.4" stop-color="#B999FF" />
            <stop offset="0.41" stop-color="#A88DF3" />
            <stop offset="0.44" stop-color="#8372D9" />
            <stop offset="0.48" stop-color="#675DC5" />
            <stop offset="0.51" stop-color="#524EB6" />
            <stop offset="0.55" stop-color="#4645AD" />
            <stop offset="0.58" stop-color="#4242AB" />
            <stop offset="0.79" stop-color="#CB9FFF" />
            <stop offset="0.96" stop-color="#544CD8" />
        </linearGradient>
        <linearGradient id="paint10_linear_77_3" x1="604.41" y1="130.212" x2="571.26" y2="263.708"
            gradientUnits="userSpaceOnUse">
            <stop offset="0.08" stop-color="#9D67FF" />
            <stop offset="0.16" stop-color="#B36EF5" />
            <stop offset="0.34" stop-color="#E480DF" />
            <stop offset="0.43" stop-color="#F887D7" />
            <stop offset="0.62" stop-color="#BBD4E9" />
            <stop offset="0.73" stop-color="#9DFBF3" />
            <stop offset="0.76" stop-color="#9DF4F3" />
            <stop offset="0.79" stop-color="#9DE2F4" />
            <stop offset="0.84" stop-color="#9FC3F7" />
            <stop offset="0.89" stop-color="#A099FA" />
            <stop offset="0.94" stop-color="#A365FE" />
        </linearGradient>
        <linearGradient id="paint11_linear_77_3" x1="581.66" y1="160.05" x2="581.66" y2="251.68"
            gradientUnits="userSpaceOnUse">
            <stop stop-color="white" />
            <stop offset="1" stop-color="#D8D6D6" />
        </linearGradient>
        <linearGradient id="paint12_linear_77_3" x1="583.171" y1="282.842" x2="584.568" y2="403.947"
            gradientUnits="userSpaceOnUse">
            <stop offset="0.4" stop-color="#B999FF" />
            <stop offset="0.41" stop-color="#A88DF3" />
            <stop offset="0.44" stop-color="#8372D9" />
            <stop offset="0.48" stop-color="#675DC5" />
            <stop offset="0.51" stop-color="#524EB6" />
            <stop offset="0.55" stop-color="#4645AD" />
            <stop offset="0.58" stop-color="#4242AB" />
            <stop offset="0.79" stop-color="#CB9FFF" />
            <stop offset="0.96" stop-color="#544CD8" />
        </linearGradient>
        <linearGradient id="paint13_linear_77_3" x1="597.852" y1="276.167" x2="564.701" y2="409.664"
            gradientUnits="userSpaceOnUse">
            <stop offset="0.08" stop-color="#9D67FF" />
            <stop offset="0.16" stop-color="#B36EF5" />
            <stop offset="0.34" stop-color="#E480DF" />
            <stop offset="0.43" stop-color="#F887D7" />
            <stop offset="0.62" stop-color="#BBD4E9" />
            <stop offset="0.73" stop-color="#9DFBF3" />
            <stop offset="0.76" stop-color="#9DF4F3" />
            <stop offset="0.79" stop-color="#9DE2F4" />
            <stop offset="0.84" stop-color="#9FC3F7" />
            <stop offset="0.89" stop-color="#A099FA" />
            <stop offset="0.94" stop-color="#A365FE" />
        </linearGradient>
        <linearGradient id="paint14_linear_77_3" x1="62.489" y1="154.81" x2="63.885" y2="275.915"
            gradientUnits="userSpaceOnUse">
            <stop offset="0.4" stop-color="#B999FF" />
            <stop offset="0.41" stop-color="#A88DF3" />
            <stop offset="0.44" stop-color="#8372D9" />
            <stop offset="0.48" stop-color="#675DC5" />
            <stop offset="0.51" stop-color="#524EB6" />
            <stop offset="0.55" stop-color="#4645AD" />
            <stop offset="0.58" stop-color="#4242AB" />
            <stop offset="0.79" stop-color="#CB9FFF" />
            <stop offset="0.96" stop-color="#544CD8" />
        </linearGradient>
        <linearGradient id="paint15_linear_77_3" x1="77.3665" y1="148.228" x2="44.2086" y2="281.723"
            gradientUnits="userSpaceOnUse">
            <stop offset="0.08" stop-color="#9D67FF" />
            <stop offset="0.16" stop-color="#B36EF5" />
            <stop offset="0.34" stop-color="#E480DF" />
            <stop offset="0.43" stop-color="#F887D7" />
            <stop offset="0.62" stop-color="#BBD4E9" />
            <stop offset="0.73" stop-color="#9DFBF3" />
            <stop offset="0.76" stop-color="#9DF4F3" />
            <stop offset="0.79" stop-color="#9DE2F4" />
            <stop offset="0.84" stop-color="#9FC3F7" />
            <stop offset="0.89" stop-color="#A099FA" />
            <stop offset="0.94" stop-color="#A365FE" />
        </linearGradient>
        <linearGradient id="paint16_linear_77_3" x1="116.343" y1="316.409" x2="117.739" y2="437.514"
            gradientUnits="userSpaceOnUse">
            <stop offset="0.4" stop-color="#B999FF" />
            <stop offset="0.41" stop-color="#A88DF3" />
            <stop offset="0.44" stop-color="#8372D9" />
            <stop offset="0.48" stop-color="#675DC5" />
            <stop offset="0.51" stop-color="#524EB6" />
            <stop offset="0.55" stop-color="#4645AD" />
            <stop offset="0.58" stop-color="#4242AB" />
            <stop offset="0.79" stop-color="#CB9FFF" />
            <stop offset="0.96" stop-color="#544CD8" />
        </linearGradient>
        <linearGradient id="paint17_linear_77_3" x1="131.2" y1="309.819" x2="98.0496" y2="443.315"
            gradientUnits="userSpaceOnUse">
            <stop offset="0.08" stop-color="#9D67FF" />
            <stop offset="0.16" stop-color="#B36EF5" />
            <stop offset="0.34" stop-color="#E480DF" />
            <stop offset="0.43" stop-color="#F887D7" />
            <stop offset="0.62" stop-color="#BBD4E9" />
            <stop offset="0.73" stop-color="#9DFBF3" />
            <stop offset="0.76" stop-color="#9DF4F3" />
            <stop offset="0.79" stop-color="#9DE2F4" />
            <stop offset="0.84" stop-color="#9FC3F7" />
            <stop offset="0.89" stop-color="#A099FA" />
            <stop offset="0.94" stop-color="#A365FE" />
        </linearGradient>
        <clipPath id="clip0_77_3">
            <rect width="646" height="493" fill="white" />
        </clipPath>
    </defs>
</svg>