<svg xmlns="http://www.w3.org/2000/svg" viewBox="0 0 87.36 87.36"><g data-name="Layer 2"><g data-name="Layer 1"><path d="M44.59 87.36H0V0h42.31v.06a33.91 33.91 0 00-4 .48 32.6 32.6 0 00-10.24 3.7 33.09 33.09 0 00-16.69 33.61 32.12 32.12 0 001.35 5.8 4.6 4.6 0 003 3.06 4.3 4.3 0 003.06 0 4.39 4.39 0 002.07-1.74 4.68 4.68 0 00.47-4.22 21.8 21.8 0 01-1.16-5.53 24.06 24.06 0 010-4 22.87 22.87 0 011-5.23 23.89 23.89 0 0127.6-16.1 23.14 23.14 0 0111.44 6 23.43 23.43 0 017.57 19.01 21.79 21.79 0 01-1.1 5.71 23.67 23.67 0 01-11.1 13.47A22.87 22.87 0 0146.15 57c-2 .18-4.1.28-6.14.47a19.68 19.68 0 00-4.17.72c-.25.08-.42-.09-.34-.36s.1-.47.15-.7c.21-1.13.39-2.27.63-3.4.58-2.67 1.19-5.34 1.78-8l2.26-10.18a13.57 13.57 0 00.37-1.92 4.54 4.54 0 00-8.95-1.35c-.58 2.63-1.14 5.27-1.71 7.9l-1.86 8.63q-.89 4.17-1.79 8.34l-1.86 8.67c-.58 2.7-1.16 5.39-1.73 8.09q-.75 3.51-1.47 7a4.39 4.39 0 002.1 4.73 4.9 4.9 0 001.64.51A4.39 4.39 0 0029.73 84a4.7 4.7 0 00.48-1.47c.27-1.46.58-2.9.89-4.34.23-1.09.39-2.19.7-3.25a11.59 11.59 0 017.49-8 15.09 15.09 0 014.1-.72c1-.07 2-.13 3-.21A33.69 33.69 0 0052 65a33.08 33.08 0 0024.31-30.2 33.59 33.59 0 00-.62-8.31 32.05 32.05 0 00-4-10.26A32.82 32.82 0 0052.8 1.4 31.69 31.69 0 0045.38.06V0h42v87.36H45.83a.13.13 0 010-.06 5.23 5.23 0 003.63-2 4.82 4.82 0 001.08-2.68 6.56 6.56 0 00-.21-2.38A5.55 5.55 0 1040 84.15a5.4 5.4 0 004.59 3.15.06.06 0 010 .06z" fill="#fff"/><path d="M45.38.06A31.69 31.69 0 0152.8 1.4a32.82 32.82 0 0118.94 14.83 32.05 32.05 0 014 10.26 33.59 33.59 0 01.62 8.31A33.08 33.08 0 0152 65a33.69 33.69 0 01-5.64 1c-1 .08-2 .14-3 .21a15.09 15.09 0 00-4.1.72 11.59 11.59 0 00-7.49 8c-.31 1.06-.47 2.16-.7 3.25-.31 1.44-.62 2.88-.89 4.34a4.7 4.7 0 01-.45 1.48 4.39 4.39 0 01-4.67 2.16 4.9 4.9 0 01-1.64-.51 4.39 4.39 0 01-2.1-4.73q.72-3.51 1.47-7c.57-2.7 1.15-5.39 1.73-8.09l1.86-8.67q.9-4.17 1.79-8.34L30 40.15c.57-2.63 1.13-5.27 1.71-7.9a4.54 4.54 0 019 1.35 13.57 13.57 0 01-.37 1.92Q39.2 40.6 38.06 45.7c-.59 2.67-1.2 5.34-1.78 8-.24 1.13-.42 2.27-.63 3.4 0 .23-.08.47-.15.7s.09.44.34.36a19.68 19.68 0 014.16-.71c2-.19 4.1-.29 6.14-.47a22.87 22.87 0 009.43-2.9 23.67 23.67 0 0011.1-13.47 21.79 21.79 0 001.1-5.71 23.43 23.43 0 00-7.47-19.06 23.14 23.14 0 00-11.44-6A23.88 23.88 0 0021.27 26a22.87 22.87 0 00-1 5.23 24.06 24.06 0 000 4 21.8 21.8 0 001.16 5.53 4.68 4.68 0 01-.47 4.22 4.39 4.39 0 01-2.07 1.74 4.3 4.3 0 01-3.06 0 4.6 4.6 0 01-3-3.06 32.12 32.12 0 01-1.35-5.8 33.07 33.07 0 01-.3-6.21 33.18 33.18 0 0117-27.4A32.6 32.6 0 0138.29.54a33.91 33.91 0 014-.48A4.14 4.14 0 0043.42 0h1a2.84 2.84 0 00.96.06z" fill="#1f1f1f"/><path d="M44.59 87.36a.06.06 0 000-.06h1.25a.13.13 0 000 .06z" fill="#f18fb6"/><path d="M43.42 0a4.14 4.14 0 01-1.11.06V0z" fill="#9b9798"/><path d="M45.38.06a2.84 2.84 0 01-.92-.06h.92z" fill="#9c999a"/><path d="M45.84 87.3h-1.25A5.4 5.4 0 0140 84.15a5.55 5.55 0 1110.34-3.93 6.56 6.56 0 01.21 2.38 4.82 4.82 0 01-1.08 2.68 5.23 5.23 0 01-3.63 2.02z" fill="#e6087b"/></g></g></svg>