<svg xmlns="http://www.w3.org/2000/svg" xmlns:xlink="http://www.w3.org/1999/xlink" fill="none" viewBox="0 0 897 990">
  <g clip-path="url(#a)">
    <mask id="b" width="897" height="990" x="0" y="0" maskUnits="userSpaceOnUse">
      <path fill="#fff" d="M0 0h897v990H0V0Z"/>
    </mask>
    <g mask="url(#b)" opacity=".2">
      <path d="m552.609 903.112 144.088-217.18L843 485.848l148.362-173.491 95.528-69.887" class="B H I"/>
      <path d="m792.267 200.046 199.095 112.31 226.088 129.248" class="B H I"/>
      <path d="m1071.14 311.523-347.533-2.651L584.545 444.57" class="B H I"/>
      <path d="m747.312 200.162-23.705 108.709 125.212 170.167 80.651 221.81 145.67 137.796" class="B H I"/>
      <path d="m929.469 700.85 187.421-132.216-268.072-89.594-230.16-4.472m86.982-281.211L486.204 297.713 339.188 539.349l-6.411 277.847-25.723 70.758" class="B H I"/>
      <path d="m320.153 811.42 232.456 91.693 279.31 19.509 243.221-83.975 97.83 66.444 12.18 158.689M437.094 269.735l-135.461 145.75-37.991 110.133m-6.727 54.058-45.193 99.448 29.047 170.879m36.407-261.106-20.38 225.887m229.409-517.07 237.402 11.16M576.472 473.895l-90.149 174.797m443.146 52.16L498.433 680.59m50.891-198.858-209.661 56.195 119.671 124.894" class="B H I"/>
      <path d="m286.516 601.046-74.794 78.079L320.154 811.42m152.398-507.928L301.633 415.486l2.137 66.958m625.699 218.405L831.92 922.62m0 0L557.556 446.747M831.92 922.62l129.089 180.06-175.113 132.73m46.024-312.79-122.837 183.34M552.609 903.112 388.418 1031.92l-99.251-142.263" class="B H I"/>
      <path d="m320.153 811.42 68.265 220.5 116.188 144.25 204.477-70.2m0 0 58.53 116.34 220.148 32.57 129.839-127.94 135.42-95.02 18.64-171.786 35.06-131.82-60.07-148.638M709.083 1105.97l-108.59 152.59m152.161 0-154.931 1.82-148.124-98.61-165.537-116.43-6.886-183.859" class="B H I"/>
      <path fill="url(#c)" d="M1430.83 424.192 411.251 128.022 108.117 1144.99l1045.303 303.65 277.41-1024.448Z"/>
      <path fill="#59009d" d="M599.187 772.498c30.943 101.482 114.22 168.036 194.2 160.315 8.503-.821 74.627-15.852 81.176-21.658 68.855-61.18 73.974-122.463 39.724-234.738-26.98-88.495-154.35-172.796-154.35-172.796l-65.207 17.541c-87.013 26.547-129.791 139.082-95.541 251.357l-.002-.021z" class="B C M"/>
      <path fill="url(#d)" d="M599.187 772.499c30.943 101.481 114.22 168.036 194.2 160.315 8.503-.821 74.627-15.852 81.176-21.658 68.855-61.18 73.974-122.463 39.724-234.738-26.98-88.495-154.35-172.796-154.35-172.796l-65.207 17.541c-87.013 26.547-129.791 139.082-95.541 251.357l-.002-.021z" class="B C"/>
      <path d="M599.186 772.497c30.944 101.481 114.22 168.035 194.2 160.315 8.503-.821 74.627-15.853 81.177-21.659 68.855-61.179 73.974-122.462 39.724-234.737-26.981-88.496-157.864-171.908-157.864-171.908l-61.696 16.632c-87.013 26.547-129.791 139.082-95.541 251.357z" class="B C M"/>
      <use xlink:href="#e" fill="url(#f)" stroke-width="2.07" class="B C"/>
      <use xlink:href="#e" class="B C M"/>
      <path fill="#3546b1" d="M680.096 748.957c-27.456-90.038 6.847-180.276 76.619-201.552S905.304 581.872 932.76 671.91s-6.847 180.276-76.618 201.552-148.59-34.467-176.046-124.505z" class="B C M"/>
      <path fill="url(#g)" d="M680.097 748.957c-27.456-90.038 6.847-180.276 76.619-201.552s148.589 34.467 176.045 124.505-6.847 180.276-76.618 201.552-148.59-34.467-176.046-124.505z" class="B C M"/>
      <path fill="#f90" d="M798.158 699.619c10.287-3.261 23.393-9.038 27.896-21.239 1.198-2.709 1.851-5.795 1.919-9.028a28.54 28.54 0 0 0-1.493-9.69c-7.318-22.195-24.333-25.462-37.93-21.079l-20.475 6.492 18.262 57.129 2.44-.383a67.734 67.734 0 0 0 9.39-2.184l-.009-.018zm16.073 15.246-21.529 7.146 21.429 66.983 21.888-6.947c16.047-5.094 30.34-19.462 22.546-44.186a38.83 38.83 0 0 0-5.342-11.43c-2.361-3.431-5.225-6.341-8.379-8.544-12.015-8.075-26.484-4.376-30.613-3.022zm42.915-152.847c-33.901-21.459-71.695-26.903-105.144-15.118l-1.359.426c-33.645 12.28-58.215 40.138-71.609 78.979s-10.877 83.838 3.771 126.659c14.622 42.813 40.165 79.979 74.341 101.867 34.158 21.897 70.474 28.406 104.305 16.648l1.278-.407c25.187-9.168 46.541-27.627 61.338-53.027s22.368-56.626 21.776-89.702-9.346-66.534-25.131-96.146c-15.803-29.603-37.902-54.027-63.548-70.188l-.018.009zm25.933 215.606c-6.715 6.505-14.51 11.333-23.018 14.265l-2.619.823.834 3.373 10.257 32.31-19.134 6.074-11.368-35.856-18.787 6.165 11.307 35.613-19.296 6.115-11.294-35.459-32.31 10.602-5.074-16.012 12.033-3.824c2.429-.791 4.364-2.767 5.389-5.499s1.057-5.992.058-9.069l-38.668-120.772c-1.913-6.039-7.038-9.006-12.447-7.292l-12.416 2.764-7.075-22.302 32.76-10.405-11.655-36.738 18.999-6.026 11.674 36.774 18.999-6.025-11.703-36.873 18.999-6.026 11.713 36.891 3.501-1.11c6.57-2.081 42.201-3.877 52.983 29.763 11.783 37.107-11.564 48.903-11.631 50.157l-1.274.543c1.427-.256 36.063-2.624 49.456 40.43 5.718 18.681 2.812 34.261-9.158 46.561l-.035.065z" class="C S T"/>
      <path fill="url(#h)" d="M857.146 562.018c-33.901-21.459-71.695-26.903-105.144-15.119l-1.359.427c-33.645 12.28-58.215 40.137-71.609 78.979s-10.877 83.837 3.771 126.659c14.622 42.813 40.165 79.979 74.341 101.866 34.158 21.897 70.474 28.407 104.305 16.648l1.278-.406c25.187-9.168 46.541-27.628 61.338-53.028s22.368-56.625 21.775-89.702-9.345-66.534-25.13-96.146c-15.803-29.602-37.902-54.027-63.548-70.188l-.018.01zm25.933 215.605c-6.715 6.506-14.51 11.334-23.018 14.266l-2.619.823.834 3.372 10.257 32.31-19.134 6.075-11.368-35.857-18.787 6.166 11.307 35.613-19.296 6.115-11.294-35.459-32.31 10.601-5.074-16.011 12.033-3.825c2.429-.791 4.364-2.767 5.389-5.499s1.057-5.991.058-9.069l-38.668-120.771c-1.913-6.04-7.038-9.007-12.447-7.292l-12.416 2.764-7.075-22.303 32.76-10.404-11.655-36.739 18.999-6.025 11.674 36.774 18.999-6.026-11.703-36.873 18.999-6.026 11.713 36.892 3.501-1.111c6.57-2.081 42.201-3.876 52.983 29.763 11.783 37.107-11.564 48.904-11.631 50.158l-1.274.542c1.427-.256 36.063-2.624 49.456 40.431 5.718 18.681 2.812 34.26-9.158 46.561l-.035.064z" class="C S T"/>
      <use xlink:href="#i" fill="url(#j)" class="B C D"/>
      <use xlink:href="#i" class="B C D"/>
      <use xlink:href="#k" fill="url(#l)" class="B C N"/>
      <use xlink:href="#k" class="B C N"/>
      <use xlink:href="#m" fill="url(#n)" class="B C O"/>
      <use xlink:href="#m" class="B C O"/>
      <path d="M686.249 441.008c1.781-1.464 151.092-1.425 184.334-.791 3.245.079 5.778 2.809 5.58 6.054l-.277 4.828c-.158 3.048-2.731 5.422-5.817 5.382h-183.78s-7.44-9.379-.079-15.473h.039z" class="B C D E"/>
      <path d="M686.249 441.008c1.781-1.464 151.092-1.424 184.334-.791 3.245.079 5.778 2.81 5.58 6.055l-.277 4.828c-.158 3.047-2.731 5.421-5.817 5.382h-183.78s-7.44-9.379-.079-15.474h.039z" class="B C D F"/>
      <use xlink:href="#o" class="B C D E"/>
      <use xlink:href="#o" class="B C D F"/>
      <path d="M934.732 544.811c.198 2.572-321.457 445.283-321.457 445.283l-12.782-10.052L921.99 535.986s11.951-.752 12.742 8.825z" class="B C D E"/>
      <path d="M934.732 544.811c.198 2.573-321.457 445.283-321.457 445.283l-12.782-10.051L921.99 535.987s11.951-.752 12.742 8.824z" class="B C D F"/>
      <path fill="url(#p)" d="M626.052 1099.94c47.734-26.64 64.044-88.35 36.431-137.838s-88.695-68.018-136.429-41.384-64.045 88.342-36.432 137.832 88.696 68.02 136.43 41.39z" class="B C D"/>
      <use xlink:href="#q" fill="url(#r)" class="B C D"/>
      <use xlink:href="#q" class="B C P"/>
      <path d="m863.698 181.763-2.533 29.799v.04c.475 16.423-30.393 28.533-73.251 27.741-46.499-.871-89.436-16.581-95.887-35.141-.87-2.454-.594-7.044-.594-7.044l2.692-31.857 169.573 16.462z" class="B C D"/>
      <use xlink:href="#s" fill="url(#t)" class="B C D"/>
      <use xlink:href="#s" class="B C D"/>
      <use xlink:href="#u" fill="url(#v)" class="B C G"/>
      <use xlink:href="#u" class="B C R"/>
      <use xlink:href="#w" fill="url(#x)" class="B C G"/>
      <use xlink:href="#w" class="B C G"/>
      <use xlink:href="#y" fill="url(#z)" class="B C G"/>
      <use xlink:href="#y" class="B C R"/>
      <use xlink:href="#A" fill="url(#B)" class="B C G"/>
      <use xlink:href="#A" class="B C G"/>
      <use xlink:href="#C" fill="url(#D)" class="B C G"/>
      <use xlink:href="#C" class="B C R"/>
      <use xlink:href="#E" fill="url(#F)" class="B C G"/>
      <use xlink:href="#E" class="B C G"/>
      <use xlink:href="#t" fill="url(#G)" class="B C U"/>
      <use xlink:href="#t" class="B C U"/>
      <path d="M1019.14 248.84c-1.22-1.86-123.941-38.307-157.183-48.121-4.472-1.306-9.142 1.345-10.21 5.896-1.029 4.195 1.425 8.469 5.58 9.696l157.263 47.33s9.86-6.807 4.55-14.801z" class="B C D E"/>
      <path d="M1019.14 248.841c-1.22-1.86-123.941-38.307-157.183-48.122-4.472-1.306-9.142 1.346-10.21 5.897-1.029 4.195 1.425 8.469 5.58 9.695l157.263 47.331s9.86-6.807 4.55-14.801z" class="B C D F"/>
      <use xlink:href="#H" class="B C D E"/>
      <use xlink:href="#H" class="B C D F"/>
      <use xlink:href="#I" class="B C D E"/>
      <use xlink:href="#I" class="B C D F"/>
      <path d="M252.404 628.707c-1.425 1.741 0 120.581.237 155.248 0 4.669 3.957 8.35 8.627 8.073 4.314-.238 7.677-3.839 7.677-8.153l-1.029-155.089s-9.379-7.44-15.473-.079h-.039z" class="B C D E"/>
      <path d="M252.404 628.708c-1.425 1.741 0 120.581.237 155.247 0 4.67 3.957 8.351 8.627 8.074 4.314-.238 7.677-3.839 7.677-8.153l-1.029-155.089s-9.379-7.44-15.473-.079h-.039z" class="B C D F"/>
      <path d="M418.771 750.237c-2.216-.277-101.388 65.296-130.356 84.292-3.878 2.532-4.867 7.835-2.097 11.595a8.116 8.116 0 0 0 5.097 3.208 8.12 8.12 0 0 0 5.904-1.19l129.802-84.885s1.187-11.912-8.35-13.06v.04z" class="B C D E"/>
      <path d="M418.771 750.236c-2.216-.277-101.388 65.297-130.356 84.292-3.878 2.533-4.867 7.836-2.097 11.595a8.11 8.11 0 0 0 5.097 3.208 8.113 8.113 0 0 0 5.904-1.189l129.802-84.886s1.187-11.912-8.35-13.059v.039z" class="B C D F"/>
      <use xlink:href="#J" class="B C D E"/>
      <use xlink:href="#J" class="B C D F"/>
      <use xlink:href="#K" fill="url(#L)" class="B C O"/>
      <use xlink:href="#K" class="B C O"/>
      <path d="M735.914 210.414c-2.533.594-163.439 215.914-163.439 215.914l13.455 9.141 162.212-215.557s-2.889-11.635-12.228-9.498z" class="B C D E"/>
      <path d="M735.914 210.413c-2.533.594-163.439 215.914-163.439 215.914l13.455 9.142 162.212-215.558s-2.889-11.635-12.228-9.498zM313.703 559.374c2.533.593 161.658 217.22 161.658 217.22l-13.534 9.023-157.631-213.026c-1.796-2.428-2.495-5.613-.94-8.202 1.815-3.02 5.078-6.285 10.407-5.015h.04z" class="B C D F"/>
      <use xlink:href="#M" fill="url(#N)" class="B C P"/>
      <use xlink:href="#M" class="B C P"/>
      <path d="M488.777 290.114c2.572.357 133.126 147.492 133.126 147.492l-13.732 9.299L477.38 300.602s1.899-11.833 11.397-10.488z" class="B C D E"/>
      <path d="M488.777 290.115c2.572.356 133.126 147.491 133.126 147.491l-13.732 9.3L477.38 300.602s1.899-11.833 11.397-10.487z" class="B C D F"/>
      <path d="M641.016 510.144c2.256.594 273.534 386.437 299.811 423.874a8.127 8.127 0 0 1 1.298 2.99 8.11 8.11 0 0 1 .017 3.259 8.107 8.107 0 0 1-3.611 5.267c-3.68 2.335-8.508 1.385-11.001-2.177L628.511 519.246s3.245-11.555 12.505-9.102z" class="B C D E"/>
      <path d="M641.016 510.145c2.256.593 273.534 386.437 299.811 423.873a8.127 8.127 0 0 1 1.298 2.99 8.11 8.11 0 0 1 .017 3.259 8.107 8.107 0 0 1-3.611 5.267c-3.68 2.335-8.508 1.385-11.001-2.176L628.511 519.247s3.245-11.556 12.505-9.102z" class="B C D F"/>
      <path d="M310.339 896.898c2.493-.792 254.538 104.552 254.538 104.552l-7.044 14.96-253.311-104.87s-3.483-11.674 5.817-14.603v-.039z" class="B C E Q"/>
      <path d="M310.339 896.898c2.493-.791 254.538 104.552 254.538 104.552l-7.044 14.96-253.311-104.87s-3.483-11.674 5.817-14.602v-.04z" class="B C F Q"/>
      <use xlink:href="#O" fill="url(#P)" class="B C D"/>
      <use xlink:href="#O" class="B C D"/>
      <path d="M286.239 953.132c-.238 2.256 82.907 125.128 102.575 154.298.628.93 1.439 1.72 2.383 2.33s2.001 1.01 3.108 1.2a8.49 8.49 0 0 0 3.33-.12 8.423 8.423 0 0 0 3.011-1.43c3.522-2.65 4.353-7.56 1.9-11.2L299.377 944.466s-12.149-1.029-13.138 8.627v.039z" class="B C E Q"/>
      <path d="M286.239 953.132c-.238 2.256 82.907 125.128 102.575 154.298.628.93 1.439 1.72 2.383 2.33s2.001 1.01 3.108 1.2a8.49 8.49 0 0 0 3.33-.12 8.423 8.423 0 0 0 3.011-1.43c3.522-2.65 4.353-7.56 1.9-11.2L299.377 944.465s-12.149-1.028-13.138 8.627v.04z" class="B C F Q"/>
      <path d="M322.29 504.367c1.385-2.176 257.664-83.223 257.664-83.223l4.195 15.711-256.952 82.194s-10.012-6.569-4.907-14.682z" class="B C D E"/>
      <path d="M322.29 504.368c1.385-2.177 257.664-83.223 257.664-83.223l4.195 15.71-256.952 82.195s-10.012-6.569-4.907-14.682z" class="B C D F"/>
      <use xlink:href="#Q" fill="url(#R)" class="B C N"/>
      <use xlink:href="#Q" class="B C N"/>
      <use xlink:href="#S" class="B C D E"/>
      <use xlink:href="#S" class="B C D F"/>
      <path d="M498.473 823.923c2.137.989 25.96 51.287 43.927 90.228 1.662 3.601 0 7.836-3.681 9.3l-2.255.91c-3.404 1.385-7.322-.158-8.904-3.482l-40.563-84.965c-2.256-4.749-.08-10.606 4.867-12.387 1.9-.672 4.116-.752 6.609.436v-.04z" class="B C D E"/>
      <path d="M498.473 823.923c2.137.99 25.96 51.288 43.926 90.228 1.662 3.601 0 7.836-3.68 9.3l-2.256.91c-3.403 1.385-7.321-.158-8.904-3.482l-40.602-85.005c-2.137-4.511-.317-10.051 4.194-12.109 2.019-.91 4.472-1.148 7.282.158h.04z" class="B C D F"/>
      <path d="M846.878 178.874c1.242-14.546-28.256-28.943-65.887-32.156s-69.142 5.975-70.384 20.522 28.257 28.944 65.887 32.156 69.142-5.975 70.384-20.522z" class="B C D J"/>
      <path d="M846.878 178.874c1.242-14.547-28.256-28.944-65.887-32.157s-69.142 5.975-70.384 20.522 28.257 28.944 65.887 32.157 69.142-5.975 70.384-20.522z" class="B C D K"/>
      <path d="M466.491 282.547c31.827-25.362 49.677-55.898 39.87-68.205s-43.557-1.724-75.384 23.638-49.677 55.897-39.87 68.204 43.557 1.724 75.384-23.637z" class="B C G J"/>
      <path d="M466.491 282.547c31.827-25.361 49.677-55.898 39.87-68.204s-43.557-1.724-75.384 23.637-49.677 55.898-39.87 68.205 43.557 1.724 75.384-23.638z" class="B C G K"/>
      <path d="M288.739 542.62c10.937-39.199 7.516-74.404-7.641-78.633s-36.311 24.119-47.248 63.317-7.516 74.404 7.641 78.633 36.311-24.119 47.248-63.317z" class="B C G J"/>
      <path d="M288.739 542.619c10.937-39.198 7.516-74.403-7.641-78.633s-36.311 24.119-47.248 63.318-7.516 74.404 7.641 78.633 36.311-24.119 47.248-63.318z" class="B C G K"/>
      <path d="M650.726 1054.16c19.785-39.1 2.957-87.427-37.586-107.943s-89.45-5.449-109.235 33.651-2.958 87.432 37.586 107.942c40.543 20.52 89.449 5.45 109.235-33.65z" class="B C D J"/>
      <path d="M650.726 1054.16c19.785-39.1 2.957-87.428-37.586-107.943s-89.45-5.45-109.235 33.65-2.958 87.433 37.586 107.943c40.543 20.52 89.449 5.45 109.235-33.65z" class="B C D K"/>
      <use xlink:href="#T" class="B C G J"/>
      <use xlink:href="#T" class="B C G K"/>
      <path d="M509.216 748.831c7.082-44.219-18.772-85.127-57.747-91.369s-76.312 24.543-83.394 68.762 18.77 85.127 57.745 91.37 76.313-24.544 83.396-68.763z" class="B C J P"/>
      <path d="M509.216 748.832c7.082-44.22-18.772-85.127-57.747-91.37s-76.312 24.543-83.394 68.762 18.77 85.127 57.745 91.37 76.313-24.543 83.396-68.762z" class="B C K P"/>
      <use xlink:href="#U" class="B C J O"/>
      <use xlink:href="#U" class="B C K O"/>
      <use xlink:href="#V" class="B C J N"/>
      <use xlink:href="#V" class="B C K N"/>
      <path fill="url(#W)" d="m141.123 821.076 32.529 142.782 86.706-23.111c13.534-8.112 17.808-36.962 8.429-76.1-8.192-34.31-22.438-62.922-42.225-64.149-.198.079-85.439 20.578-85.439 20.578z" class="L"/>
      <path fill="url(#X)" d="M450.206 144 333 236.588l59.09 69.991c13.342 8.957 41.772.285 73.73-25.529 28.024-22.598 48.098-48.289 40.596-67.1-.163-.163-56.21-69.95-56.21-69.95z" class="L"/>
      <path fill="url(#Y)" d="m194.658 443.524-38.203 142.027 87.847 20.23c15.811-.837 33.156-24.451 43.256-63.591 8.836-34.322 10.418-67.305-6.558-77.69-9.208-2.897-86.302-20.979-86.302-20.979l-.04.003z" class="L"/>
      <path fill="url(#Z)" d="M851.744 91.405 713.161 82.02 711 169.001c3.671 14.439 27.864 27.316 66 29.499 33.413 1.911 63.466-2.494 70-20 0-7.578 4.744-87.095 4.744-87.095z" class="L"/>
      <path fill="url(#aa)" d="M455 439.365 606.44 302l43.547 94.639c13.72 26.918 8.276 68.246-24.939 94.736C595.942 514.603 561.425 509.382 541 494c-6.77-5.098-86-54.596-86-54.596v-.039z" class="L"/>
      <path fill="url(#ab)" d="m362.182 841.415 6.015-206.693 84.687 24.219C489.5 664.5 512.633 700.234 509 743c-3.483 41-34.033 66.416-57.5 73.5-13.935 4.206-89.318 24.955-89.318 24.955v-.04z" class="L"/>
      <path fill="url(#ac)" d="M598.667 1142 462 982.145 537 947c26.98-15.907 74.156-12.295 102 20.5 25.016 29.458 22.148 69.89 7.5 92-3.718 5.61-47.833 82.46-47.833 82.46v.04z" class="L"/>
    </g>
  </g>
  <defs>
    <linearGradient xlink:href="#ad" id="d" x1="853.289" x2="685.442" y1="1041.16" y2="490.736">
      <stop offset=".4" stop-color="#b999ff"/>
      <stop offset=".41" stop-color="#a68ae9"/>
      <stop offset=".44" stop-color="#7d6abd"/>
      <stop offset=".47" stop-color="#5c4f97"/>
      <stop offset=".5" stop-color="#423b7b"/>
      <stop offset=".53" stop-color="#2f2c66"/>
      <stop offset=".55" stop-color="#24235a"/>
      <stop offset=".58" stop-color="#212156"/>
      <stop offset=".79" stop-color="#cb9fff"/>
      <stop offset=".96" stop-color="#332e83"/>
    </linearGradient>
    <linearGradient xlink:href="#ad" id="f" x1="693.896" x2="887.732" y1="429.051" y2="923.3">
      <stop offset=".08" stop-color="#9d67ff"/>
      <stop offset=".31" stop-color="#c972d2"/>
      <stop offset=".43" stop-color="#dd78c0"/>
      <stop offset=".62" stop-color="#abc4d7"/>
      <stop offset=".73" stop-color="#93ebe4"/>
      <stop offset=".76" stop-color="#93e4e5"/>
      <stop offset=".8" stop-color="#95d2e8"/>
      <stop offset=".84" stop-color="#98b3ec"/>
      <stop offset=".9" stop-color="#9c8af3"/>
      <stop offset=".94" stop-color="#a063fa"/>
    </linearGradient>
    <linearGradient xlink:href="#ad" id="g" x1="841.67" x2="764.033" y1="826.513" y2="573.965">
      <stop stop-color="#00e4f7"/>
      <stop offset="1" stop-color="#00e4f7" stop-opacity="0"/>
    </linearGradient>
    <linearGradient xlink:href="#ad" id="h" x1="728.19" x2="888.546" y1="558.117" y2="858.507">
      <stop stop-color="#ff7a00"/>
      <stop offset="1" stop-color="#f90" stop-opacity="0"/>
    </linearGradient>
    <linearGradient xlink:href="#ad" id="j" x1="447.573" x2="459.4" y1="596.937" y2="849.59">
      <stop offset=".09" stop-color="#83b1ff"/>
      <stop offset=".1" stop-color="#80aaff"/>
      <stop offset=".2" stop-color="#6c6fff"/>
      <stop offset=".29" stop-color="#5b40ff"/>
      <stop offset=".38" stop-color="#4f1eff"/>
      <stop offset=".44" stop-color="#4809ff"/>
      <stop offset=".49" stop-color="#4602ff"/>
      <stop offset=".53" stop-color="#4a0eff"/>
      <stop offset=".61" stop-color="#5731ff"/>
      <stop offset=".71" stop-color="#6b68ff"/>
      <stop offset=".84" stop-color="#87b3ff"/>
      <stop offset=".91" stop-color="#97ddff"/>
    </linearGradient>
    <linearGradient xlink:href="#ad" id="l" x1="666.279" x2="544.843" y1="329.307" y2="533.673">
      <stop offset=".09" stop-color="#83b1ff"/>
      <stop offset=".1" stop-color="#80aaff"/>
      <stop offset=".2" stop-color="#6c6fff"/>
      <stop offset=".29" stop-color="#5b40ff"/>
      <stop offset=".38" stop-color="#4f1eff"/>
      <stop offset=".44" stop-color="#4809ff"/>
      <stop offset=".49" stop-color="#4602ff"/>
      <stop offset=".53" stop-color="#4a0eff"/>
      <stop offset=".61" stop-color="#5731ff"/>
      <stop offset=".71" stop-color="#6b68ff"/>
      <stop offset=".84" stop-color="#87b3ff"/>
      <stop offset=".91" stop-color="#97ddff"/>
    </linearGradient>
    <linearGradient xlink:href="#ad" id="n" x1="891.097" x2="1020.34" y1="344.547" y2="551.5">
      <stop offset=".09" stop-color="#83b1ff"/>
      <stop offset=".1" stop-color="#80aaff"/>
      <stop offset=".2" stop-color="#6c6fff"/>
      <stop offset=".29" stop-color="#5b40ff"/>
      <stop offset=".38" stop-color="#4f1eff"/>
      <stop offset=".44" stop-color="#4809ff"/>
      <stop offset=".49" stop-color="#4602ff"/>
      <stop offset=".53" stop-color="#4a0eff"/>
      <stop offset=".61" stop-color="#5731ff"/>
      <stop offset=".71" stop-color="#6b68ff"/>
      <stop offset=".84" stop-color="#87b3ff"/>
      <stop offset=".91" stop-color="#97ddff"/>
    </linearGradient>
    <linearGradient xlink:href="#ad" id="p" x1="694.336" x2="463.024" y1="1108.62" y2="1005.14">
      <stop offset=".09" stop-color="#83b1ff"/>
      <stop offset=".1" stop-color="#80aaff"/>
      <stop offset=".2" stop-color="#6c6fff"/>
      <stop offset=".29" stop-color="#5b40ff"/>
      <stop offset=".38" stop-color="#4f1eff"/>
      <stop offset=".44" stop-color="#4809ff"/>
      <stop offset=".49" stop-color="#4602ff"/>
      <stop offset=".53" stop-color="#4a0eff"/>
      <stop offset=".61" stop-color="#5731ff"/>
      <stop offset=".71" stop-color="#6b68ff"/>
      <stop offset=".84" stop-color="#87b3ff"/>
      <stop offset=".91" stop-color="#97ddff"/>
    </linearGradient>
    <linearGradient xlink:href="#ad" id="r" x1="691.287" x2="861.133" y1="198.279" y2="212.541">
      <stop offset=".09" stop-color="#83b1ff"/>
      <stop offset=".1" stop-color="#80aaff"/>
      <stop offset=".2" stop-color="#6c6fff"/>
      <stop offset=".29" stop-color="#5b40ff"/>
      <stop offset=".38" stop-color="#4f1eff"/>
      <stop offset=".44" stop-color="#4809ff"/>
      <stop offset=".49" stop-color="#4602ff"/>
      <stop offset=".53" stop-color="#4a0eff"/>
      <stop offset=".61" stop-color="#5731ff"/>
      <stop offset=".71" stop-color="#6b68ff"/>
      <stop offset=".84" stop-color="#87b3ff"/>
      <stop offset=".91" stop-color="#97ddff"/>
    </linearGradient>
    <linearGradient xlink:href="#ad" id="t" x1="900.063" x2="687.629" y1="171.618" y2="173.304">
      <stop offset=".09" stop-color="#83b1ff"/>
      <stop offset=".1" stop-color="#80aaff"/>
      <stop offset=".2" stop-color="#6c6fff"/>
      <stop offset=".29" stop-color="#5b40ff"/>
      <stop offset=".38" stop-color="#4f1eff"/>
      <stop offset=".44" stop-color="#4809ff"/>
      <stop offset=".49" stop-color="#4602ff"/>
      <stop offset=".53" stop-color="#4a0eff"/>
      <stop offset=".61" stop-color="#5731ff"/>
      <stop offset=".71" stop-color="#6b68ff"/>
      <stop offset=".84" stop-color="#87b3ff"/>
      <stop offset=".91" stop-color="#97ddff"/>
    </linearGradient>
    <linearGradient xlink:href="#ad" id="v" x1="398.068" x2="541.543" y1="345.097" y2="230.439">
      <stop offset=".09" stop-color="#83b1ff"/>
      <stop offset=".1" stop-color="#80aaff"/>
      <stop offset=".2" stop-color="#6c6fff"/>
      <stop offset=".29" stop-color="#5b40ff"/>
      <stop offset=".38" stop-color="#4f1eff"/>
      <stop offset=".44" stop-color="#4809ff"/>
      <stop offset=".49" stop-color="#4602ff"/>
      <stop offset=".53" stop-color="#4a0eff"/>
      <stop offset=".61" stop-color="#5731ff"/>
      <stop offset=".71" stop-color="#6b68ff"/>
      <stop offset=".84" stop-color="#87b3ff"/>
      <stop offset=".91" stop-color="#97ddff"/>
    </linearGradient>
    <linearGradient xlink:href="#ad" id="x" x1="543.259" x2="378.228" y1="169.133" y2="327.83">
      <stop offset=".09" stop-color="#83b1ff"/>
      <stop offset=".1" stop-color="#80aaff"/>
      <stop offset=".2" stop-color="#6c6fff"/>
      <stop offset=".29" stop-color="#5b40ff"/>
      <stop offset=".38" stop-color="#4f1eff"/>
      <stop offset=".44" stop-color="#4809ff"/>
      <stop offset=".49" stop-color="#4602ff"/>
      <stop offset=".53" stop-color="#4a0eff"/>
      <stop offset=".61" stop-color="#5731ff"/>
      <stop offset=".71" stop-color="#6b68ff"/>
      <stop offset=".84" stop-color="#87b3ff"/>
      <stop offset=".91" stop-color="#97ddff"/>
    </linearGradient>
    <linearGradient xlink:href="#ad" id="z" x1="269.563" x2="318.685" y1="633.348" y2="456.337">
      <stop offset=".09" stop-color="#83b1ff"/>
      <stop offset=".1" stop-color="#80aaff"/>
      <stop offset=".2" stop-color="#6c6fff"/>
      <stop offset=".29" stop-color="#5b40ff"/>
      <stop offset=".38" stop-color="#4f1eff"/>
      <stop offset=".44" stop-color="#4809ff"/>
      <stop offset=".49" stop-color="#4602ff"/>
      <stop offset=".53" stop-color="#4a0eff"/>
      <stop offset=".61" stop-color="#5731ff"/>
      <stop offset=".71" stop-color="#6b68ff"/>
      <stop offset=".84" stop-color="#87b3ff"/>
      <stop offset=".91" stop-color="#97ddff"/>
    </linearGradient>
    <linearGradient xlink:href="#ad" id="B" x1="284.936" x2="244.191" y1="405.671" y2="630.968">
      <stop offset=".09" stop-color="#83b1ff"/>
      <stop offset=".1" stop-color="#80aaff"/>
      <stop offset=".2" stop-color="#6c6fff"/>
      <stop offset=".29" stop-color="#5b40ff"/>
      <stop offset=".38" stop-color="#4f1eff"/>
      <stop offset=".44" stop-color="#4809ff"/>
      <stop offset=".49" stop-color="#4602ff"/>
      <stop offset=".53" stop-color="#4a0eff"/>
      <stop offset=".61" stop-color="#5731ff"/>
      <stop offset=".71" stop-color="#6b68ff"/>
      <stop offset=".84" stop-color="#87b3ff"/>
      <stop offset=".91" stop-color="#97ddff"/>
    </linearGradient>
    <linearGradient xlink:href="#ad" id="D" x1="297.93" x2="255.794" y1="950.828" y2="772.024">
      <stop offset=".09" stop-color="#83b1ff"/>
      <stop offset=".1" stop-color="#80aaff"/>
      <stop offset=".2" stop-color="#6c6fff"/>
      <stop offset=".29" stop-color="#5b40ff"/>
      <stop offset=".38" stop-color="#4f1eff"/>
      <stop offset=".44" stop-color="#4809ff"/>
      <stop offset=".49" stop-color="#4602ff"/>
      <stop offset=".53" stop-color="#4a0eff"/>
      <stop offset=".61" stop-color="#5731ff"/>
      <stop offset=".71" stop-color="#6b68ff"/>
      <stop offset=".84" stop-color="#87b3ff"/>
      <stop offset=".91" stop-color="#97ddff"/>
    </linearGradient>
    <linearGradient xlink:href="#ad" id="F" x1="200.771" x2="273.543" y1="745.834" y2="962.954">
      <stop offset=".09" stop-color="#83b1ff"/>
      <stop offset=".1" stop-color="#80aaff"/>
      <stop offset=".2" stop-color="#6c6fff"/>
      <stop offset=".29" stop-color="#5b40ff"/>
      <stop offset=".38" stop-color="#4f1eff"/>
      <stop offset=".44" stop-color="#4809ff"/>
      <stop offset=".49" stop-color="#4602ff"/>
      <stop offset=".53" stop-color="#4a0eff"/>
      <stop offset=".61" stop-color="#5731ff"/>
      <stop offset=".71" stop-color="#6b68ff"/>
      <stop offset=".84" stop-color="#87b3ff"/>
      <stop offset=".91" stop-color="#97ddff"/>
    </linearGradient>
    <linearGradient xlink:href="#ad" id="G" x1="1063.13" x2="950.743" y1="883.147" y2="1103.11">
      <stop offset=".09" stop-color="#83b1ff"/>
      <stop offset=".1" stop-color="#80aaff"/>
      <stop offset=".2" stop-color="#6c6fff"/>
      <stop offset=".29" stop-color="#5b40ff"/>
      <stop offset=".38" stop-color="#4f1eff"/>
      <stop offset=".44" stop-color="#4809ff"/>
      <stop offset=".49" stop-color="#4602ff"/>
      <stop offset=".53" stop-color="#4a0eff"/>
      <stop offset=".61" stop-color="#5731ff"/>
      <stop offset=".71" stop-color="#6b68ff"/>
      <stop offset=".84" stop-color="#87b3ff"/>
      <stop offset=".91" stop-color="#97ddff"/>
    </linearGradient>
    <linearGradient xlink:href="#ad" id="L" x1="901.132" x2="1030.4" y1="330.013" y2="537.002">
      <stop offset=".09" stop-color="#83b1ff"/>
      <stop offset=".1" stop-color="#80aaff"/>
      <stop offset=".2" stop-color="#6c6fff"/>
      <stop offset=".29" stop-color="#5b40ff"/>
      <stop offset=".38" stop-color="#4f1eff"/>
      <stop offset=".44" stop-color="#4809ff"/>
      <stop offset=".49" stop-color="#4602ff"/>
      <stop offset=".53" stop-color="#4a0eff"/>
      <stop offset=".61" stop-color="#5731ff"/>
      <stop offset=".71" stop-color="#6b68ff"/>
      <stop offset=".84" stop-color="#87b3ff"/>
      <stop offset=".91" stop-color="#97ddff"/>
    </linearGradient>
    <linearGradient xlink:href="#ad" id="N" x1="432.785" x2="444.587" y1="593.072" y2="844.571">
      <stop offset=".09" stop-color="#83b1ff"/>
      <stop offset=".1" stop-color="#80aaff"/>
      <stop offset=".2" stop-color="#6c6fff"/>
      <stop offset=".29" stop-color="#5b40ff"/>
      <stop offset=".38" stop-color="#4f1eff"/>
      <stop offset=".44" stop-color="#4809ff"/>
      <stop offset=".49" stop-color="#4602ff"/>
      <stop offset=".53" stop-color="#4a0eff"/>
      <stop offset=".61" stop-color="#5731ff"/>
      <stop offset=".71" stop-color="#6b68ff"/>
      <stop offset=".84" stop-color="#87b3ff"/>
      <stop offset=".91" stop-color="#97ddff"/>
    </linearGradient>
    <linearGradient xlink:href="#ad" id="P" x1="711.775" x2="462.145" y1="961.991" y2="1005.55">
      <stop offset=".09" stop-color="#83b1ff"/>
      <stop offset=".1" stop-color="#80aaff"/>
      <stop offset=".2" stop-color="#6c6fff"/>
      <stop offset=".29" stop-color="#5b40ff"/>
      <stop offset=".38" stop-color="#4f1eff"/>
      <stop offset=".44" stop-color="#4809ff"/>
      <stop offset=".49" stop-color="#4602ff"/>
      <stop offset=".53" stop-color="#4a0eff"/>
      <stop offset=".61" stop-color="#5731ff"/>
      <stop offset=".71" stop-color="#6b68ff"/>
      <stop offset=".84" stop-color="#87b3ff"/>
      <stop offset=".91" stop-color="#97ddff"/>
    </linearGradient>
    <linearGradient xlink:href="#ad" id="R" x1="653.97" x2="535.218" y1="321.407" y2="521.229">
      <stop offset=".09" stop-color="#83b1ff"/>
      <stop offset=".1" stop-color="#80aaff"/>
      <stop offset=".2" stop-color="#6c6fff"/>
      <stop offset=".29" stop-color="#5b40ff"/>
      <stop offset=".38" stop-color="#4f1eff"/>
      <stop offset=".44" stop-color="#4809ff"/>
      <stop offset=".49" stop-color="#4602ff"/>
      <stop offset=".53" stop-color="#4a0eff"/>
      <stop offset=".61" stop-color="#5731ff"/>
      <stop offset=".71" stop-color="#6b68ff"/>
      <stop offset=".84" stop-color="#87b3ff"/>
      <stop offset=".91" stop-color="#97ddff"/>
    </linearGradient>
    <linearGradient xlink:href="#ad" id="W" x1="256.717" x2="161.74" y1="870.424" y2="896.147">
      <stop stop-color="#fff"/>
      <stop offset="1" stop-color="#fff" stop-opacity="0"/>
    </linearGradient>
    <linearGradient xlink:href="#ad" id="X" x1="476.121" x2="398.635" y1="308.981" y2="189.147">
      <stop stop-color="#fff"/>
      <stop offset="1" stop-color="#fff" stop-opacity="0"/>
    </linearGradient>
    <linearGradient xlink:href="#ad" id="Y" x1="297.124" x2="192.289" y1="519.639" y2="497.795">
      <stop stop-color="#fff"/>
      <stop offset="1" stop-color="#fff" stop-opacity="0"/>
    </linearGradient>
    <linearGradient xlink:href="#ad" id="Z" x1="781.872" x2="779.99" y1="83.177" y2="195.161">
      <stop stop-color="#fff" stop-opacity="0"/>
      <stop offset="1" stop-color="#fff"/>
    </linearGradient>
    <linearGradient xlink:href="#ad" id="aa" x1="610.261" x2="550.017" y1="460.844" y2="379.402">
      <stop stop-color="#fff"/>
      <stop offset="1" stop-color="#fff" stop-opacity="0"/>
    </linearGradient>
    <linearGradient xlink:href="#ad" id="ab" x1="458.543" x2="375.438" y1="716.086" y2="724.001">
      <stop stop-color="#fff"/>
      <stop offset="1" stop-color="#fff" stop-opacity="0"/>
    </linearGradient>
    <linearGradient xlink:href="#ad" id="ac" x1="579.974" x2="523.023" y1="999.663" y2="1054.64">
      <stop stop-color="#fff"/>
      <stop offset="1" stop-color="#fff" stop-opacity="0"/>
    </linearGradient>
    <linearGradient id="ad" gradientUnits="userSpaceOnUse"/>
    <path id="e" d="M646.928 759.068c-34.241-112.288 8.542-224.825 95.558-251.36s185.313 42.983 219.554 155.27-8.541 224.826-95.557 251.36-185.314-42.982-219.555-155.27z"/>
    <path id="i" d="M546.062 750.579c5.226-55.707-31.515-104.711-82.064-109.453s-95.765 36.571-100.991 92.278 31.514 104.71 82.064 109.453 95.764-36.572 100.991-92.278z"/>
    <path id="k" d="M664.503 501.12c32.929-40.999 29.467-98.456-7.732-128.332s-94.049-20.861-126.978 20.138-29.467 98.456 7.732 128.332 94.049 20.861 126.978-20.138z"/>
    <path id="m" d="M1027.6 536.163c37.51-31.503 39.76-90.551 5.04-131.887s-93.273-49.307-130.777-17.804-39.758 90.55-5.036 131.886 93.272 49.308 130.773 17.805z"/>
    <path id="o" d="M547.148 521.384c.633 2.493-115.911 244.723-115.911 244.723l-14.326-7.716L533.1 514.894s11.674-2.81 14.048 6.49z"/>
    <path id="q" d="m861.165 211.561 2.533-29.799L694.125 165.3l-2.692 31.857s-.276 4.59.594 7.044c6.451 18.56 49.388 34.27 95.887 35.141 42.858.792 73.726-11.318 73.251-27.741v-.04z"/>
    <path id="s" d="M863.803 180.738c1.549-18.14-35.221-36.092-82.128-40.097s-86.188 7.454-87.737 25.594 35.221 36.092 82.129 40.097 86.188-7.454 87.736-25.594z"/>
    <path id="u" d="M541.687 229.409 521.583 204.2 376.625 316.985l21.528 26.91s3.206 3.799 5.659 5.066c18.798 9.735 64.07-9.775 101.111-43.531 34.112-31.145 49.309-63.516 36.764-76.021z"/>
    <path id="w" d="M471.281 288.222c39.689-31.627 61.959-69.695 49.742-85.027s-54.297-2.123-93.986 29.504-61.96 69.695-49.742 85.027 54.296 2.123 93.986-29.504z"/>
    <path id="y" d="m318.571 455.454-31.065-8.667L236.1 623.088l33.202 9.22s4.828 1.188 7.558.792c20.935-3.126 46.222-45.47 56.432-94.502 9.419-45.233 2.771-80.374-14.721-83.144z"/>
    <path id="A" d="M296.011 544.427c13.639-48.883 9.387-92.781-9.496-98.05s-45.248 30.087-58.887 78.97-9.388 92.78 9.496 98.049 45.248-30.087 58.887-78.969z"/>
    <path id="C" d="m253.828 773.388-31.382 7.36 39.811 179.269 33.558-7.915s4.789-1.266 7.005-2.928c16.858-12.822 18.6-62.091 3.957-110.015-13.494-44.164-36.249-71.786-52.949-65.771z"/>
    <path id="E" d="M263.411 959.648c19.088-4.473 25.174-48.155 13.594-97.565s-36.441-85.84-55.529-81.366-25.173 48.155-13.593 97.565 36.441 85.84 55.528 81.366z"/>
    <path id="H" d="M694.838 186.195c-2.019-.95-125.924 31.303-159.403 40.048-4.512 1.188-7.084 5.897-5.699 10.329a8.13 8.13 0 0 0 9.775 5.422l159.086-40.801s4.907-10.922-3.759-15.038v.04z"/>
    <path id="I" d="M393.286 332.221c-2.177.593-64.07 89.832-83.857 118.246-2.651 3.839-1.583 9.102 2.375 11.555a8.135 8.135 0 0 0 5.922 1.074 8.13 8.13 0 0 0 5.039-3.29l83.145-118.562s-3.364-11.516-12.585-8.984l-.039-.039z"/>
    <path id="J" d="M816.209 218.09c2.532.594 162.41 216.666 162.41 216.666l-13.495 9.062-161.223-216.309s2.968-11.635 12.268-9.419h.04z"/>
    <path id="K" d="M1037.66 521.638c37.51-31.502 39.76-90.55 5.04-131.886s-93.273-49.308-130.776-17.805-39.759 90.551-5.037 131.887 93.273 49.307 130.773 17.804z"/>
    <path id="M" d="M527.731 751.41c8.835-55.16-23.418-106.19-72.04-113.978s-95.199 30.615-104.035 85.776 23.418 106.19 72.04 113.978 95.2-30.615 104.035-85.776z"/>
    <path id="O" d="M669.168 1064.55c24.68-48.78 3.694-109.058-46.873-134.645s-111.567-6.792-136.247 41.981-3.693 109.054 46.874 134.644c50.567 25.58 111.566 6.79 136.246-41.98z"/>
    <path id="Q" d="M649.529 494.219c34.973-37.794 34.988-94.653.033-126.999s-91.642-27.929-126.615 9.865-34.988 94.653-.033 126.999 91.642 27.929 126.615-9.865z"/>
    <path id="S" d="M539.351 730.017c1.821-1.544 416.118-3.483 481.339-3.641 4.63 0 8.31 3.839 8.15 8.469-.16 4.353-3.76 7.796-8.11 7.796l-481.062 2.849s-7.598-9.26-.317-15.473z"/>
    <path id="T" d="M258.905 942.237c15.321-3.59 20.213-38.621 10.927-78.244s-29.234-68.831-44.555-65.24-20.214 38.621-10.928 78.244 29.234 68.831 44.556 65.24z"/>
    <path id="U" d="M1026.22 506.376c30.08-25.261 31.88-72.615 4.03-105.768s-74.8-39.549-104.874-14.288-31.877 72.615-4.029 105.768 74.802 39.549 104.873 14.288z"/>
    <path id="V" d="M636.028 482.172c28.041-30.303 28.054-75.89.029-101.823s-73.474-22.391-101.515 7.911-28.054 75.891-.029 101.824 73.474 22.39 101.515-7.912z"/>
    <radialGradient xlink:href="#ad" id="c" cx="0" cy="0" r="1" gradientTransform="matrix(-.27402 523.34193 -524.17393 -.27446 769.472 788.325)">
      <stop stop-color="#6dffec"/>
      <stop offset="1" stop-color="#6dffec" stop-opacity="0"/>
    </radialGradient>
    <clipPath id="a">
      <path fill="#fff" d="M0 0h897v990H0z"/>
    </clipPath>
  </defs>
</svg>
