<svg xmlns="http://www.w3.org/2000/svg" width="1879" height="1879" fill="none"><g opacity=".2"><path stroke="#0CF2FF" stroke-miterlimit="10" stroke-width="3.132" d="m750.609 1184.11 144.088-217.178L1041 766.848l148.36-173.491 95.53-69.887"/><path stroke="#0CF2FF" stroke-miterlimit="10" stroke-width="3.132" d="m990.267 481.046 199.093 112.31 226.09 129.248"/><path stroke="#0CF2FF" stroke-miterlimit="10" stroke-width="3.132" d="m1415.45 722.602-100.56 127.032-106.81-157.108M1269.14 592.523l-347.533-2.651L782.545 725.57"/><path stroke="#0CF2FF" stroke-miterlimit="10" stroke-width="3.132" d="m945.312 481.162-23.705 108.709 125.213 170.167 80.65 221.81 145.67 137.792"/><path stroke="#0CF2FF" stroke-miterlimit="10" stroke-width="3.132" d="m1127.47 981.85 187.42-132.216-268.07-89.594-230.162-4.472M1306.07 1016.68l8.82-167.045 61.85 90.426M903.64 474.357 684.204 578.713 537.188 820.349l-6.411 277.851-25.723 70.75"/><path stroke="#0CF2FF" stroke-miterlimit="10" stroke-width="3.132" d="m518.153 1092.42 232.456 91.69 279.311 19.51 243.22-83.97 97.83 66.44 12.18 158.69M805.3 1392.11l331.94-16.82M635.094 550.735l-135.461 145.75-37.991 110.133M454.915 860.676l-45.193 99.448L438.769 1131M475.177 869.897l-20.381 225.883M684.205 578.714l237.402 11.16M774.472 754.895l-90.149 174.797M1127.47 981.852 696.433 961.59M747.325 762.732l-209.662 56.195 119.671 124.894"/><path stroke="#0CF2FF" stroke-miterlimit="10" stroke-width="3.132" d="m484.516 882.046-74.794 78.079 108.432 132.295M670.552 584.492 499.633 696.486l2.137 66.958M1262.06 1306.83l11.08-187.18 85.32-74.64M1415.45 722.603l-42.55 239.183M1376.74 940.06l104-49.23-65.29-168.227M1127.47 981.849l-97.55 221.771-274.364-475.873M750.609 1184.11l-164.191 128.81-99.251-142.26M983.896 1516.41l175.114-132.73-129.09-180.06s-122.559 179.07-122.837 183.34"/><path stroke="#0CF2FF" stroke-miterlimit="10" stroke-width="3.132" d="m518.153 1092.42 68.265 220.5 116.188 144.25 204.477-70.2M1449.95 905.076l-78.98 281.014 108.11-114.53"/><path stroke="#0CF2FF" stroke-miterlimit="10" stroke-width="3.132" d="m1444.65 860.676 60.07 148.634-35.06 131.82-18.64 171.79-135.42 95.02-129.84 127.94-220.147-32.57-58.53-116.34-108.59 152.59"/><path stroke="#0CF2FF" stroke-miterlimit="10" stroke-width="3.132" d="m950.654 1539.56-154.931 1.82-148.124-98.61-165.537-116.43-6.885-183.86M1185.76 1535.88l-16.86-169.49 119.59 91.85M482.062 1326.34l104.356-13.42"/><path fill="url(#a)" d="M939.5 1879c518.87 0 939.5-420.63 939.5-939.5C1879 420.629 1458.37 0 939.5 0 420.628 0 0 420.629 0 939.5 0 1458.37 420.628 1879 939.5 1879Z" opacity=".7"/><path fill="url(#b)" d="M1628.83 705.192 609.252 409.022 306.117 1425.99l1045.303 303.65 277.41-1024.448Z"/><path fill="#59009D" stroke="#000" stroke-miterlimit="10" stroke-width="3.59" d="M797.187 1053.5c30.943 101.48 114.22 168.03 194.2 160.31 8.503-.82 74.623-15.85 81.173-21.66 68.86-61.17 73.98-122.46 39.73-234.733-26.98-88.495-154.353-172.796-154.353-172.796s-46.754 11.916-65.207 17.541c-87.013 26.547-129.791 139.082-95.541 251.358l-.002-.02Z"/><path fill="url(#c)" stroke="#000" stroke-miterlimit="10" stroke-width="2.932" d="M797.187 1053.5c30.943 101.48 114.22 168.03 194.2 160.31 8.503-.82 74.623-15.85 81.173-21.65 68.86-61.18 73.98-122.47 39.73-234.742-26.98-88.495-154.353-172.796-154.353-172.796s-46.754 11.916-65.207 17.541c-87.013 26.547-129.791 139.082-95.541 251.357l-.002-.02Z"/><mask id="d" width="348" height="430" x="785" y="785" maskUnits="userSpaceOnUse" style="mask-type:luminance"><path fill="#fff" d="M797.186 1053.5c30.944 101.48 114.22 168.03 194.2 160.31 8.503-.82 74.624-15.85 81.174-21.66 68.86-61.18 73.98-122.46 39.73-234.734-26.98-88.496-157.867-171.908-157.867-171.908s-43.243 11.008-61.696 16.632c-87.013 26.547-129.791 139.082-95.541 251.36Z"/></mask><g stroke="#000" stroke-miterlimit="10" stroke-width="3.59" mask="url(#d)"><path d="m939.901 806-229.904 87.912M947.929 832.328l-230.646 85.505M955.958 858.655l-231.386 83.119M963.986 884.983l-232.109 80.71M972.011 911.29l-232.849 78.323M980.04 937.618l-233.571 75.912M988.068 963.945l-234.314 73.505M996.095 990.253l-235.034 71.117M1004.12 1016.58l-235.774 68.71M1012.15 1042.91l-236.498 66.3M1020.18 1069.23l-237.242 63.9M1028.21 1095.54l-237.966 61.51M1036.23 1121.87l-238.701 59.1M1044.26 1148.2l-239.424 56.69M1052.29 1174.51l-240.169 54.3"/></g><path stroke="#000" stroke-miterlimit="10" stroke-width="3.59" d="M797.186 1053.5c30.944 101.48 114.22 168.03 194.2 160.31 8.503-.82 74.624-15.85 81.174-21.66 68.86-61.18 73.98-122.46 39.73-234.734-26.98-88.496-157.867-171.908-157.867-171.908s-43.243 11.008-61.696 16.632c-87.013 26.547-129.791 139.082-95.541 251.36Z"/><path fill="url(#e)" stroke="#000" stroke-miterlimit="10" stroke-width="2.07" d="M844.928 1040.07c-34.241-112.29 8.542-224.827 95.558-251.362 87.014-26.534 185.314 42.983 219.554 155.27 34.24 112.292-8.54 224.822-95.56 251.362-87.013 26.53-185.311-42.98-219.552-155.27Z"/><path stroke="#000" stroke-miterlimit="10" stroke-width="3.59" d="M844.928 1040.07c-34.241-112.29 8.542-224.827 95.558-251.362 87.014-26.534 185.314 42.983 219.554 155.27 34.24 112.292-8.54 224.822-95.56 251.362-87.013 26.53-185.311-42.98-219.552-155.27Z"/><path fill="#3546B1" stroke="#000" stroke-miterlimit="10" stroke-width="3.59" d="M878.096 1029.96c-27.456-90.041 6.847-180.279 76.619-201.555 69.775-21.276 148.585 34.467 176.045 124.505 27.46 90.04-6.85 180.28-76.62 201.55-69.769 21.28-148.588-34.46-176.044-124.5Z"/><path fill="url(#f)" stroke="#000" stroke-miterlimit="10" stroke-width="3.59" d="M878.097 1029.96c-27.456-90.041 6.847-180.279 76.618-201.555 69.775-21.276 148.585 34.467 176.045 124.505 27.46 90.04-6.85 180.28-76.62 201.55-69.769 21.28-148.587-34.46-176.043-124.5Z"/><path fill="#F90" stroke="#000" stroke-linecap="round" stroke-linejoin="round" stroke-width="3.578" d="M996.158 980.619c10.282-3.261 23.392-9.038 27.892-21.239 1.2-2.709 1.86-5.795 1.92-9.028.07-3.233-.43-6.532-1.49-9.69-7.32-22.195-24.33-25.462-37.93-21.079l-20.475 6.492 18.262 57.129 2.44-.383a67.707 67.707 0 0 0 9.39-2.184l-.009-.018Zm16.072 15.246-21.528 7.145 21.428 66.98 21.89-6.94c16.05-5.1 30.34-19.46 22.55-44.19-1.17-4.12-2.99-8-5.35-11.43-2.36-3.43-5.22-6.34-8.38-8.543-12.01-8.075-26.48-4.376-30.61-3.022Z"/><path fill="#F90" stroke="#000" stroke-linecap="round" stroke-linejoin="round" stroke-width="3.578" d="M1055.15 843.018c-33.9-21.459-71.699-26.903-105.148-15.118l-1.359.426c-33.645 12.28-58.215 40.138-71.609 78.979-13.395 38.841-10.877 83.838 3.771 126.655 14.622 42.82 40.165 79.98 74.341 101.87 34.158 21.9 70.474 28.41 104.304 16.65l1.28-.41c25.19-9.17 46.54-27.63 61.34-53.03 14.79-25.4 22.37-56.62 21.77-89.7-.59-33.074-9.34-66.531-25.13-96.143-15.8-29.603-37.9-54.027-63.55-70.188l-.01.009Zm25.93 215.602c-6.72 6.51-14.51 11.34-23.02 14.27l-2.62.82.84 3.37 10.25 32.31-19.13 6.08-11.37-35.86-18.79 6.17 11.31 35.61-19.3 6.12-11.289-35.46-32.31 10.6-5.074-16.01 12.033-3.83c2.429-.79 4.364-2.76 5.389-5.5 1.026-2.73 1.057-5.99.058-9.07l-38.668-120.767c-1.913-6.039-7.038-9.006-12.447-7.292l-12.416 2.764-7.075-22.302 32.76-10.405-11.655-36.738 18.999-6.026 11.674 36.774 18.999-6.025-11.703-36.873 18.999-6.026 11.713 36.891 3.503-1.11c6.57-2.081 42.2-3.877 52.98 29.763 11.78 37.107-11.56 48.903-11.63 50.157l-1.27.543c1.42-.256 36.06-2.624 49.45 40.432 5.72 18.68 2.81 34.26-9.16 46.56l-.03.06Z"/><path fill="url(#g)" stroke="#000" stroke-linecap="round" stroke-linejoin="round" stroke-width="3.578" d="M1055.15 843.018c-33.9-21.459-71.699-26.903-105.148-15.119l-1.359.427c-33.645 12.28-58.215 40.137-71.609 78.979-13.395 38.841-10.877 83.837 3.771 126.655 14.622 42.82 40.165 79.98 74.341 101.87 34.158 21.9 70.474 28.41 104.304 16.65l1.28-.41c25.19-9.17 46.54-27.63 61.34-53.03 14.79-25.4 22.37-56.62 21.77-89.7-.59-33.074-9.34-66.532-25.13-96.144-15.8-29.602-37.9-54.027-63.55-70.188l-.01.01Zm25.93 215.602c-6.72 6.51-14.51 11.34-23.02 14.27l-2.62.82.84 3.37 10.25 32.31-19.13 6.08-11.37-35.86-18.79 6.17 11.31 35.61-19.3 6.12-11.289-35.46-32.31 10.6-5.074-16.01 12.033-3.83c2.429-.79 4.364-2.76 5.389-5.5 1.026-2.73 1.057-5.99.058-9.07l-38.668-120.767c-1.913-6.04-7.038-9.007-12.447-7.292l-12.416 2.764-7.075-22.303 32.76-10.404-11.655-36.739 18.999-6.025 11.674 36.774 18.999-6.026-11.703-36.873 18.999-6.026 11.713 36.892 3.503-1.111c6.57-2.081 42.2-3.876 52.98 29.763 11.78 37.107-11.56 48.904-11.63 50.158l-1.27.542c1.42-.256 36.06-2.624 49.45 40.433 5.72 18.68 2.81 34.26-9.16 46.56l-.03.06Z"/><path fill="url(#h)" stroke="#000" stroke-miterlimit="10" stroke-width="2.095" d="m876.731 1508.1-1.86 33.4 190.109 12.98 1.98-35.7s.16-5.14-.87-7.83c-7.83-20.54-56.31-36.72-108.312-36.21-47.924.47-82.076 15.04-81.007 33.4l-.04-.04Z"/><path stroke="#000" stroke-miterlimit="10" stroke-width="2.073" d="m876.731 1508.1-1.86 33.4 190.109 12.98 1.98-35.7s.16-5.14-.87-7.83c-7.83-20.54-56.31-36.72-108.312-36.21-47.924.47-82.076 15.04-81.007 33.4l-.04-.04Z"/><path fill="url(#i)" stroke="#000" stroke-miterlimit="10" stroke-width="2.095" d="M1065.09 1553.41c1.15-20.32-40.53-39.2-93.101-42.18-52.567-2.97-96.113 11.09-97.263 31.4-1.15 20.32 40.531 39.2 93.098 42.17 52.566 2.98 96.116-11.08 97.266-31.39Z"/><path stroke="#000" stroke-miterlimit="10" stroke-width="2.095" d="M1065.09 1553.41c1.15-20.32-40.53-39.2-93.101-42.18-52.567-2.97-96.113 11.09-97.263 31.4-1.15 20.32 40.531 39.2 93.098 42.17 52.566 2.98 96.116-11.08 97.266-31.39Z"/><path fill="url(#j)" stroke="#000" stroke-miterlimit="10" stroke-width="1.983" d="m1257.39 1484.16 22.4 22.44L1409 1380.55l-23.99-23.94s-3.56-3.36-6.09-4.31c-19.43-7.44-61.5 16.58-93.99 53.62-29.92 34.15-41.19 67.43-27.58 78.28l.04-.04Z"/><path stroke="#000" stroke-miterlimit="10" stroke-width="1.96" d="m1257.39 1484.16 22.4 22.44L1409 1380.55l-23.99-23.94s-3.56-3.36-6.09-4.31c-19.43-7.44-61.5 16.58-93.99 53.62-29.92 34.15-41.19 67.43-27.58 78.28l.04-.04Z"/><path fill="url(#k)" stroke="#000" stroke-miterlimit="10" stroke-width="1.983" d="M1369.02 1468.21c35.3-35.23 52.88-74.86 39.26-88.5-13.62-13.64-53.28 3.86-88.57 39.1-35.3 35.23-52.88 74.86-39.26 88.5 13.62 13.64 53.28-3.86 88.57-39.1Z"/><path stroke="#000" stroke-miterlimit="10" stroke-width="1.983" d="M1369.02 1468.21c35.3-35.23 52.88-74.86 39.26-88.5-13.62-13.64-53.28 3.86-88.57 39.1-35.3 35.23-52.88 74.86-39.26 88.5 13.62 13.64 53.28-3.86 88.57-39.1Z"/><path fill="url(#l)" stroke="#000" stroke-miterlimit="10" stroke-width="1.96" d="m1451.06 1228.16 30.91 3.84 23.86-175.67-33-4.04s-4.79-.47-7.32.32c-19.55 5.98-37.64 49.98-40.37 98.3-2.53 44.52 8.83 77.13 25.96 77.29l-.04-.04Z"/><path stroke="#000" stroke-miterlimit="10" stroke-width="1.915" d="m1451.06 1228.16 30.91 3.84 23.86-175.67-33-4.04s-4.79-.47-7.32.32c-19.55 5.98-37.64 49.98-40.37 98.3-2.53 44.52 8.83 77.13 25.96 77.29l-.04-.04Z"/><path fill="url(#m)" stroke="#000" stroke-miterlimit="10" stroke-width="1.96" d="M1527.96 1148.46c6.04-48.62-4.29-89.93-23.08-92.27-18.78-2.33-38.9 35.2-44.94 83.83-6.04 48.62 4.29 89.94 23.07 92.27 18.79 2.33 38.91-35.2 44.95-83.83Z"/><path stroke="#000" stroke-miterlimit="10" stroke-width="1.96" d="M1527.96 1148.46c6.04-48.62-4.29-89.93-23.08-92.27-18.78-2.33-38.9 35.2-44.94 83.83-6.04 48.62 4.29 89.94 23.07 92.27 18.79 2.33 38.91-35.2 44.95-83.83Z"/><path fill="url(#n)" stroke="#000" stroke-miterlimit="10" stroke-width="1.847" d="m579.889 1384.55-14.722 24.22 146.7 89.71 15.71-25.88s2.137-3.8 2.414-6.25c1.86-18.64-30.471-51.21-72.222-72.7-38.465-19.82-71.509-23.31-77.88-9.1Z"/><path stroke="#000" stroke-miterlimit="10" stroke-width="1.802" d="m579.889 1384.55-14.722 24.22 146.7 89.71 15.71-25.88s2.137-3.8 2.414-6.25c1.86-18.64-30.471-51.21-72.222-72.7-38.465-19.82-71.509-23.31-77.88-9.1Z"/><path fill="url(#o)" stroke="#000" stroke-miterlimit="10" stroke-width="1.847" d="M712.435 1497.44c8.806-14.81-17.174-46.51-58.027-70.81-40.853-24.31-81.11-32.01-89.916-17.21-8.805 14.8 17.174 46.5 58.028 70.81 40.853 24.3 81.109 32.01 89.915 17.21Z"/><path stroke="#000" stroke-miterlimit="10" stroke-width="1.847" d="M712.435 1497.44c8.806-14.81-17.174-46.51-58.027-70.81-40.853-24.31-81.11-32.01-89.916-17.21-8.805 14.8 17.174 46.5 58.028 70.81 40.853 24.3 81.109 32.01 89.915 17.21Z"/><path fill="#AFEDE3" stroke="#000" stroke-miterlimit="10" stroke-width="1.915" d="M668.692 1412.13c2.532-.75 56.867-83.66 56.867-83.66l-14.207-10.52-55.72 85.4s3.76 11.59 13.06 8.74v.04Z"/><path fill="#8702FF" stroke="#000" stroke-miterlimit="10" stroke-width="1.915" d="M668.692 1412.13c2.532-.75 56.867-83.66 56.867-83.66l-14.207-10.52-55.72 85.4s3.76 11.59 13.06 8.74v.04Z"/><path fill="#AFEDE3" stroke="#000" stroke-miterlimit="10" stroke-width="1.915" d="M720.415 1473.4c1.306 1.86 127.031 35.3 161.064 44.32 4.591 1.23 9.221-1.66 10.21-6.29a8.267 8.267 0 0 0-5.936-9.7l-161.104-43.49s-9.814 7.2-4.195 15.16h-.039Z"/><path fill="#8702FF" stroke="#000" stroke-miterlimit="10" stroke-width="1.915" d="M720.415 1473.4c1.306 1.86 127.031 35.3 161.064 44.32 4.591 1.23 9.221-1.66 10.21-6.29a8.267 8.267 0 0 0-5.936-9.7l-161.104-43.49s-9.814 7.2-4.195 15.16h-.039Z"/><path fill="#AFEDE3" stroke="#000" stroke-miterlimit="10" stroke-width="1.915" d="M1065.58 1530.93c2.09.91 166.21-48.79 199.88-58.96 4.51-1.39 7.01-6.25 5.39-10.69-1.47-4.15-5.94-6.41-10.14-5.14l-199.53 59.68s-4.59 11.27 4.36 15.11h.04Z"/><path fill="#8702FF" stroke="#000" stroke-miterlimit="10" stroke-width="1.915" d="M1065.58 1530.93c2.09.91 166.21-48.79 199.88-58.96 4.51-1.39 7.01-6.25 5.39-10.69-1.47-4.15-5.94-6.41-10.14-5.14l-199.53 59.68s-4.59 11.27 4.36 15.11h.04Z"/><path fill="#AFEDE3" stroke="#000" stroke-miterlimit="10" stroke-width="1.915" d="M1389.13 1368.25c2.1-.87 53.23-103.96 69.29-135.27 2.18-4.19.36-9.37-3.95-11.31-4-1.82-8.71-.16-10.77 3.72l-68.5 135.5s4.95 11.12 13.93 7.36Z"/><path fill="#8702FF" stroke="#000" stroke-miterlimit="10" stroke-width="1.915" d="M1389.13 1368.25c2.1-.87 53.23-103.96 69.29-135.27 2.18-4.19.36-9.37-3.95-11.31-4-1.82-8.71-.16-10.77 3.72l-68.5 135.5s4.95 11.12 13.93 7.36Z"/><path fill="#AFEDE3" stroke="#000" stroke-miterlimit="10" stroke-width="1.915" d="M929.403 1498.29c-2.572-.52-171.315-215.36-171.315-215.36l13.456-9.62 170.048 215.04s-2.652 11.88-12.189 9.94Z"/><path fill="#8702FF" stroke="#000" stroke-miterlimit="10" stroke-width="1.915" d="M929.403 1498.29c-2.572-.52-171.315-215.36-171.315-215.36l13.456-9.62 170.048 215.04s-2.652 11.88-12.189 9.94Z"/><path fill="#AFEDE3" stroke="#000" stroke-miterlimit="10" stroke-width="1.915" d="M1021.14 1503.23c2.61-.31 187.46-201.43 187.46-201.43l-12.67-10.64-186.19 201.23s1.74 12.07 11.4 10.84Z"/><path fill="#8702FF" stroke="#000" stroke-miterlimit="10" stroke-width="1.915" d="M1021.14 1503.23c2.61-.31 187.46-201.43 187.46-201.43l-12.67-10.64-186.19 201.23s1.74 12.07 11.4 10.84Z"/><path fill="#AFEDE3" stroke="#000" stroke-miterlimit="10" stroke-width="1.915" d="M1303.73 1407.74c-2.61-.43-130.59-153.98-130.59-153.98l14.24-9.02 128.26 152.71s-2.33 11.95-11.91 10.29Z"/><path fill="#8702FF" stroke="#000" stroke-miterlimit="10" stroke-width="1.915" d="M1303.73 1407.74c-2.61-.43-130.59-153.98-130.59-153.98l14.24-9.02 128.26 152.71s-2.33 11.95-11.91 10.29Z"/><path fill="#AFEDE3" stroke="#000" stroke-miterlimit="10" stroke-width="1.915" d="M1438.56 1184.51c-.99 2.45-243.38 128.41-243.38 128.41l-6.97-14.99 242.83-127.27s11.2 4.83 7.48 13.85h.04Z"/><path fill="#8702FF" stroke="#000" stroke-miterlimit="10" stroke-width="1.915" d="M1438.56 1184.51c-.99 2.45-243.38 128.42-243.38 128.42l-6.97-15 242.83-127.27s11.2 4.83 7.48 13.85h.04Z"/><path fill="#AFEDE3" stroke="#000" stroke-miterlimit="10" stroke-width="1.915" d="M1437.57 1118.34c-2.57.63-159.92-76.14-159.92-76.14l7.95-14.48 158.66 76.38s2.73 11.87-6.69 14.24Z"/><path fill="#8702FF" stroke="#000" stroke-miterlimit="10" stroke-width="1.915" d="M1437.57 1118.34c-2.57.64-159.92-76.14-159.92-76.14l7.95-14.48 158.66 76.38s2.73 11.87-6.69 14.24Z"/><path fill="url(#p)" stroke="#000" stroke-miterlimit="10" stroke-width="1.87" d="M744.062 1031.58c5.226-55.708-31.515-104.712-82.064-109.454-50.55-4.743-95.765 36.571-100.991 92.274-5.227 55.71 31.514 104.71 82.064 109.46 50.549 4.74 95.764-36.57 100.991-92.28Z"/><path stroke="#000" stroke-miterlimit="10" stroke-width="1.87" d="M744.062 1031.58c5.226-55.708-31.515-104.712-82.064-109.454-50.55-4.743-95.765 36.571-100.991 92.274-5.227 55.71 31.514 104.71 82.064 109.46 50.549 4.74 95.764-36.57 100.991-92.28Z"/><path fill="url(#q)" stroke="#000" stroke-miterlimit="10" stroke-width="1.757" d="M862.503 782.12c32.929-40.999 29.467-98.456-7.732-128.332-37.199-29.877-94.049-20.861-126.978 20.138-32.929 40.999-29.467 98.456 7.732 128.332 37.199 29.877 94.049 20.861 126.978-20.138Z"/><path stroke="#000" stroke-miterlimit="10" stroke-width="1.757" d="M862.503 782.12c32.929-40.999 29.467-98.456-7.732-128.332-37.199-29.877-94.049-20.861-126.978 20.138-32.929 40.999-29.467 98.456 7.732 128.332 37.199 29.877 94.049 20.861 126.978-20.138Z"/><path fill="url(#r)" stroke="#000" stroke-miterlimit="10" stroke-width="1.802" d="M1225.6 817.163c37.51-31.503 39.76-90.551 5.04-131.887s-93.27-49.307-130.78-17.804c-37.5 31.503-39.76 90.55-5.03 131.886 34.72 41.336 93.27 49.308 130.77 17.805Z"/><path stroke="#000" stroke-miterlimit="10" stroke-width="1.802" d="M1225.6 817.163c37.51-31.503 39.76-90.551 5.04-131.887s-93.27-49.307-130.78-17.804c-37.5 31.503-39.76 90.55-5.03 131.886 34.72 41.336 93.27 49.308 130.77 17.805Z"/><path fill="#AFEDE3" stroke="#000" stroke-miterlimit="10" stroke-width="1.87" d="M884.249 722.008c1.781-1.464 151.091-1.425 184.331-.791 3.25.079 5.78 2.809 5.58 6.054l-.27 4.828c-.16 3.048-2.73 5.422-5.82 5.382H884.289s-7.44-9.379-.079-15.473h.039Z"/><path fill="#8702FF" stroke="#000" stroke-miterlimit="10" stroke-width="1.87" d="M884.249 722.008c1.781-1.464 151.091-1.424 184.331-.791 3.25.079 5.78 2.81 5.58 6.055l-.27 4.828c-.16 3.047-2.73 5.421-5.82 5.382H884.289s-7.44-9.379-.079-15.474h.039Z"/><path fill="#AFEDE3" stroke="#000" stroke-miterlimit="10" stroke-width="1.87" d="M745.148 802.384c.633 2.493-115.911 244.726-115.911 244.726l-14.326-7.72L731.1 795.894s11.674-2.81 14.048 6.49Z"/><path fill="#8702FF" stroke="#000" stroke-miterlimit="10" stroke-width="1.87" d="M745.148 802.384c.633 2.493-115.911 244.726-115.911 244.726l-14.326-7.72L731.1 795.894s11.674-2.81 14.048 6.49Z"/><path fill="#AFEDE3" stroke="#000" stroke-miterlimit="10" stroke-width="1.87" d="M1132.73 825.811c.2 2.572-321.455 445.279-321.455 445.279l-12.782-10.05 321.497-444.054s11.95-.752 12.74 8.825Z"/><path fill="#8702FF" stroke="#000" stroke-miterlimit="10" stroke-width="1.87" d="M1132.73 825.811c.2 2.573-321.455 445.279-321.455 445.279l-12.782-10.05 321.497-444.053s11.95-.752 12.74 8.824Z"/><path fill="url(#s)" stroke="#000" stroke-miterlimit="10" stroke-width="1.87" d="M824.052 1380.94c47.734-26.64 64.044-88.35 36.431-137.84-27.614-49.49-88.695-68.02-136.429-41.38-47.734 26.63-64.045 88.34-36.432 137.83 27.614 49.49 88.696 68.02 136.43 41.39Z"/><path fill="url(#t)" stroke="#000" stroke-miterlimit="10" stroke-width="1.87" d="m1059.16 492.561 2.54-29.799L892.125 446.3l-2.692 31.857s-.276 4.59.594 7.044c6.451 18.56 49.388 34.27 95.887 35.141 42.856.792 73.726-11.318 73.246-27.741v-.04Z"/><path stroke="#000" stroke-miterlimit="10" stroke-width="1.847" d="m1059.16 492.561 2.54-29.799L892.125 446.3l-2.692 31.857s-.276 4.59.594 7.044c6.451 18.56 49.388 34.27 95.887 35.141 42.856.792 73.726-11.318 73.246-27.741v-.04Z"/><path stroke="#000" stroke-miterlimit="10" stroke-width="1.87" d="m1061.7 462.763-2.54 29.799v.04c.48 16.423-30.39 28.533-73.246 27.741-46.499-.871-89.436-16.581-95.887-35.141-.87-2.454-.594-7.044-.594-7.044l2.692-31.857 169.575 16.462Z"/><path fill="url(#u)" stroke="#000" stroke-miterlimit="10" stroke-width="1.87" d="M1061.8 461.738c1.55-18.14-35.22-36.092-82.125-40.097-46.907-4.005-86.188 7.454-87.737 25.594-1.549 18.14 35.221 36.092 82.129 40.097 46.903 4.004 86.183-7.454 87.733-25.594Z"/><path stroke="#000" stroke-miterlimit="10" stroke-width="1.87" d="M1061.8 461.738c1.55-18.14-35.22-36.092-82.125-40.097-46.907-4.005-86.188 7.454-87.737 25.594-1.549 18.14 35.221 36.092 82.129 40.097 46.903 4.004 86.183-7.454 87.733-25.594Z"/><path fill="url(#v)" stroke="#000" stroke-miterlimit="10" stroke-width="2.028" d="M739.686 510.409 719.583 485.2 574.625 597.985l21.528 26.91s3.205 3.799 5.659 5.066c18.797 9.735 64.069-9.775 101.11-43.531 34.113-31.145 49.309-63.516 36.764-76.021Z"/><path stroke="#000" stroke-miterlimit="10" stroke-width="2.005" d="M739.686 510.409 719.583 485.2 574.625 597.985l21.528 26.91s3.205 3.799 5.659 5.066c18.797 9.735 64.069-9.775 101.11-43.531 34.113-31.145 49.309-63.516 36.764-76.021Z"/><path fill="url(#w)" stroke="#000" stroke-miterlimit="10" stroke-width="2.028" d="M669.28 569.222c39.69-31.627 61.96-69.695 49.742-85.027-12.217-15.332-54.296-2.123-93.986 29.504-39.689 31.627-61.959 69.695-49.742 85.027 12.218 15.332 54.297 2.123 93.986-29.504Z"/><path stroke="#000" stroke-miterlimit="10" stroke-width="2.028" d="M669.28 569.222c39.69-31.627 61.96-69.695 49.742-85.027-12.217-15.332-54.296-2.123-93.986 29.504-39.689 31.627-61.959 69.695-49.742 85.027 12.218 15.332 54.297 2.123 93.986-29.504Z"/><path fill="url(#x)" stroke="#000" stroke-miterlimit="10" stroke-width="2.028" d="m516.571 736.454-31.065-8.667-51.407 176.301 33.203 9.22s4.828 1.188 7.558.792c20.935-3.126 46.222-45.47 56.432-94.502 9.419-45.233 2.77-80.374-14.721-83.144Z"/><path stroke="#000" stroke-miterlimit="10" stroke-width="2.005" d="m516.571 736.454-31.065-8.667-51.407 176.301 33.203 9.22s4.828 1.188 7.558.792c20.935-3.126 46.222-45.47 56.432-94.502 9.419-45.233 2.77-80.374-14.721-83.144Z"/><path fill="url(#y)" stroke="#000" stroke-miterlimit="10" stroke-width="2.028" d="M494.011 825.427c13.639-48.883 9.387-92.781-9.496-98.05-18.884-5.269-45.248 30.087-58.888 78.97-13.639 48.882-9.387 92.78 9.496 98.049 18.884 5.269 45.249-30.087 58.888-78.969Z"/><path stroke="#000" stroke-miterlimit="10" stroke-width="2.028" d="M494.011 825.427c13.639-48.883 9.387-92.781-9.496-98.05-18.884-5.269-45.248 30.087-58.888 78.97-13.639 48.882-9.387 92.78 9.496 98.049 18.884 5.269 45.249-30.087 58.888-78.969Z"/><path fill="url(#z)" stroke="#000" stroke-miterlimit="10" stroke-width="2.028" d="m451.828 1054.39-31.382 7.36 39.811 179.27 33.558-7.92s4.789-1.26 7.005-2.93c16.858-12.82 18.6-62.09 3.957-110.01-13.494-44.17-36.249-71.79-52.949-65.77Z"/><path stroke="#000" stroke-miterlimit="10" stroke-width="2.005" d="m451.828 1054.39-31.382 7.36 39.811 179.27 33.558-7.92s4.789-1.26 7.005-2.93c16.858-12.82 18.6-62.09 3.957-110.01-13.494-44.17-36.249-71.79-52.949-65.77Z"/><path fill="url(#A)" stroke="#000" stroke-miterlimit="10" stroke-width="2.028" d="M461.412 1240.65c19.087-4.48 25.173-48.16 13.593-97.57-11.58-49.41-36.441-85.84-55.529-81.36-19.087 4.47-25.173 48.15-13.593 97.56 11.58 49.41 36.441 85.84 55.529 81.37Z"/><path stroke="#000" stroke-miterlimit="10" stroke-width="2.028" d="M461.412 1240.65c19.087-4.48 25.173-48.16 13.593-97.57-11.58-49.41-36.441-85.84-55.529-81.36-19.087 4.47-25.173 48.15-13.593 97.56 11.58 49.41 36.441 85.84 55.529 81.37Z"/><path fill="url(#B)" stroke="#000" stroke-miterlimit="10" stroke-width="1.802" d="m1351.02 621.173 15.16-23.388-141.79-92.404-16.19 25.01s-2.22 3.681-2.53 6.055c-2.38 18.283 28.53 51.208 68.97 73.528 37.28 20.578 69.65 24.931 76.38 11.16v.039Z"/><path stroke="#000" stroke-miterlimit="10" stroke-width="1.78" d="m1351.02 621.173 15.16-23.388-141.79-92.404-16.19 25.01s-2.22 3.681-2.53 6.055c-2.38 18.283 28.53 51.208 68.97 73.528 37.28 20.578 69.65 24.931 76.38 11.16v.039Z"/><path fill="url(#C)" stroke="#000" stroke-miterlimit="10" stroke-width="1.802" d="M1366.94 597.16c9.09-14.32-15.56-46.245-55.05-71.306-39.49-25.062-78.87-33.769-87.96-19.449-9.09 14.32 15.56 46.244 55.05 71.306 39.49 25.061 78.87 33.769 87.96 19.449Z"/><path stroke="#000" stroke-miterlimit="10" stroke-width="1.802" d="M1366.94 597.16c9.09-14.32-15.56-46.245-55.05-71.306-39.49-25.062-78.87-33.769-87.96-19.449-9.09 14.32 15.56 46.244 55.05 71.306 39.49 25.061 78.87 33.769 87.96 19.449Z"/><path fill="#AFEDE3" stroke="#000" stroke-miterlimit="10" stroke-width="1.87" d="M1264 591.417c-2.49.673-58.33 80.691-58.33 80.691l13.69 10.764 57.22-82.432s-3.36-11.516-12.62-8.983l.04-.04Z"/><path fill="#8702FF" stroke="#000" stroke-miterlimit="10" stroke-width="1.87" d="M1264 591.418c-2.49.672-58.33 80.69-58.33 80.69l13.69 10.764 57.22-82.432s-3.36-11.516-12.62-8.983l.04-.039Z"/><path fill="url(#D)" stroke="#000" stroke-miterlimit="10" stroke-width="1.802" d="M1391.89 1036.57c2.42-53.776-35.17-99.153-83.97-101.351-48.8-2.199-90.32 39.613-92.74 93.391-2.43 53.77 35.17 99.15 83.97 101.35 48.79 2.2 90.32-39.61 92.74-93.39Z"/><path stroke="#000" stroke-miterlimit="10" stroke-width="1.802" d="M1391.89 1036.57c2.42-53.776-35.17-99.153-83.97-101.351-48.8-2.199-90.32 39.613-92.74 93.391-2.43 53.77 35.17 99.15 83.97 101.35 48.79 2.2 90.32-39.61 92.74-93.39Z"/><path fill="url(#E)" stroke="#000" stroke-miterlimit="10" stroke-width="1.825" d="M1281.82 1317.12c17.81-51.66-5.75-106.63-52.61-122.78-46.86-16.16-99.29 12.62-117.09 64.28-17.81 51.66 5.74 106.63 52.61 122.78 46.86 16.16 99.28-12.62 117.09-64.28Z"/><path stroke="#000" stroke-miterlimit="10" stroke-width="1.825" d="M1281.82 1317.12c17.81-51.66-5.75-106.63-52.61-122.78-46.86-16.16-99.29 12.62-117.09 64.28-17.81 51.66 5.74 106.63 52.61 122.78 46.86 16.16 99.28-12.62 117.09-64.28Z"/><path fill="url(#F)" stroke="#000" stroke-miterlimit="10" stroke-width="1.735" d="M1282.4 1334.67c24.27-48.84 11.22-104.68-29.14-124.74-40.36-20.05-92.75 3.28-117.01 52.12-24.27 48.83-11.22 104.68 29.14 124.73 40.36 20.05 92.75-3.28 117.01-52.11Z"/><path fill="url(#G)" stroke="#000" stroke-miterlimit="10" stroke-width="1.825" d="m1469.62 916.042 27.82-3.562-21.25-168.979-29.72 3.839s-4.27.672-6.29 1.978c-15.59 10.092-20.82 55.205-11.63 100.794 8.46 42.028 26.15 69.729 41.07 65.93Z"/><path stroke="#000" stroke-miterlimit="10" stroke-width="1.802" d="m1469.62 916.042 27.82-3.562-21.25-168.979-29.72 3.839s-4.27.672-6.29 1.978c-15.59 10.092-20.82 55.205-11.63 100.794 8.46 42.028 26.15 69.729 41.07 65.93Z"/><path fill="url(#H)" stroke="#000" stroke-miterlimit="10" stroke-width="1.825" d="M1498.43 912.512c16.91-2.334 25.4-42.032 18.96-88.667-6.44-46.635-25.36-82.549-42.27-80.214-16.91 2.334-25.4 42.032-18.96 88.667 6.44 46.636 25.36 82.549 42.27 80.214Z"/><path stroke="#000" stroke-miterlimit="10" stroke-width="1.825" d="M1498.43 912.512c16.91-2.334 25.4-42.032 18.96-88.667-6.44-46.635-25.36-82.549-42.27-80.214-16.91 2.334-25.4 42.032-18.96 88.667 6.44 46.636 25.36 82.549 42.27 80.214Z"/><path fill="#AFEDE3" stroke="#000" stroke-miterlimit="10" stroke-width="1.87" d="M1217.14 529.84c-1.22-1.86-123.94-38.307-157.18-48.121-4.47-1.306-9.14 1.345-10.21 5.896a8.098 8.098 0 0 0 5.58 9.696l157.26 47.33s9.86-6.807 4.55-14.801Z"/><path fill="#8702FF" stroke="#000" stroke-miterlimit="10" stroke-width="1.87" d="M1217.14 529.841c-1.22-1.86-123.94-38.307-157.18-48.122-4.47-1.306-9.14 1.346-10.21 5.897a8.097 8.097 0 0 0 5.58 9.695l157.26 47.331s9.86-6.807 4.55-14.801Z"/><path fill="#AFEDE3" stroke="#000" stroke-miterlimit="10" stroke-width="1.87" d="M1451.02 746.348c.12-2.256-76.22-105.029-96.87-132.81-2.77-3.719-8.12-4.392-11.72-1.424a8.207 8.207 0 0 0-1.38 11.12l97.43 132.216s11.99.475 12.54-9.102Z"/><path fill="#8702FF" stroke="#000" stroke-miterlimit="10" stroke-width="1.87" d="M1451.02 746.348c.12-2.256-76.22-105.029-96.87-132.81-2.77-3.719-8.12-4.392-11.72-1.424a8.207 8.207 0 0 0-1.38 11.12l97.43 132.216s11.99.475 12.54-9.102Z"/><path fill="#AFEDE3" stroke="#000" stroke-miterlimit="10" stroke-width="1.87" d="M1357.15 1017.47c2.14-.64 73.1-107.21 92.29-136.019 2.57-3.878 1.39-9.102-2.61-11.516a8.12 8.12 0 0 0-10.92 2.453l-91.54 136.332s3.6 11.44 12.78 8.71v.04Z"/><path fill="#8702FF" stroke="#000" stroke-miterlimit="10" stroke-width="1.87" d="M1357.15 1017.47c2.14-.64 73.1-107.21 92.29-136.019 2.57-3.878 1.39-9.102-2.61-11.516a8.12 8.12 0 0 0-10.92 2.453l-91.54 136.332s3.6 11.44 12.78 8.71v.04Z"/><path fill="#AFEDE3" stroke="#000" stroke-miterlimit="10" stroke-width="1.87" d="M1273.26 944.374c.39-2.216-46.58-83.421-64.03-113.339-2.34-4.036-7.6-5.263-11.48-2.73a8.178 8.178 0 0 0-2.61 10.883l64.62 112.785s11.84 1.82 13.46-7.638l.04.039Z"/><path fill="#8702FF" stroke="#000" stroke-miterlimit="10" stroke-width="1.87" d="M1273.26 944.374c.39-2.216-46.58-83.421-64.03-113.339-2.34-4.036-7.6-5.263-11.48-2.73a8.178 8.178 0 0 0-2.61 10.883l64.62 112.785s11.84 1.82 13.46-7.638l.04.039Z"/><path fill="#AFEDE3" stroke="#000" stroke-miterlimit="10" stroke-width="1.87" d="M892.838 467.195c-2.019-.95-125.924 31.303-159.403 40.048-4.512 1.188-7.084 5.897-5.699 10.329a8.13 8.13 0 0 0 9.775 5.422l159.086-40.801s4.907-10.922-3.759-15.038v.04Z"/><path fill="#8702FF" stroke="#000" stroke-miterlimit="10" stroke-width="1.87" d="M892.838 467.195c-2.019-.95-125.924 31.303-159.403 40.048-4.512 1.188-7.084 5.897-5.699 10.329a8.13 8.13 0 0 0 9.775 5.422l159.086-40.801s4.907-10.922-3.759-15.038v.04Z"/><path fill="#AFEDE3" stroke="#000" stroke-miterlimit="10" stroke-width="1.87" d="M591.286 613.221c-2.177.593-64.07 89.832-83.857 118.246-2.651 3.839-1.583 9.102 2.375 11.555a8.134 8.134 0 0 0 10.961-2.216l83.145-118.562s-3.364-11.516-12.585-8.984l-.039-.039Z"/><path fill="#8702FF" stroke="#000" stroke-miterlimit="10" stroke-width="1.87" d="M591.286 613.221c-2.177.593-64.07 89.832-83.857 118.246-2.651 3.839-1.583 9.102 2.375 11.555a8.134 8.134 0 0 0 10.961-2.216l83.145-118.562s-3.364-11.516-12.585-8.984l-.039-.039Z"/><path fill="#AFEDE3" stroke="#000" stroke-miterlimit="10" stroke-width="1.87" d="M450.404 909.707c-1.425 1.741 0 120.583.237 155.243 0 4.67 3.958 8.35 8.627 8.08 4.314-.24 7.678-3.84 7.678-8.15l-1.029-155.094s-9.379-7.44-15.474-.079h-.039Z"/><path fill="#8702FF" stroke="#000" stroke-miterlimit="10" stroke-width="1.87" d="M450.404 909.708c-1.425 1.741 0 120.582.237 155.252 0 4.67 3.958 8.35 8.627 8.07 4.314-.24 7.678-3.84 7.678-8.15l-1.029-155.093s-9.379-7.44-15.473-.079h-.04Z"/><path fill="#AFEDE3" stroke="#000" stroke-miterlimit="10" stroke-width="1.87" d="M616.771 1031.24c-2.216-.28-101.388 65.29-130.356 84.29-3.878 2.53-4.867 7.83-2.097 11.59a8.1 8.1 0 0 0 11.001 2.02l129.802-84.88s1.187-11.92-8.35-13.06v.04Z"/><path fill="#8702FF" stroke="#000" stroke-miterlimit="10" stroke-width="1.87" d="M616.771 1031.24c-2.216-.28-101.388 65.29-130.356 84.29-3.878 2.53-4.867 7.83-2.097 11.59a8.1 8.1 0 0 0 11.001 2.02l129.802-84.88s1.187-11.92-8.35-13.06v.04Z"/><path fill="#AFEDE3" stroke="#000" stroke-miterlimit="10" stroke-width="1.87" d="M1437.01 828.779c-2.41.91-255.05-90.901-255.05-90.901l6.22-15.038 253.86 91.297s3.96 11.318-5.03 14.642Z"/><path fill="#8702FF" stroke="#000" stroke-miterlimit="10" stroke-width="1.87" d="M1437.01 828.779c-2.41.91-255.05-90.901-255.05-90.901l6.22-15.038 253.86 91.296s3.96 11.318-5.03 14.643Z"/><path fill="#AFEDE3" stroke="#000" stroke-miterlimit="10" stroke-width="1.87" d="M1014.21 499.09c2.53.594 162.41 216.666 162.41 216.666l-13.5 9.062-161.22-216.309s2.97-11.635 12.27-9.419h.04Z"/><path fill="#8702FF" stroke="#000" stroke-miterlimit="10" stroke-width="1.87" d="M1014.21 499.09c2.53.594 162.41 216.666 162.41 216.666l-13.5 9.062-161.22-216.309s2.97-11.635 12.27-9.419h.04Z"/><path fill="url(#I)" stroke="#000" stroke-miterlimit="10" stroke-width="1.802" d="M1235.66 802.638c37.51-31.502 39.76-90.55 5.04-131.886s-93.27-49.308-130.78-17.805c-37.5 31.503-39.76 90.551-5.03 131.887 34.72 41.336 93.27 49.307 130.77 17.804Z"/><path stroke="#000" stroke-miterlimit="10" stroke-width="1.802" d="M1235.66 802.638c37.51-31.502 39.76-90.55 5.04-131.886s-93.27-49.308-130.78-17.805c-37.5 31.503-39.76 90.551-5.03 131.887 34.72 41.336 93.27 49.307 130.77 17.804Z"/><path fill="#AFEDE3" stroke="#000" stroke-miterlimit="10" stroke-width="1.87" d="M933.914 491.414c-2.533.594-163.439 215.914-163.439 215.914l13.455 9.141 162.212-215.557s-2.889-11.635-12.228-9.498Z"/><path fill="#8702FF" stroke="#000" stroke-miterlimit="10" stroke-width="1.87" d="M933.914 491.413c-2.533.594-163.439 215.914-163.439 215.914l13.455 9.142 162.212-215.558s-2.889-11.635-12.228-9.498ZM511.703 840.374c2.533.593 161.658 217.216 161.658 217.216l-13.534 9.03-157.631-213.029c-1.796-2.428-2.495-5.613-.94-8.202 1.815-3.02 5.078-6.285 10.407-5.015h.04Z"/><path fill="url(#J)" stroke="#000" stroke-miterlimit="10" stroke-width="1.847" d="M725.731 1032.41c8.835-55.16-23.418-106.19-72.04-113.978-48.621-7.788-95.199 30.615-104.035 85.778-8.835 55.16 23.418 106.19 72.04 113.98 48.622 7.78 95.2-30.62 104.035-85.78Z"/><path stroke="#000" stroke-miterlimit="10" stroke-width="1.847" d="M725.731 1032.41c8.835-55.16-23.418-106.19-72.04-113.978-48.621-7.788-95.199 30.615-104.035 85.778-8.835 55.16 23.418 106.19 72.04 113.98 48.622 7.78 95.2-30.62 104.035-85.78Z"/><path fill="#AFEDE3" stroke="#000" stroke-miterlimit="10" stroke-width="1.87" d="M686.777 571.114c2.572.357 133.126 147.492 133.126 147.492l-13.732 9.299L675.38 581.602s1.899-11.833 11.397-10.488Z"/><path fill="#8702FF" stroke="#000" stroke-miterlimit="10" stroke-width="1.87" d="M686.777 571.115c2.572.356 133.126 147.491 133.126 147.491l-13.732 9.3L675.38 581.602s1.899-11.833 11.397-10.487Z"/><path fill="#AFEDE3" stroke="#000" stroke-miterlimit="10" stroke-width="1.87" d="M839.016 791.144c2.256.594 273.534 386.436 299.814 423.876a8.111 8.111 0 0 1-2.3 11.51c-3.68 2.34-8.51 1.39-11-2.17L826.511 800.246s3.245-11.555 12.505-9.102Z"/><path fill="#8702FF" stroke="#000" stroke-miterlimit="10" stroke-width="1.87" d="M839.016 791.145c2.256.593 273.534 386.435 299.814 423.875a8.111 8.111 0 0 1-2.3 11.51c-3.68 2.34-8.51 1.39-11-2.17L826.511 800.247s3.245-11.556 12.505-9.102Z"/><path fill="#AFEDE3" stroke="#000" stroke-miterlimit="10" stroke-width="1.915" d="M1484.9 1053.95c1.46-1.74.63-99.723.39-134.904 0-4.749-4.03-8.469-8.74-8.192-4.39.238-7.8 3.879-7.8 8.271l.4 134.745s9.54 7.56 15.75.08Z"/><path fill="#8702FF" stroke="#000" stroke-miterlimit="10" stroke-width="1.915" d="M1484.9 1053.95c1.46-1.74.63-99.722.39-134.903 0-4.749-4.03-8.469-8.74-8.192-4.39.237-7.8 3.878-7.8 8.271l.4 134.744s9.54 7.56 15.75.08Z"/><path fill="#AFEDE3" stroke="#000" stroke-miterlimit="10" stroke-width="1.915" d="M1111.96 1325.15c-1.78 1.54-219.638 1.03-253.434 1.35-3.284 0-5.975-2.69-5.857-5.98l.159-4.91a5.81 5.81 0 0 1 5.738-5.66l252.914-.51s7.84 9.34.52 15.71h-.04Z"/><path fill="#8702FF" stroke="#000" stroke-miterlimit="10" stroke-width="1.915" d="M1111.96 1325.15c-1.78 1.54-219.638 1.03-253.434 1.35-3.284 0-5.975-2.69-5.857-5.98l.159-4.91a5.81 5.81 0 0 1 5.738-5.66l252.914-.51s7.84 9.34.52 15.71h-.04Z"/><path fill="#AFEDE3" stroke="#000" stroke-miterlimit="10" stroke-width="1.915" d="M508.339 1177.9c2.494-.79 254.538 104.55 254.538 104.55l-7.044 14.96-253.311-104.87s-3.482-11.67 5.817-14.6v-.04Z"/><path fill="#8702FF" stroke="#000" stroke-miterlimit="10" stroke-width="1.915" d="M508.34 1177.9c2.493-.79 254.538 104.55 254.538 104.55l-7.044 14.96-253.312-104.87s-3.482-11.67 5.818-14.6v-.04Z"/><path fill="url(#K)" stroke="#000" stroke-miterlimit="10" stroke-width="1.87" d="M867.168 1345.55c24.68-48.78 3.694-109.06-46.873-134.65-50.567-25.58-111.567-6.79-136.247 41.99-24.679 48.77-3.693 109.05 46.874 134.64 50.567 25.58 111.566 6.79 136.246-41.98Z"/><path stroke="#000" stroke-miterlimit="10" stroke-width="1.87" d="M867.168 1345.55c24.68-48.78 3.694-109.06-46.873-134.65-50.567-25.58-111.567-6.79-136.247 41.99-24.679 48.77-3.693 109.05 46.874 134.64 50.567 25.58 111.566 6.79 136.246-41.98Z"/><path fill="#AFEDE3" stroke="#000" stroke-miterlimit="10" stroke-width="1.915" d="M484.239 1234.13c-.238 2.26 82.907 125.13 102.575 154.3a8.274 8.274 0 0 0 11.832 1.98c3.522-2.65 4.353-7.56 1.9-11.2l-103.169-153.74s-12.149-1.03-13.138 8.62v.04Z"/><path fill="#8702FF" stroke="#000" stroke-miterlimit="10" stroke-width="1.915" d="M484.239 1234.13c-.238 2.26 82.907 125.13 102.575 154.3a8.274 8.274 0 0 0 11.832 1.98c3.522-2.65 4.353-7.56 1.9-11.2l-103.169-153.74s-12.149-1.03-13.138 8.62v.04Z"/><path fill="url(#L)" stroke="#000" stroke-miterlimit="10" stroke-width="1.712" d="M1392.91 1048.77c9.31-52.91-18.59-102.038-62.3-109.731-43.72-7.692-86.71 28.962-96.02 81.871-9.31 52.91 18.58 102.04 62.3 109.73 43.72 7.69 86.71-28.96 96.02-81.87Z"/><path stroke="#000" stroke-miterlimit="10" stroke-width="1.712" d="M1392.91 1048.77c9.31-52.91-18.59-102.038-62.3-109.731-43.72-7.692-86.71 28.962-96.02 81.871-9.31 52.91 18.58 102.04 62.3 109.73 43.72 7.69 86.71-28.96 96.02-81.87Z"/><path fill="#AFEDE3" stroke="#000" stroke-miterlimit="10" stroke-width="1.87" d="M520.29 785.367c1.385-2.176 257.664-83.223 257.664-83.223l4.195 15.711-256.952 82.194s-10.012-6.569-4.907-14.682Z"/><path fill="#8702FF" stroke="#000" stroke-miterlimit="10" stroke-width="1.87" d="M520.29 785.368c1.385-2.177 257.664-83.223 257.664-83.223l4.195 15.71-256.952 82.195s-10.012-6.569-4.907-14.682Z"/><path fill="url(#M)" stroke="#000" stroke-miterlimit="10" stroke-width="1.757" d="M847.529 775.219c34.973-37.794 34.988-94.653.033-126.999-34.954-32.345-91.642-27.929-126.615 9.865s-34.988 94.653-.033 126.999c34.954 32.346 91.642 27.929 126.615-9.865Z"/><path stroke="#000" stroke-miterlimit="10" stroke-width="1.757" d="M847.529 775.219c34.973-37.794 34.988-94.653.033-126.999-34.954-32.345-91.642-27.929-126.615 9.865s-34.988 94.653-.033 126.999c34.954 32.346 91.642 27.929 126.615-9.865Z"/><path fill="#AFEDE3" stroke="#000" stroke-miterlimit="10" stroke-width="1.87" d="M737.351 1011.02c1.821-1.55 416.119-3.49 481.339-3.64 4.63 0 8.31 3.83 8.15 8.46-.16 4.36-3.76 7.8-8.11 7.8l-481.062 2.85s-7.598-9.26-.317-15.47Z"/><path fill="#8702FF" stroke="#000" stroke-miterlimit="10" stroke-width="1.87" d="M737.351 1011.02c1.821-1.55 416.119-3.49 481.339-3.64 4.63 0 8.31 3.83 8.15 8.46-.16 4.36-3.76 7.8-8.11 7.8l-481.062 2.85s-7.598-9.26-.317-15.47Z"/><path fill="#AFEDE3" stroke="#000" stroke-miterlimit="10" stroke-width="1.87" d="M1261.27 1115.29c.71 2.22-12.23 36.69-29.25 79.11a8.152 8.152 0 0 1-10.92 4.39 8.092 8.092 0 0 1-4.19-10.41l28.61-75.46c.91-2.18 2.93-3.68 5.3-3.8 3.6-.2 8.63.63 10.45 6.17Z"/><path fill="#8702FF" stroke="#000" stroke-miterlimit="10" stroke-width="1.87" d="M1261.27 1115.29c.71 2.22-12.23 36.69-29.25 79.11a8.152 8.152 0 0 1-10.92 4.39 8.092 8.092 0 0 1-4.19-10.41l28.61-75.46c.91-2.18 2.93-3.68 5.3-3.8 3.6-.2 8.63.63 10.45 6.17Z"/><path fill="#AFEDE3" stroke="#000" stroke-miterlimit="10" stroke-width="1.87" d="M696.473 1104.92c2.137.99 25.96 51.29 43.927 90.23 1.662 3.6 0 7.84-3.681 9.3l-2.255.91c-3.404 1.39-7.322-.16-8.904-3.48l-40.563-84.97c-2.256-4.74-.08-10.6 4.867-12.38 1.9-.68 4.116-.75 6.609.43v-.04Z"/><path fill="#8702FF" stroke="#000" stroke-miterlimit="10" stroke-width="1.87" d="M696.473 1104.92c2.137.99 25.96 51.29 43.926 90.23 1.662 3.6 0 7.84-3.68 9.3l-2.256.91c-3.403 1.39-7.321-.16-8.904-3.48l-40.602-85.01c-2.137-4.51-.317-10.05 4.194-12.11 2.019-.91 4.472-1.14 7.282.16h.04Z"/><path fill="#00BFFF" stroke="#000" stroke-miterlimit="10" stroke-width="1.825" d="M1496.49 895.568c13.55-1.871 20.35-33.699 15.19-71.09-5.16-37.39-20.33-66.185-33.89-64.314-13.55 1.871-20.35 33.699-15.19 71.09 5.16 37.39 20.33 66.185 33.89 64.314Z"/><path fill="#00FEE5" stroke="#000" stroke-miterlimit="10" stroke-width="1.825" d="M1496.49 895.568c13.55-1.871 20.35-33.699 15.19-71.09-5.16-37.39-20.33-66.185-33.89-64.314-13.55 1.871-20.35 33.699-15.19 71.09 5.16 37.39 20.33 66.185 33.89 64.314Z"/><path fill="#00BFFF" stroke="#000" stroke-miterlimit="10" stroke-width="1.802" d="M1352.81 587.81c7.29-11.478-12.48-37.074-44.14-57.17-31.67-20.096-63.25-27.082-70.53-15.604-7.28 11.478 12.48 37.074 44.15 57.17 31.66 20.096 63.24 27.082 70.52 15.604Z"/><path fill="#00FEE5" stroke="#000" stroke-miterlimit="10" stroke-width="1.802" d="M1352.81 587.81c7.29-11.478-12.48-37.074-44.14-57.171-31.67-20.096-63.25-27.082-70.53-15.604-7.28 11.479 12.48 37.074 44.15 57.17 31.66 20.097 63.24 27.083 70.52 15.605Z"/><path fill="#00BFFF" stroke="#000" stroke-miterlimit="10" stroke-width="1.87" d="M1044.88 459.874c1.24-14.546-28.26-28.943-65.888-32.156-37.63-3.213-69.142 5.975-70.384 20.522-1.242 14.547 28.256 28.944 65.886 32.156 37.626 3.213 69.146-5.975 70.386-20.522Z"/><path fill="#00FEE5" stroke="#000" stroke-miterlimit="10" stroke-width="1.87" d="M1044.88 459.874c1.24-14.547-28.26-28.944-65.888-32.157-37.63-3.213-69.142 5.975-70.384 20.522-1.242 14.547 28.256 28.944 65.886 32.157 37.626 3.213 69.146-5.975 70.386-20.522Z"/><path fill="#00BFFF" stroke="#000" stroke-miterlimit="10" stroke-width="2.028" d="M664.491 563.547c31.827-25.362 49.677-55.898 39.87-68.205-9.806-12.307-43.557-1.724-75.384 23.638-31.826 25.361-49.677 55.897-39.87 68.204 9.807 12.307 43.557 1.724 75.384-23.637Z"/><path fill="#00FEE5" stroke="#000" stroke-miterlimit="10" stroke-width="2.028" d="M664.491 563.547c31.827-25.361 49.677-55.898 39.87-68.204-9.806-12.307-43.557-1.724-75.384 23.637-31.826 25.362-49.677 55.898-39.87 68.205 9.807 12.306 43.557 1.724 75.384-23.638Z"/><path fill="#00BFFF" stroke="#000" stroke-miterlimit="10" stroke-width="2.028" d="M486.739 823.62c10.937-39.199 7.516-74.404-7.641-78.633-15.157-4.229-36.311 24.119-47.248 63.317-10.937 39.199-7.516 74.404 7.641 78.633 15.158 4.229 36.311-24.119 47.248-63.317Z"/><path fill="#00FEE5" stroke="#000" stroke-miterlimit="10" stroke-width="2.028" d="M486.739 823.619c10.937-39.198 7.516-74.403-7.641-78.633-15.157-4.229-36.311 24.119-47.248 63.318-10.937 39.199-7.516 74.404 7.641 78.633 15.158 4.229 36.311-24.119 47.248-63.318Z"/><path fill="#00BFFF" stroke="#000" stroke-miterlimit="10" stroke-width="1.735" d="M1268.81 1328.08c19.45-39.15 8.97-83.92-23.41-100.01-32.37-16.08-74.38 2.61-93.83 41.76-19.45 39.15-8.97 83.92 23.4 100 32.38 16.09 74.39-2.61 93.84-41.75Z"/><path fill="#00FEE5" stroke="#000" stroke-miterlimit="10" stroke-width="1.735" d="M1268.81 1328.08c19.45-39.15 8.97-83.92-23.41-100.01-32.37-16.08-74.38 2.61-93.83 41.76-19.45 39.15-8.97 83.92 23.4 100 32.38 16.09 74.39-2.61 93.84-41.75Z"/><path fill="#00BFFF" stroke="#000" stroke-miterlimit="10" stroke-width="1.847" d="M697.702 1489.11c7.062-11.87-13.768-37.29-46.526-56.78-32.757-19.49-65.038-25.67-72.101-13.8-7.062 11.88 13.768 37.3 46.526 56.79 32.758 19.49 65.038 25.66 72.101 13.79Z"/><path fill="#00FEE5" stroke="#000" stroke-miterlimit="10" stroke-width="1.847" d="M697.702 1489.11c7.062-11.87-13.768-37.29-46.526-56.78-32.757-19.49-65.038-25.67-72.101-13.8-7.062 11.87 13.768 37.3 46.526 56.79 32.758 19.48 65.038 25.66 72.101 13.79Z"/><path fill="#00BFFF" stroke="#000" stroke-miterlimit="10" stroke-width="2.095" d="M1046.41 1552.8c.92-16.3-32.51-31.45-74.667-33.83-42.158-2.39-77.082 8.89-78.005 25.19-.923 16.3 32.505 31.45 74.664 33.84 42.158 2.38 77.078-8.9 78.008-25.2Z"/><path fill="#00FEE5" stroke="#000" stroke-miterlimit="10" stroke-width="2.095" d="M1046.41 1552.8c.92-16.3-32.51-31.45-74.667-33.83-42.158-2.39-77.082 8.89-78.005 25.19-.923 16.3 32.505 31.45 74.664 33.84 42.158 2.38 77.078-8.9 78.008-25.2Z"/><path fill="#00BFFF" stroke="#000" stroke-miterlimit="10" stroke-width="1.983" d="M1365.45 1462.48c28.3-28.25 42.4-60.03 31.48-70.96-10.91-10.94-42.71 3.1-71.02 31.36-28.3 28.26-42.4 60.03-31.48 70.97 10.91 10.93 42.71-3.11 71.02-31.37Z"/><path fill="#00FEE5" stroke="#000" stroke-miterlimit="10" stroke-width="1.983" d="M1365.45 1462.48c28.3-28.25 42.4-60.03 31.48-70.96-10.91-10.94-42.71 3.1-71.02 31.36-28.3 28.26-42.4 60.03-31.48 70.97 10.91 10.93 42.71-3.11 71.02-31.37Z"/><path fill="#00BFFF" stroke="#000" stroke-miterlimit="10" stroke-width="1.96" d="M1521.69 1147.5c4.85-39-3.45-72.13-18.52-74-15.07-1.87-31.22 28.22-36.06 67.22-4.85 39 3.45 72.13 18.52 74 15.07 1.87 31.22-28.22 36.06-67.22Z"/><path fill="#00FEE5" stroke="#000" stroke-miterlimit="10" stroke-width="1.96" d="M1521.69 1147.5c4.85-39-3.45-72.13-18.52-74-15.07-1.87-31.22 28.22-36.06 67.22-4.85 39 3.45 72.13 18.52 74 15.07 1.88 31.22-28.22 36.06-67.22Z"/><path fill="#00BFFF" stroke="#000" stroke-miterlimit="10" stroke-width="1.87" d="M848.726 1335.16c19.786-39.1 2.958-87.43-37.586-107.94-40.543-20.52-89.449-5.45-109.234 33.65-19.786 39.1-2.958 87.43 37.585 107.94 40.544 20.52 89.45 5.45 109.235-33.65Z"/><path fill="#00FEE5" stroke="#000" stroke-miterlimit="10" stroke-width="1.87" d="M848.726 1335.16c19.786-39.1 2.958-87.43-37.586-107.94-40.543-20.52-89.449-5.45-109.234 33.65-19.786 39.1-2.958 87.43 37.585 107.94 40.544 20.52 89.45 5.45 109.235-33.65Z"/><path fill="#00BFFF" stroke="#000" stroke-miterlimit="10" stroke-width="2.028" d="M456.905 1223.24c15.321-3.59 20.213-38.62 10.927-78.25-9.286-39.62-29.234-68.83-44.555-65.24-15.321 3.59-20.213 38.62-10.927 78.25 9.286 39.62 29.234 68.83 44.555 65.24Z"/><path fill="#00FEE5" stroke="#000" stroke-miterlimit="10" stroke-width="2.028" d="M456.905 1223.24c15.321-3.59 20.213-38.62 10.927-78.25-9.286-39.62-29.234-68.83-44.555-65.24-15.321 3.59-20.213 38.62-10.927 78.25 9.286 39.62 29.234 68.83 44.555 65.24Z"/><path fill="#00BFFF" stroke="#000" stroke-miterlimit="10" stroke-width="1.847" d="M707.216 1029.83c7.083-44.218-18.771-85.126-57.746-91.368-38.975-6.243-76.312 24.543-83.395 68.758-7.083 44.22 18.771 85.13 57.746 91.37 38.975 6.25 76.312-24.54 83.395-68.76Z"/><path fill="#00FEE5" stroke="#000" stroke-miterlimit="10" stroke-width="1.847" d="M707.216 1029.83c7.083-44.218-18.771-85.125-57.746-91.368-38.975-6.243-76.312 24.543-83.395 68.758-7.083 44.22 18.771 85.13 57.746 91.37 38.975 6.25 76.312-24.54 83.395-68.76Z"/><path fill="#00BFFF" stroke="#000" stroke-miterlimit="10" stroke-width="1.802" d="M1224.22 787.376c30.08-25.261 31.88-72.615 4.03-105.768-27.85-33.152-74.8-39.549-104.87-14.288-30.08 25.261-31.88 72.615-4.03 105.768 27.85 33.152 74.8 39.549 104.87 14.288Z"/><path fill="#00FEE5" stroke="#000" stroke-miterlimit="10" stroke-width="1.802" d="M1224.22 787.376c30.08-25.261 31.88-72.615 4.03-105.768-27.85-33.152-74.8-39.549-104.87-14.288-30.08 25.261-31.88 72.615-4.03 105.768 27.85 33.152 74.8 39.549 104.87 14.288Z"/><path fill="#00BFFF" stroke="#000" stroke-miterlimit="10" stroke-width="1.712" d="M1378.15 1046.31c7.47-42.42-14.91-81.817-49.97-87.987-35.07-6.17-69.54 23.221-77.01 65.647-7.46 42.43 14.91 81.82 49.97 87.99 35.07 6.17 69.55-23.22 77.01-65.65Z"/><path fill="#00FEE5" stroke="#000" stroke-miterlimit="10" stroke-width="1.712" d="M1378.15 1046.31c7.47-42.42-14.91-81.816-49.97-87.987-35.07-6.17-69.54 23.221-77.01 65.647-7.46 42.43 14.91 81.82 49.97 87.99 35.07 6.17 69.55-23.22 77.01-65.65Z"/><path fill="#00BFFF" stroke="#000" stroke-miterlimit="10" stroke-width="1.757" d="M834.028 763.172c28.041-30.303 28.054-75.89.029-101.823-28.024-25.933-73.474-22.391-101.515 7.911-28.04 30.303-28.054 75.891-.029 101.824 28.025 25.932 73.474 22.39 101.515-7.912Z"/><path fill="#00FEE5" stroke="#000" stroke-miterlimit="10" stroke-width="1.757" d="M834.028 763.172c28.041-30.303 28.054-75.89.029-101.823-28.024-25.933-73.474-22.391-101.515 7.911-28.04 30.303-28.054 75.891-.029 101.824 28.025 25.932 73.474 22.39 101.515-7.912Z"/><path fill="url(#N)" d="m1353.99 1553.45 104.4-102.97s-63.16-59.4-63.28-59.59c-13.7-6.93-40.25 4.9-68.66 33.51-24.9 25.09-41.91 52.12-32.97 69.18.2.12 60.51 59.87 60.51 59.87Z" opacity=".8"/><path fill="url(#O)" d="m1570.74 1222.66 15.39-141s-71.56-6.03-84.63-7.66c-14.98 3.13-30.05 29.59-33.86 68.38-3.36 34.03-.37 64.23 17.36 71.62 11.48 1.53 85.78 8.66 85.78 8.66h-.04Z" opacity=".8"/><path fill="url(#P)" d="m1383.16 1149.21 19.47-205.865s-86.79 13.653-87.03 13.613c-30.71 2.494-61.6 32.542-65.61 77.962-1.49 43.58 20.21 65.58 44.51 75.08 10.06 3.93 88.66 39.25 88.66 39.25v-.04Z" opacity=".8"/><path fill="url(#Q)" d="m1245.91 1433.31 74.64-198.3s-89.48-11.79-89.71-11.95c-31.03-5.82-68.18 15.34-83.34 55.94-13.61 36.49-1.49 70.59 20 86.5 7.1 5.26 78.41 67.77 78.41 67.77v.04Z" opacity=".8"/><path fill="url(#R)" d="M1304.44 734.596 1139.5 609.86s-33.95 81.007-34.15 81.205c-11.85 41.435-3.26 69.531 30.65 96.52 29.72 23.665 70.22 15.671 91.08 0 .12-.237 77.36-52.949 77.36-52.949v-.04Z" opacity=".8"/><path fill="url(#S)" d="m889.948 1635.1 152.832 9.58s2.49-85.68 2.49-93.79c-2.49-14.39-31.81-28.77-73.839-30.99-36.844-1.9-73.431 6.1-76.813 23.39 0 .24-4.63 91.77-4.63 91.77l-.04.04Z" opacity=".8"/><path fill="url(#T)" d="m339.123 1102.08 32.529 142.78s86.469-23.07 86.706-23.11c13.534-8.12 17.808-36.96 8.429-76.1-8.192-34.31-22.438-62.93-42.225-64.15-.198.08-85.439 20.58-85.439 20.58Z" opacity=".8"/><path fill="url(#U)" d="m534.894 1493.3 121.451 73.29s42.027-75.83 42.186-76.02c3.442-14.88-13.812-37.28-47.41-57.07-29.442-17.33-58.964-26.63-73.132-13.65-.079.2-43.095 73.41-43.095 73.41v.04Z" opacity=".8"/><path fill="url(#V)" d="M648.206 425 531 517.588s58.968 69.787 59.09 69.991c13.342 8.957 41.772.285 73.73-25.529 28.024-22.598 48.098-48.289 40.596-67.1-.163-.163-56.21-69.95-56.21-69.95Z" opacity=".8"/><path fill="url(#W)" d="m392.658 724.524-38.203 142.027s87.601 20.13 87.847 20.23c15.811-.837 33.156-24.451 43.256-63.591 8.836-34.322 10.419-67.305-6.558-77.69-9.208-2.897-86.302-20.979-86.302-20.979l-.04.003Z" opacity=".8"/><path fill="url(#X)" d="m1397.51 519.181-115.13-77.487s-44.59 72.256-44.74 72.414c-4.09 14.4 11.48 35.425 43.36 56.392 27.96 18.37 60.5 26.5 71.02 18.511.08-.196 45.53-69.869 45.53-69.869l-.04.039Z" opacity=".8"/><path fill="url(#Y)" d="m1049.74 372.405-138.579-9.384S909 436.376 909 450.001c3.671 14.439 27.864 27.316 66 29.499 33.41 1.911 63.47-2.494 70-20 0-7.578 4.74-87.095 4.74-87.095Z" opacity=".8"/><path fill="url(#Z)" d="M653 720.365 804.44 583s43.353 94.445 43.547 94.639c13.72 26.918 8.276 68.246-24.939 94.736C793.942 795.603 759.425 790.382 739 775c-6.77-5.098-86-54.596-86-54.596v-.039Z" opacity=".8"/><path fill="url(#aa)" d="M1580 883.073 1561.81 745s-83.96 14.219-84.19 14.219c-13.56 6.449-20.13 33.411-14.73 71.329 4.74 33.217 15.7 61.538 34.36 64.452.19-.078 82.75-11.927 82.75-11.927Z" opacity=".8"/><path fill="url(#ab)" d="m560.182 1122.42 6.015-206.698s83.303 22.778 84.687 24.219C687.5 945.5 710.633 981.234 707 1024c-3.483 41-34.033 66.42-57.5 73.5-13.935 4.21-89.318 24.95-89.318 24.95v-.03Z" opacity=".8"/><path fill="url(#ac)" d="M796.667 1423 660 1263.15s67.394-30.67 75-35.15c26.98-15.91 74.156-12.3 102 20.5 25.016 29.46 22.148 69.89 7.5 92-3.718 5.61-47.833 82.46-47.833 82.46v.04Z" opacity=".8"/></g><defs><linearGradient id="c" x1="1051.29" x2="883.442" y1="1322.16" y2="771.736" gradientUnits="userSpaceOnUse"><stop offset=".4" stop-color="#B999FF"/><stop offset=".41" stop-color="#A68AE9"/><stop offset=".44" stop-color="#7D6ABD"/><stop offset=".47" stop-color="#5C4F97"/><stop offset=".5" stop-color="#423B7B"/><stop offset=".53" stop-color="#2F2C66"/><stop offset=".55" stop-color="#24235A"/><stop offset=".58" stop-color="#212156"/><stop offset=".79" stop-color="#CB9FFF"/><stop offset=".96" stop-color="#332E83"/></linearGradient><linearGradient id="e" x1="891.896" x2="1085.73" y1="710.051" y2="1204.3" gradientUnits="userSpaceOnUse"><stop offset=".08" stop-color="#9D67FF"/><stop offset=".31" stop-color="#C972D2"/><stop offset=".43" stop-color="#DD78C0"/><stop offset=".62" stop-color="#ABC4D7"/><stop offset=".73" stop-color="#93EBE4"/><stop offset=".76" stop-color="#93E4E5"/><stop offset=".8" stop-color="#95D2E8"/><stop offset=".84" stop-color="#98B3EC"/><stop offset=".9" stop-color="#9C8AF3"/><stop offset=".94" stop-color="#A063FA"/></linearGradient><linearGradient id="f" x1="1039.67" x2="962.032" y1="1107.51" y2="854.965" gradientUnits="userSpaceOnUse"><stop stop-color="#00E4F7"/><stop offset="1" stop-color="#00E4F7" stop-opacity="0"/></linearGradient><linearGradient id="g" x1="926.19" x2="1086.55" y1="839.117" y2="1139.51" gradientUnits="userSpaceOnUse"><stop stop-color="#FF7A00"/><stop offset="1" stop-color="#F90" stop-opacity="0"/></linearGradient><linearGradient id="h" x1="1066.98" x2="876.686" y1="1517.47" y2="1506.97" gradientUnits="userSpaceOnUse"><stop offset=".09" stop-color="#83B1FF"/><stop offset=".1" stop-color="#80AAFF"/><stop offset=".2" stop-color="#6C6FFF"/><stop offset=".29" stop-color="#5B40FF"/><stop offset=".38" stop-color="#4F1EFF"/><stop offset=".44" stop-color="#4809FF"/><stop offset=".49" stop-color="#4602FF"/><stop offset=".53" stop-color="#4A0EFF"/><stop offset=".61" stop-color="#5731FF"/><stop offset=".71" stop-color="#6B68FF"/><stop offset=".84" stop-color="#87B3FF"/><stop offset=".91" stop-color="#97DDFF"/></linearGradient><linearGradient id="i" x1="834.62" x2="1072.07" y1="1553.73" y2="1545.07" gradientUnits="userSpaceOnUse"><stop offset=".09" stop-color="#83B1FF"/><stop offset=".1" stop-color="#80AAFF"/><stop offset=".2" stop-color="#6C6FFF"/><stop offset=".29" stop-color="#5B40FF"/><stop offset=".38" stop-color="#4F1EFF"/><stop offset=".44" stop-color="#4809FF"/><stop offset=".49" stop-color="#4602FF"/><stop offset=".53" stop-color="#4A0EFF"/><stop offset=".61" stop-color="#5731FF"/><stop offset=".71" stop-color="#6B68FF"/><stop offset=".84" stop-color="#87B3FF"/><stop offset=".91" stop-color="#97DDFF"/></linearGradient><linearGradient id="j" x1="1384.77" x2="1257.18" y1="1355.59" y2="1483.32" gradientUnits="userSpaceOnUse"><stop offset=".09" stop-color="#83B1FF"/><stop offset=".1" stop-color="#80AAFF"/><stop offset=".2" stop-color="#6C6FFF"/><stop offset=".29" stop-color="#5B40FF"/><stop offset=".38" stop-color="#4F1EFF"/><stop offset=".44" stop-color="#4809FF"/><stop offset=".49" stop-color="#4602FF"/><stop offset=".53" stop-color="#4A0EFF"/><stop offset=".61" stop-color="#5731FF"/><stop offset=".71" stop-color="#6B68FF"/><stop offset=".84" stop-color="#87B3FF"/><stop offset=".91" stop-color="#97DDFF"/></linearGradient><linearGradient id="k" x1="1262.57" x2="1406.36" y1="1542.88" y2="1369.8" gradientUnits="userSpaceOnUse"><stop offset=".09" stop-color="#83B1FF"/><stop offset=".1" stop-color="#80AAFF"/><stop offset=".2" stop-color="#6C6FFF"/><stop offset=".29" stop-color="#5B40FF"/><stop offset=".38" stop-color="#4F1EFF"/><stop offset=".44" stop-color="#4809FF"/><stop offset=".49" stop-color="#4602FF"/><stop offset=".53" stop-color="#4A0EFF"/><stop offset=".61" stop-color="#5731FF"/><stop offset=".71" stop-color="#6B68FF"/><stop offset=".84" stop-color="#87B3FF"/><stop offset=".91" stop-color="#97DDFF"/></linearGradient><linearGradient id="l" x1="1471.63" x2="1450.02" y1="1052.03" y2="1228.04" gradientUnits="userSpaceOnUse"><stop offset=".09" stop-color="#83B1FF"/><stop offset=".1" stop-color="#80AAFF"/><stop offset=".2" stop-color="#6C6FFF"/><stop offset=".29" stop-color="#5B40FF"/><stop offset=".38" stop-color="#4F1EFF"/><stop offset=".44" stop-color="#4809FF"/><stop offset=".49" stop-color="#4602FF"/><stop offset=".53" stop-color="#4A0EFF"/><stop offset=".61" stop-color="#5731FF"/><stop offset=".71" stop-color="#6B68FF"/><stop offset=".84" stop-color="#87B3FF"/><stop offset=".91" stop-color="#97DDFF"/></linearGradient><linearGradient id="m" x1="1490.48" x2="1497.18" y1="1270.77" y2="1049.82" gradientUnits="userSpaceOnUse"><stop offset=".09" stop-color="#83B1FF"/><stop offset=".1" stop-color="#80AAFF"/><stop offset=".2" stop-color="#6C6FFF"/><stop offset=".29" stop-color="#5B40FF"/><stop offset=".38" stop-color="#4F1EFF"/><stop offset=".44" stop-color="#4809FF"/><stop offset=".49" stop-color="#4602FF"/><stop offset=".53" stop-color="#4A0EFF"/><stop offset=".61" stop-color="#5731FF"/><stop offset=".71" stop-color="#6B68FF"/><stop offset=".84" stop-color="#87B3FF"/><stop offset=".91" stop-color="#97DDFF"/></linearGradient><linearGradient id="n" x1="728.9" x2="581.361" y1="1471.54" y2="1382.92" gradientUnits="userSpaceOnUse"><stop offset=".09" stop-color="#83B1FF"/><stop offset=".1" stop-color="#80AAFF"/><stop offset=".2" stop-color="#6C6FFF"/><stop offset=".29" stop-color="#5B40FF"/><stop offset=".38" stop-color="#4F1EFF"/><stop offset=".44" stop-color="#4809FF"/><stop offset=".49" stop-color="#4602FF"/><stop offset=".53" stop-color="#4A0EFF"/><stop offset=".61" stop-color="#5731FF"/><stop offset=".71" stop-color="#6B68FF"/><stop offset=".84" stop-color="#87B3FF"/><stop offset=".91" stop-color="#97DDFF"/></linearGradient><linearGradient id="o" x1="528.387" x2="721.632" y1="1401.28" y2="1494.38" gradientUnits="userSpaceOnUse"><stop offset=".09" stop-color="#83B1FF"/><stop offset=".1" stop-color="#80AAFF"/><stop offset=".2" stop-color="#6C6FFF"/><stop offset=".29" stop-color="#5B40FF"/><stop offset=".38" stop-color="#4F1EFF"/><stop offset=".44" stop-color="#4809FF"/><stop offset=".49" stop-color="#4602FF"/><stop offset=".53" stop-color="#4A0EFF"/><stop offset=".61" stop-color="#5731FF"/><stop offset=".71" stop-color="#6B68FF"/><stop offset=".84" stop-color="#87B3FF"/><stop offset=".91" stop-color="#97DDFF"/></linearGradient><linearGradient id="p" x1="645.573" x2="657.4" y1="877.937" y2="1130.59" gradientUnits="userSpaceOnUse"><stop offset=".09" stop-color="#83B1FF"/><stop offset=".1" stop-color="#80AAFF"/><stop offset=".2" stop-color="#6C6FFF"/><stop offset=".29" stop-color="#5B40FF"/><stop offset=".38" stop-color="#4F1EFF"/><stop offset=".44" stop-color="#4809FF"/><stop offset=".49" stop-color="#4602FF"/><stop offset=".53" stop-color="#4A0EFF"/><stop offset=".61" stop-color="#5731FF"/><stop offset=".71" stop-color="#6B68FF"/><stop offset=".84" stop-color="#87B3FF"/><stop offset=".91" stop-color="#97DDFF"/></linearGradient><linearGradient id="q" x1="864.279" x2="742.843" y1="610.307" y2="814.673" gradientUnits="userSpaceOnUse"><stop offset=".09" stop-color="#83B1FF"/><stop offset=".1" stop-color="#80AAFF"/><stop offset=".2" stop-color="#6C6FFF"/><stop offset=".29" stop-color="#5B40FF"/><stop offset=".38" stop-color="#4F1EFF"/><stop offset=".44" stop-color="#4809FF"/><stop offset=".49" stop-color="#4602FF"/><stop offset=".53" stop-color="#4A0EFF"/><stop offset=".61" stop-color="#5731FF"/><stop offset=".71" stop-color="#6B68FF"/><stop offset=".84" stop-color="#87B3FF"/><stop offset=".91" stop-color="#97DDFF"/></linearGradient><linearGradient id="r" x1="1089.1" x2="1218.34" y1="625.547" y2="832.5" gradientUnits="userSpaceOnUse"><stop offset=".09" stop-color="#83B1FF"/><stop offset=".1" stop-color="#80AAFF"/><stop offset=".2" stop-color="#6C6FFF"/><stop offset=".29" stop-color="#5B40FF"/><stop offset=".38" stop-color="#4F1EFF"/><stop offset=".44" stop-color="#4809FF"/><stop offset=".49" stop-color="#4602FF"/><stop offset=".53" stop-color="#4A0EFF"/><stop offset=".61" stop-color="#5731FF"/><stop offset=".71" stop-color="#6B68FF"/><stop offset=".84" stop-color="#87B3FF"/><stop offset=".91" stop-color="#97DDFF"/></linearGradient><linearGradient id="s" x1="892.336" x2="661.024" y1="1389.62" y2="1286.14" gradientUnits="userSpaceOnUse"><stop offset=".09" stop-color="#83B1FF"/><stop offset=".1" stop-color="#80AAFF"/><stop offset=".2" stop-color="#6C6FFF"/><stop offset=".29" stop-color="#5B40FF"/><stop offset=".38" stop-color="#4F1EFF"/><stop offset=".44" stop-color="#4809FF"/><stop offset=".49" stop-color="#4602FF"/><stop offset=".53" stop-color="#4A0EFF"/><stop offset=".61" stop-color="#5731FF"/><stop offset=".71" stop-color="#6B68FF"/><stop offset=".84" stop-color="#87B3FF"/><stop offset=".91" stop-color="#97DDFF"/></linearGradient><linearGradient id="t" x1="889.287" x2="1059.13" y1="479.279" y2="493.541" gradientUnits="userSpaceOnUse"><stop offset=".09" stop-color="#83B1FF"/><stop offset=".1" stop-color="#80AAFF"/><stop offset=".2" stop-color="#6C6FFF"/><stop offset=".29" stop-color="#5B40FF"/><stop offset=".38" stop-color="#4F1EFF"/><stop offset=".44" stop-color="#4809FF"/><stop offset=".49" stop-color="#4602FF"/><stop offset=".53" stop-color="#4A0EFF"/><stop offset=".61" stop-color="#5731FF"/><stop offset=".71" stop-color="#6B68FF"/><stop offset=".84" stop-color="#87B3FF"/><stop offset=".91" stop-color="#97DDFF"/></linearGradient><linearGradient id="u" x1="1098.06" x2="885.629" y1="452.618" y2="454.304" gradientUnits="userSpaceOnUse"><stop offset=".09" stop-color="#83B1FF"/><stop offset=".1" stop-color="#80AAFF"/><stop offset=".2" stop-color="#6C6FFF"/><stop offset=".29" stop-color="#5B40FF"/><stop offset=".38" stop-color="#4F1EFF"/><stop offset=".44" stop-color="#4809FF"/><stop offset=".49" stop-color="#4602FF"/><stop offset=".53" stop-color="#4A0EFF"/><stop offset=".61" stop-color="#5731FF"/><stop offset=".71" stop-color="#6B68FF"/><stop offset=".84" stop-color="#87B3FF"/><stop offset=".91" stop-color="#97DDFF"/></linearGradient><linearGradient id="v" x1="596.067" x2="739.542" y1="626.097" y2="511.439" gradientUnits="userSpaceOnUse"><stop offset=".09" stop-color="#83B1FF"/><stop offset=".1" stop-color="#80AAFF"/><stop offset=".2" stop-color="#6C6FFF"/><stop offset=".29" stop-color="#5B40FF"/><stop offset=".38" stop-color="#4F1EFF"/><stop offset=".44" stop-color="#4809FF"/><stop offset=".49" stop-color="#4602FF"/><stop offset=".53" stop-color="#4A0EFF"/><stop offset=".61" stop-color="#5731FF"/><stop offset=".71" stop-color="#6B68FF"/><stop offset=".84" stop-color="#87B3FF"/><stop offset=".91" stop-color="#97DDFF"/></linearGradient><linearGradient id="w" x1="741.259" x2="576.227" y1="450.133" y2="608.83" gradientUnits="userSpaceOnUse"><stop offset=".09" stop-color="#83B1FF"/><stop offset=".1" stop-color="#80AAFF"/><stop offset=".2" stop-color="#6C6FFF"/><stop offset=".29" stop-color="#5B40FF"/><stop offset=".38" stop-color="#4F1EFF"/><stop offset=".44" stop-color="#4809FF"/><stop offset=".49" stop-color="#4602FF"/><stop offset=".53" stop-color="#4A0EFF"/><stop offset=".61" stop-color="#5731FF"/><stop offset=".71" stop-color="#6B68FF"/><stop offset=".84" stop-color="#87B3FF"/><stop offset=".91" stop-color="#97DDFF"/></linearGradient><linearGradient id="x" x1="467.562" x2="516.685" y1="914.348" y2="737.337" gradientUnits="userSpaceOnUse"><stop offset=".09" stop-color="#83B1FF"/><stop offset=".1" stop-color="#80AAFF"/><stop offset=".2" stop-color="#6C6FFF"/><stop offset=".29" stop-color="#5B40FF"/><stop offset=".38" stop-color="#4F1EFF"/><stop offset=".44" stop-color="#4809FF"/><stop offset=".49" stop-color="#4602FF"/><stop offset=".53" stop-color="#4A0EFF"/><stop offset=".61" stop-color="#5731FF"/><stop offset=".71" stop-color="#6B68FF"/><stop offset=".84" stop-color="#87B3FF"/><stop offset=".91" stop-color="#97DDFF"/></linearGradient><linearGradient id="y" x1="482.936" x2="442.191" y1="686.671" y2="911.968" gradientUnits="userSpaceOnUse"><stop offset=".09" stop-color="#83B1FF"/><stop offset=".1" stop-color="#80AAFF"/><stop offset=".2" stop-color="#6C6FFF"/><stop offset=".29" stop-color="#5B40FF"/><stop offset=".38" stop-color="#4F1EFF"/><stop offset=".44" stop-color="#4809FF"/><stop offset=".49" stop-color="#4602FF"/><stop offset=".53" stop-color="#4A0EFF"/><stop offset=".61" stop-color="#5731FF"/><stop offset=".71" stop-color="#6B68FF"/><stop offset=".84" stop-color="#87B3FF"/><stop offset=".91" stop-color="#97DDFF"/></linearGradient><linearGradient id="z" x1="495.93" x2="453.794" y1="1231.83" y2="1053.02" gradientUnits="userSpaceOnUse"><stop offset=".09" stop-color="#83B1FF"/><stop offset=".1" stop-color="#80AAFF"/><stop offset=".2" stop-color="#6C6FFF"/><stop offset=".29" stop-color="#5B40FF"/><stop offset=".38" stop-color="#4F1EFF"/><stop offset=".44" stop-color="#4809FF"/><stop offset=".49" stop-color="#4602FF"/><stop offset=".53" stop-color="#4A0EFF"/><stop offset=".61" stop-color="#5731FF"/><stop offset=".71" stop-color="#6B68FF"/><stop offset=".84" stop-color="#87B3FF"/><stop offset=".91" stop-color="#97DDFF"/></linearGradient><linearGradient id="A" x1="398.771" x2="471.543" y1="1026.83" y2="1243.95" gradientUnits="userSpaceOnUse"><stop offset=".09" stop-color="#83B1FF"/><stop offset=".1" stop-color="#80AAFF"/><stop offset=".2" stop-color="#6C6FFF"/><stop offset=".29" stop-color="#5B40FF"/><stop offset=".38" stop-color="#4F1EFF"/><stop offset=".44" stop-color="#4809FF"/><stop offset=".49" stop-color="#4602FF"/><stop offset=".53" stop-color="#4A0EFF"/><stop offset=".61" stop-color="#5731FF"/><stop offset=".71" stop-color="#6B68FF"/><stop offset=".84" stop-color="#87B3FF"/><stop offset=".91" stop-color="#97DDFF"/></linearGradient><linearGradient id="B" x1="1207.39" x2="1350" y1="531.203" y2="622.511" gradientUnits="userSpaceOnUse"><stop offset=".09" stop-color="#83B1FF"/><stop offset=".1" stop-color="#80AAFF"/><stop offset=".2" stop-color="#6C6FFF"/><stop offset=".29" stop-color="#5B40FF"/><stop offset=".38" stop-color="#4F1EFF"/><stop offset=".44" stop-color="#4809FF"/><stop offset=".49" stop-color="#4602FF"/><stop offset=".53" stop-color="#4A0EFF"/><stop offset=".61" stop-color="#5731FF"/><stop offset=".71" stop-color="#6B68FF"/><stop offset=".84" stop-color="#87B3FF"/><stop offset=".91" stop-color="#97DDFF"/></linearGradient><linearGradient id="C" x1="1402.39" x2="1214.93" y1="605.975" y2="508.925" gradientUnits="userSpaceOnUse"><stop offset=".09" stop-color="#83B1FF"/><stop offset=".1" stop-color="#80AAFF"/><stop offset=".2" stop-color="#6C6FFF"/><stop offset=".29" stop-color="#5B40FF"/><stop offset=".38" stop-color="#4F1EFF"/><stop offset=".44" stop-color="#4809FF"/><stop offset=".49" stop-color="#4602FF"/><stop offset=".53" stop-color="#4A0EFF"/><stop offset=".61" stop-color="#5731FF"/><stop offset=".71" stop-color="#6B68FF"/><stop offset=".84" stop-color="#87B3FF"/><stop offset=".91" stop-color="#97DDFF"/></linearGradient><linearGradient id="D" x1="1329.23" x2="1284.37" y1="897.724" y2="1136.92" gradientUnits="userSpaceOnUse"><stop offset=".09" stop-color="#83B1FF"/><stop offset=".1" stop-color="#80AAFF"/><stop offset=".2" stop-color="#6C6FFF"/><stop offset=".29" stop-color="#5B40FF"/><stop offset=".38" stop-color="#4F1EFF"/><stop offset=".44" stop-color="#4809FF"/><stop offset=".49" stop-color="#4602FF"/><stop offset=".53" stop-color="#4A0EFF"/><stop offset=".61" stop-color="#5731FF"/><stop offset=".71" stop-color="#6B68FF"/><stop offset=".84" stop-color="#87B3FF"/><stop offset=".91" stop-color="#97DDFF"/></linearGradient><linearGradient id="E" x1="1261.13" x2="1148.74" y1="1164.15" y2="1384.11" gradientUnits="userSpaceOnUse"><stop offset=".09" stop-color="#83B1FF"/><stop offset=".1" stop-color="#80AAFF"/><stop offset=".2" stop-color="#6C6FFF"/><stop offset=".29" stop-color="#5B40FF"/><stop offset=".38" stop-color="#4F1EFF"/><stop offset=".44" stop-color="#4809FF"/><stop offset=".49" stop-color="#4602FF"/><stop offset=".53" stop-color="#4A0EFF"/><stop offset=".61" stop-color="#5731FF"/><stop offset=".71" stop-color="#6B68FF"/><stop offset=".84" stop-color="#87B3FF"/><stop offset=".91" stop-color="#97DDFF"/></linearGradient><linearGradient id="F" x1="1224.58" x2="1109.66" y1="1139.62" y2="1358.1" gradientUnits="userSpaceOnUse"><stop offset=".09" stop-color="#83B1FF"/><stop offset=".1" stop-color="#80AAFF"/><stop offset=".2" stop-color="#6C6FFF"/><stop offset=".29" stop-color="#5B40FF"/><stop offset=".38" stop-color="#4F1EFF"/><stop offset=".44" stop-color="#4809FF"/><stop offset=".49" stop-color="#4602FF"/><stop offset=".53" stop-color="#4A0EFF"/><stop offset=".61" stop-color="#5731FF"/><stop offset=".71" stop-color="#6B68FF"/><stop offset=".84" stop-color="#87B3FF"/><stop offset=".91" stop-color="#97DDFF"/></linearGradient><linearGradient id="G" x1="1445.42" x2="1468.06" y1="747.39" y2="916.364" gradientUnits="userSpaceOnUse"><stop offset=".09" stop-color="#83B1FF"/><stop offset=".1" stop-color="#80AAFF"/><stop offset=".2" stop-color="#6C6FFF"/><stop offset=".29" stop-color="#5B40FF"/><stop offset=".38" stop-color="#4F1EFF"/><stop offset=".44" stop-color="#4809FF"/><stop offset=".49" stop-color="#4602FF"/><stop offset=".53" stop-color="#4A0EFF"/><stop offset=".61" stop-color="#5731FF"/><stop offset=".71" stop-color="#6B68FF"/><stop offset=".84" stop-color="#87B3FF"/><stop offset=".91" stop-color="#97DDFF"/></linearGradient><linearGradient id="H" x1="1513.83" x2="1466.45" y1="944.829" y2="737.739" gradientUnits="userSpaceOnUse"><stop offset=".09" stop-color="#83B1FF"/><stop offset=".1" stop-color="#80AAFF"/><stop offset=".2" stop-color="#6C6FFF"/><stop offset=".29" stop-color="#5B40FF"/><stop offset=".38" stop-color="#4F1EFF"/><stop offset=".44" stop-color="#4809FF"/><stop offset=".49" stop-color="#4602FF"/><stop offset=".53" stop-color="#4A0EFF"/><stop offset=".61" stop-color="#5731FF"/><stop offset=".71" stop-color="#6B68FF"/><stop offset=".84" stop-color="#87B3FF"/><stop offset=".91" stop-color="#97DDFF"/></linearGradient><linearGradient id="I" x1="1099.13" x2="1228.4" y1="611.013" y2="818.002" gradientUnits="userSpaceOnUse"><stop offset=".09" stop-color="#83B1FF"/><stop offset=".1" stop-color="#80AAFF"/><stop offset=".2" stop-color="#6C6FFF"/><stop offset=".29" stop-color="#5B40FF"/><stop offset=".38" stop-color="#4F1EFF"/><stop offset=".44" stop-color="#4809FF"/><stop offset=".49" stop-color="#4602FF"/><stop offset=".53" stop-color="#4A0EFF"/><stop offset=".61" stop-color="#5731FF"/><stop offset=".71" stop-color="#6B68FF"/><stop offset=".84" stop-color="#87B3FF"/><stop offset=".91" stop-color="#97DDFF"/></linearGradient><linearGradient id="J" x1="630.785" x2="642.587" y1="874.072" y2="1125.57" gradientUnits="userSpaceOnUse"><stop offset=".09" stop-color="#83B1FF"/><stop offset=".1" stop-color="#80AAFF"/><stop offset=".2" stop-color="#6C6FFF"/><stop offset=".29" stop-color="#5B40FF"/><stop offset=".38" stop-color="#4F1EFF"/><stop offset=".44" stop-color="#4809FF"/><stop offset=".49" stop-color="#4602FF"/><stop offset=".53" stop-color="#4A0EFF"/><stop offset=".61" stop-color="#5731FF"/><stop offset=".71" stop-color="#6B68FF"/><stop offset=".84" stop-color="#87B3FF"/><stop offset=".91" stop-color="#97DDFF"/></linearGradient><linearGradient id="K" x1="909.775" x2="660.145" y1="1242.99" y2="1286.55" gradientUnits="userSpaceOnUse"><stop offset=".09" stop-color="#83B1FF"/><stop offset=".1" stop-color="#80AAFF"/><stop offset=".2" stop-color="#6C6FFF"/><stop offset=".29" stop-color="#5B40FF"/><stop offset=".38" stop-color="#4F1EFF"/><stop offset=".44" stop-color="#4809FF"/><stop offset=".49" stop-color="#4602FF"/><stop offset=".53" stop-color="#4A0EFF"/><stop offset=".61" stop-color="#5731FF"/><stop offset=".71" stop-color="#6B68FF"/><stop offset=".84" stop-color="#87B3FF"/><stop offset=".91" stop-color="#97DDFF"/></linearGradient><linearGradient id="L" x1="1280.62" x2="1232.95" y1="879.583" y2="1118.08" gradientUnits="userSpaceOnUse"><stop offset=".09" stop-color="#83B1FF"/><stop offset=".1" stop-color="#80AAFF"/><stop offset=".2" stop-color="#6C6FFF"/><stop offset=".29" stop-color="#5B40FF"/><stop offset=".38" stop-color="#4F1EFF"/><stop offset=".44" stop-color="#4809FF"/><stop offset=".49" stop-color="#4602FF"/><stop offset=".53" stop-color="#4A0EFF"/><stop offset=".61" stop-color="#5731FF"/><stop offset=".71" stop-color="#6B68FF"/><stop offset=".84" stop-color="#87B3FF"/><stop offset=".91" stop-color="#97DDFF"/></linearGradient><linearGradient id="M" x1="851.97" x2="733.218" y1="602.407" y2="802.229" gradientUnits="userSpaceOnUse"><stop offset=".09" stop-color="#83B1FF"/><stop offset=".1" stop-color="#80AAFF"/><stop offset=".2" stop-color="#6C6FFF"/><stop offset=".29" stop-color="#5B40FF"/><stop offset=".38" stop-color="#4F1EFF"/><stop offset=".44" stop-color="#4809FF"/><stop offset=".49" stop-color="#4602FF"/><stop offset=".53" stop-color="#4A0EFF"/><stop offset=".61" stop-color="#5731FF"/><stop offset=".71" stop-color="#6B68FF"/><stop offset=".84" stop-color="#87B3FF"/><stop offset=".91" stop-color="#97DDFF"/></linearGradient><linearGradient id="N" x1="1323.36" x2="1386.68" y1="1418.55" y2="1507.59" gradientUnits="userSpaceOnUse"><stop stop-color="#fff"/><stop offset="1" stop-color="#fff" stop-opacity="0"/></linearGradient><linearGradient id="O" x1="1460.51" x2="1569.61" y1="1133.03" y2="1144.59" gradientUnits="userSpaceOnUse"><stop stop-color="#fff"/><stop offset="1" stop-color="#fff" stop-opacity="0"/></linearGradient><linearGradient id="P" x1="1319.4" x2="1392.61" y1="1026.77" y2="1032.7" gradientUnits="userSpaceOnUse"><stop stop-color="#fff"/><stop offset="1" stop-color="#fff" stop-opacity="0"/></linearGradient><linearGradient id="Q" x1="1190.79" x2="1285.76" y1="1299.83" y2="1339.4" gradientUnits="userSpaceOnUse"><stop stop-color="#fff"/><stop offset="1" stop-color="#fff" stop-opacity="0"/></linearGradient><linearGradient id="R" x1="1303.57" x2="1133.41" y1="579.586" y2="775.476" gradientUnits="userSpaceOnUse"><stop offset=".49" stop-color="#fff" stop-opacity="0"/><stop offset=".855" stop-color="#fff"/></linearGradient><linearGradient id="S" x1="971.153" x2="965.217" y1="1540.24" y2="1633.24" gradientUnits="userSpaceOnUse"><stop stop-color="#fff"/><stop offset="1" stop-color="#fff" stop-opacity="0"/></linearGradient><linearGradient id="T" x1="454.717" x2="359.74" y1="1151.42" y2="1177.15" gradientUnits="userSpaceOnUse"><stop stop-color="#fff"/><stop offset="1" stop-color="#fff" stop-opacity="0"/></linearGradient><linearGradient id="U" x1="646.65" x2="595.204" y1="1434.37" y2="1525.39" gradientUnits="userSpaceOnUse"><stop stop-color="#fff"/><stop offset="1" stop-color="#fff" stop-opacity="0"/></linearGradient><linearGradient id="V" x1="674.121" x2="596.635" y1="589.981" y2="470.147" gradientUnits="userSpaceOnUse"><stop stop-color="#fff"/><stop offset="1" stop-color="#fff" stop-opacity="0"/></linearGradient><linearGradient id="W" x1="495.125" x2="390.29" y1="800.639" y2="778.795" gradientUnits="userSpaceOnUse"><stop stop-color="#fff"/><stop offset="1" stop-color="#fff" stop-opacity="0"/></linearGradient><linearGradient id="X" x1="1300.71" x2="1340.04" y1="558.23" y2="485.75" gradientUnits="userSpaceOnUse"><stop stop-color="#fff"/><stop offset="1" stop-color="#fff" stop-opacity="0"/></linearGradient><linearGradient id="Y" x1="979.872" x2="977.99" y1="364.177" y2="476.161" gradientUnits="userSpaceOnUse"><stop stop-color="#fff" stop-opacity="0"/><stop offset="1" stop-color="#fff"/></linearGradient><linearGradient id="Z" x1="808.261" x2="748.017" y1="741.844" y2="660.402" gradientUnits="userSpaceOnUse"><stop stop-color="#fff"/><stop offset="1" stop-color="#fff" stop-opacity="0"/></linearGradient><linearGradient id="aa" x1="1570.59" x2="1432.61" y1="797.174" y2="818.561" gradientUnits="userSpaceOnUse"><stop stop-color="#fff" stop-opacity="0"/><stop offset="1" stop-color="#fff"/></linearGradient><linearGradient id="ab" x1="656.543" x2="573.438" y1="997.086" y2="1005" gradientUnits="userSpaceOnUse"><stop stop-color="#fff"/><stop offset="1" stop-color="#fff" stop-opacity="0"/></linearGradient><linearGradient id="ac" x1="777.974" x2="721.023" y1="1280.66" y2="1335.64" gradientUnits="userSpaceOnUse"><stop stop-color="#fff"/><stop offset="1" stop-color="#fff" stop-opacity="0"/></linearGradient><radialGradient id="a" cx="0" cy="0" r="1" gradientTransform="rotate(91.992 -10.111 980.274) scale(855.067)" gradientUnits="userSpaceOnUse"><stop stop-color="#7700DA"/><stop offset="1" stop-color="#7700DA" stop-opacity="0"/></radialGradient><radialGradient id="b" cx="0" cy="0" r="1" gradientTransform="rotate(90.03 -50.646 1018.146) scale(523.342 524.174)" gradientUnits="userSpaceOnUse"><stop stop-color="#6DFFEC"/><stop offset="1" stop-color="#6DFFEC" stop-opacity="0"/></radialGradient></defs></svg>