<svg xmlns="http://www.w3.org/2000/svg" viewBox="0 0 631.29 622.21"><defs><style>.interbtc-logo{isolation:isolate;}</style></defs><g id="Layer_2" data-name="Layer 2"><g id="Layer_1-2" data-name="Layer 1"><g id="Oval" class="interbtc-logo"><path d="M315.64,622.21c-84.29,0-163.54-32.34-223.15-91.08S0,394.23,0,311.11s32.85-161.26,92.49-220S231.35,0,315.64,0,479.19,32.35,538.8,91.08s92.49,136.91,92.49,220-32.85,161.26-92.49,220S399.94,622.21,315.64,622.21Zm0-608c-80.53,0-156.23,30.9-213.16,87S14.24,231.83,14.24,311.11,45.57,464.92,102.48,521s132.63,87,213.16,87,156.24-30.9,213.17-87,88.24-130.61,88.24-209.88-31.34-153.82-88.24-209.89S396.17,14.23,315.64,14.23Z"/></g><path d="M483.29,448.18H248.35a6.1,6.1,0,0,1-3.17-.9L160.3,394.87a6,6,0,0,1,3.17-11.17H398.4a6.08,6.08,0,0,1,3.17.9L486.46,437a6,6,0,0,1-3.17,11.17ZM250.06,436.11H462l-65.34-40.34h-212Z"/><path d="M468.67,237.75H233.73a6,6,0,0,1-3.17-.9l-84.88-52.4a6,6,0,0,1,3.17-11.18H383.78a6,6,0,0,1,3.17.91l84.89,52.4a6,6,0,0,1-3.17,11.17ZM235.44,225.68h212l-65.33-40.33h-212Z"/><path d="M320.28,307.53c4.86,0,11.29-.54,14.9-4.22a8.23,8.23,0,0,0,2.74-6.32c-.11-8.35-7-11.3-13.45-11.28-.53,0-.84,0-.84,0l-8.86,0,.07,21.42,1.09.13A39.47,39.47,0,0,0,320.28,307.53Z"/><path d="M325.12,314.47l-10.25.1L315,339.7h1.24c2.81,0,7.28,0,8.25,0h.88c7.6,0,15.72-3.35,15.75-12.61a11.22,11.22,0,0,0-3.19-8.28C333.8,314.76,327.08,314.46,325.12,314.47Z"/><path d="M364.45,267.05a60.81,60.81,0,0,0-43.2-16.51l-.64,0A61.21,61.21,0,0,0,324,372.93l.61,0a61.21,61.21,0,0,0,39.81-105.86Zm-18.28,76.19a34.29,34.29,0,0,1-11.86,2.38h-1.23l-.11,1.24,0,12.1-9.07,0,0-13.44-8.93.07L315,359l-9.15,0,0-13.32-15.37.11,0-6h5.71a4.36,4.36,0,0,0,4.33-4.37l-.15-45.32c0-2.26-1.8-3.83-4.36-3.82l-5.71-.4,0-8.36h15.51l0-13.77,9,0,.05,13.79h9l0-13.82,9,0,0,13.84h1.66c3.11.05,18.7,3.24,18.74,15.87.05,13.91-11.66,15.41-11.86,15.82l-.62,0c.66.08,15.88,3,15.77,19.12C356.38,335.38,353,340.38,346.17,343.24Z"/></g></g></svg>