<svg xmlns="http://www.w3.org/2000/svg" viewBox="0 0 346.51 274.91" fill="currentColor">
  <g id="Layer_2" data-name="Layer 2">
    <g id="Layer_1-2" data-name="Layer 1">
      <path d="M309.59,250H96a5.53,5.53,0,0,1-2.88-.82L15.9,201.5a5.49,5.49,0,0,1,2.88-10.16H232.4a5.56,5.56,0,0,1,2.89.82l77.18,47.65A5.49,5.49,0,0,1,309.59,250ZM97.52,239H290.25l-59.4-36.67H38.11Z"/>
      <path d="M296.29,58.63H82.67a5.5,5.5,0,0,1-2.88-.82L2.6,10.16A5.49,5.49,0,0,1,5.49,0H219.11A5.5,5.5,0,0,1,222,.82l77.18,47.65a5.49,5.49,0,0,1-2.88,10.16Zm-212.06-11H277L217.55,11H24.82Z"/>
      <path d="M187,101.16a33.4,33.4,0,0,0-23.53-9.62h-.35a33.64,33.64,0,0,0,.33,67.28h.34A33.64,33.64,0,0,0,187,101.16Z"/>
    </g>
  </g>
</svg>
