<svg xmlns="http://www.w3.org/2000/svg" viewBox="0 0 346.51 274.91"><defs><style>.interbtc-logo-1{fill:#1a0a2d;}.interbtc-logo-2{fill:#f90;}</style></defs><g id="Layer_2" data-name="Layer 2"><g id="Layer_1-2" data-name="Layer 1"><path class="interbtc-logo-1" d="M340.47,274.91H105.54a6.1,6.1,0,0,1-3.17-.9L17.49,221.6a6,6,0,0,1,3.17-11.17H255.59a6,6,0,0,1,3.17.9l84.88,52.4a6,6,0,0,1-3.17,11.18ZM107.25,262.83h212L253.88,222.5h-212Z"/><path class="interbtc-logo-1" d="M325.85,64.48H90.92a6.1,6.1,0,0,1-3.17-.9L2.86,11.17A6,6,0,0,1,6,0H241a6.1,6.1,0,0,1,3.17.9L329,53.31a6,6,0,0,1-3.17,11.17ZM92.63,52.41h212L239.26,12.07h-212Z"/><path class="interbtc-logo-2" d="M177.46,134.26c4.87,0,11.3-.55,14.91-4.22a8.29,8.29,0,0,0,2.74-6.33c-.12-8.35-7-11.3-13.45-11.28l-.85,0-8.85,0,.06,21.43,1.1.13A39.18,39.18,0,0,0,177.46,134.26Z"/><path class="interbtc-logo-2" d="M182.3,141.19l-10.24.11.08,25.13h1.24c2.8,0,7.28,0,8.25,0h.21s.24,0,.67,0c7.6,0,15.72-3.35,15.74-12.61a11.22,11.22,0,0,0-3.18-8.29C191,141.48,184.27,141.18,182.3,141.19Z"/><path class="interbtc-logo-2" d="M221.64,93.77a60.85,60.85,0,0,0-43.2-16.51l-.64,0a61.21,61.21,0,0,0,3.42,122.37l.61,0A61.21,61.21,0,0,0,221.64,93.77ZM203.36,170a34.17,34.17,0,0,1-11.86,2.37h-1.24l-.1,1.24,0,12.11-9.07,0,0-13.44-8.93.07,0,13.35-9.14,0L163,172.4l-15.36.12,0-6,5.7,0a4.36,4.36,0,0,0,4.34-4.37l-.15-45.31c0-2.26-1.8-3.83-4.36-3.83l-5.72-.4,0-8.36h15.52l0-13.77,9,0,0,13.79h9l0-13.82,9,0,0,13.83h1.66c3.11,0,18.7,3.24,18.74,15.86,0,13.91-11.66,15.41-11.86,15.83l-.62.05c.65.07,15.88,3,15.77,19.11C213.57,162.11,210.19,167.1,203.36,170Z"/></g></g></svg>