<?xml version="1.0" standalone="no"?>
<!DOCTYPE svg PUBLIC "-//W3C//DTD SVG 20010904//EN"
 "http://www.w3.org/TR/2001/REC-SVG-20010904/DTD/svg10.dtd">
<svg version="1.0" xmlns="http://www.w3.org/2000/svg"
 width="1707.000000pt" height="399.000000pt" viewBox="0 0 1707.000000 399.000000"
 preserveAspectRatio="xMidYMid meet">
<metadata>
Created by potrace 1.16, written by Peter Selinger 2001-2019
</metadata>
<g transform="translate(0.000000,399.000000) scale(0.100000,-0.100000)"
fill="#000000" stroke="none">
<path d="M10805 3978 c-3 -7 -4 -332 -3 -723 l3 -710 285 0 285 0 0 720 0 720
-283 3 c-221 2 -284 0 -287 -10z"/>
<path d="M11 3777 c-8 -11 -10 -383 -9 -1433 l3 -1419 285 0 285 0 0 1430 0
1430 -276 3 c-224 2 -278 0 -288 -11z m539 -1427 l0 -1400 -255 0 -255 0 0
1400 0 1400 255 0 255 0 0 -1400z"/>
<path d="M4312 3778 c-9 -9 -12 -99 -12 -345 l0 -333 -327 -2 -328 -3 0 -275
0 -275 1060 0 1060 0 0 275 0 275 -437 3 -438 2 0 333 c0 246 -3 336 -12 345
-17 17 -549 17 -566 0z m540 -370 l3 -343 443 -3 442 -2 0 -245 0 -245 -1035
0 -1035 0 0 245 0 245 330 0 330 0 0 345 0 345 260 0 260 0 2 -342z"/>
<path d="M1258 3086 c-87 -23 -156 -84 -189 -166 -10 -25 -14 -82 -14 -205 l0
-170 1150 0 1150 0 3 31 c6 63 -149 252 -282 344 -129 88 -302 151 -469 169
-143 16 -1288 13 -1349 -3z m1420 -42 c154 -32 288 -92 413 -186 82 -62 182
-175 220 -249 l19 -39 -1120 0 -1120 0 0 153 c0 127 4 159 19 192 22 48 72 97
126 124 39 20 62 20 703 21 567 0 674 -2 740 -16z"/>
<path d="M6590 3090 c-96 -12 -146 -27 -232 -72 -97 -50 -198 -142 -259 -236
-51 -77 -96 -198 -86 -226 6 -15 101 -16 1164 -14 l1158 3 -1 41 c0 25 -14 68
-37 115 -93 187 -247 311 -462 371 -78 21 -96 22 -630 24 -302 1 -579 -2 -615
-6z m1216 -50 c43 -11 117 -39 164 -62 141 -69 271 -216 324 -365 l14 -39
-1129 0 c-922 0 -1129 3 -1129 13 0 8 13 43 30 79 85 187 243 324 432 374 68
17 115 19 644 19 538 1 575 0 650 -19z"/>
<path d="M9255 3089 c-196 -28 -367 -122 -486 -267 -53 -64 -112 -188 -113
-237 l-1 -40 945 0 945 0 0 275 0 275 -615 1 c-338 1 -642 -2 -675 -7z m1265
-274 l0 -245 -920 0 -919 0 14 41 c74 209 261 371 493 429 71 17 124 19 705
19 l627 1 0 -245z"/>
<path d="M12435 3088 c-3 -7 -4 -132 -3 -278 l3 -265 925 0 925 0 -1 38 c-2
51 -71 188 -130 257 -98 115 -217 189 -371 232 -76 21 -98 22 -711 26 -518 3
-633 1 -637 -10z"/>
<path d="M14665 3087 c-3 -7 -4 -131 -3 -277 l3 -265 285 0 285 0 0 275 0 275
-283 3 c-222 2 -284 0 -287 -11z"/>
<path d="M16495 3087 c-3 -7 -4 -131 -3 -277 l3 -265 285 0 285 0 0 275 0 275
-283 3 c-222 2 -284 0 -287 -11z"/>
<path d="M1055 2168 c-3 -7 -4 -290 -3 -628 l3 -615 285 0 285 0 0 625 0 625
-283 3 c-221 2 -284 0 -287 -10z m545 -618 l0 -600 -255 0 -255 0 0 600 0 600
255 0 255 0 0 -600z"/>
<path d="M2888 2173 c-2 -5 -1 -287 2 -628 l5 -620 280 0 280 0 0 625 0 625
-282 3 c-155 1 -283 -1 -285 -5z m542 -623 l0 -600 -255 0 -255 0 0 600 0 600
255 0 255 0 0 -600z"/>
<path d="M4305 2168 c-3 -7 -4 -290 -3 -628 l3 -615 290 0 290 0 0 625 0 625
-288 3 c-225 2 -289 0 -292 -10z m545 -618 l0 -600 -260 0 -260 0 0 600 0 600
260 0 260 0 0 -600z"/>
<path d="M5987 2173 c-4 -3 -7 -144 -7 -312 1 -405 14 -480 114 -630 96 -144
245 -247 421 -291 76 -19 109 -20 615 -18 l535 3 0 270 0 270 -500 5 c-530 5
-519 4 -573 54 -55 49 -57 60 -62 366 l-5 285 -266 3 c-146 1 -268 -1 -272 -5z
m515 -310 c3 -327 4 -330 87 -388 l43 -30 499 -3 499 -3 0 -244 0 -245 -502 0
c-469 0 -509 2 -587 20 -253 61 -437 237 -507 485 -14 49 -18 119 -21 378 l-5
317 245 0 246 0 3 -287z"/>
<path d="M6685 2167 c-3 -7 -4 -129 -3 -272 l3 -260 565 0 c548 0 567 1 627
21 107 37 193 92 280 179 67 68 90 99 128 178 33 68 45 105 43 129 l-3 33
-818 3 c-654 2 -819 0 -822 -11z m1610 -39 c-16 -51 -68 -149 -109 -205 -58
-79 -142 -147 -241 -195 -135 -65 -172 -68 -736 -68 l-499 0 0 245 0 245 796
0 795 0 -6 -22z"/>
<path d="M8625 2168 c-3 -7 -4 -290 -3 -628 l3 -615 285 0 285 0 0 625 0 625
-283 3 c-221 2 -284 0 -287 -10z m545 -618 l0 -600 -260 0 -260 0 0 600 0 600
260 0 260 0 0 -600z"/>
<path d="M10804 2166 c-3 -9 -4 -163 -1 -343 4 -302 6 -334 26 -403 34 -114
83 -194 180 -291 69 -69 103 -94 171 -128 141 -69 214 -82 436 -79 l189 3 0
280 0 280 -145 6 c-149 6 -166 9 -213 41 -59 41 -62 57 -67 363 l-5 280 -283
3 c-242 2 -283 0 -288 -12z"/>
<path d="M12091 2133 c-49 -57 -113 -184 -136 -268 -25 -93 -31 -294 -11 -396
26 -132 82 -236 186 -340 73 -73 101 -94 180 -132 161 -77 160 -77 822 -77
464 0 597 3 650 14 180 39 362 184 447 358 73 149 76 170 76 548 l0 335 -270
0 -270 0 -5 -285 c-4 -249 -7 -290 -23 -322 -10 -20 -27 -44 -37 -53 -46 -42
-73 -44 -581 -45 l-485 0 -52 26 c-66 33 -96 79 -96 149 0 63 34 127 84 158
35 22 41 22 535 27 l500 5 0 170 0 170 -737 3 -736 2 -41 -47z"/>
<path d="M14664 2166 c-3 -9 -4 -163 -1 -343 4 -302 6 -334 26 -403 34 -114
83 -194 180 -291 99 -99 198 -155 336 -189 76 -19 109 -20 615 -18 l535 3 0
280 0 280 -495 5 c-478 5 -496 6 -535 26 -77 40 -79 51 -85 374 l-5 285 -283
3 c-242 2 -283 0 -288 -12z"/>
<path d="M16497 2173 c-4 -3 -7 -337 -7 -742 l0 -736 -23 -39 c-44 -78 -29
-76 -583 -76 -404 0 -494 -2 -503 -14 -8 -9 -11 -94 -9 -287 l3 -274 555 0
555 0 95 33 c240 84 402 251 467 482 17 60 18 121 18 860 l0 795 -281 3 c-154
1 -283 -1 -287 -5z"/>
</g>
</svg>
