<svg id="kintsugi" version="1.1" viewBox="0 0 1132.7 444.96" xmlns="http://www.w3.org/2000/svg">
 <defs>
  <style>.cls-1{fill:url(#New_Gradient_Swatch_15);}.cls-2{fill:#dadada;}</style>
  <linearGradient id="New_Gradient_Swatch_15" x1="835.91" x2="835.91" y1="890.38" y2="689.89" gradientTransform="translate(-625.34 -568.14)" gradientUnits="userSpaceOnUse">
   <stop stop-color="#603211" offset="0"/>
   <stop stop-color="#dd7d26" offset=".17"/>
   <stop stop-color="#603211" offset=".35"/>
   <stop stop-color="#9c3520" offset=".54"/>
   <stop stop-color="#dd7d26" offset=".77"/>
   <stop stop-color="#603211" offset="1"/>
  </linearGradient>
 </defs>
 <path class="cls-1" d="m280.74 150.4a99.58 99.58 0 0 0-70.08-28.65h-1.05a100.24 100.24 0 0 0 1 200.47h1a100.23 100.23 0 0 0 69.17-171.82z" fill="url(#New_Gradient_Swatch_15)"/>
 <path class="cls-2" d="m253.37 138.28c-11.75-2.95-21.19-0.55-28.86 7.33a37.71 37.71 0 0 0-2.66 3.14c-2 2.53-3.7 4.72-7.58 5.62a51.14 51.14 0 0 1-15.9 0.66c-1.51-0.22-2.78-0.51-3.9-0.76-3.95-0.91-6.34-1.45-11.07 3.05a34.81 34.81 0 0 0-4 4.87c-2.1 2.89-4.08 5.62-7.34 6.87a16.2 16.2 0 0 1-4.68 1 4.28 4.28 0 0 1-0.43-0.19l-0.1 0.22a39 39 0 0 1-6.87-0.45 46.07 46.07 0 0 0-5.41-0.47 76.21 76.21 0 0 0 6.43-11.31c3.31-0.51 6.13-2.68 8.86-4.8a34.81 34.81 0 0 1 4.58-3.21c5.47-3 8.12-5.55 12.87-10.75 4.5-4.94 9.33-8 15.2-11.1a21.45 21.45 0 0 0 7.45-6.28c19.57 0.13 37.89 4.71 54 15.34-1.69 1.07-5.3 2.55-10.59 1.22z"/>
 <path class="cls-2" d="m307.66 208.02a26.07 26.07 0 0 1-4-1.93 19 19 0 0 0-6.5-2.59l-5.85-2.87c-9.22-1.59-13-0.39-22.31-3a40.66 40.66 0 0 0-13.31-1.65l-0.23-0.19-0.17 0.2c-3.19 0.15-6.4 0.59-10 1.1l-2.47 0.34c-1 0.13-2.12 0.31-3.39 0.51-7.94 1.26-21.22 3.36-25.83-1.81l-0.26 0.23a45.93 45.93 0 0 0-23.32-6.36c-12.78 0-16.79-3.46-24.08-9.73-1.24-1.07-2.62-2.25-4.14-3.5h2a31.68 31.68 0 0 0 10.31 1.78 18.39 18.39 0 0 0 2-0.1 8 8 0 0 0 4.82-2.32 19 19 0 0 1 1.81-1.4 8.36 8.36 0 0 1 4.69-1.14c0.71 0 1.45-0.06 2.25-0.16 3.47-0.43 5.91-2.37 8.26-4.24 2.2-1.74 4.26-3.39 7.08-3.85 0.7-0.11 1.41-0.16 2.15-0.22a11.61 11.61 0 0 0 5.36-1.3 13.29 13.29 0 0 0 2.44-2.06 9.32 9.32 0 0 1 3-2.29c3.7-1.27 5.34-4.32 7.33-6.86 0.88-1.12 5-1.71 6.11-2.85 8.33-8.57 15-11.61 27.76-8.39 6.5 1.63 9 1.94 11.18 0.35a100.22 100.22 0 0 1 39.53 67 16.78 16.78 0 0 1-2.22-0.7z"/>
 <path class="cls-2" d="m180.84 294.66a9.66 9.66 0 0 1-0.18-1.9 23.38 23.38 0 0 0-0.49-4.38c-0.69-3.36-1.65-4-2.86-4.87a9.2 9.2 0 0 1-2.58-2.5 19.49 19.49 0 0 1-2.61-6l-0.09-0.27c0.87 0.53 1.76 1 2.72 1.52 0.45 0.22 1 0.54 1.7 0.9 2.59 1.41 6.15 3.35 8 3.19a6.18 6.18 0 0 0 3.94-2.25c0.84-0.83 3.55 0.76 4.71 0.55 2.13-0.39 4.6-1 7.8 0.31 1.35 0.55 2.52 1 3.41 1.3 1.67 0.53 3.37 1.24 5 1.93a36.35 36.35 0 0 0 8.47 2.77 32.85 32.85 0 0 0 4.91 0.29 17 17 0 0 1 8.79 1.87c6.27 3.12 7.62 3.38 14.46 2.7 5.13-0.5 11.65-1 16.62-0.18 4.7 0.75 9 2.94 13.19 5.68 0 0.41 0.63 1.84 0.67 2.25a93.79 93.79 0 0 1-63.61 24.69c-2.07 0-4.12-0.08-6.15-0.21a21 21 0 0 0-3.07-2.72 17.9 17.9 0 0 0-4.23-1.92c-1.95-0.7-4-1.42-5.08-2.66-1.56-1.72-1.39-3.64-1.23-5.5a7 7 0 0 0-0.31-3.75c-0.92-1.89-2.93-3.06-5.06-4.3a22.27 22.27 0 0 1-3.58-2.38 12.21 12.21 0 0 1-2.82-3.1c0.07-0.33-0.44-1.06-0.44-1.06z"/>
 <path class="cls-2" d="m156.17 142.86a31.44 31.44 0 0 0 0.41 7.62c0.46 3.33 0.89 6.48-0.38 10.07l-0.13 0.36h-0.12v0.25c-1.68 4.31-5.63 10.4-7.49 13.17-4.24-0.57-6.21-3.72-8.28-7.06a22.89 22.89 0 0 0-4.8-6.06 25 25 0 0 0-3-2 100.64 100.64 0 0 1 25.61-22.61 19.38 19.38 0 0 0-1.82 6.26z"/>
 <path class="cls-2" d="m281.58 291.7c-0.15-2.05-0.25-4.11-0.27-6.21-0.11-11-0.63-14.61-8-20.79-5.67-4.77-12.21-7.14-14.3-14.26-1.15-4-1.18-9-1.21-14.29 0-2.33 0-4.68-0.14-7a29.22 29.22 0 0 1 2.43-6.54c1.24-2.69 3.24-5.49 2.82-8.43-0.35-2.47 0-0.7-1.07-4-0.94-2.91-2.7-4.53-4.79-6.23a40.11 40.11 0 0 1 11.66 1.64c9.34 2.67 18.08-0.82 27.34 0.78l0.93 0.16a17.93 17.93 0 0 1 6.15 2.46 28.11 28.11 0 0 0 4.11 2 19.69 19.69 0 0 0 2.83 0.76 70.66 70.66 0 0 1 0.75 10.25 99.94 99.94 0 0 1-28.62 70.13z"/>
 <path class="cls-2" d="m121.27 251.36c0.87 0.3 1.72 0.59 2.5 0.89a43.46 43.46 0 0 1 9.89 4.81c3.25 2.23 5.79 4.45 7.65 8 2 3.8 3.49 6.26 7.52 8.38l1.2 0.62c4.95 2.57 8.52 4.43 11.11 9.44 1.57 3 4.42 4.29 7.17 5.5a25.44 25.44 0 0 1 4.3 2.23l0.55 0.37 1 0.67c0.43 1.36 1.41 2.65 3.82 4.76a25.2 25.2 0 0 0 4.15 2.77c2.21 1.29 4.3 2.51 5.18 4.3a7 7 0 0 1 0.24 3.59c-0.2 2.19-0.42 4.68 1.65 7 1.43 1.57 3.8 2.42 6.09 3.24a18.85 18.85 0 0 1 4.43 2 22.29 22.29 0 0 1 2.36 2 100.31 100.31 0 0 1-88.42-74.16c2.09 1.68 5 2.69 7.61 3.59z"/>
 <path class="cls-2" d="m137.24 169.86c1.72 2.75 3.49 5.58 6.61 6.9-2.86 0.5-3.78-0.29-6.79 2.27-1.6 1.36-5.06 1.13-6.51 2.67-2.47 2.63-3.06 7.18-6.18 8.81a69.35 69.35 0 0 1-10.3 4.19c3.6-12.76 8-22.29 16-32.44a20.27 20.27 0 0 1 2.67 1.82 22 22 0 0 1 4.5 5.78z"/>
 <path class="cls-2" d="m263.99 265.22 0.66 0.56c6.52 5.48 8.28 7 8.37 16.42 0 1.66 0.08 3.29 0.19 4.9-4.09-2.57-8.35-4.69-12.94-5.43-5.09-0.81-11.69-0.33-16.88 0.18-6.64 0.66-5.22-1.12-11.31-4.16-3.89-2-9.08-0.4-11.83-0.42a30.64 30.64 0 0 1-4.77-0.28 35.87 35.87 0 0 1-8.23-2.7c-1.66-0.7-0.94-2.08-2.66-2.62-0.85-0.27-4.44-0.08-5.78-0.62-3.5-1.41-7.85-3.18-10.26-2.74a6.28 6.28 0 0 0-3.32 2.1 5.24 5.24 0 0 1-3.32 2c-1.51 0.12-5-1.79-7.39-3.06-0.68-0.37-1.28-0.7-1.74-0.93a33.3 33.3 0 0 1-3.64-2.12c0-0.09-0.05-0.18-0.08-0.27l-0.2 0.07a69.89 69.89 0 0 1-7.79-6.45 45.1 45.1 0 0 0-17.41-10.13c4.08-0.56 7.49-2.51 11-4.54a42.26 42.26 0 0 1 9.34-4.39c4-1.17 8.57-1.2 13-1.22 4.68 0 9.52-0.06 13.75-1.46 4.4-1.46 7.71-4.63 10.92-7.7 3.38-3.24 7.57-3.73 12.33-5 3.8-1 8.62-4.19 14.45-4.54 7.24-0.44 14.71-0.9 19.47-2.71 2.72 3.42 3.53 8.27 3.79 13.45v0.06c0.1 2.08 0.12 4.21 0.13 6.32 0 4.86 0.06 9.45 1.13 13.13 1.99 6.71 5.98 10.06 11.02 14.3z"/>
 <path class="cls-2" d="m113.04 245.36a90.38 90.38 0 0 1-2.73-22.09 100.29 100.29 0 0 1 2.43-23.41 71 71 0 0 0 10.69-4c3-1.54 5.31-2.05 7.59-4.48a50.16 50.16 0 0 1 4-4c5.57-4.73 10.65-4.08 16-3.39 1.28 0.16 2.58 0.32 3.9 0.41 1.78 1.43 3.36 0.79 4.75 2 6.52 5.61 10.41 11.34 22.29 11.34 8.62 0 15.33 0.08 22.14 4.18 0.18 0.11 0.36 0.23 0.56 0.33 1.77 1.09 3.56 2.28 5.39 3.58l1.17 0.83c3.81 2.73 7.41 5.3 12.41 6.11a28.38 28.38 0 0 0 5.15 0.23c3.28-0.07 6.14-0.13 8.62 2.41-4.63 1.66-11.84 2.1-18.83 2.52-5.88 0.36-11.44 0.69-15.33 1.72-5 1.32-8.61 4.76-12.09 8.09-3.27 3.13-6.35 6.09-10.54 7.47s-8.84 1.38-13.44 1.41-9.1 0-13.26 1.26a42.67 42.67 0 0 0-9.55 4.49c-4.28 2.47-8.39 4.82-13.77 4.52q-2.33-0.54-4.68-0.87l-0.44-0.13v0.06a80.48 80.48 0 0 0-12.43-0.59z"/>
 <path class="cls-2" d="m63.257 115.62a254.79 254.79 0 0 1-29.38-1.46c-20.23-2.38-30.73-7.45-33.05-15.95-3.65-13.4 15.83-24.66 30.81-32 57-27.8 182-56.65 278.67-64.32 29.89-2.37 55-2.52 72.72-0.43 20.23 2.38 30.73 7.45 33.05 16 3.65 13.39-15.83 24.65-30.81 31.95-57 27.8-182 56.65-278.67 64.32-15.94 1.26-30.51 1.89-43.34 1.89zm247.53-107.71 0.47 6c-95.42 7.56-218.5 35.88-274.36 63.13-24 11.72-24.51 18-24.49 18 0.79 2.92 19 12.62 93.24 6.73 95.42-7.57 218.5-35.89 274.36-63.14 24-11.72 24.51-18 24.49-18-0.8-2.92-19-12.62-93.24-6.72z"/>
 <path class="cls-2" d="m62.827 444.95a254.79 254.79 0 0 1-29.38-1.46c-20.23-2.38-30.73-7.45-33-16-3.65-13.39 15.83-24.65 30.81-31.95 57-27.8 182-56.65 278.67-64.32 29.89-2.37 55-2.52 72.72-0.43 20.23 2.38 30.73 7.45 33 16 3.65 13.39-15.83 24.65-30.81 32-57 27.8-182 56.65-278.67 64.32-15.93 1.21-30.51 1.84-43.34 1.84zm247.53-107.71 0.47 6c-95.42 7.57-218.5 35.89-274.36 63.14-24 11.72-24.51 18-24.49 18 0.79 2.92 18.95 12.62 93.24 6.72 95.42-7.56 218.5-35.88 274.36-63.13 24-11.72 24.51-18 24.49-18-0.8-2.92-19-12.62-93.24-6.73z"/>
 <path class="cls-2" d="m499.56 218.68a245 245 0 0 0 44.69 34.3l-6.67 11a241.9 241.9 0 0 1-57.82-47.43l0.2 46.84h-12.54v-127.42h12.15l0.19 60.76c3.73 4.51 7.45 9 11.18 13.13l26.46-27.83h17z"/>
 <path class="cls-2" d="m587.94 263.37h-12.35v-69h-7.84v-12.34h20.19zm-16.47-107.41a9.41 9.41 0 0 1 9.41-9.4 9.54 9.54 0 0 1 9.41 9.4 9.41 9.41 0 0 1-9.41 9.41 9.29 9.29 0 0 1-9.41-9.41z"/>
 <path class="cls-2" d="m704.44 258.47-11.76 4.7-18.62-47.23c-5.69-14.7-14.11-21.17-26.85-21.17h-5.88v68.6h-12.35v-81.34h18.23c18 0 31.16 9.8 38.61 29.21z"/>
 <path class="cls-2" d="m770.94 251.02v12.35h-10.19c-11.57 0-21.56-9.8-21.56-20.58v-48.41h-17.06v-12.35h17.06v-27.24h12.34v27.24h19.41v12.35h-19.41v46.84c0 5.3 3.34 9.8 9.22 9.8z"/>
 <path class="cls-2" d="m845.81 240.86c0-8.82-12.35-11.17-20.58-13.52-12-3.33-25.48-8.63-25.48-23.91 0-13.72 13.52-23.33 29.2-23.33 15.1 0 24.9 9.8 27.83 22.54h-12.93c-1.37-5.29-6.47-10.78-16.46-10.78-8 0-14.9 4.51-14.9 10.19s3.14 11.18 20.38 15.49c14.11 3.53 25.29 9.21 25.29 23.32 0 14.5-11.37 24.5-28 24.5-16.27 0-27.24-9.8-30.58-24.11h13.53c2.55 8 6.66 12.94 17.83 12.94 10.72-0.03 14.87-7.28 14.87-13.33z"/>
 <path class="cls-2" d="m889.87 182.03h12.35v49.83c0 15.09 11.37 20.77 22.15 20.77 13.13 0 21.56-8.62 21.56-22.73v-47.87h12.34v81.34h-12.34v-9.21c-6.08 8.43-13.33 11.17-23.13 11.17-18.82 0-32.93-10.39-32.93-33.12z"/>
 <path class="cls-2" d="m993.08 223.78c0-24.11 18.23-41.75 39.79-41.75h46.65v12.35h-17.25c6.86 7.06 11.37 18.42 11.37 29.4 0 23.32-17.84 42.53-40.18 42.53-22.54 0-40.38-19.21-40.38-42.53zm89.77 35.08c-16.07 33.91-50.57 52.73-88.2 49l1.57-12c30.77 3.33 62.13-13.13 75.65-42.34zm-77.19-35.08c0 16.46 12.15 30 27.83 30 15.48 0 27.63-13.53 27.63-30 0-15.49-12.74-29.4-27.63-29.4-15.12 0-27.83 11.56-27.83 29.4z"/>
 <path class="cls-2" d="m1130.3 263.37h-12.35v-69h-7.84v-12.34h20.19zm-16.47-107.41a9.41 9.41 0 0 1 9.41-9.4 9.54 9.54 0 0 1 9.41 9.4 9.41 9.41 0 0 1-9.41 9.41 9.29 9.29 0 0 1-9.41-9.41z"/>
</svg>
