<?xml version="1.0" encoding="utf-8"?>
<!-- Generator: Adobe Illustrator 26.0.1, SVG Export Plug-In . SVG Version: 6.00 Build 0)  -->
<svg version="1.1" id="kintsugi" xmlns="http://www.w3.org/2000/svg" xmlns:xlink="http://www.w3.org/1999/xlink" x="0px" y="0px"
	 viewBox="0 0 1132.7 445" style="enable-background:new 0 0 1132.7 445;" xml:space="preserve">
<style type="text/css">
	.st0{fill:url(#SVGID_1_);}
	.st1{fill:#DADADA;}
</style>
<g>
	
		<linearGradient id="SVGID_1_" gradientUnits="userSpaceOnUse" x1="210.7989" y1="123.5046" x2="210.7989" y2="323.9748" gradientTransform="matrix(1 0 0 -1 0 445.7292)">
		<stop  offset="0" style="stop-color:#603211"/>
		<stop  offset="0.17" style="stop-color:#DD7D26"/>
		<stop  offset="0.35" style="stop-color:#603211"/>
		<stop  offset="0.54" style="stop-color:#9C3520"/>
		<stop  offset="0.77" style="stop-color:#DD7D26"/>
		<stop  offset="1" style="stop-color:#603211"/>
	</linearGradient>
	<path class="st0" d="M280.7,150.4c-18.7-18.4-43.9-28.7-70.1-28.6c-0.3,0-0.7,0-1,0c-55.4,0.8-99.6,46.2-98.9,101.6
		c0.7,54.7,45.2,98.7,99.9,98.9h1c55.4-0.5,99.8-45.8,99.3-101.2C310.6,194.4,299.8,169,280.7,150.4L280.7,150.4z"/>
	<path class="st1" d="M253.4,138.3c-11.8-3-21.2-0.5-28.9,7.3c-0.9,1-1.8,2-2.7,3.1c-2,2.5-3.7,4.7-7.6,5.6
		c-5.2,1-10.6,1.3-15.9,0.7c-1.5-0.2-2.8-0.5-3.9-0.8c-4-0.9-6.3-1.5-11.1,3c-1.5,1.5-2.8,3.1-4,4.9c-2.1,2.9-4.1,5.6-7.3,6.9
		c-1.5,0.6-3.1,0.9-4.7,1c-0.1-0.1-0.3-0.1-0.4-0.2l-0.1,0.2c-2.3,0.1-4.6-0.1-6.9-0.5c-1.8-0.3-3.6-0.4-5.4-0.5
		c2.5-3.6,4.6-7.4,6.4-11.3c3.3-0.5,6.1-2.7,8.9-4.8c1.4-1.2,3-2.3,4.6-3.2c5.5-3,8.1-5.5,12.9-10.8c4.5-4.9,9.3-8,15.2-11.1
		c2.9-1.5,5.5-3.6,7.5-6.3c19.6,0.1,37.9,4.7,54,15.3C262.3,138.1,258.7,139.6,253.4,138.3z"/>
	<path class="st1" d="M307.7,208c-1.4-0.5-2.7-1.2-4-1.9c-2-1.3-4.2-2.1-6.5-2.6l-5.8-2.9c-9.2-1.6-13-0.4-22.3-3
		c-4.3-1.3-8.8-1.8-13.3-1.7l-0.2-0.2l-0.2,0.2c-3.2,0.2-6.4,0.6-10,1.1l-2.5,0.3c-1,0.1-2.1,0.3-3.4,0.5
		c-7.9,1.3-21.2,3.4-25.8-1.8l-0.3,0.2c-7.1-4.2-15.1-6.4-23.3-6.4c-12.8,0-16.8-3.5-24.1-9.7c-1.2-1.1-2.6-2.2-4.1-3.5
		c0.7,0,1.3,0,2,0c3.3,1.2,6.8,1.8,10.3,1.8c0.7,0,1.3,0,2-0.1c1.8-0.2,3.5-1,4.8-2.3c0.6-0.5,1.2-1,1.8-1.4c1.4-0.8,3-1.2,4.7-1.1
		c0.7,0,1.5-0.1,2.2-0.2c3.5-0.4,5.9-2.4,8.3-4.2c2.2-1.7,4.3-3.4,7.1-3.8c0.7-0.1,1.4-0.2,2.2-0.2c1.9,0,3.7-0.4,5.4-1.3
		c0.9-0.6,1.7-1.3,2.4-2.1c0.8-1,1.9-1.7,3-2.3l0,0c3.7-1.3,5.3-4.3,7.3-6.9c0.9-1.1,5-1.7,6.1-2.8c8.3-8.6,15-11.6,27.8-8.4
		c6.5,1.6,9,1.9,11.2,0.3c21.7,16.1,35.9,40.3,39.5,67C309.1,208.5,308.4,208.3,307.7,208z"/>
	<path class="st1" d="M180.8,294.7c-0.1-0.6-0.2-1.3-0.2-1.9c0-1.5-0.2-2.9-0.5-4.4c-0.7-3.4-1.7-4-2.9-4.9c-1-0.7-1.9-1.5-2.6-2.5
		c-1.2-1.8-2.1-3.9-2.6-6l-0.1-0.3c0.9,0.5,1.8,1,2.7,1.5c0.5,0.2,1,0.5,1.7,0.9c2.6,1.4,6.2,3.3,8,3.2c1.6-0.2,3-1,3.9-2.2
		c0.8-0.8,3.5,0.8,4.7,0.5c2.1-0.4,4.6-1,7.8,0.3c1.3,0.5,2.5,1,3.4,1.3c1.7,0.5,3.4,1.2,5,1.9c2.7,1.3,5.5,2.2,8.5,2.8
		c1.6,0.2,3.3,0.3,4.9,0.3c3-0.2,6.1,0.5,8.8,1.9c6.3,3.1,7.6,3.4,14.5,2.7c5.1-0.5,11.7-1,16.6-0.2c4.7,0.8,9,2.9,13.2,5.7
		c0,0.4,0.6,1.8,0.7,2.2c-17.4,15.9-40.1,24.7-63.6,24.7c-2.1,0-4.1-0.1-6.2-0.2c-0.9-1-2-1.9-3.1-2.7c-1.3-0.8-2.7-1.5-4.2-1.9
		c-2-0.7-4-1.4-5.1-2.7c-1.6-1.7-1.4-3.6-1.2-5.5c0.2-1.3,0.1-2.6-0.3-3.8c-0.9-1.9-2.9-3.1-5.1-4.3c-1.3-0.7-2.5-1.5-3.6-2.4
		c-1.1-0.9-2.1-1.9-2.8-3.1l0,0C181.3,295.4,180.8,294.7,180.8,294.7z"/>
	<path class="st1" d="M156.2,142.9c-0.2,2.5,0,5.1,0.4,7.6c0.5,3.3,0.9,6.5-0.4,10.1l-0.1,0.4h-0.1v0.2c-1.7,4.3-5.6,10.4-7.5,13.2
		c-4.2-0.6-6.2-3.7-8.3-7.1c-1.2-2.3-2.9-4.3-4.8-6.1c-1-0.7-2-1.4-3-2c7.2-8.9,15.8-16.6,25.6-22.6
		C157,138.6,156.4,140.7,156.2,142.9z"/>
	<path class="st1" d="M281.6,291.7c-0.2-2-0.2-4.1-0.3-6.2c-0.1-11-0.6-14.6-8-20.8l0,0c-5.7-4.8-12.2-7.1-14.3-14.3
		c-1.2-4-1.2-9-1.2-14.3c0-2.3,0-4.7-0.1-7c0.5-2.3,1.4-4.5,2.4-6.5c1.2-2.7,3.2-5.5,2.8-8.4c-0.3-2.5,0-0.7-1.1-4
		c-0.9-2.9-2.7-4.5-4.8-6.2c3.9,0,7.9,0.5,11.7,1.6c9.3,2.7,18.1-0.8,27.3,0.8l0.9,0.2c2.2,0.4,4.3,1.3,6.2,2.5
		c1.3,0.8,2.7,1.4,4.1,2c0.9,0.3,1.9,0.6,2.8,0.8c0.5,3.4,0.7,6.8,0.8,10.2c0,26.2-10.2,51.4-28.6,70.1L281.6,291.7z"/>
	<path class="st1" d="M121.3,251.4c0.9,0.3,1.7,0.6,2.5,0.9c3.5,1.2,6.8,2.8,9.9,4.8c3.2,2.2,5.8,4.5,7.7,8c2,3.8,3.5,6.3,7.5,8.4
		l1.2,0.6c5,2.6,8.5,4.4,11.1,9.4c1.6,3,4.4,4.3,7.2,5.5c1.5,0.6,2.9,1.4,4.3,2.2l0.5,0.4l1,0.7c0.4,1.4,1.4,2.7,3.8,4.8
		c1.3,1.1,2.7,2,4.2,2.8c2.2,1.3,4.3,2.5,5.2,4.3c0.4,1.2,0.5,2.4,0.2,3.6c-0.2,2.2-0.4,4.7,1.7,7c1.4,1.6,3.8,2.4,6.1,3.2
		c1.6,0.5,3,1.1,4.4,2c0.8,0.6,1.6,1.3,2.4,2c-42.2-3.6-77.5-33.3-88.4-74.2C115.7,249.5,118.7,250.5,121.3,251.4z"/>
	<path class="st1" d="M137.2,169.9c1.7,2.8,3.5,5.6,6.6,6.9c-2.9,0.5-3.8-0.3-6.8,2.3c-1.6,1.4-5.1,1.1-6.5,2.7
		c-2.5,2.6-3.1,7.2-6.2,8.8c-3.3,1.7-6.8,3.1-10.3,4.2c3.6-12.8,8-22.3,16-32.4c0.9,0.5,1.8,1.1,2.7,1.8
		C134.5,165.7,136.1,167.7,137.2,169.9z"/>
	<path class="st1" d="M264,265.2l0.7,0.6c6.5,5.5,8.3,7,8.4,16.4c0,1.7,0.1,3.3,0.2,4.9c-4.1-2.6-8.3-4.7-12.9-5.4
		c-5.1-0.8-11.7-0.3-16.9,0.2c-6.6,0.7-5.2-1.1-11.3-4.2c-3.9-2-9.1-0.4-11.8-0.4c-1.6,0-3.2-0.1-4.8-0.3c-2.8-0.6-5.6-1.5-8.2-2.7
		c-1.7-0.7-0.9-2.1-2.7-2.6c-0.8-0.3-4.4-0.1-5.8-0.6c-3.5-1.4-7.8-3.2-10.3-2.7c-1.3,0.3-2.5,1.1-3.3,2.1c-0.8,1.1-2,1.8-3.3,2
		c-1.5,0.1-5-1.8-7.4-3.1c-0.7-0.4-1.3-0.7-1.7-0.9c-1.3-0.6-2.5-1.3-3.6-2.1c0-0.1,0-0.2-0.1-0.3l-0.2,0.1c-2.7-2-5.4-4.1-7.8-6.5
		c-5-4.6-10.9-8.1-17.4-10.1c4.1-0.6,7.5-2.5,11-4.5c2.9-1.8,6.1-3.3,9.3-4.4c4-1.2,8.6-1.2,13-1.2c4.7,0,9.5-0.1,13.8-1.5
		c4.4-1.5,7.7-4.6,10.9-7.7c3.4-3.2,7.6-3.7,12.3-5c3.8-1,8.6-4.2,14.5-4.5c7.2-0.4,14.7-0.9,19.5-2.7c2.7,3.4,3.5,8.3,3.8,13.5
		c0,0,0,0,0,0.1l0,0c0.1,2.1,0.1,4.2,0.1,6.3c0,4.9,0.1,9.5,1.1,13.1C255,257.6,258.9,261,264,265.2z"/>
	<path class="st1" d="M113,245.4c-1.8-7.2-2.7-14.6-2.7-22.1c-0.1-7.9,0.7-15.7,2.4-23.4c3.7-1,7.2-2.4,10.7-4c3-1.5,5.3-2,7.6-4.5
		c1.3-1.4,2.6-2.7,4-4c5.6-4.7,10.7-4.1,16-3.4c1.3,0.2,2.6,0.3,3.9,0.4c1.8,1.4,3.4,0.8,4.8,2c6.5,5.6,10.4,11.3,22.3,11.3
		c8.6,0,15.3,0.1,22.1,4.2c0.2,0.1,0.4,0.2,0.6,0.3c1.8,1.1,3.6,2.3,5.4,3.6l1.2,0.8c3.8,2.7,7.4,5.3,12.4,6.1
		c1.7,0.2,3.4,0.3,5.2,0.2c3.3-0.1,6.1-0.1,8.6,2.4c-4.6,1.7-11.8,2.1-18.8,2.5c-5.9,0.4-11.4,0.7-15.3,1.7c-5,1.3-8.6,4.8-12.1,8.1
		c-3.3,3.1-6.3,6.1-10.5,7.5s-8.8,1.4-13.4,1.4s-9.1,0-13.3,1.3c-3.4,1.1-6.6,2.6-9.5,4.5c-4.3,2.5-8.4,4.8-13.8,4.5
		c-1.6-0.4-3.1-0.7-4.7-0.9l-0.4-0.1v0.1C121.3,245.4,117.2,245.2,113,245.4z"/>
	<path class="st1" d="M63.3,115.6c-9.8,0.1-19.6-0.4-29.4-1.5c-20.2-2.4-30.7-7.5-33-16c-3.7-13.4,15.8-24.7,30.8-32
		c57-27.8,182-56.7,278.7-64.3c29.9-2.4,55-2.5,72.7-0.4c20.2,2.4,30.7,7.5,33.1,16c3.7,13.4-15.8,24.7-30.8,32
		c-57,27.8-182,56.7-278.7,64.3C90.7,115,76.1,115.6,63.3,115.6z M310.8,7.9l0.5,6C215.8,21.5,92.8,49.8,36.9,77
		c-24,11.7-24.5,18-24.5,18c0.8,2.9,19,12.6,93.2,6.7c95.4-7.6,218.5-35.9,274.4-63.1c24-11.7,24.5-18,24.5-18
		c-0.8-2.9-19-12.6-93.2-6.7L310.8,7.9z"/>
	<path class="st1" d="M62.8,445c-9.8,0.1-19.6-0.4-29.4-1.5c-20.2-2.4-30.7-7.5-33-16c-3.7-13.4,15.8-24.7,30.8-32
		c57-27.8,182-56.7,278.7-64.3c29.9-2.4,55-2.5,72.7-0.4c20.2,2.4,30.7,7.5,33,16c3.7,13.4-15.8,24.7-30.8,32
		c-57,27.8-182,56.7-278.7,64.3C90.2,444.3,75.7,445,62.8,445z M310.4,337.2l0.5,6c-95.4,7.6-218.5,35.9-274.4,63.1
		c-24,11.7-24.5,18-24.5,18c0.8,2.9,19,12.6,93.2,6.7c95.4-7.6,218.5-35.9,274.4-63.1c24-11.7,24.5-18,24.5-18
		c-0.8-2.9-19-12.6-93.2-6.7L310.4,337.2z"/>
	<path class="st1" d="M499.6,218.7c13.5,13.1,28.5,24.6,44.7,34.3l-6.7,11c-21.6-12.7-41.1-28.7-57.8-47.4l0.2,46.8h-12.5V136h12.2
		l0.2,60.8c3.7,4.5,7.4,9,11.2,13.1l26.5-27.8h17L499.6,218.7z"/>
	<path class="st1" d="M587.9,263.4h-12.3v-69h-7.8V182h20.2V263.4z M571.5,156c0-5.2,4.2-9.4,9.4-9.4c5.2,0.1,9.3,4.2,9.4,9.4
		c0,5.2-4.2,9.4-9.4,9.4l0,0c-5.1,0.1-9.3-4-9.4-9.2C571.5,156.1,571.5,156,571.5,156z"/>
	<path class="st1" d="M704.4,258.5l-11.8,4.7l-18.6-47.2c-5.7-14.7-14.1-21.2-26.8-21.2h-5.9v68.6H629V182h18.2
		c18,0,31.2,9.8,38.6,29.2L704.4,258.5z"/>
	<path class="st1" d="M770.9,251v12.3h-10.2c-11.6,0-21.6-9.8-21.6-20.6v-48.4h-17.1V182h17.1v-27.2h12.3V182h19.4v12.3h-19.4v46.8
		c0,5.3,3.3,9.8,9.2,9.8H770.9z"/>
	<path class="st1" d="M845.8,240.9c0-8.8-12.3-11.2-20.6-13.5c-12-3.3-25.5-8.6-25.5-23.9c0-13.7,13.5-23.3,29.2-23.3
		c15.1,0,24.9,9.8,27.8,22.5h-12.9c-1.4-5.3-6.5-10.8-16.5-10.8c-8,0-14.9,4.5-14.9,10.2s3.1,11.2,20.4,15.5
		c14.1,3.5,25.3,9.2,25.3,23.3c0,14.5-11.4,24.5-28,24.5c-16.3,0-27.2-9.8-30.6-24.1h13.5c2.6,8,6.7,12.9,17.8,12.9
		C841.7,254.2,845.8,246.9,845.8,240.9z"/>
	<path class="st1" d="M889.9,182h12.3v49.8c0,15.1,11.4,20.8,22.2,20.8c13.1,0,21.6-8.6,21.6-22.7V182h12.3v81.3h-12.3v-9.2
		c-6.1,8.4-13.3,11.2-23.1,11.2c-18.8,0-32.9-10.4-32.9-33.1V182z"/>
	<path class="st1" d="M993.1,223.8c0-24.1,18.2-41.8,39.8-41.8h46.7v12.3h-17.2c6.9,7.1,11.4,18.4,11.4,29.4
		c0,23.3-17.8,42.5-40.2,42.5C1010.9,266.3,993.1,247.1,993.1,223.8z M1082.8,258.9c-16.1,33.9-50.6,52.7-88.2,49l1.6-12
		c30.8,3.3,62.1-13.1,75.6-42.3L1082.8,258.9z M1005.7,223.8c0,16.5,12.2,30,27.8,30c15.5,0,27.6-13.5,27.6-30
		c0-15.5-12.7-29.4-27.6-29.4C1018.4,194.4,1005.7,205.9,1005.7,223.8z"/>
	<path class="st1" d="M1130.3,263.4H1118v-69h-7.8V182h20.2V263.4z M1113.9,156c0-5.2,4.2-9.4,9.4-9.4c5.2,0.1,9.3,4.2,9.4,9.4
		c0,5.2-4.2,9.4-9.4,9.4l0,0c-5.1,0.1-9.3-4-9.4-9.2C1113.9,156.1,1113.9,156,1113.9,156z"/>
</g>
</svg>
