<svg version="1.0" xmlns="http://www.w3.org/2000/svg" width="925.333" height="925.333" viewBox="0 0 694 694"><path d="M6.9 73.5c-5.9 3.2-8 12.1-4.1 17.4 1 1.4 13.2 9.6 26.9 18.1 76.2 47.2 78.7 48.7 84.3 52 1.9 1.1 5.5 3.4 8 5s6.3 3.9 8.5 5.3c2.2 1.3 14 8.5 26.2 16.1l22.2 13.8h238.6c218 0 238.7-.1 241-1.6 3.4-2.2 5.3-5.5 5.9-9.8.7-5.8-2.4-9.3-15.4-17.4-6.3-3.8-32.9-20.2-59-36.3-26.1-16.1-49.1-30.3-51-31.5-1.9-1.3-7.1-4.5-11.4-7.2-4.4-2.7-9.5-5.9-11.5-7.1-2-1.3-4.3-2.6-5.1-3-.8-.4-6.4-3.9-12.5-7.7l-11-7.1-239-.2c-204.9-.2-239.4 0-241.6 1.2zM493 104.9c7.4 4.6 18 11.2 23.5 14.6 5.5 3.4 20.8 12.9 34 21 35 21.5 57.5 35.6 57.5 36 0 .1-94.9.3-211 .3H186l-6-3.9c-3.3-2.1-6.3-3.9-6.6-3.9-.3 0-1.8-.8-3.2-1.9-2.1-1.4-62.3-38.8-77.4-48-1.5-.9-5.3-3.2-8.5-5.2s-10.4-6.4-16.1-9.9c-5.6-3.4-10.4-6.5-10.6-6.8-.2-.4 94.6-.7 210.7-.6h211.2l13.5 8.3zM354.8 226.5c-.2.1-3.4.5-7.3.9-13.1 1.3-20.4 3-32.4 7.7-28 11.1-51.2 32.6-64.7 59.9-3.5 7.2-8 18.9-7.6 19.7.1.2-.5 2.1-1.3 4.3-.8 2.2-1.4 4.3-1.4 4.5 0 .6-1.1 8.8-1.7 12.5-.6 3.9-.6 21 .1 26.5 4.7 38.8 26.6 72.5 60 92.3 10.2 6 25.6 12.1 35.1 13.8 1.5.3 3 .7 3.3.9 1.1.6 14.3 1.8 21.9 2 44.8.9 87.5-24.1 109.5-64.5 6.2-11.2 11.8-28.5 13.5-41 1.3-9.9.7-32-1.1-40.6-4.9-23.6-15.6-44-31.9-61-19.4-20.2-43.4-32.5-72-36.9-3.8-.6-21.5-1.4-22-1zM344.5 267v13.5h18l.2-7c.1-3.9.2-10.1.2-13.8l.1-6.8 8.7.3 8.8.3v27l2.5.3c10.1 1 18.8 4.1 26 9.3 5.6 4.1 6.5 5.1 9.6 11.6 2.1 4.4 2.5 6.5 2.3 12.5-.5 14.8-7.6 24.1-22.4 29.3-1.6.5-1.1 1 3 2.4 9.8 3.5 16 8.2 20.7 15.7 7.5 11.8 7.2 29.7-.6 39.8-6.7 8.8-21 14.6-38.3 15.5-2.3.1-2.3.3-2.3 13 0 9.4-.3 13-1.2 13.3-.7.2-4.7.4-8.8.4l-7.5-.1-.5-13.5-.5-13.5-7.5.2c-4.1.1-8.1.2-8.7.2-1 .1-1.3 3.4-1.3 13 0 9.4-.3 13-1.2 13.3-.7.2-4.7.4-8.8.4l-7.5-.1-.3-13.3c-.2-9.5-.6-13.2-1.5-13.2-.7-.1-7.6-.1-15.3 0l-14.1.1v-5.9l.1-6 7.5-.1c6.8-.1 7.8-.4 9.9-2.7 1.2-1.4 2.2-3.7 2.3-5.2.5-20.1-.4-94-1.2-95.4-1.4-2.6-4.8-3.7-12-4-3.3-.1-6.3-.6-6.6-1.2-.7-1.1-.8-14.5-.1-15.2.3-.2 7.3-.5 15.7-.6H327V253.1l8.7.2 8.8.2V267z"/><path d="M344.4 318.1c.1 19.7.2 21.5 1.9 22.1 3 1.3 22.8.1 28.5-1.7 6.1-1.8 12.8-7.4 14.9-12.2 4-9.7-.8-21.1-11.2-26.6-3.4-1.8-6.1-2.2-19.1-2.5l-15-.4v21.3zM344.9 356.9c0 3 0 26.3.1 39.4v8.8l14.8-.2c11.6-.1 15.9-.5 20.1-2 11.1-3.9 16.1-10.1 16.9-21 .9-12.7-4.6-21.1-16.3-25-6-2-6-2-21.2-2.3l-14.3-.3-.1 2.6zM42 493c-2.5.3-5.5 1.1-6.7 1.8-3 1.6-5.3 6.3-5.3 10.4 0 7.3-4 4.6 86 59.9 23.2 14.2 30.8 18.9 37.3 23 13.3 8.4 50.6 31.3 52.9 32.5 2.3 1.2 38.8 1.4 240.2 1.4 158 0 238.4-.3 240.1-1 6.1-2.3 8.9-10.1 6-16.4-1.8-3.8 4.9.5-95-61.1-31.9-19.7-62.5-38.6-68-42-5.5-3.4-11.1-6.8-12.4-7.5-1.9-1-49.5-1.3-236.5-1.4-128.8 0-236.1.1-238.6.4zm474.4 29.3c4.4 2.7 9.2 5.7 10.8 6.6 1.5.9 23.4 14.4 48.7 30.1 25.3 15.7 48.7 30.1 51.9 32 3.2 1.9 6.8 4.2 8 5.1 2 1.5-15.1 1.6-209 1.6H215.6l-23.1-14.2c-24.4-15-76.5-47.2-95.2-58.8-6.2-3.8-11.3-7.1-11.3-7.2 0-.1 95-.3 211.2-.3l211.2.1 8 5z"/></svg>