<svg viewBox="0 0 122 37" fill="none" xmlns="http://www.w3.org/2000/svg"><path d="m14.475 18.213-.318-.324a.384.384 0 0 0-.658.272v4.59c0 .213.178.383.385.383h4.603c.34 0 .517-.413.273-.656a.39.39 0 0 1 0-.545l4.892-4.892a.39.39 0 0 0 0-.545l-.444-.442a.385.385 0 0 1 .274-.655h4.596c.214 0 .384.169.384.383v4.59a.386.386 0 0 1-.658.272l-.31-.31a.38.38 0 0 0-.547 0l-8.253 8.222a.394.394 0 0 1-.547 0L8.054 18.486a.384.384 0 0 1 0-.546L22.026 4.01a.39.39 0 0 0 0-.546L18.738.186a.393.393 0 0 0-.547 0L.111 18.227a.39.39 0 0 0 0 .546l18.088 18.033a.393.393 0 0 0 .547 0l18.088-18.033a.39.39 0 0 0 0-.546L26.194 7.62a.393.393 0 0 0-.547 0L15.022 18.213a.394.394 0 0 1-.547 0Zm83.494 4.56c-.465 0-.872.17-1.204.5-.333.34-.502.73-.502 1.187 0 .7.354 1.245 1.063 1.628.776.213 1.397.073 1.862-.405a1.65 1.65 0 0 0 .503-1.216c0-.479-.17-.877-.503-1.2a1.699 1.699 0 0 0-1.219-.494ZM70.483 9.807h-1.279a.992.992 0 0 0-.997.995v.707c-1.36-1.407-2.89-2.107-4.61-2.107-1.981 0-3.636.737-4.951 2.203-1.323 1.466-1.98 3.3-1.98 5.495 0 2.24.657 4.104 1.972 5.606 1.33 1.466 3.015 2.203 5.047 2.203 1.61 0 3.118-.655 4.514-1.96v1.4a1.24 1.24 0 0 0 1.234 1.238h2.18V10.949a1.132 1.132 0 0 0-1.13-1.142Zm-3.222 10.77c-.776.862-1.795 1.297-3.052 1.297-1.182 0-2.157-.45-2.933-1.34-.754-.885-1.138-2.034-1.138-3.434 0-1.311.392-2.423 1.168-3.315.783-.884 1.766-1.326 2.933-1.326 1.241 0 2.246.435 3.022 1.312.776.89 1.168 2.025 1.168 3.403-.008 1.378-.4 2.512-1.168 3.403Zm-10.596-8.295v-1.45c0-.568-.458-1.025-1.027-1.025h-1.344c-.57 0-1.027.457-1.027 1.024v.634c-1.227-1.378-2.771-2.07-4.626-2.07-2.113 0-3.82.795-5.106 2.38-1.197 1.495-1.795 3.314-1.795 5.45 0 2.203.643 4.037 1.936 5.496 1.278 1.451 2.918 2.166 4.928 2.166 1.759 0 3.318-.685 4.67-2.063v2.048c0 3.043-1.241 4.568-3.732 4.568-1.352 0-2.379-.457-3.08-1.37a3.003 3.003 0 0 1-.451-.87 1.201 1.201 0 0 0-1.138-.803h-1.286a1 1 0 0 0-.968 1.245c.355 1.334 1.035 2.416 2.047 3.256 1.27 1.054 2.889 1.584 4.847 1.584 2.328 0 4.153-.766 5.483-2.29.701-.797 1.174-1.747 1.418-2.852.081-.398.148-.87.192-1.392.045-.523.067-1.135.067-1.827v-2.13c-.953-1.37-1.434-2.997-1.434-4.905-.007-1.857.473-3.455 1.426-4.803Zm-4.307 8.178c-.754.942-1.781 1.414-3.081 1.414s-2.32-.464-3.052-1.4c-.672-.854-1.012-1.945-1.012-3.285 0-1.356.34-2.46 1.012-3.315.746-.95 1.766-1.43 3.051-1.43 1.212 0 2.202.435 2.978 1.312.769.854 1.153 1.996 1.153 3.418-.007 1.333-.355 2.431-1.05 3.286Zm32.57-10.638v-.015h-7.05V5.505c0-.552-.45-1.002-1.004-1.002H75.5a1.02 1.02 0 0 0-1.02 1.017v4.287h-1.448v3.16h1.448v12.605h1.936c.805 0 1.456-.648 1.463-1.451V12.975h3.487a7.275 7.275 0 0 1 1.005-1.451 6.198 6.198 0 0 1 2.557-1.702Zm17.349-5.319c-.606 0-1.123.214-1.552.648-.428.435-.65.943-.65 1.54 0 .626.214 1.15.65 1.584.436.435.961.648 1.574.648.613 0 1.131-.213 1.552-.648.436-.435.65-.95.65-1.57a2.06 2.06 0 0 0-.65-1.546 2.125 2.125 0 0 0-1.574-.656Zm.687 6.97h-1.234a1.14 1.14 0 0 0-1.145 1.141v10.763a1.6 1.6 0 0 1 .384 1.075c0 .413-.125.781-.384 1.083v.604h2.187c.672 0 1.212-.545 1.212-1.208v-12.45c0-.56-.458-1.009-1.02-1.009Zm15.982 2.076c-1.529-1.495-3.399-2.246-5.593-2.246-2.187 0-4.042.744-5.564 2.232-1.522 1.488-2.283 3.285-2.283 5.407 0 2.247.746 4.118 2.239 5.606 1.492 1.503 3.34 2.262 5.541 2.262 2.225 0 4.109-.737 5.638-2.218 1.515-1.488 2.283-3.33 2.283-5.532 0-2.18-.753-4.015-2.261-5.51Zm-2.408 8.951c-.791.855-1.855 1.275-3.185 1.275-1.323 0-2.387-.428-3.192-1.297-.783-.855-1.182-2.018-1.182-3.477 0-1.363.406-2.483 1.212-3.345.805-.862 1.854-1.296 3.155-1.296 1.315 0 2.379.434 3.184 1.296.798.855 1.197 1.997 1.197 3.419.008 1.429-.391 2.563-1.189 3.425Z" fill="#DE5959"/><path d="M86.191 21.904c-.702-.708-1.093-1.673-1.182-2.874h9.746a.818.818 0 0 0 .82-.795c0-2.424-.628-4.317-1.87-5.68-1.263-1.378-2.977-2.063-5.142-2.063-2.143 0-3.864.707-5.165 2.122-1.293 1.436-1.935 3.315-1.935 5.636 0 2.342.665 4.22 1.995 5.635.93.987 2.068 1.62 3.413 1.915a7.272 7.272 0 0 0 1.744.192c2.424.052 4.53.103 6.946.147v-.353a1.654 1.654 0 0 1-.444-1.157c0-.442.155-.818.458-1.142v-.427c-1.913-.044-6.539-.096-6.724-.096-1.071 0-1.965-.353-2.66-1.06Zm-.472-6.778c.214-.332.465-.611.76-.847.296-.236.629-.42.99-.545a3.56 3.56 0 0 1 1.168-.192c1.81 0 2.956.906 3.428 2.711h-6.834c.118-.42.28-.796.488-1.127Z" fill="#DE5959"/></svg>