<svg version="1.1" id="图层_1" xmlns="http://www.w3.org/2000/svg" x="0" y="0" viewBox="0 0 1800 638" style="enable-background:new 0 0 1800 638" xml:space="preserve"><style>.st0{fill:#de5959}</style><path class="st0" d="m275.7 315.1-4.3-4.4c-3.3-3.3-8.9-1-8.9 3.7v62.3c0 2.9 2.4 5.2 5.2 5.2H330c4.6 0 7-5.6 3.7-8.9-2-2-2-5.3 0-7.4l66.2-66.4c2-2 2-5.3 0-7.4l-6-6c-3.3-3.3-.9-8.9 3.7-8.9h62.2c2.9 0 5.2 2.3 5.2 5.2v62.3c0 4.6-5.6 7-8.9 3.7l-4.2-4.2c-2.1-2.1-5.3-2.1-7.4 0L332.8 455.5c-2 2-5.3 2-7.4 0L188.8 318.8c-2-2-2.1-5.3 0-7.4l189.1-189.1c2-2 2-5.4 0-7.4l-44.5-44.5c-2-2-5.3-2-7.4 0L81.3 315.3c-2 2-2 5.4 0 7.4l244.8 244.8c2 2 5.4 2 7.4 0l244.8-244.8c2-2 2-5.3 0-7.4l-144-144c-2-2-5.3-2-7.4 0L283.1 315.1c-2 2-5.3 2-7.4 0zm1130 61.9c-6.3 0-11.8 2.3-16.3 6.8-4.5 4.6-6.8 9.9-6.8 16.1 0 9.5 4.8 16.9 14.4 22.1 10.5 2.9 18.9 1 25.2-5.5 4.6-4.6 6.8-10.1 6.8-16.5 0-6.5-2.3-11.9-6.8-16.3-4.6-4.4-10-6.7-16.5-6.7zm-372-176h-17.3c-7.5 0-13.5 6-13.5 13.5v9.6c-18.4-19.1-39.1-28.6-62.4-28.6-26.8 0-49.2 10-67 29.9-17.9 19.9-26.8 44.8-26.8 74.6 0 30.4 8.9 55.7 26.7 76.1 18 19.9 40.8 29.9 68.3 29.9 21.8 0 42.2-8.9 61.1-26.6v19c0 9.2 7.5 16.8 16.7 16.8h29.5V216.5c.1-8.5-6.8-15.5-15.3-15.5zm-43.6 146.2c-10.5 11.7-24.3 17.6-41.3 17.6-16 0-29.2-6.1-39.7-18.2-10.2-12-15.4-27.6-15.4-46.6 0-17.8 5.3-32.9 15.8-45 10.6-12 23.9-18 39.7-18 16.8 0 30.4 5.9 40.9 17.8 10.5 12.1 15.8 27.5 15.8 46.2-.1 18.7-5.4 34.1-15.8 46.2zM846.7 234.6v-19.7c0-7.7-6.2-13.9-13.9-13.9h-18.2c-7.7 0-13.9 6.2-13.9 13.9v8.6c-16.6-18.7-37.5-28.1-62.6-28.1-28.6 0-51.7 10.8-69.1 32.3-16.2 20.3-24.3 45-24.3 74 0 29.9 8.7 54.8 26.2 74.6 17.3 19.7 39.5 29.4 66.7 29.4 23.8 0 44.9-9.3 63.2-28v27.8c0 41.3-16.8 62-50.5 62-18.3 0-32.2-6.2-41.7-18.6-2.4-3.1-4.5-7.1-6.1-11.8-2.3-6.6-8.5-10.9-15.4-10.9h-17.4c-8.8 0-15.3 8.4-13.1 16.9 4.8 18.1 14 32.8 27.7 44.2 17.2 14.3 39.1 21.5 65.6 21.5 31.5 0 56.2-10.4 74.2-31.1 9.5-10.8 15.9-23.7 19.2-38.7 1.1-5.4 2-11.8 2.6-18.9.6-7.1.9-15.4.9-24.8v-28.9c-12.9-18.6-19.4-40.7-19.4-66.6-.1-25.2 6.4-46.9 19.3-65.2zm-58.3 111c-10.2 12.8-24.1 19.2-41.7 19.2s-31.4-6.3-41.3-19c-9.1-11.6-13.7-26.4-13.7-44.6 0-18.4 4.6-33.4 13.7-45 10.1-12.9 23.9-19.4 41.3-19.4 16.4 0 29.8 5.9 40.3 17.8 10.4 11.6 15.6 27.1 15.6 46.4-.1 18.1-4.8 33-14.2 44.6zm440.8-144.4v-.2h-95.4v-58.4c0-7.5-6.1-13.6-13.6-13.6h-18.6c-7.6 0-13.8 6.2-13.8 13.8V201h-19.6v42.9h19.6V415h26.2c10.9 0 19.7-8.8 19.8-19.7V244h47.2c3.7-7.1 8.3-13.7 13.6-19.7 9.7-10.7 21.3-18.4 34.6-23.1zM1464 129c-8.2 0-15.2 2.9-21 8.8-5.8 5.9-8.8 12.8-8.8 20.9 0 8.5 2.9 15.6 8.8 21.5s13 8.8 21.3 8.8 15.3-2.9 21-8.8c5.9-5.9 8.8-12.9 8.8-21.3 0-8.3-2.9-15.3-8.8-21-5.9-6-13-8.9-21.3-8.9zm9.3 94.6h-16.7c-8.6 0-15.5 6.9-15.5 15.5v146.1c3.5 4.1 5.2 9 5.2 14.6s-1.7 10.6-5.2 14.7v8.2h29.6c9.1 0 16.4-7.4 16.4-16.4v-169c0-7.6-6.2-13.7-13.8-13.7zm216.3 28.2c-20.7-20.3-46-30.5-75.7-30.5-29.6 0-54.7 10.1-75.3 30.3-20.6 20.2-30.9 44.6-30.9 73.4 0 30.5 10.1 55.9 30.3 76.1 20.2 20.4 45.2 30.7 75 30.7 30.1 0 55.6-10 76.3-30.1 20.5-20.2 30.9-45.2 30.9-75.1 0-29.6-10.2-54.5-30.6-74.8zM1657 373.3c-10.7 11.6-25.1 17.3-43.1 17.3-17.9 0-32.3-5.8-43.2-17.6-10.6-11.6-16-27.4-16-47.2 0-18.5 5.5-33.7 16.4-45.4 10.9-11.7 25.1-17.6 42.7-17.6 17.8 0 32.2 5.9 43.1 17.6 10.8 11.6 16.2 27.1 16.2 46.4.1 19.4-5.3 34.8-16.1 46.5z"/><path class="st0" d="M1246.3 365.2c-9.5-9.6-14.8-22.7-16-39h131.9c6 0 11-4.8 11.1-10.8 0-32.9-8.5-58.6-25.3-77.1-17.1-18.7-40.3-28-69.6-28-29 0-52.3 9.6-69.9 28.8-17.5 19.5-26.2 45-26.2 76.5 0 31.8 9 57.3 27 76.5 12.6 13.4 28 22 46.2 26 7.7 1.8 15.6 2.7 23.6 2.6 32.8.7 61.3 1.4 94 2v-4.8c-4-4.4-6-9.6-6-15.7 0-6 2.1-11.1 6.2-15.5v-5.8c-25.9-.6-88.5-1.3-91-1.3-14.5 0-26.6-4.8-36-14.4zm-6.4-92c2.9-4.5 6.3-8.3 10.3-11.5 4-3.2 8.5-5.7 13.4-7.4 4.9-1.7 10.2-2.6 15.8-2.6 24.5 0 40 12.3 46.4 36.8h-92.5c1.6-5.7 3.8-10.8 6.6-15.3z"/></svg>