<svg viewBox="0 0 122 20" fill="none" xmlns="http://www.w3.org/2000/svg"><path d="M11.392.028a11.56 11.56 0 0 1 6.164 1.292c2.808 1.441 5.046 4.026 6.083 7.078a12.91 12.91 0 0 1 .712 4.216v5.319c0 .212 0 .445-.04.657-.123.53-.489 1.017-.977 1.25a1.74 1.74 0 0 1-1.078.127c-.773-.148-1.384-.911-1.384-1.737V13.27c.02-.466.02-.975-.223-1.377-.387-.763-1.363-1.123-2.116-.805-.651.233-1.119.932-1.14 1.652v5.022c0 .318.021.636-.08.933a1.785 1.785 0 0 1-1.2 1.229c-.754.212-1.608-.128-1.974-.848-.265-.424-.244-.953-.224-1.44v-5.002c-.02-.847-.692-1.61-1.485-1.716a1.721 1.721 0 0 0-1.465.488 1.848 1.848 0 0 0-.529 1.313v4.853c0 .402.04.826-.101 1.207-.224.7-.896 1.208-1.608 1.187-.732.042-1.444-.487-1.668-1.187-.122-.36-.102-.72-.102-1.101v-5.022c0-.827-.63-1.59-1.403-1.738-.712-.148-1.485.212-1.851.89a2.005 2.005 0 0 0-.224.911v5.446c0 .53-.224 1.06-.61 1.398-.59.53-1.547.573-2.157.085C.264 19.331 0 18.78 0 18.21v-5.51c0-2.076.509-4.153 1.465-5.996a12.477 12.477 0 0 1 3.133-3.9A11.417 11.417 0 0 1 11.392.029ZM58.935 6.406H56.29c.102-1.928.489-3.666 2.177-4.768C60.156.558 62.007.303 63.94.473c1.037.085 2.075.318 3.03.784 1.69.805 2.523 2.182 2.523 4.11v10.235c0 1.25.245 1.483 1.445 1.356.122-.021.264-.042.386-.063.02.063.02.127.02.17v2.076c-.956.339-1.932.445-2.888.17-.712-.213-1.16-.742-1.404-1.442-.122-.36-.203-.741-.305-1.144-.102.127-.183.233-.285.34-2.095 2.203-4.577 3.135-7.507 2.351-2.075-.55-3.499-2.521-3.56-4.768-.02-.72.041-1.44.204-2.14.386-1.61 1.485-2.585 2.868-3.242.977-.466 2.035-.593 3.093-.741 1.24-.17 2.461-.318 3.702-.509.834-.127 1.261-.593 1.383-1.462.265-1.759-.488-2.924-2.115-3.348a6.694 6.694 0 0 0-2.97-.106c-1.465.276-2.279 1.145-2.564 2.649.02.212-.02.424-.06.657Zm7.792 3.39c-1.22.678-2.4.848-3.601 1.039-.997.169-2.014.317-2.99.635-1.282.445-1.872 1.547-1.75 3.03.102 1.23.895 2.225 2.177 2.437 1.973.339 3.722-.233 5.106-1.759.407-.445.732-1.08.814-1.674.183-1.186.162-2.394.244-3.708Zm37.696 3.56c-.061.297-.101.55-.163.784-1.139 3.623-3.458 5.17-6.265 5.51-4.862.55-7.65-2.755-8.362-6.273-.57-2.797-.488-5.573.692-8.2 1.12-2.48 2.91-4.11 5.574-4.598 3.194-.593 7.71 1.06 8.463 6.25.204 1.336.244 2.713.366 4.111H92.36c.101 1.907.386 3.687 1.729 5.065.549.572 1.261.847 2.034.995 2.502.467 4.577-.784 5.391-3.305.081-.276.204-.36.468-.339h2.441ZM92.461 8.482h9.257c-.102-1.123-.285-2.16-.794-3.136-.488-.932-1.2-1.61-2.177-1.949-3.194-1.144-6.49 1.504-6.286 5.085Zm18.615 10.553h-2.808V.855h2.665v2.542c.204-.233.326-.381.448-.53C113.293.6 115.694.007 118.42.706c1.891.487 2.949 1.886 3.316 3.835.142.805.244 1.632.244 2.437.02 3.899.02 7.798.02 11.696 0 .106-.02.212-.02.34h-2.869v-.488c0-3.644.021-7.289-.02-10.934 0-.805-.122-1.631-.346-2.415-.366-1.271-1.343-1.95-2.624-2.013-2.34-.085-4.191 1.208-4.761 3.369-.203.784-.264 1.61-.264 2.437-.02 3.2-.02 6.378-.02 9.535v.53ZM74.071.855h2.705v7.712c.163-.17.265-.254.367-.36 2.217-2.352 4.434-4.725 6.652-7.077a.77.77 0 0 1 .65-.297c1.038.021 2.096 0 3.236 0-.163.17-.245.276-.346.381-1.953 2.035-3.886 4.09-5.86 6.103-.223.233-.223.381-.08.636 2.135 3.538 4.251 7.077 6.367 10.616.081.127.142.254.244.445-.142.02-.244.02-.366.02h-2.91c-.264 0-.386-.105-.528-.317-1.628-2.84-3.255-5.679-4.883-8.54-.081-.127-.142-.254-.244-.402-.752.784-1.485 1.526-2.217 2.31-.102.106-.122.296-.122.445v6.484h-1.567c-.366 0-.874.105-1.078-.106-.183-.17-.081-.72-.081-1.102V1.342c.06-.106.06-.276.06-.488ZM42.843.832C40.646 3.1 38.51 5.325 36.353 7.55a3421.4 3421.4 0 0 1 6.877 11.485c-.183 0-.305.02-.427.02h-2.828c-.264 0-.427-.105-.57-.338-1.627-2.84-3.255-5.679-4.882-8.54-.061-.127-.143-.232-.244-.402-.407.445-.773.932-1.22 1.271-.916.72-1.18 1.61-1.12 2.797.102 1.547.02 3.115.02 4.662v.509h-2.685V.854h2.686V8.44c.06.042.122.085.162.127.082-.127.123-.275.204-.381 2.197-2.352 4.414-4.683 6.611-7.056.204-.212.387-.318.692-.297.916.021 1.831 0 2.747 0h.467Zm5.371 3.03C49.577 1.787 51.022.05 53.707.558v3.114c-.712.043-1.424.022-2.096.17-1.647.36-2.929 1.928-3.194 3.835-.04.382-.08.763-.08 1.144V19.056h-2.768V.896h2.645v2.967Z" fill="#5741D9"/></svg>