<svg viewBox="0 0 117 22" xmlns="http://www.w3.org/2000/svg"><g fill="#F8E19A" fill-rule="nonzero"><path d="M11 0C4.9 0 0 4.9 0 11s4.9 11 11 11 11-4.9 11-11c-.1-6.1-5-11-11-11Zm1 12.8c.3.3.5.6.5 1.1 0 .8-.7 1.5-1.5 1.5-.4 0-.8-.2-1.1-.5-.5-.4-1.1-.7-1.9-.7-.8 0-1.4.3-1.9.7L6 15c-.3.2-.6.4-1 .4s-.7-.1-1-.4l-.2-.2v-.1l-.1-.1c0-.1-.1-.2-.1-.3 0-.1-.1-.3-.1-.4 0-.2 0-.3.1-.4 0-.1.1-.2.1-.3 0 0 0-.1.1-.1V13c.2 0 .2 0 .2-.1l.1-.1c.4-.5.7-1.1.7-1.8s-.2-1.3-.7-1.8c-.2-.3-.4-.7-.4-1.2 0-.8.7-1.5 1.5-1.5s1.4.7 1.4 1.5c0 .4-.2.8-.5 1.1-.4.5-.7 1.2-.7 1.9s.3 1.4.7 1.9l.1.1c.5.4 1.1.7 1.8.7s1.3-.2 1.8-.7c0-.1.1-.1.2-.2.4-.5.7-1.1.7-1.8s-.2-1.3-.7-1.8c-.3-.3-.5-.7-.5-1.2 0-.8.7-1.5 1.5-1.5s1.5.7 1.5 1.5c0 .4-.2.8-.5 1.1-.4.5-.7 1.1-.7 1.9 0 .7.2 1.3.7 1.8Zm1.9-.4c-.8 0-1.5-.7-1.5-1.5s.7-1.5 1.5-1.5 1.5.7 1.5 1.5c0 .9-.7 1.5-1.5 1.5Zm3.9.4c.1.1.1.1 0 0 .1.2.2.2.2.2v.1l.1.1c0 .1.1.2.1.3 0 .1.1.3.1.4 0 .2 0 .3-.1.4 0 .1-.1.2-.1.3 0 0 0 .1-.1.1v.1l-.2.2c-.3.2-.6.4-1 .4s-.7-.1-1-.4l-.2-.2v-.1l-.1-.1c0-.1-.1-.2-.1-.3 0-.1-.1-.3-.1-.4 0-.2 0-.3.1-.4 0-.1.1-.2.1-.3 0 0 0-.1.1-.1V13l.1-.1.1-.1c.4-.5.7-1.1.7-1.8s-.2-1.3-.7-1.8c-.3-.3-.5-.7-.5-1.1 0-.8.7-1.5 1.5-1.5s1.5.7 1.5 1.5c0 .4-.2.8-.5 1.1-.4.5-.7 1.1-.7 1.9 0 .6.3 1.2.7 1.7ZM31.5 19.2V2.7h4.2v13.2h7.4v3.3zM116.4 19.2l-8.2-8.2 8.2-8.2h-6L105.2 8V2.7H101v16.5h4.2V14l5.2 5.2zM68.5 16l-1 3.2h-4.4l5.7-16.5h5.6l5.7 16.5h-4.4l-1-3.2-1-3.1L71.6 6l-2.2 6.9zM86.9 8.4v10.8h-4V2.7h5.2L94.3 14V2.7h4v16.5h-5.2zM60 12.8c-.2-.5-.5-.9-.8-1.3-.3-.3-.7-.6-1.2-.8-.4-.2-.9-.3-1.3-.4.4-.1.8-.2 1.2-.4.4-.2.7-.4 1-.7.3-.3.5-.6.6-1.1.2-.4.2-.9.2-1.4 0-.5-.1-1-.2-1.5-.2-.5-.4-.9-.9-1.3-.4-.4-.9-.7-1.6-.9-.7-.2-1.5-.3-2.5-.3h-8.7v16.5H55.1c1.7 0 2.9-.4 3.8-1.2.9-.8 1.3-1.9 1.3-3.3.1-.7 0-1.3-.2-1.9Zm-9.9-7.4h4.4c.4 0 .7.1 1 .2.3.1.5.2.7.4.2.2.3.4.4.6.1.2.1.4.1.7 0 .5-.2 1-.5 1.3-.3.4-.9.5-1.7.5h-4.4V5.4Zm6.6 10.3c-.3.4-.9.5-1.7.5h-4.9v-3.7H55c.4 0 .7.1 1 .2.3.1.5.2.7.4.2.2.3.4.4.6.1.2.1.4.1.7 0 .5-.1 1-.5 1.3Z"/></g></svg>