<svg viewBox="0 0 167 21" fill="none" xmlns="http://www.w3.org/2000/svg"><path d="m32.668 14.401-7.18-12.454c-1.574-2.596-5.412-2.623-6.931.11L11.018 15.01c-1.408 2.375.332 5.357 3.148 5.357h15.105c2.844 0 4.97-3.065 3.397-5.965Z" fill="#00B897"/><path d="m22.312 15.368-.441-.773c-.415-.718-1.326-2.264-1.326-2.264L14.47 1.782c-1.574-2.347-5.302-2.54-6.876.414L.524 14.43c-1.463 2.568.277 5.91 3.453 5.937h25.239c-3.894.028-5.136-1.988-6.904-4.998Z" fill="#76FCB2"/><path d="m22.312 15.368-.441-.773c-.415-.718-1.326-2.264-1.326-2.264l-3.921-6.904-5.633 9.61c-1.409 2.374.331 5.357 3.148 5.357h15.077c-3.921-.028-5.136-2.016-6.904-5.026Z" fill="url(#a)"/><path d="M165.813 19.4c-1.022 0-1.823-.221-2.43-.608-.636-.414-.967-1.022-.967-1.85V4.902h1.602c.58 0 1.077.47 1.077 1.077v10.604c0 .028 0 .525.414.939.248.248.552.387.966.387h.304c.111 0 .221.11.221.22v1.298l-1.187-.027ZM131.295 19.399c-1.657 0-3.01-.442-4.032-1.326-.524-.442-.883-.939-1.104-1.49-.221-.553-.332-1.354-.332-2.43 0-1.05.111-1.879.332-2.431.193-.525.552-.994 1.077-1.436 1.021-.884 2.374-1.325 4.031-1.325 1.657 0 3.01.441 4.032 1.325.525.442.884.939 1.077 1.436.221.58.331 1.38.331 2.43 0 1.077-.11 1.878-.331 2.43-.221.552-.58 1.05-1.105 1.491-.966.884-2.319 1.326-3.976 1.326Zm0-8.92c-1.823 0-2.734 1.243-2.734 3.7 0 2.486.911 3.729 2.734 3.729 1.822 0 2.734-1.243 2.734-3.7 0-2.486-.939-3.729-2.734-3.729ZM142.727 19.4c-1.436 0-2.761-.387-3.893-1.133-.111-.11-.332-.248-.608-.414a.233.233 0 0 1-.11-.193V4.902h1.629c.58 0 1.077.497 1.077 1.077v3.728l.497-.276c.58-.304 1.353-.442 2.347-.442 1.74 0 3.065.525 3.949 1.546.773.912 1.16 2.127 1.16 3.618s-.442 2.706-1.326 3.59c-1.022 1.104-2.623 1.657-4.722 1.657Zm.276-8.92c-.607 0-1.298.221-2.071.69l-.11.056v5.992l.11.083c.608.387 1.326.58 2.071.58.994 0 1.768-.414 2.292-1.243.442-.663.691-1.519.691-2.485 0-2.43-1.022-3.673-2.983-3.673ZM155.154 19.371c-3.038 0-4.943-1.988-4.943-5.219 0-3.203 1.877-5.191 4.887-5.191 1.16 0 2.154.303 2.955.883l.166.11v-.8h2.126c.138 0 .221.11.221.22v9.804h-2.375v-.884l-.166.138c-.662.608-1.712.94-2.871.94Zm.552-8.643c-1.906 0-3.038 1.463-3.038 3.424 0 1.96 1.132 3.48 3.038 3.48.607 0 1.657-.056 2.485-.884l.028-.028v-5.026l-.028-.027c-.58-.663-1.436-.94-2.485-.94Z" fill="#00B897"/><path d="M57.04 19.261V4.874h11.957v.911c0 .718-.58 1.298-1.297 1.298h-7.677v3.866h7.676v2.21h-7.676v3.865h7.676c.718 0 1.298.58 1.298 1.298v.912l-11.957.027ZM86.173 4.874h-2.816c-.525 0-.994.221-1.326.635l-3.396 4.28-3.397-4.252a1.661 1.661 0 0 0-1.325-.635h-2.817l5.716 7.18-5.716 7.18h2.817c.524 0 .994-.222 1.325-.636l3.397-4.253 3.424 4.28c.331.387.8.636 1.325.636h2.817l-5.716-7.18 5.688-7.235ZM47.68 17.744l3.92-6.849v8.34h2.983V4.848h-1.85c-.58 0-1.133.303-1.409.828l-4.694 8.56-4.695-8.56a1.582 1.582 0 0 0-1.408-.828h-1.85v14.387h2.982v-8.34l3.922 6.849h2.098ZM93.96 19.427c-4.142.055-7.51-3.203-7.538-7.345 0-2.265.69-4.143 1.988-5.44 1.298-1.27 3.176-1.961 5.413-1.961 2.623 0 4.694.911 6.185 2.679l-.939.8a1.66 1.66 0 0 1-2.07.056c-.83-.636-1.879-.94-3.066-.94-2.927 0-4.667 1.768-4.667 4.75 0 3.01 1.795 4.86 4.667 4.86 1.215 0 2.237-.33 3.065-.938.608-.47 1.464-.442 2.071.055l.939.8c-1.491 1.74-3.48 2.624-6.047 2.624Z" fill="#fff"/><path d="M112.324 19.427c-4.639 0-7.511-2.817-7.511-7.345 0-4.53 2.872-7.346 7.456-7.346 2.209 0 4.059.635 5.495 1.933l-.69.773a1.613 1.613 0 0 1-1.906.359c-.856-.441-1.85-.662-2.899-.662-2.983 0-4.833 1.905-4.833 4.97 0 3.093 1.933 4.998 5.026 4.998 1.491 0 2.651-.276 3.507-.883l.055-.028v-2.955h-3.286v-.966c0-.718.58-1.298 1.298-1.298h4.059c.111 0 .221.11.221.221v6.379c-1.408 1.215-3.424 1.85-5.992 1.85ZM123.646 19.4c-1.022 0-1.823-.221-2.43-.608-.635-.414-.967-1.022-.967-1.85V4.902h1.602c.58 0 1.077.47 1.077 1.077v10.604c0 .028 0 .525.414.939.249.248.552.387.966.387h.304c.111 0 .221.11.221.22v1.298l-1.187-.027Z" fill="#00B897"/><defs><linearGradient id="a" x1="-13.433" y1="7.145" x2="12.39" y2="69.606" gradientUnits="userSpaceOnUse"><stop stop-color="#53E57A" stop-opacity="0"/><stop offset="1" stop-color="#00A977"/></linearGradient></defs></svg>