<svg viewBox="0 0 148 18" fill="none" xmlns="http://www.w3.org/2000/svg"><path d="M28.79 12.71 22.463 1.72c-1.388-2.291-4.77-2.316-6.109.097L9.71 13.247c-1.24 2.096.292 4.729 2.775 4.729h13.312c2.506 0 4.38-2.706 2.993-5.265Z" fill="#00B897"/><path d="m19.664 13.564-.39-.682c-.365-.634-1.168-1.999-1.168-1.999l-5.354-9.31C11.365-.5 8.08-.67 6.692 1.938L.463 12.736c-1.29 2.266.244 5.215 3.043 5.24h22.243c-3.431.024-4.527-1.755-6.084-4.412Z" fill="#76FCB2"/><path d="m19.664 13.564-.39-.682c-.365-.634-1.168-1.999-1.168-1.999L14.651 4.79l-4.965 8.482C8.445 15.368 9.978 18 12.46 18h13.288c-3.456-.024-4.527-1.779-6.084-4.436Z" fill="url(#a)"/><path d="M146.13 17.123c-.9 0-1.606-.195-2.141-.536-.561-.366-.852-.902-.852-1.633V4.327h1.411c.512 0 .95.414.95.95v9.36c0 .024 0 .463.364.828.219.22.487.342.852.342h.268c.098 0 .194.097.194.195v1.145l-1.046-.024ZM115.71 17.122c-1.461 0-2.653-.39-3.554-1.17a3.331 3.331 0 0 1-.973-1.316c-.194-.487-.292-1.194-.292-2.145 0-.926.098-1.657.292-2.145.17-.463.487-.877.95-1.267.899-.78 2.092-1.17 3.552-1.17s2.653.39 3.553 1.17c.463.39.78.829.95 1.267.194.512.291 1.219.291 2.145 0 .95-.097 1.658-.291 2.145a3.324 3.324 0 0 1-.974 1.316c-.852.78-2.044 1.17-3.504 1.17Zm0-7.873c-1.607 0-2.41 1.097-2.41 3.266 0 2.194.803 3.29 2.41 3.29 1.605 0 2.409-1.096 2.409-3.265 0-2.194-.827-3.29-2.409-3.29ZM125.785 17.123c-1.266 0-2.434-.341-3.431-1-.098-.097-.293-.219-.536-.365a.207.207 0 0 1-.097-.17V4.326h1.436c.511 0 .949.439.949.95v3.29l.438-.243c.511-.268 1.192-.39 2.068-.39 1.534 0 2.701.463 3.481 1.365.681.804 1.022 1.877 1.022 3.193s-.39 2.388-1.169 3.168c-.9.975-2.311 1.463-4.161 1.463Zm.243-7.873c-.535 0-1.144.195-1.825.61l-.097.048v5.29l.097.072a3.383 3.383 0 0 0 1.825.512c.876 0 1.558-.365 2.02-1.097.389-.585.609-1.34.609-2.193 0-2.145-.901-3.242-2.629-3.242ZM136.737 17.098c-2.678 0-4.357-1.755-4.357-4.607 0-2.827 1.655-4.582 4.307-4.582 1.023 0 1.899.268 2.604.78l.147.097V8.08h1.873c.122 0 .195.097.195.195v8.652h-2.093v-.78l-.146.122c-.584.536-1.509.829-2.53.829Zm.486-7.63c-1.68 0-2.677 1.293-2.677 3.023 0 1.73.997 3.071 2.677 3.071.535 0 1.46-.049 2.19-.78l.025-.024v-4.436l-.025-.024c-.511-.585-1.265-.83-2.19-.83Z" fill="#00B897"/><path d="M50.27 17V4.303h10.537v.804c0 .634-.511 1.146-1.144 1.146h-6.765v3.412h6.765v1.95h-6.765v3.412h6.765c.633 0 1.144.512 1.144 1.146v.804l-10.538.025ZM75.944 4.302h-2.482c-.463 0-.876.195-1.168.56L69.3 8.642l-2.994-3.754a1.463 1.463 0 0 0-1.168-.56h-2.482l5.037 6.337L62.657 17h2.482c.462 0 .876-.195 1.168-.561l2.993-3.754 3.018 3.778c.292.342.706.56 1.168.56h2.483l-5.038-6.336 5.013-6.386ZM42.02 15.66l3.455-6.044v7.361h2.629V4.28h-1.631c-.511 0-.998.268-1.241.73l-4.137 7.557-4.137-7.556a1.394 1.394 0 0 0-1.242-.731h-1.63v12.698h2.628v-7.36l3.456 6.044h1.85ZM82.807 17.147c-3.65.049-6.62-2.827-6.644-6.483 0-1.999.609-3.656 1.752-4.802 1.144-1.121 2.8-1.73 4.77-1.73 2.312 0 4.138.804 5.452 2.364l-.828.707a1.461 1.461 0 0 1-1.825.048c-.73-.56-1.655-.828-2.701-.828-2.58 0-4.113 1.56-4.113 4.192 0 2.656 1.582 4.29 4.113 4.29 1.07 0 1.971-.293 2.701-.83.535-.414 1.29-.39 1.825.05l.828.706c-1.314 1.536-3.067 2.316-5.33 2.316Z" fill="#000"/><path d="M98.99 17.147c-4.088 0-6.619-2.486-6.619-6.483 0-3.998 2.531-6.484 6.571-6.484 1.947 0 3.577.561 4.843 1.707l-.608.682a1.42 1.42 0 0 1-1.68.317c-.754-.39-1.63-.585-2.555-.585-2.629 0-4.26 1.682-4.26 4.387 0 2.73 1.704 4.412 4.43 4.412 1.314 0 2.337-.244 3.091-.78l.048-.025v-2.608h-2.895v-.853c0-.633.51-1.145 1.143-1.145h3.578c.097 0 .194.097.194.195v5.63c-1.24 1.072-3.017 1.633-5.28 1.633ZM108.969 17.123c-.901 0-1.607-.195-2.142-.536-.559-.366-.852-.902-.852-1.633V4.327h1.412a.95.95 0 0 1 .949.95v9.36c0 .024 0 .463.365.828.219.22.486.342.851.342h.268a.21.21 0 0 1 .195.195v1.145l-1.046-.024Z" fill="#00B897"/><defs><linearGradient id="a" x1="-11.839" y1="6.306" x2="10.978" y2="61.412" gradientUnits="userSpaceOnUse"><stop stop-color="#53E57A" stop-opacity="0"/><stop offset="1" stop-color="#00A977"/></linearGradient></defs></svg>