<svg viewBox="0 0 119 35" fill="none" xmlns="http://www.w3.org/2000/svg"><path d="M14.12.3c.694-.4 1.545-.4 2.238 0l13 7.578a2.247 2.247 0 0 1 1.118 1.955v15.159a2.264 2.264 0 0 1-1.09 1.957l-13.015 7.575a2.204 2.204 0 0 1-2.238 0L1.117 26.95A2.263 2.263 0 0 1 0 24.992V9.832a2.247 2.247 0 0 1 1.105-1.954L14.12.3Zm-3.917 7.712-5.585 3.28a.54.54 0 0 0-.264.464v12.099c0 .216.113.417.298.525l10.224 5.986a.78.78 0 0 0 .799 0l5.267-3.07a.207.207 0 0 0 0-.356l-10.296-6.011a.268.268 0 0 1-.129-.245V8.194a.21.21 0 0 0-.104-.185.205.205 0 0 0-.21.003ZM37.006 22.271l6.744-8.981h-6.414v-2.406h9.726v2.403l-6.641 8.984h6.744v2.4H37.006v-2.4ZM58.449 23.38a3.638 3.638 0 0 1-.68.454c-.314.162-.64.3-.977.413a8.073 8.073 0 0 1-2.65.423 7.234 7.234 0 0 1-2.325-.346c-1.309-.418-2.347-1.378-2.822-2.608a5.669 5.669 0 0 1-.378-2.13 5.415 5.415 0 0 1 .427-2.221 4.465 4.465 0 0 1 1.168-1.59 5.002 5.002 0 0 1 1.735-.954 7.126 7.126 0 0 1 2.156-.308 6.892 6.892 0 0 1 1.591.194c.546.125 1.06.35 1.514.664.475.33.861.763 1.127 1.262.314.623.464 1.31.436 2a8.579 8.579 0 0 1-.202 1.79h-7.312c0 .363.096.72.277 1.04.163.278.391.516.667.695.292.185.616.319.957.395.374.083.756.124 1.14.12a6.285 6.285 0 0 0 2.002-.268c.462-.147.892-.37 1.273-.658l.876 1.633ZM54.06 16.5a3.49 3.49 0 0 0-.996.14 2.82 2.82 0 0 0-.84.4 2.24 2.24 0 0 0-.622.658c-.165.27-.262.572-.283.883h4.997a1.849 1.849 0 0 0-.598-1.557 2.078 2.078 0 0 0-1.658-.524ZM60.226 14.802h3.54l.302 1.3h.081a4.008 4.008 0 0 1 1.336-1.113 4.3 4.3 0 0 1 2.085-.475 4.82 4.82 0 0 1 1.404.2c.424.121.81.345 1.122.651.341.35.594.772.74 1.234.197.623.288 1.273.272 1.924v6.148h-2.63v-5.607c0-.804-.185-1.383-.554-1.737a1.973 1.973 0 0 0-1.411-.532 2.365 2.365 0 0 0-1.365.424c-.39.255-.684.626-.84 1.057v6.395h-2.627v-7.698h-1.455v-2.171ZM73.287 10.159h4.28v9.39c0 1.043.128 1.768.381 2.176.27.415.742.648 1.232.61.346.008.692-.037 1.025-.134.28-.093.55-.22.802-.375l.987 1.828c-.229.15-.455.29-.683.417-.232.131-.475.24-.726.326-.272.093-.551.16-.835.202a6.38 6.38 0 0 1-1.015.072c-1.262 0-2.206-.326-2.834-.978-.645-.651-.944-1.573-.944-2.766v-8.533h-1.67v-2.235ZM84.896 22.437h3.391v-5.69h-3.39v-2.235h5.884v7.925h3.548v2.234h-9.433v-2.234ZM95.78 14.802h3.538l.305 1.3h.081a3.977 3.977 0 0 1 1.336-1.113 4.27 4.27 0 0 1 2.082-.475c.476-.003.951.064 1.407.2.424.122.81.346 1.122.651.339.352.592.774.739 1.234.197.623.289 1.273.273 1.924v6.148h-2.63v-5.607c0-.803-.186-1.383-.558-1.737a1.948 1.948 0 0 0-1.404-.532 2.359 2.359 0 0 0-1.365.424c-.39.254-.685.625-.84 1.057v6.395h-2.63v-7.698H95.78v-2.17ZM107.39 10.884h4.238v7.858h.599l3.279-3.918h3.061l-4.039 4.49 2.613 3.191H119v2.166h-3.234l-3.433-4.08h-.705v4.08h-2.6V13.05h-1.638v-2.166Z" fill="#F9F9F9"/><path d="M88.887 13.06a1.814 1.814 0 1 0 0-3.627 1.814 1.814 0 0 0 0 3.628Z" fill="#CC2E79"/></svg>