<svg xmlns="http://www.w3.org/2000/svg" width="15" height="15" viewBox="0 0 15 15">
  <path id="Icon_awesome-exclamation-circle" data-name="Icon awesome-exclamation-circle" d="M15.563,8.063a7.5,7.5,0,1,1-7.5-7.5A7.5,7.5,0,0,1,15.563,8.063Zm-7.5,1.512a1.391,1.391,0,1,0,1.391,1.391A1.391,1.391,0,0,0,8.063,9.575Zm-1.321-5,.224,4.113a.363.363,0,0,0,.362.343H8.8a.363.363,0,0,0,.362-.343l.224-4.113a.363.363,0,0,0-.362-.383H7.1A.363.363,0,0,0,6.742,4.574Z" transform="translate(-0.563 -0.563)" fill="currentColor"/>
</svg>
