<svg xmlns="http://www.w3.org/2000/svg" viewBox="0 0 512 512"><path d="M512 256.8l-67.2-54.224 43.2-74.96-91.2-7.968-8-87.728L312 68.608 259.2 0l-49.6 70.176-80-41.472-4.8 90.928-89.6 4.784 33.6 86.128L0 252.016l70.4 52.64-35.2 74.96 88 9.568 4.8 89.328 81.6-38.288L264 512l48-71.776 75.2 36.688 6.4-89.328 88-1.6-32-73.376L512 256.8z" fill="#e04f5f"/><g fill="#fff"><path d="M152.992 324.512l-31.584-90.24 23.824-8.336 30.32 26.512c8.688 7.632 17.968 17.008 25.568 25.776l.4-.144c-5.52-11.456-10.192-23.504-14.912-37.008l-9.232-26.384 18.736-6.544 31.584 90.24-21.424 7.504-31.456-28.064c-8.736-7.76-18.704-17.36-26.832-26.368l-.336.272c4.704 11.728 9.424 24.352 14.56 39.072l9.52 27.184-18.736 6.528zM250.816 260.832c3.632 8.208 13.312 9.312 22.848 5.984 6.96-2.432 12.256-5.36 17.12-9.008l7.504 12.848c-5.744 5.024-13.456 9.232-22.288 12.336-22.224 7.776-39.44-.624-46.624-21.104-5.792-16.592-1.904-38.544 20.848-46.512 21.152-7.408 34.96 6.256 40.624 22.448 1.216 3.472 1.904 6.704 2.16 8.272l-42.192 14.736zm19.088-22.304c-1.728-4.96-6.784-12.496-16.16-9.216-8.56 3.008-9.328 11.968-7.936 17.664l24.096-8.448zM305.376 197.712l14.576 24.944c3.728 6.352 7.616 13.12 11.296 20.256l.272-.096c-1.28-7.968-2.048-16.128-2.672-23.104l-2.464-29.344 16.08-5.632 15.68 23.808c4.32 6.752 8.64 13.52 12.608 20.528l.256-.096c-1.664-7.808-2.912-15.664-4.064-23.664l-3.472-27.952 19.968-6.992 2.816 72.496-19.136 6.704-14.224-20.88c-3.856-5.856-7.136-11.328-11.264-18.896l-.288.096c1.664 8.576 2.416 15.072 2.848 21.84l1.488 25.328-19.136 6.704-41.904-58.832 20.736-7.216z"/></g></svg>