<svg viewBox="0 0 14 17" fill="none" xmlns="http://www.w3.org/2000/svg">
<path d="M11.2137 4.476L12.3034 3.38625L13.3639 4.44675L12.2742 5.5365C13.351 6.88438 13.8709 8.59341 13.727 10.3126C13.5831 12.0318 12.7864 13.6306 11.5005 14.7808C10.2147 15.9309 8.53719 16.5451 6.81266 16.4971C5.08812 16.4491 3.44742 15.7425 2.22752 14.5226C1.00762 13.3027 0.301113 11.662 0.253105 9.93751C0.205097 8.21298 0.81923 6.53551 1.96938 5.24963C3.11952 3.96375 4.71837 3.16706 6.43757 3.02319C8.15676 2.87931 9.86579 3.39917 11.2137 4.476ZM7.00017 15C7.68961 15 8.3723 14.8642 9.00925 14.6004C9.64621 14.3365 10.225 13.9498 10.7125 13.4623C11.2 12.9748 11.5867 12.396 11.8505 11.7591C12.1144 11.1221 12.2502 10.4394 12.2502 9.75C12.2502 9.06056 12.1144 8.37787 11.8505 7.74091C11.5867 7.10395 11.2 6.5252 10.7125 6.03769C10.225 5.55018 9.64621 5.16347 9.00925 4.89963C8.3723 4.63579 7.68961 4.5 7.00017 4.5C5.60778 4.5 4.27242 5.05312 3.28786 6.03769C2.30329 7.02225 1.75017 8.35761 1.75017 9.75C1.75017 11.1424 2.30329 12.4777 3.28786 13.4623C4.27242 14.4469 5.60778 15 7.00017 15ZM6.25017 6H7.75017V10.5H6.25017V6ZM4.00017 0.75H10.0002V2.25H4.00017V0.75Z" fill="currentColor"/>
</svg>
