<svg viewBox="0 0 22 19" fill="none" xmlns="http://www.w3.org/2000/svg">
<path d="M11.8661 0.499956L21.3921 17C21.4799 17.152 21.5261 17.3244 21.5261 17.5C21.5261 17.6755 21.4799 17.8479 21.3921 17.9999C21.3043 18.152 21.1781 18.2782 21.0261 18.366C20.8741 18.4537 20.7016 18.5 20.5261 18.5H1.4741C1.29856 18.5 1.12612 18.4537 0.974105 18.366C0.822089 18.2782 0.695855 18.152 0.608089 17.9999C0.520324 17.8479 0.47412 17.6755 0.474121 17.5C0.474122 17.3244 0.520329 17.152 0.608096 17L10.1341 0.499956C10.2219 0.347949 10.3481 0.221722 10.5001 0.133962C10.6521 0.0462015 10.8246 0 11.0001 0C11.1756 0 11.3481 0.0462015 11.5001 0.133962C11.6521 0.221722 11.7783 0.347949 11.8661 0.499956ZM3.2061 16.5H18.7941L11.0001 2.99996L3.2061 16.5ZM10.0001 13.5H12.0001V15.5H10.0001V13.5ZM10.0001 6.49996H12.0001V11.5H10.0001V6.49996Z" fill="currentColor"/>
</svg>
