<?xml version="1.0" standalone="no"?>
<!DOCTYPE svg PUBLIC "-//W3C//DTD SVG 20010904//EN"
 "http://www.w3.org/TR/2001/REC-SVG-20010904/DTD/svg10.dtd">
<svg version="1.0" xmlns="http://www.w3.org/2000/svg"
 width="1263.000000pt" height="1263.000000pt" viewBox="0 0 1263.000000 1263.000000"
 preserveAspectRatio="xMidYMid meet">
<metadata>
Created by potrace 1.14, written by Peter Selinger 2001-2017
</metadata>
<g transform="translate(0.000000,1263.000000) scale(0.100000,-0.100000)"
fill="#000000" stroke="none">
<path d="M6107 12534 c-1 -1 -65 -5 -142 -9 -77 -4 -156 -8 -175 -10 -140 -12
-188 -16 -210 -20 -14 -2 -50 -7 -80 -10 -30 -3 -62 -8 -70 -10 -8 -2 -40 -7
-70 -10 -30 -3 -91 -13 -135 -20 -44 -8 -91 -16 -105 -19 -14 -2 -90 -18 -170
-35 -808 -173 -1594 -515 -2265 -985 -178 -124 -370 -271 -475 -363 -14 -12
-36 -31 -50 -43 -112 -96 -178 -158 -336 -315 -373 -372 -646 -716 -927 -1170
-219 -354 -445 -836 -577 -1235 -95 -286 -194 -672 -215 -832 -2 -15 -6 -35
-9 -45 -3 -10 -7 -34 -10 -53 -3 -19 -12 -78 -20 -130 -8 -52 -17 -120 -20
-150 -9 -75 -16 -138 -21 -185 -27 -233 -27 -904 0 -1132 1 -16 6 -59 10 -98
3 -38 8 -81 10 -95 2 -14 7 -50 10 -80 3 -30 8 -64 10 -75 3 -11 7 -36 9 -55
6 -38 33 -190 41 -230 3 -14 7 -36 10 -50 68 -366 228 -862 411 -1277 62 -140
203 -418 253 -499 17 -28 31 -56 31 -63 0 -6 5 -11 10 -11 6 0 10 -5 10 -10 0
-6 41 -75 91 -155 290 -464 639 -885 1050 -1270 609 -570 1348 -1024 2138
-1311 108 -40 375 -128 421 -139 8 -2 86 -22 174 -45 87 -23 168 -43 180 -46
11 -2 77 -15 146 -29 69 -13 141 -27 160 -30 19 -3 42 -8 50 -10 8 -2 42 -7
75 -11 33 -3 62 -8 65 -9 3 -2 34 -6 70 -10 36 -4 74 -9 85 -11 10 -2 51 -6
90 -10 38 -3 81 -7 95 -10 157 -26 1011 -25 1171 1 13 2 56 6 94 10 39 3 99
10 135 15 36 5 88 12 115 16 28 3 59 8 70 10 10 2 37 6 60 9 67 10 348 65 380
75 17 5 41 11 55 14 23 4 153 37 280 72 199 55 607 203 786 285 36 16 67 29
70 29 17 0 440 219 569 295 158 93 356 220 465 298 36 26 74 53 85 61 497 359
986 845 1356 1346 162 219 350 513 461 720 84 157 238 471 238 486 0 2 9 23
20 47 28 61 123 307 158 412 68 201 162 533 177 625 3 19 10 49 14 65 5 17 12
46 15 65 3 19 8 46 11 60 18 89 52 296 60 370 3 30 8 62 10 70 2 8 7 49 10 90
3 41 8 91 10 110 13 124 19 302 19 550 0 284 -9 476 -29 630 -2 19 -7 62 -10
95 -3 33 -7 71 -10 85 -2 14 -7 45 -10 70 -10 71 -24 159 -30 180 -2 8 -7 35
-10 60 -4 25 -13 77 -22 115 -8 39 -16 79 -19 90 -11 57 -77 319 -96 380 -25
86 -116 364 -125 385 -3 8 -7 17 -7 20 -4 17 -68 175 -118 295 -184 434 -427
858 -718 1250 -101 137 -274 352 -319 397 -14 14 -48 52 -76 84 -72 83 -345
356 -450 449 -50 44 -92 82 -95 85 -3 3 -32 28 -65 55 -33 28 -62 52 -65 55
-12 13 -193 153 -281 218 -179 132 -505 340 -694 442 -73 40 -393 200 -399
200 -2 0 -37 16 -78 34 -161 76 -504 202 -743 274 -165 50 -509 134 -635 156
-14 2 -52 9 -85 15 -71 12 -105 18 -165 26 -25 3 -56 8 -70 10 -14 2 -50 7
-80 10 -30 3 -66 8 -80 10 -14 2 -56 7 -95 10 -38 3 -86 7 -105 9 -114 14
-722 30 -733 20z m593 -297 c25 -3 90 -8 145 -12 55 -4 108 -9 117 -10 9 -2
48 -7 85 -10 37 -4 75 -9 83 -10 36 -6 125 -20 200 -30 25 -3 61 -10 80 -15
19 -5 53 -11 75 -15 22 -3 47 -7 55 -10 8 -2 26 -6 40 -9 108 -20 230 -50 430
-105 115 -31 446 -145 572 -196 422 -173 776 -361 1133 -603 118 -79 358 -254
375 -272 3 -3 30 -25 60 -50 251 -204 558 -502 752 -730 26 -30 59 -68 73 -85
35 -40 215 -271 245 -315 14 -19 28 -39 33 -45 4 -5 32 -44 60 -85 281 -403
558 -957 715 -1425 66 -195 139 -452 167 -585 50 -236 85 -439 100 -565 16
-142 26 -250 33 -345 9 -137 9 -667 -1 -795 -17 -224 -23 -287 -42 -410 -7
-49 -16 -112 -20 -139 -3 -27 -8 -52 -10 -56 -2 -3 -6 -26 -10 -50 -15 -112
-62 -314 -130 -564 -74 -276 -218 -650 -368 -955 -722 -1475 -2047 -2607
-3619 -3092 -131 -40 -269 -79 -338 -94 -8 -2 -73 -17 -145 -33 -71 -17 -148
-33 -170 -36 -22 -4 -47 -8 -55 -11 -8 -2 -33 -6 -55 -10 -22 -3 -69 -10 -105
-16 -162 -25 -175 -27 -350 -44 -210 -21 -343 -27 -615 -26 -137 1 -275 3
-305 5 -30 2 -100 7 -155 11 -55 3 -111 8 -125 10 -14 2 -56 7 -95 10 -38 4
-77 8 -86 10 -9 2 -40 6 -70 10 -30 3 -61 8 -69 10 -8 2 -35 7 -60 10 -25 3
-124 22 -220 41 -1063 210 -2037 697 -2854 1429 -123 110 -367 354 -456 454
-36 41 -70 79 -75 85 -6 6 -51 61 -101 121 -592 721 -996 1550 -1198 2455 -33
149 -73 371 -81 455 -3 22 -7 51 -9 65 -5 23 -12 84 -21 185 -4 37 -10 119
-20 255 -5 64 -5 554 0 620 2 25 6 90 10 145 3 55 8 114 10 130 2 17 6 50 9
75 14 118 39 298 50 355 4 23 16 88 23 125 2 14 10 53 18 86 8 34 16 73 19 86
34 188 210 738 303 948 13 30 30 69 37 85 180 418 417 821 709 1205 60 80 124
161 141 180 17 20 51 60 76 90 87 106 126 147 325 345 275 276 489 458 788
669 144 102 401 266 418 266 5 0 9 4 9 9 0 5 12 14 28 20 15 6 59 29 97 52
121 69 444 225 605 292 280 116 520 196 815 272 145 37 203 50 350 81 29 6
125 23 160 28 70 10 121 19 140 22 11 3 43 7 70 10 28 3 61 7 75 9 14 2 59 6
100 10 41 4 86 9 100 11 14 2 88 7 165 10 77 3 141 8 143 9 5 4 555 -3 612 -8z"/>
<path d="M2925 9056 c-63 -27 -88 -119 -48 -174 15 -21 419 -283 533 -345 14
-7 129 -78 255 -157 127 -79 286 -178 355 -220 69 -42 236 -145 373 -229 l247
-153 2379 0 c2582 0 2411 -4 2455 55 29 39 27 109 -5 143 -19 20 -155 109
-304 197 -11 7 -38 23 -60 37 -22 14 -49 30 -60 37 -11 6 -222 137 -469 290
-247 153 -501 310 -565 350 -64 39 -154 95 -201 125 l-85 53 -2385 2 c-1967 2
-2390 0 -2415 -11z m4870 -325 c83 -52 166 -103 186 -115 109 -64 926 -571
937 -581 11 -10 -440 -12 -2097 -13 l-2111 0 -238 147 c-130 81 -415 257 -632
391 -217 133 -400 248 -407 254 -9 8 557 11 2100 11 l2112 -1 150 -93z"/>
<path d="M6375 7523 c-269 -25 -491 -109 -680 -260 -75 -60 -167 -155 -219
-225 -25 -35 -50 -69 -56 -75 -6 -7 -32 -57 -59 -110 -62 -125 -102 -248 -117
-358 -3 -27 -8 -59 -10 -70 -7 -31 -6 -215 1 -260 47 -316 152 -530 366 -744
144 -144 389 -278 574 -316 223 -45 413 -40 614 16 420 117 764 478 857 899
24 106 31 181 28 305 -1 77 -5 151 -8 165 -4 14 -9 39 -12 55 -37 208 -155
433 -316 601 -200 208 -466 341 -743 370 -63 7 -180 10 -220 7z m-81 -391 c0
-70 1 -132 4 -139 2 -8 32 -12 92 -12 l88 0 -2 140 -1 140 90 -3 90 -3 1 -130
c1 -71 2 -133 3 -137 0 -5 17 -8 36 -8 82 0 233 -68 296 -133 86 -89 92 -264
13 -378 -30 -44 -101 -94 -145 -104 -29 -6 -41 -25 -16 -25 24 0 119 -50 158
-83 86 -74 124 -163 124 -288 -1 -72 -5 -93 -28 -142 -61 -123 -208 -196 -419
-206 -15 -1 -18 -16 -20 -133 l-3 -133 -78 0 c-43 0 -83 2 -88 5 -4 3 -10 64
-11 135 l-3 130 -65 -1 c-123 -3 -109 14 -112 -136 l-3 -133 -87 0 -88 0 0
135 0 135 -155 -3 -155 -3 1 59 1 59 69 1 c74 1 103 11 119 42 7 13 10 182 10
497 0 527 1 517 -62 527 -18 3 -55 8 -81 10 -27 2 -50 6 -52 8 -6 6 -9 148 -3
153 3 3 72 6 154 8 l149 2 2 90 c0 50 1 111 2 136 l1 47 88 0 87 1 -1 -127z"/>
<path d="M6295 6610 c1 -172 4 -213 16 -221 18 -12 212 -4 269 11 62 16 135
67 160 112 37 67 20 173 -40 235 -11 13 -40 33 -63 45 -37 20 -60 23 -193 26
l-151 4 2 -212z"/>
<path d="M6303 6236 c-7 -11 -7 -485 -1 -492 3 -2 63 -4 134 -4 222 -1 329 45
374 165 17 45 14 149 -6 190 -25 54 -97 111 -162 131 -66 19 -329 27 -339 10z"/>
<path d="M3270 4860 c-77 -10 -120 -53 -120 -121 0 -57 25 -85 147 -160 65
-40 210 -130 323 -199 113 -70 329 -204 480 -297 151 -93 380 -235 508 -314
127 -79 253 -156 280 -171 l47 -27 2381 -1 c1805 0 2386 3 2405 12 58 27 83
101 54 161 -15 32 -108 92 -858 556 -463 285 -859 529 -880 541 l-38 23 -2342
1 c-1288 0 -2362 -1 -2387 -4z m5174 -557 c281 -173 541 -335 578 -359 37 -24
70 -44 72 -44 6 0 136 -81 136 -85 0 -1 -953 -2 -2117 -1 l-2118 1 -620 385
c-341 212 -631 393 -644 402 -22 15 112 16 2089 16 l2113 0 511 -315z"/>
</g>
</svg>
