<?xml version="1.0" standalone="no"?>
<!DOCTYPE svg PUBLIC "-//W3C//DTD SVG 20010904//EN"
 "http://www.w3.org/TR/2001/REC-SVG-20010904/DTD/svg10.dtd">
<svg version="1.0" xmlns="http://www.w3.org/2000/svg"
 width="694.000000pt" height="694.000000pt" viewBox="0 0 694.000000 694.000000"
 preserveAspectRatio="xMidYMid meet">
<metadata>
Created by potrace 1.14, written by Peter Selinger 2001-2017
</metadata>
<g transform="translate(0.000000,694.000000) scale(0.100000,-0.100000)"
fill="#000000" stroke="none">
<path d="M69 6205 c-59 -32 -80 -121 -41 -174 10 -14 132 -96 269 -181 762
-472 787 -487 843 -520 19 -11 55 -34 80 -50 25 -16 63 -39 85 -53 22 -13 140
-85 262 -161 l222 -138 2386 0 c2180 0 2387 1 2410 16 34 22 53 55 59 98 7 58
-24 93 -154 174 -63 38 -329 202 -590 363 -261 161 -491 303 -510 315 -19 13
-71 45 -114 72 -44 27 -95 59 -115 71 -20 13 -43 26 -51 30 -8 4 -64 39 -125
77 l-110 71 -2390 2 c-2049 2 -2394 0 -2416 -12z m4861 -314 c74 -46 180 -112
235 -146 55 -34 208 -129 340 -210 350 -215 575 -356 575 -360 0 -1 -949 -3
-2110 -3 l-2110 0 -60 39 c-33 21 -63 39 -66 39 -3 0 -18 8 -32 19 -21 14
-623 388 -774 480 -15 9 -53 32 -85 52 -32 20 -104 64 -161 99 -56 34 -104 65
-106 68 -2 4 946 7 2107 6 l2112 0 135 -83z"/>
<path d="M3548 4675 c-2 -1 -34 -5 -73 -9 -131 -13 -204 -30 -324 -77 -280
-111 -512 -326 -647 -599 -35 -72 -80 -189 -76 -197 1 -2 -5 -21 -13 -43 -8
-22 -14 -43 -14 -45 0 -6 -11 -88 -17 -125 -6 -39 -6 -210 1 -265 47 -388 266
-725 600 -923 102 -60 256 -121 351 -138 15 -3 30 -7 33 -9 11 -6 143 -18 219
-20 448 -9 875 241 1095 645 62 112 118 285 135 410 13 99 7 320 -11 406 -49
236 -156 440 -319 610 -194 202 -434 325 -720 369 -38 6 -215 14 -220 10z
m-103 -405 l0 -135 90 0 90 0 2 70 c1 39 2 101 2 138 l1 68 87 -3 88 -3 0
-135 0 -135 25 -3 c101 -10 188 -41 260 -93 56 -41 65 -51 96 -116 21 -44 25
-65 23 -125 -5 -148 -76 -241 -224 -293 -16 -5 -11 -10 30 -24 98 -35 160 -82
207 -157 75 -118 72 -297 -6 -398 -67 -88 -210 -146 -383 -155 -23 -1 -23 -3
-23 -130 0 -94 -3 -130 -12 -133 -7 -2 -47 -4 -88 -4 l-75 1 -5 135 -5 135
-75 -2 c-41 -1 -81 -2 -87 -2 -10 -1 -13 -34 -13 -130 0 -94 -3 -130 -12 -133
-7 -2 -47 -4 -88 -4 l-75 1 -3 133 c-2 95 -6 132 -15 132 -7 1 -76 1 -153 0
l-141 -1 0 59 1 60 75 1 c68 1 78 4 99 27 12 14 22 37 23 52 5 201 -4 940 -12
954 -14 26 -48 37 -120 40 -33 1 -63 6 -66 12 -7 11 -8 145 -1 152 3 2 73 5
157 6 l151 0 0 139 0 138 87 -2 88 -2 0 -135z"/>
<path d="M3444 3759 c1 -197 2 -215 19 -221 30 -13 228 -1 285 17 61 18 128
74 149 122 40 97 -8 211 -112 266 -34 18 -61 22 -191 25 l-150 4 0 -213z"/>
<path d="M3449 3371 c0 -30 0 -263 1 -394 l0 -88 148 2 c116 1 159 5 201 20
111 39 161 101 169 210 9 127 -46 211 -163 250 -60 20 -60 20 -212 23 l-143 3
-1 -26z"/>
<path d="M420 2010 c-25 -3 -55 -11 -67 -18 -30 -16 -53 -63 -53 -104 0 -73
-40 -46 860 -599 232 -142 308 -189 373 -230 133 -84 506 -313 529 -325 23
-12 388 -14 2402 -14 1580 0 2384 3 2401 10 61 23 89 101 60 164 -18 38 49 -5
-950 611 -319 197 -625 386 -680 420 -55 34 -111 68 -124 75 -19 10 -495 13
-2365 14 -1288 0 -2361 -1 -2386 -4z m4744 -293 c44 -27 92 -57 108 -66 15 -9
234 -144 487 -301 253 -157 487 -301 519 -320 32 -19 68 -42 80 -51 20 -15
-151 -16 -2090 -16 l-2112 0 -231 142 c-244 150 -765 472 -952 588 -62 38
-113 71 -113 72 0 1 950 3 2112 3 l2112 -1 80 -50z"/>
</g>
</svg>
