<?xml version="1.0" standalone="no"?>
<!DOCTYPE svg PUBLIC "-//W3C//DTD SVG 20010904//EN"
 "http://www.w3.org/TR/2001/REC-SVG-20010904/DTD/svg10.dtd">
<svg version="1.0" xmlns="http://www.w3.org/2000/svg"
 width="1000.000000pt" height="1000.000000pt" viewBox="0 0 1000.000000 1000.000000"
 preserveAspectRatio="xMidYMid meet">
<metadata>
Created by potrace 1.11, written by Peter Selinger 2001-2013
</metadata>
<g transform="translate(0.000000,1000.000000) scale(0.100000,-0.100000)"
fill="#000000" stroke="none">
<path d="M0 7843 l1 -2158 34 115 c51 177 100 300 186 476 405 825 1190 1409
2099 1564 377 64 792 50 1155 -39 351 -86 645 -216 935 -412 177 -120 272
-199 441 -369 l155 -156 65 74 c87 100 271 267 405 368 336 253 741 434 1154
517 225 45 301 52 580 51 223 0 288 -4 410 -22 647 -100 1200 -385 1650 -848
326 -337 558 -728 694 -1174 l35 -115 1 2143 0 2142 -5000 0 -5000 0 0 -2157z"/>
<path d="M2615 7834 c-271 -27 -428 -55 -611 -109 -639 -187 -1208 -608 -1570
-1160 -183 -280 -297 -536 -387 -875 l-42 -155 -3 -499 -3 -500 26 -124 c221
-1054 1032 -1899 2078 -2163 528 -133 1070 -114 1582 56 337 111 611 259 889
478 96 76 396 368 396 385 0 5 -21 35 -46 68 -26 32 -84 115 -130 184 -267
404 -421 853 -464 1355 -59 693 160 1430 587 1979 29 37 53 72 53 78 0 16
-301 311 -390 382 -412 327 -892 531 -1415 601 -115 16 -466 28 -550 19z m369
-1884 c215 -55 388 -198 486 -401 55 -116 73 -206 67 -349 -3 -91 -10 -132
-31 -195 -100 -294 -351 -487 -664 -510 -219 -17 -280 -68 -328 -273 -22 -93
-33 -122 -55 -144 -61 -62 -170 -18 -169 69 1 21 54 285 119 587 117 542 119
550 150 578 41 36 88 37 129 3 17 -14 33 -38 37 -53 3 -17 -16 -126 -49 -277
-68 -314 -66 -301 -41 -298 11 1 74 7 140 13 206 18 314 66 422 183 89 99 133
213 133 353 0 289 -234 524 -522 524 -232 0 -420 -129 -505 -346 -22 -59 -27
-85 -27 -174 0 -71 5 -122 16 -157 22 -68 10 -116 -35 -143 -69 -42 -137 -12
-162 72 -84 283 -9 560 207 763 89 84 213 152 323 179 91 22 266 20 359 -4z
m-106 -1684 c86 -45 102 -151 31 -210 -43 -36 -115 -36 -158 -1 -71 60 -60
169 22 209 40 19 70 20 105 2z"/>
<path d="M6955 7829 c-490 -45 -956 -213 -1355 -487 -181 -123 -360 -278 -489
-423 l-81 -89 74 -98 c287 -379 475 -829 551 -1322 22 -144 31 -514 16 -677
-50 -529 -246 -1039 -561 -1457 l-79 -105 80 -88 c938 -1029 2498 -1219 3663
-446 217 145 483 386 640 583 248 310 433 681 539 1080 l42 155 3 517 3 517
-27 118 c-96 431 -287 831 -560 1173 -87 109 -325 347 -434 434 -404 322 -882
526 -1410 601 -138 19 -476 27 -615 14z m333 -1818 c41 -11 76 -22 79 -25 3
-3 -10 -68 -29 -145 l-35 -140 66 -14 c36 -9 68 -14 69 -12 2 2 19 63 37 135
18 72 36 134 39 137 6 6 73 -7 148 -27 l36 -10 -34 -133 c-18 -72 -34 -139
-34 -148 0 -11 21 -24 62 -40 34 -13 94 -44 133 -70 111 -75 159 -157 157
-271 -2 -133 -59 -236 -158 -284 l-57 -28 24 -15 c52 -34 109 -95 131 -139 18
-38 22 -62 22 -127 -3 -189 -111 -349 -266 -396 -63 -19 -86 -21 -207 -16 -75
4 -147 9 -161 12 -25 6 -26 5 -60 -135 -19 -79 -40 -144 -46 -147 -11 -4 -161
31 -170 40 -3 2 11 67 30 143 19 76 33 141 30 144 -5 5 -128 40 -130 37 -1 -1
-16 -63 -34 -137 -18 -74 -36 -139 -40 -144 -8 -8 -148 20 -171 35 -9 5 -3 41
20 136 17 70 34 135 37 144 4 14 -25 24 -168 59 -95 24 -176 45 -180 49 -6 6
66 187 81 203 3 4 41 -2 84 -13 87 -22 107 -17 126 28 16 41 201 794 201 821
0 42 -48 78 -133 97 -42 10 -77 22 -77 27 0 10 42 181 45 186 2 2 295 -68 346
-84 13 -4 21 15 43 103 44 175 46 183 59 183 7 0 45 -9 85 -19z"/>
<path d="M7211 5315 c-22 -90 -41 -169 -41 -174 0 -5 40 -19 89 -30 96 -23
223 -27 268 -10 68 25 112 104 98 176 -8 44 -57 99 -116 129 -50 25 -208 74
-239 74 -14 0 -25 -30 -59 -165z"/>
<path d="M7111 4911 c-6 -20 -28 -107 -49 -193 l-40 -158 37 -10 c220 -58 362
-64 433 -17 107 73 104 207 -9 287 -50 36 -172 83 -285 109 l-78 18 -9 -36z"/>
<path d="M4924 6692 c-688 -934 -746 -2175 -148 -3163 58 -98 192 -287 217
-307 28 -23 222 262 346 508 135 270 225 554 272 861 33 207 33 609 1 814 -76
490 -250 908 -539 1298 -36 48 -68 87 -72 87 -3 -1 -38 -44 -77 -98z"/>
<path d="M1 2158 l-1 -2158 5000 0 5000 0 0 2143 -1 2142 -35 -115 c-103 -338
-271 -661 -494 -950 -106 -137 -382 -409 -525 -516 -407 -305 -842 -485 -1350
-561 -171 -25 -611 -25 -780 0 -333 50 -574 123 -860 261 -331 160 -657 401
-876 648 l-74 83 -155 -156 c-85 -86 -198 -190 -250 -231 -441 -349 -944 -554
-1505 -614 -298 -32 -677 -7 -970 65 -1026 251 -1841 1048 -2109 2061 -12 49
-14 -197 -15 -2102z"/>
</g>
</svg>
