<svg id="Layer_1" data-name="Layer 1" xmlns="http://www.w3.org/2000/svg" viewBox="0 0 560 330"><path d="M170,116.39a37,37,0,0,0-36.92,36.92,38.73,38.73,0,0,0,1.95,12,5.16,5.16,0,1,0,9.77-3.33,26.23,26.23,0,0,1-1.47-9.47,26.67,26.67,0,1,1,28.24,27.35s-5.18.29-7.72.68c-1.27.2-2.25.39-2.93.49a.39.39,0,0,1-.49-.49l.88-4.29,4.78-22.08a5.09,5.09,0,1,0-10-2.15s-11.53,53.73-11.62,54.31a5.09,5.09,0,1,0,10,2.15c.1-.58,1.66-7.72,1.66-7.72a13,13,0,0,1,10.94-10.15c1.17-.2,5.77-.49,5.77-.49A36.93,36.93,0,0,0,170,116.39Z"/><path d="M172.62,201.37a6.19,6.19,0,1,0,4.79,7.33A6.16,6.16,0,0,0,172.62,201.37Z"/><path d="M390,309a142.94,142.94,0,0,1-102.88-43.24c-2.74-2.8-5.4-5.75-7.91-8.76a145.51,145.51,0,0,1-11.5-15.92A143.64,143.64,0,0,1,246,165c0-79.41,64.6-144,144-144s144,64.6,144,144S469.42,309,390,309Zm0-286C311.71,23,248,86.7,248,165a141.65,141.65,0,0,0,32.76,90.73c2.47,3,5.09,5.88,7.8,8.64A141,141,0,0,0,390,307c78.3,0,142-63.71,142-142S468.32,23,390,23Z"/><path d="M428.81,154.89c1.62-10.85-6.64-16.68-17.93-20.57l3.66-14.7-8.94-2.23L402,131.7c-2.35-.59-4.76-1.14-7.16-1.69l3.59-14.4-8.94-2.23-3.67,14.69c-1.94-.44-3.85-.88-5.71-1.34v0l-12.33-3.08-2.38,9.56s6.63,1.52,6.49,1.61c3.63.91,4.28,3.3,4.17,5.2l-4.17,16.74a9.61,9.61,0,0,1,.93.3l-.95-.23-5.85,23.45a3.25,3.25,0,0,1-4.1,2.12c.09.13-6.5-1.62-6.5-1.62L351,191l11.64,2.9c2.17.54,4.29,1.11,6.38,1.64l-3.7,14.87,8.93,2.23,3.67-14.71c2.44.66,4.81,1.28,7.13,1.85l-3.66,14.64,8.95,2.23,3.7-14.84c15.25,2.89,26.72,1.72,31.55-12.07,3.89-11.11-.2-17.51-8.22-21.69,5.84-1.35,10.24-5.19,11.42-13.13Zm-20.44,28.65c-2.76,11.11-21.46,5.1-27.53,3.6l4.92-19.69C391.82,169,411.26,172,408.37,183.54Zm2.77-28.82c-2.52,10.11-18.09,5-23.14,3.72l4.46-17.86C397.5,141.84,413.77,144.19,411.14,154.72Z"/><path d="M170,309c-79.4,0-144-64.6-144-144S90.58,21,170,21s144,64.6,144,144S249.39,309,170,309Zm0-286C91.68,23,28,86.7,28,165s63.7,142,142,142S312,243.3,312,165,248.29,23,170,23Z"/></svg>