<svg xmlns="http://www.w3.org/2000/svg" viewBox="0 0 216.95 122.91"><g data-name="Layer 2"><g data-name="Layer 1"><path d="M108.47 101.25C95.82 115.4 80.16 123 61.17 122.88a59.29 59.29 0 01-43.58-18.49 61.48 61.48 0 1190.87-82.72C122.11 6.44 139.12-1.1 159.6.17c16.74 1 30.82 8.11 41.92 20.68a61.49 61.49 0 11-93.05 80.4zm-.72-78.69C94.25 5.9 69.73-3.83 44.88 3.29a60.48 60.48 0 1062.86 97.09c-18.2-22.04-18.64-55.22.01-77.82zm1.4 77.81A60.49 60.49 0 10167 2.07a60.45 60.45 0 00-57.81 20.44 61.53 61.53 0 01-.04 77.86zm-.65-.83a60.17 60.17 0 000-76.11c-17.75 20.78-18.5 54.11 0 76.11z"/><path d="M57.55 68.22c2.28-.22 4.45-.34 6.45-.78a11.27 11.27 0 10-13.38-7.8 4.63 4.63 0 01.26 1.55 2.21 2.21 0 01-2 2 2.26 2.26 0 01-2.43-1.66c-1.77-5.87-.75-11.22 3.43-15.72A14.94 14.94 0 0166.1 41.4c6.28 1.88 10 6.33 11.07 12.77a15.7 15.7 0 01-13.71 18c-1.13.13-2.27.17-3.39.38a5.27 5.27 0 00-4.37 4.12c-.27 1-.44 2.08-.67 3.12a2.25 2.25 0 11-4.4-.86q2.43-11.48 4.92-23a2.23 2.23 0 012.76-1.71 2.3 2.3 0 011.58 2.85q-1.08 5-2.17 10c-.07.31-.1.66-.17 1.15z"/><path d="M62.14 82.2a2.67 2.67 0 01-2.75-2.64 2.78 2.78 0 012.71-2.72 2.71 2.71 0 012.73 2.68 2.66 2.66 0 01-2.69 2.68zM138.72 72.56l1.92-4.45c.91.22 1.72.43 2.55.61 1.26.27 1.78 0 2.09-1.28 1.16-4.6 2.3-9.21 3.45-13.81.19-.79.41-1.58.59-2.38a2 2 0 00-1.53-2.59c-.95-.27-1.9-.49-2.91-.75l1-4.17 7.66 1.9 1.61-6.24 3.9.94c-.5 2.06-1 4-1.49 6.12l2.9.72c.52-2 1-4 1.56-6.07l3.9 1c-.53 2.13-1 4.14-1.52 6.18 1.12.52 2.2.94 3.22 1.49 2.2 1.18 4 2.71 4.39 5.38s-.77 6.43-4.14 7.45a2 2 0 00-.37.21c0 .07.06.14.11.17 3.34 2.21 4.29 4.5 3.33 8-1.15 4.22-3.62 6.48-7.37 6.69a30.86 30.86 0 01-3.19 0c-1-.06-2-.24-3.2-.38-.52 2-1 4-1.6 6.25l-3.92-1c.53-2.11 1-4.1 1.54-6.21l-2.91-.76c-.53 2.07-1 4-1.57 6.2l-3.92-.91c.52-2.13 1-4.18 1.56-6.35zm15.09-10.24c-.22.6-.32.83-.38 1.06-.57 2.3-1.15 4.6-1.69 6.91a.83.83 0 00.39.69 48.37 48.37 0 007.22 1.02c2.67 0 4.09-1.63 3.92-4a3.51 3.51 0 00-2.25-3c-2.32-.95-4.73-1.75-7.21-2.68zm.84-3.74a16.86 16.86 0 006.64 1 3.26 3.26 0 003-2.28 3.11 3.11 0 00-1.15-3.69c-1.93-1.52-4.26-1.95-6.65-2.43-.62 2.5-1.22 4.93-1.84 7.4z"/></g></g></svg>