<?xml version="1.0" encoding="utf-8"?>
<!-- Generator: Adobe Illustrator 24.1.3, SVG Export Plug-In . SVG Version: 6.00 Build 0)  -->
<svg version="1.1" id="Layer_1" xmlns="http://www.w3.org/2000/svg" xmlns:xlink="http://www.w3.org/1999/xlink" x="0px" y="0px"
	 viewBox="0 0 560 330" style="enable-background:new 0 0 560 330;" xml:space="preserve">
<style type="text/css">
	.st0{fill:currentColor;}
</style>
<path class="st0" d="M170,116.4c-20.4,0-36.9,16.5-36.9,36.9c0,4.1,0.7,8.1,1.9,12c0.9,2.7,3.9,4.1,6.6,3.2s4.1-3.9,3.2-6.6
	c-1.1-3-1.6-6.2-1.5-9.5c0.4-14.7,12.7-26.3,27.4-25.9c14.7,0.4,26.3,12.7,25.9,27.4c-0.4,13.8-11.3,25.1-25.1,25.9
	c0,0-5.2,0.3-7.7,0.7c-1.3,0.2-2.2,0.4-2.9,0.5c-0.2,0.1-0.4,0-0.5-0.3c0-0.1,0-0.2,0-0.2l0.9-4.3l4.8-22.1c0.6-2.8-1.2-5.5-3.9-6.1
	s-5.5,1.2-6.1,3.9c0,0-11.5,53.7-11.6,54.3c-0.6,2.8,1.2,5.5,3.9,6.1s5.5-1.2,6.1-3.9c0.1-0.6,1.7-7.7,1.7-7.7
	c1.1-5.3,5.5-9.4,10.9-10.1c1.2-0.2,5.8-0.5,5.8-0.5c20.3-1.7,35.4-19.6,33.7-39.9C205,131.2,189.1,116.5,170,116.4z"/>
<path class="st0" d="M172.6,201.4c-3.3-0.7-6.6,1.4-7.3,4.8c-0.7,3.3,1.4,6.6,4.8,7.3c3.3,0.7,6.6-1.4,7.3-4.8
	C178.1,205.4,176,202.1,172.6,201.4C172.7,201.4,172.6,201.4,172.6,201.4z"/>
<path class="st0" d="M390,309c-38.7,0.1-75.9-15.5-102.9-43.2c-2.7-2.8-5.4-5.8-7.9-8.8c-4.2-5-8-10.4-11.5-15.9
	C253.5,218.3,246,191.9,246,165c0-79.4,64.6-144,144-144s144,64.6,144,144S469.4,309,390,309z M390,23c-78.3,0-142,63.7-142,142
	c0,33.1,11.6,65.3,32.8,90.7c2.5,3,5.1,5.9,7.8,8.6c26.6,27.4,63.2,42.7,101.4,42.6c78.3,0,142-63.7,142-142S468.3,23,390,23z"/>
<path class="st0" d="M428.8,154.9c1.6-10.9-6.6-16.7-17.9-20.6l3.7-14.7l-8.9-2.2l-3.6,14.3c-2.4-0.6-4.8-1.1-7.2-1.7l3.6-14.4
	l-8.9-2.2l-3.7,14.7c-1.9-0.4-3.9-0.9-5.7-1.3l0,0l-12.3-3.1l-2.4,9.6c0,0,6.6,1.5,6.5,1.6c3.6,0.9,4.3,3.3,4.2,5.2l-4.2,16.7
	c0.3,0.1,0.6,0.2,0.9,0.3l-1-0.2l-5.9,23.4c-0.5,1.7-2.4,2.7-4.1,2.1c0,0,0,0,0,0c0.1,0.1-6.5-1.6-6.5-1.6L351,191l11.6,2.9
	c2.2,0.5,4.3,1.1,6.4,1.6l-3.7,14.9l8.9,2.2l3.7-14.7c2.4,0.7,4.8,1.3,7.1,1.9l-3.7,14.6l9,2.2l3.7-14.8
	c15.2,2.9,26.7,1.7,31.5-12.1c3.9-11.1-0.2-17.5-8.2-21.7C423.2,166.7,427.6,162.9,428.8,154.9L428.8,154.9z M408.4,183.5
	c-2.8,11.1-21.5,5.1-27.5,3.6l4.9-19.7C391.8,169,411.3,172,408.4,183.5z M411.1,154.7c-2.5,10.1-18.1,5-23.1,3.7l4.5-17.9
	C397.5,141.8,413.8,144.2,411.1,154.7L411.1,154.7z"/>
<path class="st0" d="M170,309c-79.4,0-144-64.6-144-144S90.6,21,170,21s144,64.6,144,144S249.4,309,170,309z M170,23
	C91.7,23,28,86.7,28,165s63.7,142,142,142s142-63.7,142-142S248.3,23,170,23z"/>
</svg>
