<svg version="1.0" xmlns="http://www.w3.org/2000/svg" width="666.667" height="666.667" viewBox="0 0 500 500"><path d="M388.7 27.6c-.1.1-7.4.5-16.2.9-8.8.3-17.1.8-18.5 1-1.4.1-6.6.6-11.4 1-4.9.4-9.6.8-10.5 1-.9.1-4.7.6-8.6.9-3.8.4-8.1.9-9.5 1.1-7.9 1.2-18.1 2.6-22 3-2.5.3-5.2.7-6 1-.8.2-4 .7-7 1-3 .4-5.7.8-6 1-.3.2-2.5.6-5 .9-3.9.5-12.4 2-23.5 4.1-10.2 1.9-33.6 6.7-36.5 7.5-1.9.5-4.6 1.1-6 1.4-1.4.3-3.6.8-5 1.1-1.4.3-3.6.8-5 1.1-1.4.3-7.7 1.9-14 3.5s-12.3 3.1-13.3 3.4c-15.3 3.6-52 15.3-69.7 22.2-43.6 17.2-59.5 31.7-49.8 45.8 2.8 4.1 12.1 8.7 20.5 10.1 1.6.2 3.9.6 5.3.9 12.9 2.4 65 2.4 80 .1 1.4-.3 6-.7 10.2-1 8.3-.7 13.7-1.3 20.8-2.3 2.5-.3 5.4-.7 6.5-.8 3.6-.4 12.9-1.5 15.5-2 3.8-.6 10.1-1.5 14-2 1.9-.3 4.6-.7 6-1 1.4-.3 4.5-.8 7-1.1 2.5-.3 5.4-.8 6.5-1 1.1-.2 3.4-.7 5-.9 1.7-.3 3.7-.8 4.5-1 .8-.2 3.8-.7 6.5-1.1 2.8-.3 5.3-.8 5.6-1 .3-.2 2.1-.6 4-.9 1.9-.3 5.4-1 7.9-1.5s5.6-1.2 7-1.4c6.7-1.2 25.1-5.6 60-14.1 17.5-4.3 50.2-14.9 69.8-22.7C446 70.7 462.2 57.3 458 44.4c-2.1-6.3-11.7-11.8-24.5-14-2.2-.4-4.9-.8-5.9-1-4.4-.8-38.3-2.3-38.9-1.8zm34.8 13.7c1.1.2 4.2.8 7 1.2 6.8 1 15.5 4.4 15.5 6 0 4.9-19.8 17-40.9 25.2-3.6 1.4-7.9 3.1-9.6 3.8-5.1 2.2-29.8 10.2-44.2 14.4-31 8.9-73.5 18.7-106.8 24.7-1.1.1-3.3.6-5 .9-6.4 1.1-27.2 4.4-31.5 5-2.5.3-5.6.8-7 1-3.2.5-7.9 1.2-15.5 2.1-3.3.3-6.8.8-7.8 1-.9.1-5.4.6-10 .9-4.5.4-8.9.8-9.7 1-.8.2-6.2.7-12 1.1-5.8.3-12.1.8-14 1-6 .6-42.2.6-48.5-.1-17.4-1.8-28.5-4.8-28.5-7.7.2-4.7 15.9-14.7 37-23.6 23-9.7 54.8-19.6 91.5-28.7 23.4-5.8 64.6-14.6 75-16 2.2-.3 6-1 8.5-1.5 4-.8 10.6-1.9 21-3.4 14.8-2.3 39.7-5.4 48.5-6.1 4.4-.4 8.7-.9 9.7-1 .9-.2 6.9-.7 13.5-1 6.5-.4 12-.8 12.2-1 .5-.5 49.3.2 51.6.8zM248.9 150.4c-.2.2-2.6.6-5.2.9-7.5.9-21 5.4-29.4 9.7-25.6 13.3-43.8 36.2-51.5 64.8-2.8 10.4-3.4 33.9-1.2 43.2.9 3.6 1.7 7.2 1.9 8.1 2.8 13.6 14.2 32.7 26.6 44.9 19.7 19.4 45.7 29.3 74.4 28.5 26-.7 47.5-10.2 66.5-29.4 13-13 20.6-25.7 25.4-42.2 3.2-11.1 3.7-14.5 4.1-26 .8-28-9.9-54.4-30.1-74.1-15-14.7-30.4-22.8-51.9-27.4-3.4-.7-28.9-1.6-29.6-1zM86 294.5V351h13l.2-19 .3-18.9 8 7.7c11.8 11.5 25 21.7 36.7 28.6 4.5 2.6 4.8 2.7 5.5.9.4-1 1.8-3.5 3.1-5.6 1.4-2 2.3-3.9 2.1-4.1-.2-.2-5.1-3.5-10.9-7.4-11.4-7.6-26.5-20.1-26.5-21.9 0-.7 5.4-6.9 12-13.9 13.9-14.6 14.6-15.4 16.3-17.6 1.2-1.4.5-1.6-7.3-1.6l-8.6.1-7.2 7.5c-4 4.1-9 9.4-11.3 11.8l-4 4.2-4.4-5-4.3-5-.1-26.7-.1-26.6-6.2-.3-6.3-.3v56.6zM372.9 357.4c-.2.2-5.8.7-12.4 1.1-6.6.3-13.6.8-15.5.9-10.4 1-17.9 1.8-21 2.2-8.8 1.2-10.8 1.4-15.5 1.9-2.7.3-6.1.8-7.5 1-1.4.2-4.5.7-7 1-2.5.3-9.9 1.5-16.5 2.6s-13.5 2.2-15.4 2.4c-1.8.2-4.1.7-5 .9-.9.3-3.4.8-5.6 1.1-2.3.3-5.2.8-6.5 1.1-1.4.2-5 .9-8 1.5s-14.7 3.1-26 5.5c-86.1 18.8-151.3 43.2-165.5 61.8-5.4 7-4.2 15.7 2.7 20.9 3.8 2.8 13.2 6.2 19.8 7.1 2.5.4 6.8 1 9.5 1.4 6.2.9 50.9.8 62.5-.1 4.7-.4 11.9-.9 16-1.2 4.1-.3 8.6-.8 10-1 1.4-.2 5.2-.7 8.5-1 3.3-.3 9.2-1 13-1.5 3.9-.5 9-1.2 11.5-1.5 8.9-1.2 21.3-3.1 25.5-3.9 1.1-.2 4.3-.7 7-1.1 2.8-.5 5.2-.9 5.5-1 .3 0 2.6-.4 5.1-.8 7-1.2 9.4-1.6 22.9-4.3 6.9-1.4 13.6-2.7 15-3 1.4-.2 8.6-1.8 16-3.5s14.2-3.2 15.2-3.4c.9-.2 8.8-2.2 17.5-4.5 67.6-17.7 110.7-35.3 124.3-50.7 8.5-9.7 5.7-20.6-6.6-25.8-4.6-1.9-14.6-4.3-21.4-5.1-6.3-.7-51.5-1.6-52.1-1zm47.6 13.1c12.6 1.2 25.5 5 25.5 7.4 0 .5-1.7 2.5-3.7 4.5-12.2 11.8-49.9 27.4-97.8 40.5-8.2 2.3-16.3 4.6-18 5.1-7.8 2.5-65.6 15-80.5 17.5-1.9.3-4.2.8-5 1-.8.2-3.3.7-5.5 1-2.3.3-5 .7-6 .9-1.1.2-4 .7-6.5 1.1-2.5.4-5.2.8-6 1-.8.1-3.7.6-6.5.9-2.7.4-6.1.9-7.5 1.1-2.6.4-10.1 1.4-15.7 2-1.7.2-4.9.6-7 .9-8 1.1-23.4 2.7-28.8 3.1-1.6.1-8.4.6-15 1-20.9 1.5-55.1 1-64.5-.9-.8-.1-3.3-.6-5.5-1.1-4.5-.9-12.5-4.4-12.5-5.4s6.9-7.3 10.5-9.8c4.9-3.3 15.4-8.6 25-12.7 5-2.2 10.4-4.5 12-5.2 3.8-1.6 38.6-13.3 41.1-13.8 1.1-.3 7.8-2.1 14.9-4.1 11.2-3.2 53.8-13.7 60.2-14.9 1.9-.4 9.1-1.8 20.3-4.1 7-1.5 47.2-8.4 51.9-9 3-.4 6.1-.8 7-1 .9-.1 4.3-.6 7.6-1 3.2-.4 6.7-.8 7.7-1 .9-.2 4.3-.6 7.5-1 3.2-.3 7.4-.7 9.3-1 12.5-1.5 20.6-2.2 35.5-3.1 6.1-.3 11.1-.7 11.2-.8.6-.5 38.3.2 44.8.9z"/></svg>