<?xml version="1.0" standalone="no"?>
<!DOCTYPE svg PUBLIC "-//W3C//DTD SVG 20010904//EN"
 "http://www.w3.org/TR/2001/REC-SVG-20010904/DTD/svg10.dtd">
<svg version="1.0" xmlns="http://www.w3.org/2000/svg"
 width="500.000000pt" height="500.000000pt" viewBox="0 0 500.000000 500.000000"
 preserveAspectRatio="xMidYMid meet">
<metadata>
Created by potrace 1.14, written by Peter Selinger 2001-2017
</metadata>
<g transform="translate(0.000000,500.000000) scale(0.100000,-0.100000)"
fill="#000000" stroke="none">
<path d="M3887 4724 c-1 -1 -74 -5 -162 -9 -88 -3 -171 -8 -185 -10 -14 -1
-66 -6 -114 -10 -49 -4 -96 -8 -105 -10 -9 -1 -47 -6 -86 -9 -38 -4 -81 -9
-95 -11 -79 -12 -181 -26 -220 -30 -25 -3 -52 -7 -60 -10 -8 -2 -40 -7 -70
-10 -30 -4 -57 -8 -60 -10 -3 -2 -25 -6 -50 -9 -39 -5 -124 -20 -235 -41 -102
-19 -336 -67 -365 -75 -19 -5 -46 -11 -60 -14 -14 -3 -36 -8 -50 -11 -14 -3
-36 -8 -50 -11 -14 -3 -77 -19 -140 -35 -63 -16 -123 -31 -133 -34 -153 -36
-520 -153 -697 -222 -436 -172 -595 -317 -498 -458 28 -41 121 -87 205 -101
16 -2 39 -6 53 -9 129 -24 650 -24 800 -1 14 3 60 7 102 10 83 7 137 13 208
23 25 3 54 7 65 8 36 4 129 15 155 20 38 6 101 15 140 20 19 3 46 7 60 10 14
3 45 8 70 11 25 3 54 8 65 10 11 2 34 7 50 9 17 3 37 8 45 10 8 2 38 7 65 11
28 3 53 8 56 10 3 2 21 6 40 9 19 3 54 10 79 15 25 5 56 12 70 14 67 12 251
56 600 141 175 43 502 149 698 227 382 151 544 285 502 414 -21 63 -117 118
-245 140 -22 4 -49 8 -59 10 -44 8 -383 23 -389 18z m348 -137 c11 -2 42 -8
70 -12 68 -10 155 -44 155 -60 0 -49 -198 -170 -409 -252 -36 -14 -79 -31 -96
-38 -51 -22 -298 -102 -442 -144 -310 -89 -735 -187 -1068 -247 -11 -1 -33 -6
-50 -9 -64 -11 -272 -44 -315 -50 -25 -3 -56 -8 -70 -10 -32 -5 -79 -12 -155
-21 -33 -3 -68 -8 -78 -10 -9 -1 -54 -6 -100 -9 -45 -4 -89 -8 -97 -10 -8 -2
-62 -7 -120 -11 -58 -3 -121 -8 -140 -10 -60 -6 -422 -6 -485 1 -174 18 -285
48 -285 77 2 47 159 147 370 236 230 97 548 196 915 287 234 58 646 146 750
160 22 3 60 10 85 15 40 8 106 19 210 34 148 23 397 54 485 61 44 4 87 9 97
10 9 2 69 7 135 10 65 4 120 8 122 10 5 5 493 -2 516 -8z"/>
<path d="M2489 3496 c-2 -2 -26 -6 -52 -9 -75 -9 -210 -54 -294 -97 -256 -133
-438 -362 -515 -648 -28 -104 -34 -339 -12 -432 9 -36 17 -72 19 -81 28 -136
142 -327 266 -449 197 -194 457 -293 744 -285 260 7 475 102 665 294 130 130
206 257 254 422 32 111 37 145 41 260 8 280 -99 544 -301 741 -150 147 -304
228 -519 274 -34 7 -289 16 -296 10z"/>
<path d="M860 2055 l0 -565 65 0 65 0 2 190 3 189 80 -77 c118 -115 250 -217
367 -286 45 -26 48 -27 55 -9 4 10 18 35 31 56 14 20 23 39 21 41 -2 2 -51 35
-109 74 -114 76 -265 201 -265 219 0 7 54 69 120 139 139 146 146 154 163 176
12 14 5 16 -73 16 l-86 -1 -72 -75 c-40 -41 -90 -94 -113 -118 l-40 -42 -44
50 -43 50 -1 267 -1 266 -62 3 -63 3 0 -566z"/>
<path d="M3729 1426 c-2 -2 -58 -7 -124 -11 -66 -3 -136 -8 -155 -9 -104 -10
-179 -18 -210 -22 -88 -12 -108 -14 -155 -19 -27 -3 -61 -8 -75 -10 -14 -2
-45 -7 -70 -10 -25 -3 -99 -15 -165 -26 -66 -11 -135 -22 -154 -24 -18 -2 -41
-7 -50 -9 -9 -3 -34 -8 -56 -11 -23 -3 -52 -8 -65 -11 -14 -2 -50 -9 -80 -15
-30 -6 -147 -31 -260 -55 -861 -188 -1513 -432 -1655 -618 -54 -70 -42 -157
27 -209 38 -28 132 -62 198 -71 25 -4 68 -10 95 -14 62 -9 509 -8 625 1 47 4
119 9 160 12 41 3 86 8 100 10 14 2 52 7 85 10 33 3 92 10 130 15 39 5 90 12
115 15 89 12 213 31 255 39 11 2 43 7 70 11 28 5 52 9 55 10 3 0 26 4 51 8 70
12 94 16 229 43 69 14 136 27 150 30 14 2 86 18 160 35 74 17 142 32 152 34 9
2 88 22 175 45 676 177 1107 353 1243 507 85 97 57 206 -66 258 -46 19 -146
43 -214 51 -63 7 -515 16 -521 10z m476 -131 c126 -12 255 -50 255 -74 0 -5
-17 -25 -37 -45 -122 -118 -499 -274 -978 -405 -82 -23 -163 -46 -180 -51 -78
-25 -656 -150 -805 -175 -19 -3 -42 -8 -50 -10 -8 -2 -33 -7 -55 -10 -23 -3
-50 -7 -60 -9 -11 -2 -40 -7 -65 -11 -25 -4 -52 -8 -60 -10 -8 -1 -37 -6 -65
-9 -27 -4 -61 -9 -75 -11 -26 -4 -101 -14 -157 -20 -17 -2 -49 -6 -70 -9 -80
-11 -234 -27 -288 -31 -16 -1 -84 -6 -150 -10 -209 -15 -551 -10 -645 9 -8 1
-33 6 -55 11 -45 9 -125 44 -125 54 0 10 69 73 105 98 49 33 154 86 250 127
50 22 104 45 120 52 38 16 386 133 411 138 11 3 78 21 149 41 112 32 538 137
602 149 19 4 91 18 203 41 70 15 472 84 519 90 30 4 61 8 70 10 9 1 43 6 76
10 32 4 67 8 77 10 9 2 43 6 75 10 32 3 74 7 93 10 125 15 206 22 355 31 61 3
111 7 112 8 6 5 383 -2 448 -9z"/>
</g>
</svg>
