<svg version="1.0" xmlns="http://www.w3.org/2000/svg" width="933.333" height="933.333" viewBox="0 0 700 700"><path d="M536.7 38.6c-.1.1-7.4.4-16.2.8-8.8.4-17.3.9-19 1.1-1.6.2-7 .6-12 1-9.8.6-14.5 1.1-27.5 2.5-4.7.6-10.6 1.2-13.2 1.5-2.6.3-6.2.7-8 1-1.8.2-7.1.9-11.8 1.5-4.7.6-9.6 1.3-11 1.5-1.4.2-4.5.6-7 1-2.5.3-8.5 1.2-13.5 2-4.9.8-10.8 1.7-13 2-2.2.3-8.9 1.5-15 2.5-6 1.1-12.1 2.1-13.5 2.4-1.4.2-9.9 1.8-19 3.6-9.1 1.7-17.6 3.4-19 3.6-1.4.3-3.2.7-4 .9-.8.2-3 .7-4.7 1-1.8.3-6.3 1.2-10 2.1-3.8.9-7.7 1.8-8.8 2-4.8.9-13.7 3-39.5 9.4-80.5 20-140.8 41.9-170.9 62-21 14.1-26.5 28.4-15.4 40.1 5.2 5.5 17.3 10.6 29.3 12.4 1.9.3 4.5.7 5.5.9 16.8 3.2 65.8 3.8 97.5 1.1 1.9-.1 7.6-.6 12.5-.9 5-.4 10.6-.9 12.5-1.1 1.9-.3 6.2-.7 9.5-1 3.3-.3 8.3-.8 11-1.1 2.8-.4 6.1-.8 7.5-.9 7.1-.7 15.7-1.8 17.5-2.1 1.1-.2 4.3-.6 7-.9 2.8-.3 9.1-1.2 14-2 5-.7 11-1.7 13.5-2 2.5-.3 5.2-.8 6-1 .8-.2 3.5-.6 6-.9 2.5-.3 5.5-.8 6.6-1 1.2-.2 3.9-.7 6-1 3.8-.6 23.4-4.1 28.4-5.1 1.4-.3 5-.9 8-1.5 7.1-1.3 9.9-1.8 13-2.5 1.4-.3 3.6-.8 5-1.1 3.2-.6 6.4-1.3 9.3-1.8 1.2-.2 6.5-1.4 11.7-2.6 5.2-1.2 10.4-2.3 11.5-2.5 1.1-.3 3.1-.7 4.5-1 1.4-.3 3.4-.7 4.5-.9 1.5-.4 25.2-6.2 36.5-9 8.2-2.1 17-4.5 30.5-8.3 8.8-2.5 16.5-4.6 17-4.7.6-.2 1.7-.6 2.5-.9.8-.3 7.6-2.4 15-4.7 55.5-17.3 96.5-36.9 110.7-52.9 7.1-8.1 8.6-18.3 3.7-25.4-7.1-10-22.6-15.3-54.2-18.3-5.7-.5-46.9-1.3-47.5-.8zm47.2 17.8c4.1.3 8.6.8 10 1 1.5.3 4.6.7 7.1 1.1 7.5 1.1 20.6 5.3 22.3 7.3 1.6 1.7 1.5 2-.7 5S610.7 81.6 605 84.9c-24.4 14.3-76.3 33.6-128 47.6-25.5 6.8-57.8 14.9-64.7 16.1-1.5.3-4.4.9-6.3 1.4-6.2 1.6-46.6 9.9-51.5 10.6-1.6.2-5.2.8-8 1.4-2.7.5-6.3 1.2-8 1.5-1.6.3-4.1.7-5.5 1-6.6 1.1-27.4 4.5-34.5 5.5-4.4.7-8.9 1.4-10 1.6-1.1.2-4.4.6-7.3 1-2.9.3-6.2.7-7.4.9-1.1.3-4.6.7-7.7 1.1-3.1.3-6.3.8-7.1.9-2.3.4-13.3 1.7-26.5 3-3.8.3-8.7.8-10.7 1.1-3.8.4-13.1 1.2-22.8 1.9-31.5 2.4-74.1 2.4-93 0-15.3-2-30-7-30-10.2 0-2.4 6.3-8.4 14.5-13.8 9.8-6.6 30.5-16.7 47-23 6.6-2.5 12.9-5 14-5.5 5-2.4 53.7-17.7 72-22.6 5.8-1.6 52.6-13.4 54.5-13.8 1.4-.3 8.8-1.9 16.5-3.6 12.7-2.8 43.8-9.2 59-12 3.3-.6 6.9-1.3 8-1.5 6-1.2 49.6-8.1 57.5-9.1 3.3-.4 15.6-2 22.5-2.9 6.5-.9 29.4-3.4 36-4 3.9-.3 8.6-.8 10.5-1 4.8-.6 15.1-1.3 30.5-2.1 7.2-.3 13.1-.7 13.2-.8.5-.4 45.6.2 52.2.8zM339.9 209.5c-.2.1-3.3.6-6.9.9-18.1 1.8-40.9 10.6-59 22.7-10.1 6.7-26.2 22-33.2 31.4-12.2 16.3-20.3 33.8-24.9 53.5-2.6 11.3-3.1 15.3-3.3 29.4-1 58.3 34.7 111.5 88.9 132.5 17.4 6.8 28.8 9 48.5 9.6 34 .9 64.2-8.9 89-29 39.8-32.1 58.8-77 53.7-127-3.6-35.4-22.1-69.4-50.2-92.4-26.7-21.9-54.7-31.9-88.6-32-7.5 0-13.8.2-14 .4zM540.7 499.6c-.1.1-8.5.5-18.6.9-10.2.4-19.2.8-20.1 1-.8.2-6.3.6-12 1s-11.3.9-12.4 1.1c-1.1.2-5.4.6-9.5.9-4.2.3-8.3.7-9.1 1-.8.2-4.6.6-8.5 1-3.8.3-8.1.8-9.5 1-6.1.9-10.8 1.5-15 2-2.5.3-5.6.8-7 1-1.4.2-5 .7-8 1-3 .3-6.2.8-7 1-.8.2-3.5.7-6 1-2.5.3-7 1-10 1.5s-7.3 1.2-9.5 1.5c-2.2.4-4.7.8-5.5 1-.8.2-3.5.7-6 1-2.5.3-5.2.8-6 1-.8.2-3.1.7-5 1-1.9.3-10.7 1.9-19.5 3.6-8.8 1.7-17.1 3.3-18.5 3.5-7.2 1.3-45.1 9.9-61.1 13.9-10.1 2.5-19.1 4.8-19.9 4.9-7.9 1.9-36.1 9.9-53.2 15.2-58.5 18-100.2 37.1-116.1 53-12.4 12.4-12 25.7.9 34.3 7.3 4.8 18.2 7.9 37.5 10.5 17.3 2.4 59.6 2.5 92.4.1 10.1-.7 21.1-1.6 24-2 1.7-.2 6.2-.6 10-1 3.9-.3 8.1-.7 9.5-.9 1.4-.3 5.4-.7 9-1.1 3.6-.3 7.4-.8 8.5-1 1.1-.2 4.3-.7 7-1 10-1.1 21.3-2.7 33.5-4.6 6.9-1.1 14.1-2.2 16-2.5 1.9-.3 9.6-1.6 17-2.9 7.4-1.4 15.3-2.7 17.5-3.1 3.2-.4 55.5-11.1 64-12.9 24.3-5.4 85.7-21.5 93.5-24.6 1.4-.5 3.5-1.1 4.7-1.4 1.2-.2 11-3.3 21.6-6.8 79.7-26.7 115.5-51.4 104.8-72.4-2.4-4.7-7.8-9.7-12.9-11.9-6-2.6-19.9-6.3-26.4-6.9-3.2-.4-6.7-.8-7.6-1-5.5-1-50.6-2.7-51.5-1.9zm41.8 17.9c3.3.3 8.3.8 11 1.1 12.5 1.3 28.8 6.2 29.9 9.1 1.5 3.9-10.7 14.1-27.2 22.6-28.9 15-63.8 27.4-125.2 44.7-15.9 4.5-64.5 16.3-76 18.4-1.4.2-5.7 1.1-9.5 2-3.9.8-8.2 1.7-9.5 1.9-1.4.3-7.7 1.5-14 2.7-13 2.5-11.7 2.3-23 4.4-11 2-13.4 2.4-18.9 3.2-2.5.4-5.5.8-6.6 1-2.6.5-12.8 2.1-18 2.9-2.3.3-5.2.8-6.5 1-1.4.3-4.7.7-7.5 1-2.7.3-6.1.7-7.5 1-1.4.2-4.5.7-7 1-2.5.3-6.1.7-8 1-8.6 1.1-11.9 1.5-17 2-3 .3-7.1.7-9 1-1.9.3-6.2.7-9.5 1-3.3.2-8.9.7-12.5 1-13.2 1.2-16.8 1.4-30.5 2.1-51.8 2.7-94.8-1.2-103.7-9.3-1.7-1.5-1.7-1.8-.2-4.1 4.9-7.4 23.7-19.3 43.9-27.8 2.8-1.2 7.7-3.3 11-4.7 17-7.3 46.6-17.3 78-26.3 16.5-4.8 50.3-13.7 56-14.8 1.1-.2 4.8-1.1 8.2-2 3.5-.9 8.4-2.1 11-2.6 2.7-.5 8.9-1.9 13.8-3 5-1.1 14.6-3.2 21.5-4.6 6.9-1.4 13.4-2.7 14.5-3 1.1-.2 5.8-1.1 10.5-1.9 4.7-.8 9.6-1.7 11-2 6.2-1.1 25.8-4.5 29-5 1.9-.3 4.6-.7 6-1 1.4-.2 4.5-.7 7-1 2.5-.3 5.2-.8 6-1 .8-.2 3.5-.6 6-.9 5.7-.7 11.6-1.5 15.5-2 1.7-.3 5.3-.8 8-1.1 2.8-.4 6.1-.8 7.5-1 1.4-.2 5.2-.7 8.5-1 3.3-.4 7.1-.8 8.5-1 1.4-.2 5.7-.7 9.5-1.1 3.9-.3 8.4-.8 10-.9 3.5-.4 18.3-1.7 24-2.1 2.2-.1 11-.6 19.5-1 8.5-.3 15.6-.7 15.7-.8.6-.5 40.4.3 45.8.9z"/></svg>